<?xml version="1.0" encoding="UTF-8"?>
<svg width="89px" height="90px" viewBox="0 0 89 90" version="1.1" xmlns="http://www.w3.org/2000/svg" xmlns:xlink="http://www.w3.org/1999/xlink">
    <title>Group 3</title>
    <defs>
        <polygon id="path-1" points="0 0 65 0 65 62 0 62"></polygon>
    </defs>
    <g id="R5---Dev-Facing" stroke="none" stroke-width="1" fill="none" fill-rule="evenodd">
        <g id="Homepage---Desktop" transform="translate(-1225, -1176)">
            <g id="Group-3" transform="translate(1269.5, 1221) scale(-1, 1) rotate(-35) translate(-1269.5, -1221)translate(1237, 1190)">
                <mask id="mask-2" fill="white">
                    <use xlink:href="#path-1"></use>
                </mask>
                <g id="Clip-2"></g>
                <path d="M63.6189323,57.9773167 C55.7283781,57.8366215 49.5636873,50.1567272 51.9222952,43.6019734 C52.477389,42.0591704 49.7149017,41.3990824 49.1622119,42.9353561 C47.6570398,47.1180898 48.9621955,51.5937982 51.9016204,54.9786974 C32.2838978,48.000173 16.2931568,33.8346087 8.00281007,16.8007999 C5.52856768,11.7168165 3.78299113,6.36239498 2.78146628,0.907296339 C2.4896153,-0.6818434 -0.269025523,-0.00743313563 0.0213830272,1.57391361 C3.69644553,21.5918088 17.6478358,39.7427544 36.8948547,50.8717875 C42.2729422,53.9814043 48.0726991,56.5031763 54.1412281,58.3994023 C54.7557018,58.5914892 55.245646,58.4120396 55.5471132,58.0769407 C55.7346286,58.1936251 55.9243077,58.3075713 56.1173525,58.4168839 C50.0192537,58.7743087 43.9209146,59.1315229 37.8228158,59.4889477 C35.9945402,59.5961541 35.9810775,62.104657 37.8228158,61.9966081 C46.4216014,61.4928013 55.0201467,60.9889945 63.6189323,60.4849771 C65.4419191,60.378192 65.4787009,58.0105949 63.6189323,57.9773167" id="Fill-1" fill="#FFFFFF" mask="url(#mask-2)"></path>
            </g>
        </g>
    </g>
</svg>