<?xml version="1.0" encoding="UTF-8"?>
<svg width="103px" height="100px" viewBox="0 0 103 100" version="1.1" xmlns="http://www.w3.org/2000/svg" xmlns:xlink="http://www.w3.org/1999/xlink">
    <title>bacteria-1</title>
    <defs>
        <filter x="-3.6%" y="-2.6%" width="107.2%" height="107.4%" filterUnits="objectBoundingBox" id="filter-1">
            <feOffset dx="0" dy="1" in="SourceAlpha" result="shadowOffsetOuter1"></feOffset>
            <feGaussianBlur stdDeviation="1" in="shadowOffsetOuter1" result="shadowBlurOuter1"></feGaussianBlur>
            <feColorMatrix values="0 0 0 0 0   0 0 0 0 0   0 0 0 0 0  0 0 0 0.35 0" type="matrix" in="shadowBlurOuter1" result="shadowMatrixOuter1"></feColorMatrix>
            <feMerge>
                <feMergeNode in="shadowMatrixOuter1"></feMergeNode>
                <feMergeNode in="SourceGraphic"></feMergeNode>
            </feMerge>
        </filter>
        <polygon id="path-2" points="0 0 97.2392002 0 97.2392002 94.531645 0 94.531645"></polygon>
    </defs>
    <g id="Asset-Guide" stroke="none" stroke-width="1" fill="none" fill-rule="evenodd">
        <g id="Illustrations" transform="translate(-116, -413)">
            <g id="bacteria-1" filter="url(#filter-1)" transform="translate(118.8746, 414.7537)">
                <g id="Group-3" transform="translate(-0, -0)">
                    <mask id="mask-3" fill="white">
                        <use xlink:href="#path-2"></use>
                    </mask>
                    <g id="Clip-2"></g>
                    <path d="M34.6707087,2.00712808 C23.4850717,-0.491784961 28.5266899,3.63451939 24.8692891,6.23049765 C23.2985754,7.34571504 20.8306069,6.30691069 19.2681819,7.97147591 C18.460031,8.83060634 17.8176547,11.0713672 16.9349052,11.6971281 C15.5361826,12.6904976 13.3002985,12.5851716 12.0341954,13.9337585 C10.9794549,15.0551716 11.7047185,16.721802 10.8675571,17.909302 C9.69055789,19.5800629 7.83388306,20.4763672 6.66517256,22.1347368 C5.5710606,23.6898455 6.71283274,26.3085411 5.49853424,27.6013672 C4.29874101,28.8776716 2.91245143,30.1725629 2.46486018,32.0725629 C2.05664037,33.8176716 3.09273124,35.6102803 2.69901671,37.2913672 C2.25142546,39.1934324 0.40511153,40.2301716 0.13158354,42.2623455 C-0.255914445,45.1495194 0.212398628,56.5681063 1.53237839,58.9100629 C2.36953982,60.3949542 4.00034684,60.9711498 4.79813681,62.387889 C5.4695237,63.5795194 5.02400462,65.7624542 5.49853424,67.1089759 C6.03315713,68.6248455 7.81523342,68.8189759 8.5322083,70.0911498 C9.13106882,71.1547368 9.26368846,72.4991933 9.93300316,73.5710411 C11.2488386,75.6713672 13.5986926,74.7399542 15.0678695,76.3033237 C16.2904567,77.6064759 16.6054284,79.9298455 17.867387,81.274302 C19.0692524,82.5506063 20.8761949,82.6538672 22.3018559,83.2610411 C23.8746419,83.9301716 25.0557855,86.7409324 26.7363249,87.734302 C28.5266899,88.7916933 32.8451166,91.5694107 34.6707087,91.9576716 C36.5999099,92.3686498 38.7839895,91.7263672 40.7380569,91.9576716 C43.0402508,92.2302803 45.083422,93.8597368 47.2737181,94.4421281 C48.9936289,94.9006063 51.0906768,93.4487585 52.8727531,93.4487585 C54.2694036,93.4487585 56.2421206,94.2521281 57.5413786,93.9464759 C59.895377,93.3888672 61.4122141,91.0510411 63.6087267,90.4665846 C68.1032889,89.2708237 70.8800124,88.2877803 74.8109412,85.4976716 C76.2055195,84.5084324 78.0642665,84.7645194 79.4774944,83.5088672 C80.7705358,82.3626716 81.1808278,80.2065846 82.0449276,79.2854976 C83.3669796,77.8790846 85.5324095,77.8088672 86.9456374,76.0554976 C93.1870488,68.3026716 94.9711973,60.4775629 96.2808161,50.7090846 C96.48389,49.1952803 97.4039386,48.1027803 97.2153701,46.485715 C96.9086872,43.8835411 95.9865663,41.3804976 95.5804187,38.7824542 C95.2240035,36.4983237 96.6123652,34.4083237 95.8145753,32.0725629 C94.9732695,29.6108237 92.7809012,28.6814759 91.6142629,26.6059324 C90.2756335,24.2329976 90.7667405,21.2776716 89.2789141,18.9047368 C87.7600048,16.4781063 84.7387639,16.1290846 82.745325,14.4314759 C80.7829689,12.7586498 79.9126526,9.69386721 77.6104587,8.46712808 C76.0459615,7.63484547 74.3094732,8.75212808 72.7097489,8.46712808 C70.3826888,8.0540846 68.7042216,4.51636721 66.1761599,3.74604113 C63.4118694,2.90549765 60.1896268,4.45234547 57.5413786,3.74604113 C55.8193955,3.28756287 55.2101741,1.37517156 53.3410662,1.01375852 C52.6240913,0.875388952 50.7031788,0.516041126 49.8390791,0.516041126 C48.6309971,0.516041126 48.0114148,2.43462808 46.805405,2.00712808 C46.0138316,1.72625852 45.5890343,0.580062865 44.7062849,0.268215039 C42.0476757,-0.675589309 36.7905507,1.10462808 34.6707087,2.00712808" id="Fill-1" fill="#FFAB01" mask="url(#mask-3)"></path>
                </g>
                <path d="M36.4791017,2.86171504 C31.636413,2.85964982 28.4970577,7.39693243 24.9287607,9.76986721 C23.9092473,10.4472585 22.3696163,9.95573678 21.2982983,10.7549759 C19.6840688,11.9610629 19.0852082,14.7470411 17.6678359,15.6908455 C15.7614287,16.9568237 13.1173248,17.3657368 11.7268909,19.3091063 C11.5673329,19.5321498 6.471838,31.7066063 6.44489964,31.807802 C6.07605129,33.2844324 7.04790452,34.3955194 6.77644872,35.7544324 C6.45318837,37.3591063 4.16549973,39.5151933 3.47546321,41.3470411 C2.86624178,42.9661716 4.43902772,45.2420411 5.12491987,46.609215 C6.21695965,48.783889 3.90026047,51.5905194 4.46596608,53.8457368 C4.92184606,55.6610629 7.41675287,55.7436716 7.76487941,57.1356281 C8.11093376,58.5089976 7.11628652,60.8468237 8.09642848,62.0694324 C10.0732899,64.5311716 14.7481319,65.5059542 17.00681,68.3187803 C17.5497216,68.9941063 17.1456461,70.7743237 17.6678359,71.6086716 C19.6612748,74.7891063 22.2805125,73.7089976 24.5972117,75.555302 C26.037378,76.7014976 25.1111127,78.3247585 27.2371712,79.5019324 C30.6334771,81.3812803 33.2941584,77.8580194 36.1496248,77.8580194 C37.0075081,77.8580194 37.4136557,79.0269324 38.1285584,79.5019324 C40.4867012,81.0694324 45.1014499,79.3119324 47.6999658,79.830302 C48.2988264,79.9500846 48.9992238,81.0735629 49.6809716,80.8174759 C50.6921963,80.4395411 51.6391833,78.9195411 52.650408,78.5147585 C54.8593537,77.6349759 57.6920262,79.2871498 59.9113328,78.8451933 C62.9740174,78.233889 70.7985757,74.6796498 73.4426796,72.924215 C74.986455,71.897802 74.826897,69.5723672 76.0826391,68.3187803 C76.5675296,67.8355194 78.3371728,67.5381281 79.0541477,67.0032368 C81.3977853,65.2498672 81.702396,61.228889 82.6846101,58.7795411 C83.5590708,56.5986716 86.8414067,55.729215 87.3055754,53.1869324 C88.7519582,45.2523672 87.666135,27.7868237 82.3551332,21.6097585 C81.5677042,20.6948672 79.752473,20.663889 79.0541477,19.9658455 C78.0636448,18.9786716 78.6272783,16.6883455 77.073142,15.3604107 C74.7087826,13.3406281 69.8847435,13.1299759 68.1627605,11.4137803 C66.7681822,10.023889 65.545595,7.06236721 63.2123183,6.47997591 C61.8508949,6.14128026 59.1674196,6.76704113 57.9323993,6.15160634 C56.469439,5.4225846 55.9617544,3.74149765 54.3019369,3.1900846 C52.5177884,2.59943243 48.7484898,4.69975852 47.6999658,4.17725852 C44.0922974,2.38051939 40.5737328,2.18225852 36.4791017,2.86171504 Z" id="Fill-4" fill="#FFBB00"></path>
                <path d="M42.4198396,5.82220417 C37.9646488,5.32861721 37.8693285,4.95068243 32.1894783,7.46611721 C30.3742471,8.26948678 29.5806015,11.472639 27.8979899,12.7303563 C25.4693929,14.5456824 21.9197456,13.9612259 19.3170854,15.6898129 C17.0148915,17.220139 17.4168947,20.175465 16.0160999,22.2695955 C14.9655037,23.8391607 11.3972068,25.0183998 11.3972068,27.2033998 C11.3972068,28.3661172 13.8672474,32.9632911 13.0466634,33.7811172 C9.17790013,37.6368781 8.0920769,37.702965 9.08672414,43.6487259 C9.5218823,46.2612259 14.0371663,47.7894868 14.0371663,49.5697042 C14.0371663,52.5436172 11.6355077,54.2308998 12.7171865,57.4650303 C13.7864323,60.6619868 18.4405525,59.6066607 19.6465623,61.4116607 C20.8380668,63.1918781 19.1720326,66.221552 21.9570449,67.332639 C24.6218706,68.3941607 27.3758001,67.4875303 29.8789957,68.3177476 C34.9703462,70.0112259 35.8903949,76.4712259 43.0808655,69.3049216 C43.1741137,69.2119868 45.8928162,70.5543781 46.050302,70.620465 C47.9960806,71.4527476 50.2879136,71.684052 52.3207239,71.2792694 C55.1430354,70.7175303 55.0663647,69.0880737 57.2711661,67.9893781 C60.0810445,66.5891607 63.7550227,68.7349216 66.5130966,66.6738346 C68.6909596,65.0464433 67.3419693,62.5578563 68.8235793,61.0832911 C69.6379467,60.2695955 71.5899419,60.2985085 72.4540417,59.4373129 C73.9149298,57.9813346 73.0984902,54.8483998 74.1034983,53.8467694 C75.7218723,52.2317694 76.5320953,54.8091607 77.7339607,51.2136172 C78.7203192,48.2644868 77.0915844,43.611552 78.3949867,41.017639 C79.7149665,38.3844868 80.6930362,39.545139 80.3739203,35.4250303 C80.0237215,30.8960085 76.3787539,29.4689433 73.7740214,26.872965 C73.2746256,26.3773129 75.2038268,25.3364433 75.4234781,24.9006824 C75.8379144,24.0766607 75.7653881,22.4058998 75.4234781,21.6107911 C73.4134618,16.9372042 68.6557325,17.8273129 66.8425735,16.0181824 C63.0753471,12.2636172 61.8320381,8.53176939 55.6217094,9.7688346 C55.012488,9.89068243 53.7857564,7.07579113 52.9817499,6.80937808 C50.6526176,6.03492156 49.0984813,7.13774765 47.3702817,7.13774765 C45.9902087,7.13774765 46.6160076,5.12416069 42.4198396,5.82220417 Z" id="Fill-6" fill="#FFCC00"></path>
                <path d="M44.730115,12.7297368 C40.9173006,11.372889 39.8066112,10.1544107 35.8197335,11.7425629 C33.4118583,12.702889 32.3736953,15.534302 30.8692913,17.3351716 C29.4001145,19.0906063 25.4318865,17.748215 23.6083665,20.2946281 C22.2718093,22.1595194 22.6385855,28.1672368 22.6178637,28.1899542 C13.3282729,37.4483237 21.7620526,35.1683237 23.6083665,40.6886498 C24.7957267,44.2387585 21.492669,45.3663672 26.577803,47.2663672 C27.5600171,47.6339759 40.8551351,49.9945194 41.4291295,49.8995194 C43.4909503,49.5566933 44.3177508,47.3489759 46.3795716,46.9379976 C48.6361776,46.4877803 51.0647745,47.4708237 53.3110196,46.6096281 C57.4139394,45.0379976 57.9755006,41.3020194 60.5719444,38.714302 C61.3759509,37.9150629 63.5227312,38.0761498 64.5318837,37.070389 C67.3272568,34.2844107 66.0798034,25.4556063 63.5413808,22.925715 C62.1426581,21.5316933 60.9863807,21.9819107 59.5814415,21.281802 C58.9494261,20.967889 57.9755006,15.7346281 56.941482,14.7040846 C54.4279255,12.1989759 47.9357801,12.7297368 44.730115,12.7297368 Z" id="Fill-8" fill="#FFDD55"></path>
            </g>
        </g>
    </g>
</svg>