<?xml version="1.0" encoding="UTF-8"?>
<svg width="156px" height="104px" viewBox="0 0 156 104" version="1.1" xmlns="http://www.w3.org/2000/svg" xmlns:xlink="http://www.w3.org/1999/xlink">
    <title>bacteria-4</title>
    <defs>
        <filter x="-2.3%" y="-2.5%" width="104.7%" height="107.0%" filterUnits="objectBoundingBox" id="filter-1">
            <feOffset dx="0" dy="1" in="SourceAlpha" result="shadowOffsetOuter1"></feOffset>
            <feGaussianBlur stdDeviation="1" in="shadowOffsetOuter1" result="shadowBlurOuter1"></feGaussianBlur>
            <feColorMatrix values="0 0 0 0 0   0 0 0 0 0   0 0 0 0 0  0 0 0 0.35 0" type="matrix" in="shadowBlurOuter1" result="shadowMatrixOuter1"></feColorMatrix>
            <feMerge>
                <feMergeNode in="shadowMatrixOuter1"></feMergeNode>
                <feMergeNode in="SourceGraphic"></feMergeNode>
            </feMerge>
        </filter>
        <polygon id="path-2" points="0 0 150.222142 0 150.222142 99.7111051 0 99.7111051"></polygon>
        <polygon id="path-4" points="0 0 145.513371 0 145.513371 88.2301868 0 88.2301868"></polygon>
    </defs>
    <g id="Asset-Guide" stroke="none" stroke-width="1" fill="none" fill-rule="evenodd">
        <g id="Illustrations" transform="translate(-1136, -450)">
            <g id="bacteria-4" filter="url(#filter-1)" transform="translate(1214.0153, 500.9607) scale(-1, 1) translate(-1214.0153, -500.9607)translate(1138.9043, 451.1044)">
                <g id="Group-3">
                    <mask id="mask-3" fill="white">
                        <use xlink:href="#path-2"></use>
                    </mask>
                    <g id="Clip-2"></g>
                    <path d="M87.4801191,17.9379842 C65.8560979,33.8737014 64.1473532,30.2706792 45.4652894,30.3349514 C26.7863957,30.3954428 14.1182255,44.0589498 4.39518298,61.0683902 C-5.32785957,78.0816114 1.56735319,89.5296189 20.2462468,96.486136 C38.9251404,103.442653 60.314566,99.079707 72.9256723,84.0286774 C85.5367787,68.973867 95.9667787,62.8415459 117.356204,54.7470334 C138.74563,46.6525208 163.387694,32.6298459 141.985587,8.13458814 C128.02714,-7.83893616 109.10414,2.00226709 87.4801191,17.9379842" id="Fill-1" fill="#F97FB5" mask="url(#mask-3)"></path>
                </g>
                <path d="M36.5287766,35.1735115 C27.981883,36.9391058 21.9394574,43.4759634 16.0967553,50.6442006 C10.250883,57.8162185 2.81039362,69.596929 5.55896809,73.1583632 C8.31071277,76.7160168 11.7725851,78.5610061 13.4432872,73.2604426 C15.1139894,67.9636597 12.8789894,65.9863454 18.4046702,57.211304 C23.9303511,48.4324818 30.1693298,43.8200085 37.7556489,42.0808793 C45.3451383,40.34175 43.7727128,34.7236063 36.5287766,35.1735115" id="Fill-4" fill="#FBA7EB"></path>
                <path d="M113.108436,8.07447476 C102.868649,10.8419587 82.4080957,24.9704937 76.8348617,30.0858022 C71.2584574,35.19733 64.7753723,35.8022445 58.7583085,35.4619801 C53.7969255,36.7776692 58.6853936,40.7322979 67.8695,39.8098033 C77.0567766,38.8873086 86.5357128,31.6396764 98.1038191,23.4695495 C109.668755,15.295642 113.450819,15.1368519 120.403096,14.6642624 C127.352202,14.1878922 132.68133,11.9497085 132.288223,8.15386979 C131.895117,4.35803112 123.348223,5.30699079 113.108436,8.07447476" id="Fill-6" fill="#FBA7EB"></path>
                <g id="Group-10" transform="translate(4.6811, 11.4824)">
                    <mask id="mask-5" fill="white">
                        <use xlink:href="#path-4"></use>
                    </mask>
                    <g id="Clip-9"></g>
                    <path d="M108.525894,31.1228526 C102.553213,33.8487487 96.6661277,36.850637 90.5983404,39.2665144 C85.6559787,41.2362674 80.4346383,42.2608413 76.0090213,45.7012927 C70.6767234,49.8449573 68.0105745,56.7409829 64.5867447,62.9375761 C57.5108298,75.7542027 42.1099362,84.0264089 29.6161277,82.442289 C21.842766,81.4593029 13.9267447,79.289172 6.28653191,77.3534455 C4.24808511,76.8392682 2.13038298,76.0415371 0,75.4517455 C3.43968085,79.2778299 8.69906383,82.4498504 15.5657447,85.0056143 C34.2446383,91.9621314 55.6340638,87.5991854 68.242,72.544375 C80.8531064,57.4933454 91.2831064,51.3572436 112.672532,43.262731 C133.066511,35.5462901 156.386596,22.4309869 139.968064,0 C137.875723,18.3024452 122.290957,24.8430836 108.525894,31.1228526" id="Fill-8" fill="#ED40A9" mask="url(#mask-5)"></path>
                </g>
            </g>
        </g>
    </g>
</svg>