<?xml version="1.0" encoding="UTF-8"?>
<svg width="214px" height="225px" viewBox="0 0 214 225" version="1.1" xmlns="http://www.w3.org/2000/svg" xmlns:xlink="http://www.w3.org/1999/xlink">
    <title>batcteria-5</title>
    <defs>
        <filter x="-2.5%" y="-2.2%" width="104.1%" height="105.2%" filterUnits="objectBoundingBox" id="filter-1">
            <feOffset dx="0" dy="1" in="SourceAlpha" result="shadowOffsetOuter1"></feOffset>
            <feGaussianBlur stdDeviation="1" in="shadowOffsetOuter1" result="shadowBlurOuter1"></feGaussianBlur>
            <feColorMatrix values="0 0 0 0 0   0 0 0 0 0   0 0 0 0 0  0 0 0 0.35 0" type="matrix" in="shadowBlurOuter1" result="shadowMatrixOuter1"></feColorMatrix>
            <feMerge>
                <feMergeNode in="shadowMatrixOuter1"></feMergeNode>
                <feMergeNode in="SourceGraphic"></feMergeNode>
            </feMerge>
        </filter>
        <polygon id="path-2" points="0 0 155.72973 0 155.72973 72.3256439 0 72.3256439"></polygon>
    </defs>
    <g id="Asset-Guide" stroke="none" stroke-width="1" fill="none" fill-rule="evenodd">
        <g id="Illustrations" transform="translate(-493, -167)">
            <g id="batcteria-5" filter="url(#filter-1)" transform="translate(600.0714, 278.3776) rotate(-56) translate(-600.0714, -278.3776)translate(514.2757, 210.8064)">
                <g id="Group-3" transform="translate(85.7957, 67.5712) rotate(27) translate(-85.7957, -67.5712)translate(7.9308, 31.4084)">
                    <mask id="mask-3" fill="white">
                        <use xlink:href="#path-2"></use>
                    </mask>
                    <g id="Clip-2"></g>
                    <path d="M123.218449,37.5968918 C123.149336,38.3302625 123.000742,39.0427791 122.886705,39.7657227 C121.770524,37.1867604 120.789114,34.4444405 120.187827,31.6499854 C119.19605,27.0690253 119.106203,22.5784331 119.65911,20.1176443 C119.769691,19.6310476 119.81807,19.6866586 119.942475,19.3912249 C120.481559,20.1106929 121.15887,21.1951083 121.735967,22.8564884 C123.04221,26.6137098 123.736799,32.1956688 123.218449,37.5968918 M106.631237,56.9356338 C105.573802,56.9252068 104.644227,56.6610543 103.752665,56.2474471 C105.373373,53.3973809 106.658882,50.3700545 107.619558,47.3010197 C108.811764,43.4951386 109.46143,39.6545006 109.575467,35.9320361 C110.843698,40.919652 112.689025,45.8864137 115.412092,50.1649887 C115.971911,51.0443384 116.61121,51.8715528 117.247053,52.7022428 C114.741693,55.3889516 111.67997,56.9738664 106.631237,56.9356338 M96.6443532,44.1277143 C96.5821512,44.3293044 96.4612028,44.5100403 96.3920894,44.715106 C95.9808648,43.2622674 95.5178051,41.8233315 95.3000979,40.3322603 C94.6400651,35.7791057 95.0063661,31.2572323 95.8253596,28.9215683 C96.0638008,28.240333 96.1363699,28.240333 96.302242,28.0005103 C96.9242624,28.4002147 97.5048148,29.1683423 97.9298622,31.5908986 C98.4793135,34.7398742 98.0888229,39.5119973 96.6443532,44.1277143 M80.9141473,60.3452862 C79.089554,60.2653454 77.5414142,59.3164818 76.0347425,57.887973 C80.6031371,51.4162373 83.2329013,43.7592911 83.6441259,36.0710637 C83.6821383,37.9826935 83.6648599,39.8804205 83.9516805,41.8546127 C84.7015607,47.0299159 86.3533705,52.2573544 89.1075388,56.8522173 C86.5088756,59.2817249 83.8894784,60.4738868 80.9141473,60.3452862 M70.0149668,45.4171955 C69.9527648,45.0939563 69.814538,44.7950469 69.762703,44.4718077 C69.0508352,40.099389 69.2892763,35.6713593 70.1497379,32.9081853 C70.5575069,31.5874229 71.08968,30.7532572 71.4525252,30.33965 C71.9777869,31.3615031 72.3821002,33.3913063 72.3821002,33.9265627 C72.3821002,37.673357 71.5112716,41.6704011 70.0149668,45.4171955 M39.8849876,46.0775767 C39.2422332,47.1585164 38.3506705,48.0934772 37.5696893,49.1049031 C37.1999327,47.3774849 36.8958338,45.5979314 36.8336318,43.8357563 C36.685038,39.6962089 37.5109429,35.7582516 38.60639,33.6693616 C39.1523858,32.6231787 39.7087485,32.1018251 39.9610124,31.9419434 C40.2132762,31.7785859 40.1130618,31.7681588 40.6037668,31.8376727 C41.9514778,32.0253599 42.2659437,32.327745 42.5562199,32.6579356 C42.8464961,32.9881262 43.1886073,33.6346047 43.2957331,34.8928046 C43.5065289,37.4057289 42.3557911,41.9032724 39.8849876,46.0775767 M144.211639,0.660728766 C142.874295,-0.0344093361 141.305421,-0.187339719 139.850584,0.229743143 L139.850584,0.229743143 C138.392292,0.646826004 137.168985,1.60611659 136.44675,2.89212207 C134.943534,5.56840377 135.980235,8.91201804 138.765504,10.3579053 C138.765504,10.3579053 138.765504,10.3579053 138.765504,10.3579053 C139.270032,10.6185821 141.63371,13.4755997 142.874295,18.0808896 C144.118336,22.6896552 144.591763,28.6469888 144.004299,34.0933958 C143.416835,39.5363271 141.678633,44.4161966 139.505018,47.0785756 C137.483451,49.5497915 135.734883,50.5160335 131.999304,49.9460202 C133.405762,46.2791667 134.266223,42.4281016 134.632524,38.6048421 C135.289101,31.7229749 134.549588,24.9627568 132.607502,19.3668951 C131.636459,16.5689642 130.378595,14.0386615 128.502167,11.876782 C126.625739,9.71490255 123.799001,7.77546724 120.301864,7.58082858 C117.177939,7.41051974 113.867408,8.78689318 111.904588,10.854929 C109.938312,12.9229649 109.012193,15.3281427 108.459286,17.7854559 C107.923657,20.1558768 107.750874,22.6722768 107.840721,25.2790447 C106.15781,21.4175525 103.172112,18.0357056 98.5864393,16.9095819 C95.4797927,16.1484057 91.7960494,16.9373874 89.4358274,18.7690763 C87.0790611,20.6007652 85.8177418,22.9642348 84.9641915,25.4041695 C84.2315897,27.4965352 83.8341877,29.755734 83.6303033,32.0983494 C83.4160518,29.9190915 82.9115241,27.656417 81.6398378,25.2651419 C80.8242999,23.7358381 79.7115745,22.1543989 77.9146265,20.8475393 C76.1142229,19.5406796 73.4429906,18.671757 70.8235934,18.9324338 C67.7065799,19.2452459 64.8798425,20.8371122 62.9861358,22.8564884 C61.0958848,24.8793403 59.945147,27.2567126 59.1676214,29.755734 C57.6125703,34.7607284 57.5054446,40.4573851 58.4384752,46.174896 C59.0432173,49.8869335 60.1524871,53.5676897 61.7593733,57.0155747 C57.4017745,60.6268172 52.2631945,62.3333812 45.6905118,60.8110288 C44.9060749,60.6268172 44.1700174,60.258394 43.4581495,59.7961271 C45.949687,57.2832029 48.0991132,54.474845 49.8442261,51.5309351 C53.1651241,45.9246463 55.2108803,39.9117017 54.7201752,34.0099792 C54.4713671,31.059118 53.4865014,28.0178888 51.3094298,25.5431971 C49.1358139,23.0719812 45.8425612,21.4418823 42.2797663,20.9344315 C39.2249548,20.4999702 36.0180939,21.2298652 33.6164038,22.7661204 C31.2112581,24.3023756 29.5629039,26.4329739 28.3672424,28.7130269 C25.979375,33.2696571 25.1845711,38.6500261 25.3815443,44.2076552 C25.5335937,48.5661711 26.3698656,53.0150549 28.0113085,57.158078 C25.1085464,58.3780454 22.3854791,58.562257 19.4136037,57.3457653 C15.1769533,55.6044444 13.8465207,53.2931102 12.1808881,48.263786 C10.594736,43.4812359 11.4793873,39.6649277 13.8603433,34.079493 C15.6331016,29.9225672 18.8848863,25.4145966 21.4489928,24.1911535 C24.2826415,22.8356342 25.436835,19.5267769 24.026922,16.8053112 L24.026922,16.8053112 C22.6170089,14.0803698 19.1786182,12.9681489 16.3449695,14.3236682 C16.3449695,14.3236682 16.3415138,14.3236682 16.3415138,14.3236682 C9.11225395,17.7819802 5.53909206,24.5526253 3.25835043,29.8947617 C0.473081105,36.4255841 -1.34805653,43.7419127 1.26097367,51.6074003 C3.34474216,57.8984001 7.24964829,64.3319033 14.9177781,67.4774032 C21.5215618,70.1884418 28.4087104,69.19787 34.0932862,66.4833557 C36.5018875,68.8190197 39.421928,70.6924169 43.0054569,71.5231069 C52.6433181,73.7579759 61.5036538,71.1234025 68.2560313,66.1253596 C71.4801706,69.0275611 75.5785942,71.140781 80.3923413,71.3527981 C86.8406199,71.634329 92.4526266,68.8572523 96.761846,64.9853331 C99.5782163,66.7648866 102.857646,67.9257672 106.537934,67.9535728 C114.75206,68.0161352 121.46988,64.5717259 126.020997,59.6675266 C126.936749,60.0324741 127.824856,60.4426056 128.844278,60.6441956 C136.847608,62.2499646 144.277297,59.0731835 148.517403,53.8839776 C152.757509,48.6947716 154.668494,42.0388243 155.404551,35.2299466 C156.140609,28.4245446 155.615347,21.4175525 153.970449,15.3177157 C152.32555,9.21787881 149.920404,3.62549277 144.211639,0.660728766" id="Fill-1" fill="#F97FB5" mask="url(#mask-3)"></path>
                </g>
                <path d="M26.4895282,21.4793404 C23.7221002,24.2533981 20.5267005,28.7213782 18.800299,34.7998891 C18.569445,35.6140376 18.3689059,36.4558424 18.2053932,37.31496 C16.6671301,45.4576181 18.9510442,52.0944422 21.5839082,55.9466215 C23.2053726,58.2821517 24.6714006,60.1515233 24.9165382,59.8826975 C25.1650446,59.6173282 24.8096521,58.1638013 23.2204969,54.9551486 C21.3746494,51.0523992 19.8487957,45.2312301 21.2134132,37.920064 C21.360244,37.1506541 21.5306415,36.3950851 21.7279796,35.6602649 C23.2163853,30.1232411 25.8200861,25.8545333 28.0254847,22.8828968 C30.2040265,19.9457322 31.8463982,18.3330391 31.6037271,18.0117012 C31.3610561,17.6903632 29.2300941,18.7363033 26.4895282,21.4793404" id="Fill-4" fill="#FF97E9" transform="translate(24.6678, 38.932) rotate(27) translate(-24.6678, -38.932)"></path>
                <path d="M50.2566793,78.4803445 C47.9762078,77.0853709 43.6685158,74.6147677 41.3916713,71.0501822 C39.8890262,68.8362152 39.0780967,66.1010516 38.3841479,62.8753611 C38.2201933,62.0759631 38.0769927,61.2625766 37.9510836,60.4351962 C37.5172574,57.49381 37.3917311,54.6405194 37.4949727,51.9453039 C37.6722324,47.8306616 38.2905357,44.57192 39.4496838,41.7661521 C41.5162529,36.8377147 44.9764185,35.2762352 44.8199432,34.8413723 L44.8199432,34.8413723 C44.7851792,34.7501884 40.5364898,34.6490795 37.3636958,40.7535237 C35.7893138,43.7374158 34.8045825,47.3916682 34.5030601,51.7619888 C34.28931,54.6498129 34.3701642,57.7273578 34.8424301,60.900135 C34.9753602,61.7906167 35.1325122,62.6706201 35.3207952,63.5296408 C36.0323551,66.9516401 37.1347514,70.090327 39.0570147,72.7325477 C42.2489041,76.9119086 46.9057753,79.0290351 49.4800251,80.0704477 C52.3487673,81.2279751 54.059921,81.6617015 54.1945181,81.3709886 C54.3325725,81.0767759 52.8421373,80.0615498 50.2566793,78.4803445" id="Fill-6" fill="#FF97E9" transform="translate(44.2972, 58.1387) rotate(27) translate(-44.2972, -58.1387)"></path>
                <path d="M79.2547899,91.4696754 C75.78895,88.962789 71.6673917,84.7206403 69.8113759,78.7132697 C69.4338578,77.515227 69.133518,76.2725689 68.8998177,74.9818383 C68.1384562,70.7344859 68.1772231,66.2096315 68.2733462,62.4590893 C68.3738121,59.2556725 68.5528372,56.9160661 69.1673236,54.625297 C70.4351182,50.1745761 73.336621,48.6959261 73.1885546,48.3034267 L73.1885546,48.3034267 C73.1779791,48.2758826 69.2521454,48.0600006 67.0701261,53.9545482 C66.1258124,56.3927776 65.6698894,59.0519751 65.4149938,62.2964486 C65.0837672,66.1429806 64.9223543,70.8293751 65.7721652,75.5173101 C66.0271158,76.928508 66.3662723,78.2985422 66.8001787,79.6343108 C69.0718283,86.5060053 73.9732064,90.969566 78.0497011,93.2846868 L78.0497011,93.2846868 C82.8817145,96.0035554 85.9053754,96.3522619 86.1154874,95.9843951 C86.3256045,95.6199694 83.0616655,94.2730072 79.2547899,91.4696754" id="Fill-8" fill="#FF97E9" transform="translate(75.6363, 72.2009) rotate(27) translate(-75.6363, -72.2009)"></path>
                <path d="M109.862718,102.382494 C107.531602,101.672361 104.559887,100.271903 101.461591,97.4718748 C98.2351542,94.5199948 95.3182003,90.4828626 93.2223755,85.3647043 C93.1911522,85.2922752 93.1633859,85.2198513 93.1321625,85.1474221 C91.1193485,80.0569643 90.4345705,75.3200974 91.0642779,71.1194782 C91.6287261,67.1979457 93.549862,64.2849288 95.0786565,62.5294195 C96.6316082,60.746373 97.8299629,59.9347676 97.6947613,59.6863962 L97.6947613,59.6863962 C97.4243528,59.1862066 90.3411036,61.5915814 88.4223747,70.6363561 C87.4408513,75.3637909 87.9849284,80.7828983 90.2161853,86.3010849 C90.2474191,86.3804076 90.278653,86.4597302 90.3133438,86.5390582 C92.5757979,92.1124402 95.9737722,96.474299 99.718869,99.495904 C107.468764,105.818696 113.59815,103.594545 113.584068,103.411846 C113.562872,103.129181 112.124661,103.071842 109.862718,102.382494" id="Fill-10" fill="#FF97E9" transform="translate(100.769, 81.7811) rotate(27) translate(-100.769, -81.7811)"></path>
                <path d="M127.1003,101.610667 C124.414117,99.4693741 122.090844,96.5206256 120.364278,92.8976967 C119.664699,91.43452 119.102471,89.933076 118.663929,88.442314 C116.913183,82.4722756 116.990254,76.6764176 117.505713,72.2698831 C118.342076,66.5416414 121.695107,64.4340346 121.533002,64.0070471 C121.370901,63.5835576 116.454388,65.398459 115.265337,71.8782059 C114.289836,76.4694269 113.887065,82.6915291 115.700623,89.3052719 C116.156607,90.9709541 116.767194,92.6473654 117.54948,94.2820639 C119.489686,98.3355566 122.211954,101.617211 125.358769,103.962082 C128.564047,106.349017 131.716441,107.843913 134.747409,108.555101 C140.912377,109.960145 144.676522,109.378237 144.7205,108.930576 C144.767907,108.479423 140.820359,108.183085 135.341767,106.334858 C132.688421,105.456347 130.00661,103.930687 127.1003,101.610667" id="Fill-12" fill="#FF97E9" transform="translate(129.579, 86.6943) rotate(27) translate(-129.579, -86.6943)"></path>
                <path d="M29.6638389,61.4025608 C27.1684822,62.5261349 24.7991043,62.7364003 22.2873539,61.895198 C22.4609324,65.8358403 22.0747926,69.7937549 20.2935384,73.2384186 C25.5812287,74.5261004 30.8821566,73.4974257 35.4102701,71.2133226 C33.9614958,68.4742384 31.6054946,64.254771 29.5291343,60.9854802 C29.5796203,61.1233072 29.6133529,61.2647337 29.6638389,61.4025608" id="Fill-14" fill="#ED40A9" transform="translate(27.8519, 67.393) rotate(27) translate(-27.8519, -67.393)"></path>
                <path d="M76.5099897,72.5252748 C75.6683622,71.8239102 74.506291,70.2189512 73.4416517,69.5137465 C73.1004909,70.7803758 72.7112873,72.039931 72.2294023,73.2678414 C72.2121203,73.1838051 72.1845509,73.1032537 72.1638433,73.0227127 C72.6065239,77.6019256 75.3709258,83.7983655 78.221645,85.8399482 C80.0018078,83.2838593 81.4694687,80.5347717 82.6384842,77.6802168 C80.6659029,75.5314592 77.8565989,73.6509585 76.5099897,72.5252748" id="Fill-16" fill="#ED40A9" transform="translate(77.4012, 77.6768) rotate(27) translate(-77.4012, -77.6768)"></path>
                <path d="M74.5165805,86.0354437 C74.4921349,86.0214188 74.4711572,85.9934116 74.4467062,85.9758897 C74.4467062,85.9758897 74.4467062,85.9758897 74.4467062,85.9758897 C74.4711625,85.9969085 74.4921242,86.014425 74.5165805,86.0354437" id="Fill-18" fill="#ED40A9" transform="translate(74.4816, 86.0057) rotate(27) translate(-74.4816, -86.0057)"></path>
                <path d="M44.0270147,59.7617921 C43.9001413,59.9919917 43.8111017,60.2292306 43.6773513,60.4594198 C43.0463059,61.5336255 42.170911,62.4643361 41.3987871,63.4720017 C42.2235922,67.7145831 44.826382,72.1518675 47.6999411,73.7550329 C49.9828831,71.3603298 51.9697445,68.7208194 53.591931,65.9515937 C54.2366932,64.8529733 54.8160925,63.7333084 55.3542247,62.6100899 C55.1548939,62.6761115 54.955563,62.742133 54.7252381,62.7766902 C52.3841602,63.1187129 47.0356562,62.0109617 44.0270147,59.7617921" id="Fill-20" fill="#ED40A9" transform="translate(48.3765, 66.7584) rotate(27) translate(-48.3765, -66.7584)"></path>
                <path d="M63.2707257,84.8186174 C61.2887446,83.256399 59.7406218,81.1253348 58.558818,78.9010683 C57.0803903,80.0760284 55.504615,81.0251209 53.8278993,81.7483404 C53.6243547,84.9289347 54.2748756,89.8089331 55.1777374,92.8835623 C58.8838294,91.8127017 62.3159743,90.1510811 65.327043,88.0130724 C65.7227692,88.357463 66.1722971,88.6429013 66.5931357,88.9630219 C66.4086063,88.1084805 66.0336712,87.2605941 65.3929722,86.4782823 C64.8062701,85.7655048 63.9829421,85.3787915 63.2707257,84.8186174" id="Fill-22" fill="#ED40A9" transform="translate(60.1918, 85.8923) rotate(27) translate(-60.1918, -85.8923)"></path>
                <path d="M86.8165757,95.5841386 C85.450179,94.347345 84.509347,92.7007598 83.4040844,91.2608401 C83.3036088,91.1317885 83.1924044,91.0128968 83.0740424,90.8973862 C83.246399,91.1927585 83.3865435,91.50165 83.569634,91.7902545 C82.1926346,93.0025161 80.8043909,93.8857303 79.3691091,94.4534106 C80.2048087,97.619481 82.4455838,101.550907 85.2853606,103.722763 C87.565109,102.66452 89.6581648,101.304098 91.5109511,99.7363947 C92.0952531,100.086668 92.7153022,100.392898 93.3353359,100.688953 C92.1863022,98.726588 88.401743,97.0213973 86.8165757,95.5841386" id="Fill-24" fill="#ED40A9" transform="translate(86.3522, 97.3101) rotate(27) translate(-86.3522, -97.3101)"></path>
                <path d="M126.741259,91.9891843 C125.448931,90.4775262 123.327996,88.5898602 123.41727,86.5342492 C123.410222,86.5734976 123.399615,86.6091714 123.392567,86.6484198 C123.430481,88.2117018 123.408014,89.7963059 123.257609,91.380715 C123.187677,92.1336686 123.035976,92.8650835 122.919828,93.6072597 C122.609567,92.8965549 122.349,92.1466669 122.063577,91.411017 C122.187239,95.6119245 124.709223,99.4881374 128.113745,101.813178 C129.604338,102.832615 130.583317,103.940498 132.317712,104.032366 C133.620327,100.622381 134.44294,97.0546292 134.860428,93.4933981 C132.35184,93.7536826 128.467917,94.0047338 126.741259,91.9891843" id="Fill-26" fill="#ED40A9" transform="translate(128.462, 95.2833) rotate(27) translate(-128.462, -95.2833)"></path>
                <path d="M120.684827,108.066047 C118.479058,106.585167 115.821351,105.779634 113.612092,104.242993 C112.35745,103.369903 111.245527,102.284463 110.293494,101.080786 C109.341403,102.079449 108.307341,102.924659 107.102689,103.570981 C107.236563,106.50183 110.222277,110.241993 113.117555,112.741459 C115.431428,111.403369 117.468948,109.744265 119.189388,107.85817 C119.806211,108.11001 120.426429,108.354884 121.067034,108.568428 C120.97135,108.355715 120.848472,108.177807 120.684827,108.066047" id="Fill-28" fill="#ED40A9" transform="translate(114.0849, 106.9111) rotate(27) translate(-114.0849, -106.9111)"></path>
                <path d="M98.0378729,79.8161662 C97.7960655,81.566043 97.4605711,83.3694657 96.9341963,85.1761767 C96.8775537,85.3657898 96.777354,85.5410196 96.7106594,85.7270381 C97.4473635,90.101984 99.2717616,94.0240244 103.043258,96.6676655 C103.284633,96.8362572 103.643349,97.0909293 104.012058,97.3098243 C105.487958,94.480899 106.685661,91.4940636 107.575197,88.4602287 C107.861699,87.4727967 108.118061,86.4853188 108.340934,85.4977899 C107.589654,84.7521647 106.520356,84.0883774 105.78619,83.5861661 C102.393595,81.2580748 100.919257,80.7082059 98.0378729,79.8161662" id="Fill-30" fill="#ED40A9" transform="translate(102.5258, 88.563) rotate(27) translate(-102.5258, -88.563)"></path>
            </g>
        </g>
    </g>
</svg>