<?xml version="1.0" encoding="UTF-8"?>
<svg width="141px" height="169px" viewBox="0 0 141 169" version="1.1" xmlns="http://www.w3.org/2000/svg" xmlns:xlink="http://www.w3.org/1999/xlink">
    <title>batcteria-2</title>
    <defs>
        <filter x="-4.7%" y="-1.8%" width="108.5%" height="104.9%" filterUnits="objectBoundingBox" id="filter-1">
            <feOffset dx="0" dy="1" in="SourceAlpha" result="shadowOffsetOuter1"></feOffset>
            <feGaussianBlur stdDeviation="1" in="shadowOffsetOuter1" result="shadowBlurOuter1"></feGaussianBlur>
            <feColorMatrix values="0 0 0 0 0   0 0 0 0 0   0 0 0 0 0  0 0 0 0.35 0" type="matrix" in="shadowBlurOuter1" result="shadowMatrixOuter1"></feColorMatrix>
            <feMerge>
                <feMergeNode in="shadowMatrixOuter1"></feMergeNode>
                <feMergeNode in="SourceGraphic"></feMergeNode>
            </feMerge>
        </filter>
        <polygon id="path-2" points="0 0 81.509877 0 81.509877 139.034118 0 139.034118"></polygon>
    </defs>
    <g id="Asset-Guide" stroke="none" stroke-width="1" fill="none" fill-rule="evenodd">
        <g id="Illustrations" transform="translate(-323, -379)">
            <g id="batcteria-2" filter="url(#filter-1)" transform="translate(393.6616, 462.3046) scale(-1, 1) rotate(-25) translate(-393.6616, -462.3046)translate(352.2944, 391.5507)">
                <g id="Group-3" transform="translate(-0, 2.4737)">
                    <mask id="mask-3" fill="white">
                        <use xlink:href="#path-2"></use>
                    </mask>
                    <g id="Clip-2"></g>
                    <path d="M0.654504738,27.5594311 C-2.24882685,48.0848259 4.32805799,109.19101 23.920342,126.5068 C43.512626,143.822589 65.5539456,142.585747 79.0236408,126.5068 C92.4933361,110.427852 47.1861793,99.2962732 39.8390728,68.3752206 C32.4919663,37.454168 44.7371438,28.7962732 45.9616615,15.1910101 C47.1861793,1.5857469 6.7770935,-15.7300426 0.654504738,27.5594311" id="Fill-1" fill="#00B2E3" mask="url(#mask-3)"></path>
                </g>
                <path d="M1.87902249,27.5594311 C-1.0243091,48.0848259 5.55257574,109.19101 25.1448598,126.5068 C44.7371438,143.822589 66.7784633,142.585747 80.2481586,126.5068 C93.7178539,110.427852 48.4106971,99.2962732 41.0635905,68.3752206 C33.716484,37.454168 45.9616615,28.7962732 47.1861793,15.1910101 C48.4106971,1.5857469 8.00161125,-15.7300426 1.87902249,27.5594311" id="Fill-4" fill="#00B2E3"></path>
                <path d="M48.5558024,109.460147 C50.2003297,113.533068 57.8829541,124.011594 63.3063432,125.064147 C68.7297324,126.115463 72.6347195,123.505726 73.3963695,119.103805 C74.1592441,114.703121 64.6814767,117.563936 60.0589222,112.696963 C55.4351431,107.828752 56.7600713,104.918463 55.5416762,102.295121 C54.323281,99.6705416 45.0879681,100.870278 48.5558024,109.460147" id="Fill-6" fill="#00B2E3"></path>
                <path d="M30.575596,46.3391469 C31.4401055,45.1802259 33.4899482,41.3979627 33.4593353,39.9360153 C33.4299469,38.474068 32.6242142,38.0634364 31.5613328,38.7239101 C30.4984514,39.3856206 31.6446,41.0442259 30.745804,43.0479101 C29.8470079,45.0503574 29.1025011,45.296489 28.5539172,46.0794101 C28.0053332,46.8623311 28.7522891,48.7819101 30.575596,46.3391469" id="Fill-8" fill="#00B2E3"></path>
                <path d="M3.10354024,38.6910101 C2.07861888,54.8800364 8.91265246,95.8627995 15.8311778,109.521247 C22.7484785,123.179694 30.5315134,122.203826 35.2875403,109.521247 C40.0435673,96.838668 24.0452428,88.0583259 21.4517142,63.6690364 C18.8569611,39.2797469 23.1807333,32.4499048 23.6129881,21.7190627 C24.0452428,10.9882206 5.26603859,4.54551006 3.10354024,38.6910101" id="Fill-10" fill="#A2D3F3"></path>
            </g>
        </g>
    </g>
</svg>