<?xml version="1.0" encoding="UTF-8"?>
<svg width="288px" height="369px" viewBox="0 0 288 369" version="1.1" xmlns="http://www.w3.org/2000/svg" xmlns:xlink="http://www.w3.org/1999/xlink">
    <title>Group 39</title>
    <defs>
        <polygon id="path-1" points="0 0 12.6126774 0 12.6126774 13 0 13"></polygon>
    </defs>
    <g id="R5---Dev-Facing" stroke="none" stroke-width="1" fill="none" fill-rule="evenodd">
        <g id="Homepage---Desktop" transform="translate(-115, -3816)">
            <g id="Group-39" transform="translate(116, 3816)">
                <rect id="Rectangle" fill="#FFFFFF" x="0" y="0" width="287" height="369" rx="20"></rect>
                <line x1="2.91034369e-13" y1="39.5" x2="287" y2="39.5" id="Line-6" stroke="#2B3990" opacity="0.0964471726" stroke-linecap="square" stroke-dasharray="5"></line>
                <line x1="2.91034369e-13" y1="61.5001" x2="287" y2="61.5001" id="Line-6-Copy" stroke="#2B3990" opacity="0.0964471726" stroke-linecap="square" stroke-dasharray="5"></line>
                <line x1="2.91034369e-13" y1="83.5002" x2="287" y2="83.5002" id="Line-6-Copy-2" stroke="#2B3990" opacity="0.0964471726" stroke-linecap="square" stroke-dasharray="5"></line>
                <line x1="2.91034369e-13" y1="105.5003" x2="287" y2="105.5003" id="Line-6-Copy-3" stroke="#2B3990" opacity="0.0964471726" stroke-linecap="square" stroke-dasharray="5"></line>
                <line x1="2.91034369e-13" y1="127.5004" x2="287" y2="127.5004" id="Line-6-Copy-4" stroke="#2B3990" opacity="0.0964471726" stroke-linecap="square" stroke-dasharray="5"></line>
                <line x1="2.91034369e-13" y1="149.5005" x2="287" y2="149.5005" id="Line-6-Copy-5" stroke="#2B3990" opacity="0.0964471726" stroke-linecap="square" stroke-dasharray="5"></line>
                <line x1="2.91034369e-13" y1="171.5006" x2="287" y2="171.5006" id="Line-6-Copy-6" stroke="#2B3990" opacity="0.0964471726" stroke-linecap="square" stroke-dasharray="5"></line>
                <line x1="2.91034369e-13" y1="193.5007" x2="287" y2="193.5007" id="Line-6-Copy-7" stroke="#2B3990" opacity="0.0964471726" stroke-linecap="square" stroke-dasharray="5"></line>
                <line x1="2.91034369e-13" y1="215.5008" x2="287" y2="215.5008" id="Line-6-Copy-8" stroke="#2B3990" opacity="0.0964471726" stroke-linecap="square" stroke-dasharray="5"></line>
                <line x1="2.91034369e-13" y1="237.5009" x2="287" y2="237.5009" id="Line-6-Copy-9" stroke="#2B3990" opacity="0.0964471726" stroke-linecap="square" stroke-dasharray="5"></line>
                <line x1="2.91034369e-13" y1="259.501" x2="287" y2="259.501" id="Line-6-Copy-10" stroke="#2B3990" opacity="0.0964471726" stroke-linecap="square" stroke-dasharray="5"></line>
                <line x1="2.91034369e-13" y1="281.5011" x2="287" y2="281.5011" id="Line-6-Copy-11" stroke="#2B3990" opacity="0.0964471726" stroke-linecap="square" stroke-dasharray="5"></line>
                <line x1="2.91034369e-13" y1="303.5012" x2="287" y2="303.5012" id="Line-6-Copy-12" stroke="#2B3990" opacity="0.0964471726" stroke-linecap="square" stroke-dasharray="5"></line>
                <line x1="2.91034369e-13" y1="325.5013" x2="287" y2="325.5013" id="Line-6-Copy-13" stroke="#2B3990" opacity="0.0964471726" stroke-linecap="square" stroke-dasharray="5"></line>
                <line x1="2.91034369e-13" y1="347.5014" x2="287" y2="347.5014" id="Line-6-Copy-14" stroke="#2B3990" opacity="0.0964471726" stroke-linecap="square" stroke-dasharray="5"></line>
                <g id="Group-33" transform="translate(11, 12)">
                    <g id="Group-3">
                        <mask id="mask-2" fill="white">
                            <use xlink:href="#path-1"></use>
                        </mask>
                        <g id="Clip-2"></g>
                        <path d="M6.30619865,13 C2.82352682,13 -0.000280070111,10.0895415 -0.000280070111,6.5 C-0.000280070111,2.91045853 2.82352682,0 6.30619865,0 C9.78887047,0 12.6126774,2.91045853 12.6126774,6.5 C12.6126774,10.0895415 9.78887047,13 6.30619865,13" id="Fill-1" fill="#FFE9E2" mask="url(#mask-2)"></path>
                    </g>
                    <path d="M31.5321135,13 C28.0487415,13 25.2256348,10.0895415 25.2256348,6.5 C25.2256348,2.91045853 28.0487415,0 31.5321135,0 C35.0147853,0 37.8385922,2.91045853 37.8385922,6.5 C37.8385922,10.0895415 35.0147853,13 31.5321135,13" id="Fill-4" fill="#FFE9E2"></path>
                    <path d="M56.7573282,13 C53.2739562,13 50.4515497,10.0895415 50.4515497,6.5 C50.4515497,2.91045853 53.2739562,0 56.7573282,0 C60.24,0 63.0638069,2.91045853 63.0638069,6.5 C63.0638069,10.0895415 60.24,13 56.7573282,13" id="Fill-6" fill="#FFE9E2"></path>
                    <path d="M81.9832431,13 C78.5005712,13 75.6767644,10.0895415 75.6767644,6.5 C75.6767644,2.91045853 78.5005712,0 81.9832431,0 C85.4659149,0 88.2890216,2.91045853 88.2890216,6.5 C88.2890216,10.0895415 85.4659149,13 81.9832431,13" id="Fill-8" fill="#FFE9E2"></path>
                    <path d="M107.208458,13 C103.725086,13 100.901979,10.0895415 100.901979,6.5 C100.901979,2.91045853 103.725086,0 107.208458,0 C110.69113,0 113.514936,2.91045853 113.514936,6.5 C113.514936,10.0895415 110.69113,13 107.208458,13" id="Fill-10" fill="#FFE9E2"></path>
                    <path d="M132.434373,13 C128.951001,13 126.127894,10.0895415 126.127894,6.5 C126.127894,2.91045853 128.951001,0 132.434373,0 C135.917044,0 138.740851,2.91045853 138.740851,6.5 C138.740851,10.0895415 135.917044,13 132.434373,13" id="Fill-12" fill="#FFE9E2"></path>
                    <path d="M157.660287,13 C154.177616,13 151.353809,10.0895415 151.353809,6.5 C151.353809,2.91045853 154.177616,0 157.660287,0 C161.143659,0 163.966766,2.91045853 163.966766,6.5 C163.966766,10.0895415 161.143659,13 157.660287,13" id="Fill-14" fill="#FFE9E2"></path>
                    <path d="M182.886202,13 C179.403531,13 176.579724,10.0895415 176.579724,6.5 C176.579724,2.91045853 179.403531,0 182.886202,0 C186.369574,0 189.192681,2.91045853 189.192681,6.5 C189.192681,10.0895415 186.369574,13 182.886202,13" id="Fill-14-Copy" fill="#FFE9E2"></path>
                    <path d="M208.112117,13 C204.629445,13 201.805639,10.0895415 201.805639,6.5 C201.805639,2.91045853 204.629445,0 208.112117,0 C211.595489,0 214.418596,2.91045853 214.418596,6.5 C214.418596,10.0895415 211.595489,13 208.112117,13" id="Fill-14-Copy-2" fill="#FFE9E2"></path>
                    <path d="M233.338032,13 C229.85536,13 227.031553,10.0895415 227.031553,6.5 C227.031553,2.91045853 229.85536,0 233.338032,0 C236.821404,0 239.644511,2.91045853 239.644511,6.5 C239.644511,10.0895415 236.821404,13 233.338032,13" id="Fill-14-Copy-3" fill="#FFE9E2"></path>
                    <path d="M258.563947,13 C255.081275,13 252.257468,10.0895415 252.257468,6.5 C252.257468,2.91045853 255.081275,0 258.563947,0 C262.047319,0 264.870426,2.91045853 264.870426,6.5 C264.870426,10.0895415 262.047319,13 258.563947,13" id="Fill-14-Copy-4" fill="#FFE9E2"></path>
                </g>
            </g>
        </g>
    </g>
</svg>