<?xml version="1.0" encoding="UTF-8"?>
<svg width="1440px" height="91px" viewBox="0 0 1440 91" version="1.1" xmlns="http://www.w3.org/2000/svg" xmlns:xlink="http://www.w3.org/1999/xlink">
    <title>Path 8</title>
    <g id="R5---Dev-Facing" stroke="none" stroke-width="1" fill="none" fill-rule="evenodd">
        <g id="Homepage---Desktop" transform="translate(0, -7211)" fill="#2B3990">
            <path d="M0,7246.34976 C21.5,7233.13396 55.9166667,7226.52607 103.25,7226.52607 C174.25,7226.52607 197.5,7250.24645 289.75,7250.24645 C382,7250.24645 400.25,7211 488.5,7211 C576.75,7211 606,7249.81517 687.75,7249.81517 C769.5,7249.81517 819.25,7213.58768 907,7213.58768 C994.75,7213.58768 1020.75,7250.38033 1111.75,7249.81517 C1202.75,7249.25 1247.5,7213.5 1312.75,7213.58768 C1356.25,7213.64613 1398.66667,7223.51343 1440,7243.18957 L1440,7302 L0,7302 L0,7246.34976 Z" id="Path-8" transform="translate(720, 7256.5) scale(1, -1) translate(-720, -7256.5)"></path>
        </g>
    </g>
</svg>