<?xml version="1.0" encoding="UTF-8"?>
<svg width="90px" height="90px" viewBox="0 0 90 90" version="1.1" xmlns="http://www.w3.org/2000/svg" xmlns:xlink="http://www.w3.org/1999/xlink">
    <title>Group 75</title>
    <defs>
        <rect id="path-1" x="0" y="0" width="90" height="90"></rect>
        <polygon id="path-3" points="-7.0520022e-14 -3.17882787e-14 1.49725553 -3.17882787e-14 1.49725553 6.06320802 -7.0520022e-14 6.06320802"></polygon>
        <polygon id="path-5" points="0 0 34.6864197 0 34.6864197 16.1685547 0 16.1685547"></polygon>
        <polygon id="path-7" points="-3.00357843e-14 6.7136185e-13 1.20431423 6.7136185e-13 1.20431423 4.87692819 -3.00357843e-14 4.87692819"></polygon>
        <polygon id="path-9" points="7.23661008e-16 3.28403001e-16 27.8999463 3.28403001e-16 27.8999463 13.0051418 7.23661008e-16 13.0051418"></polygon>
        <polygon id="path-11" points="6.03342083e-14 -2.0926299e-13 21.6964286 -2.0926299e-13 21.6964286 21.6964286 6.03342083e-14 21.6964286"></polygon>
    </defs>
    <g id="R5---Dev-Facing" stroke="none" stroke-width="1" fill="none" fill-rule="evenodd">
        <g id="Group-75">
            <mask id="mask-2" fill="white">
                <use xlink:href="#path-1"></use>
            </mask>
            <g id="Rectangle"></g>
            <circle id="Oval" fill="#9CB4FF" mask="url(#mask-2)" cx="45" cy="45" r="45"></circle>
            <g id="Group-43" mask="url(#mask-2)">
                <g transform="translate(71.3676, 45.0042) rotate(28) translate(-71.3676, -45.0042)translate(52.8855, 27.6633)">
                    <path d="M13.4059847,2.49690672 C13.8443662,3.25120911 14.2564471,4.02656464 14.6338231,4.81717504 C14.8100943,5.18654205 14.9751937,5.56179755 15.1430244,5.93550218 C15.3087227,6.30459603 15.4411997,6.69146166 15.7575314,6.93811168 C15.8794815,7.03326415 16.0887722,6.93933804 16.1145566,6.78452644 C16.2371445,6.04747398 15.6745727,5.12710476 15.3687372,4.48818694 C14.975861,3.66759654 14.5340187,2.8832827 14.0482133,2.12090756 C13.7841133,1.70643989 13.1520261,2.05992939 13.4059847,2.49690672" id="Fill-1" fill="#3E52CE" transform="translate(14.7394, 4.4564) rotate(-140) translate(-14.7394, -4.4564)"></path>
                    <g id="Group-5" stroke-width="1" fill="none" transform="translate(18.8565, 5.9724) rotate(-140) translate(-18.8565, -5.9724)translate(18.1078, 2.9408)">
                        <mask id="mask-4" fill="white">
                            <use xlink:href="#path-3"></use>
                        </mask>
                        <g id="Clip-4"></g>
                        <path d="M0.00576254384,0.475503703 C0.149804095,1.44714805 0.293604208,2.4188463 0.437307746,3.39054456 C0.508966365,3.87512684 0.569808589,4.36159591 0.654794553,4.84369841 C0.726356597,5.24957448 0.784108422,5.66962845 1.02506294,5.99388725 C1.10676536,6.10386031 1.29764576,6.07868511 1.35274178,5.94887377 C1.6739018,5.19243161 1.37640264,4.04671716 1.25833976,3.25652836 C1.10869686,2.25523442 0.915981528,1.26801056 0.683042728,0.286878339 C0.566283603,-0.204873754 -0.0667169626,-0.01328343 0.00576254384,0.475503703" id="Fill-3" fill="#3E52CE" mask="url(#mask-4)"></path>
                    </g>
                    <path d="M20.9000301,8.64739523 C20.8798619,9.27494195 20.7590034,10.080449 21.0859006,10.645671 C21.1781113,10.8051046 21.3617887,10.7919646 21.4583772,10.6526483 C21.8232392,10.126198 21.7594636,9.28846959 21.7860811,8.66402026 C21.8179071,7.91820515 21.8278503,7.1708577 21.8454956,6.42433452 C21.8590564,5.84801244 21.0373557,5.83882745 21.0081175,6.40862686 C20.9699108,7.15461059 20.9240553,7.90054791 20.9000301,8.64739523" id="Fill-6" fill="#3E52CE" transform="translate(21.3536, 8.3739) rotate(-140) translate(-21.3536, -8.3739)"></path>
                    <path d="M24.5642166,9.15239475 C24.5296989,9.92074646 24.4529287,10.6833435 24.3433093,11.4428365 C24.2620832,12.0052393 23.942153,12.8687008 24.2110121,13.4000829 C24.2699082,13.5166296 24.4386843,13.5822323 24.5475662,13.5044652 C25.0671167,13.1334262 25.1006985,12.1212269 25.1824241,11.5195613 C25.2882874,10.7403867 25.3312033,9.9548132 25.3369491,9.16678369 C25.3408324,8.6393389 24.5876902,8.62984091 24.5642166,9.15239475" id="Fill-8" fill="#3E52CE" transform="translate(24.7212, 11.152) rotate(-140) translate(-24.7212, -11.152)"></path>
                    <path d="M28.081712,13.0129435 C28.1322575,12.5004513 27.2999036,12.3645354 27.224129,12.8804099 C27.1239086,13.5631166 26.9920903,14.2377449 26.8485431,14.9111054 C26.7345186,15.4459478 26.444646,16.1462685 26.701969,16.6706369 C26.7710312,16.8113849 26.9551763,16.8649354 27.0830267,16.7885303 C27.5935023,16.4834483 27.6770614,15.6500317 27.7893657,15.0954348 C27.9282437,14.4099168 28.0129249,13.7106353 28.081712,13.0129435" id="Fill-10" fill="#3E52CE" transform="translate(27.3412, 14.689) rotate(-140) translate(-27.3412, -14.689)"></path>
                    <path d="M30.5629166,16.5987615 C30.7144843,16.0897255 29.880127,15.8751477 29.7094201,16.376025 C29.5123662,16.9540425 29.292802,17.5230102 29.0640698,18.0904366 C28.8854543,18.5335341 28.4464591,19.1649979 28.6410712,19.641557 C28.7170125,19.8276099 28.8917464,19.9006429 29.0886417,19.8248962 C29.6008339,19.627864 29.7749341,18.858224 29.9520943,18.4116855 C30.1876194,17.8180213 30.3812291,17.2087861 30.5629166,16.5987615" id="Fill-12" fill="#3E52CE" transform="translate(29.5868, 17.9729) rotate(-140) translate(-29.5868, -17.9729)"></path>
                    <path d="M32.7696504,19.903386 C33.0162164,19.503922 32.4120453,19.1696457 32.1461716,19.5356524 C31.7335212,20.1037556 31.331262,20.6785381 30.9304041,21.2551383 C30.5892765,21.7457785 30.1308165,22.28352 30.0885857,22.9037003 C30.0761035,23.0874863 30.2869415,23.1829968 30.4330183,23.1119306 C30.9835401,22.8440533 31.3230047,22.1723325 31.6438594,21.6759351 C32.0238952,21.0879401 32.4018158,20.499312 32.7696504,19.903386" id="Fill-14" fill="#3E52CE" transform="translate(31.4578, 21.2568) rotate(-140) translate(-31.4578, -21.2568)"></path>
                    <path d="M33.3456143,23.5404264 C32.8495309,24.000341 32.3536519,24.4595651 31.8681185,24.9310356 C31.4797744,25.3080742 30.8443039,25.7304324 30.83326,26.3261398 C30.8299302,26.5081292 30.9862433,26.6716681 31.1648777,26.6725485 C31.7492192,26.6753404 32.1774877,26.0376334 32.5565394,25.6500573 C33.0300047,25.1660107 33.4917773,24.671146 33.9541744,24.1760723 C34.3362247,23.7670733 33.756148,23.1597983 33.3456143,23.5404264" id="Fill-16" fill="#3E52CE" transform="translate(32.456, 25.0463) rotate(-140) translate(-32.456, -25.0463)"></path>
                    <path d="M33.3696837,27.5777154 C32.9253003,27.9940382 32.4608788,28.3909729 31.9801079,28.7721856 C31.5695983,29.0977225 31.0293159,29.4118904 30.8433899,29.897164 C30.7889211,30.0392851 30.9361326,30.2191663 31.10234,30.2101424 C31.6748747,30.179077 32.1507345,29.7640933 32.5597307,29.4326574 C33.0591852,29.0278993 33.5225422,28.5907283 33.9667467,28.1358218 C34.3244167,27.7695846 33.7526285,27.2189689 33.3696837,27.5777154" id="Fill-18" fill="#3E52CE" transform="translate(32.4558, 28.8358) rotate(-140) translate(-32.4558, -28.8358)"></path>
                    <path d="M7.01768917,13.7191191 C7.03129934,14.1259907 7.05432622,14.5322897 7.0543747,14.9393939 C7.05443955,15.7483014 7.00504988,16.5513457 6.88598775,17.3490863 C6.81512792,17.8237246 7.48652809,18.0439728 7.57930298,17.5558222 C7.73163343,16.7542948 7.83730999,15.937002 7.86045911,15.1173191 C7.87190842,14.7112293 7.87115831,14.302284 7.83832172,13.8968177 C7.81012065,13.5482702 7.82026452,13.1220719 7.54269951,12.8875243 C7.44315494,12.8034211 7.27403751,12.7548985 7.1782793,12.8806944 C6.97653717,13.1458695 7.00654869,13.3861574 7.01768917,13.7191191" id="Fill-20" fill="#3E52CE" transform="translate(7.374, 15.3174) rotate(-140) translate(-7.374, -15.3174)"></path>
                    <path d="M9.4456617,16.5860673 C9.50383155,17.284842 9.56204923,17.9835633 9.62021908,18.682338 C9.66482998,19.2177296 10.4113894,19.2483516 10.3821412,18.6970339 C10.3434873,17.9683214 10.306037,17.2395626 10.2661797,16.5109498 C10.2331473,15.9073187 10.2674694,15.1651191 9.92585724,14.6611426 C9.82181893,14.5077114 9.58755029,14.5677954 9.5139398,14.7151124 C9.24871319,15.2458378 9.39720364,16.0038802 9.4456617,16.5860673" id="Fill-22" fill="#3E52CE" transform="translate(9.8717, 16.8344) rotate(-140) translate(-9.8717, -16.8344)"></path>
                    <path d="M11.9461817,16.5544752 C12.035234,16.9362529 12.1352569,17.3131016 12.2078584,17.6992652 C12.3516604,18.4644475 12.4446967,19.2336035 12.4732881,20.0127163 C12.4900049,20.469701 13.1162885,20.4854295 13.1269828,20.0251449 C13.1454487,19.2326056 13.1093659,18.4377472 12.9870755,17.6535801 C12.9017478,17.1061074 12.8186141,15.8696275 12.2814223,15.6160325 C12.1556565,15.5566488 12.0133996,15.5723013 11.9380398,15.7123803 C11.7881533,15.9909632 11.8762083,16.2544233 11.9461817,16.5544752" id="Fill-24" fill="#3E52CE" transform="translate(12.4938, 17.9732) rotate(-140) translate(-12.4938, -17.9732)"></path>
                    <path d="M14.2541699,19.4627547 C14.2035632,20.2217191 14.165088,20.9819855 14.1221049,21.7416904 C14.0931432,22.2529653 14.7843647,22.2518189 14.8287499,21.7553252 C14.8937315,21.0279064 14.9633155,20.300836 15.0217277,19.5726829 C15.0758589,18.8972193 15.1987307,18.1705256 14.972827,17.5192128 C14.9124489,17.3450515 14.7034672,17.2804395 14.607656,17.4588872 C14.2874802,18.0552924 14.2993716,18.7845664 14.2541699,19.4627547" id="Fill-26" fill="#3E52CE" transform="translate(14.6126, 19.7396) rotate(-140) translate(-14.6126, -19.7396)"></path>
                    <path d="M16.4007479,21.4496895 C16.200884,22.1766508 15.9581029,22.893823 15.6519284,23.5840778 C15.4654332,24.004468 16.0811449,24.3872423 16.3078481,23.9587258 C16.6804718,23.254239 17.0059637,22.5239866 17.2394854,21.7630109 C17.3962296,21.2523134 17.8736443,20.1367326 17.3953357,19.7088337 C17.2982029,19.6219078 17.1786457,19.6077054 17.0619775,19.6590099 C16.7420183,19.7997339 16.7149319,20.1136447 16.6452581,20.418558 C16.5665056,20.7632153 16.49453,21.1085454 16.4007479,21.4496895" id="Fill-28" fill="#3E52CE" transform="translate(16.61, 21.8878) rotate(-140) translate(-16.61, -21.8878)"></path>
                    <path d="M16.8927475,25.6619403 C16.7134077,26.168152 17.5020405,26.3808185 17.68857,25.8878577 C17.9440287,25.2125606 18.2216238,24.5480281 18.5204907,23.8916778 C18.7863708,23.3077139 19.0618609,22.7686917 19.1008191,22.1140929 C19.1129082,21.9113322 18.8703823,21.8485485 18.7390277,21.9555037 C18.1874232,22.404748 17.9301242,23.0477673 17.6567108,23.6931586 C17.3820935,24.3412806 17.1280066,24.9977952 16.8927475,25.6619403" id="Fill-30" fill="#3E52CE" transform="translate(17.9838, 24.0356) rotate(-140) translate(-17.9838, -24.0356)"></path>
                    <path d="M18.1538812,28.1311841 C17.9501901,28.5532588 18.5521621,28.9284607 18.7845127,28.5096678 C19.164068,27.8257254 19.5474127,27.1438958 19.9226518,26.4574623 C20.2240678,25.9061475 20.6933775,25.2579543 20.5827822,24.5957395 C20.5573103,24.4431931 20.3825307,24.3991048 20.2654135,24.4529422 C19.6753286,24.7241383 19.4084419,25.5377938 19.1364359,26.0950741 C18.8058832,26.7721872 18.481382,27.4524985 18.1538812,28.1311841" id="Fill-32" fill="#3E52CE" transform="translate(19.3559, 26.5617) rotate(-140) translate(-19.3559, -26.5617)"></path>
                    <path d="M19.1603168,30.6658033 C18.9473936,30.9933055 19.4568673,31.4286521 19.6916296,31.1089363 C20.0811735,30.5784213 20.4579042,30.0380872 20.8106188,29.4787136 C21.1348857,28.9645017 21.5326419,28.4054014 21.5969024,27.7734659 C21.6280887,27.4674478 21.2626355,27.3825364 21.0832574,27.5365052 C20.6516709,27.9069443 20.4114117,28.554404 20.1330037,29.0546034 C19.8270285,29.6044124 19.5017396,30.1405627 19.1603168,30.6658033" id="Fill-34" fill="#3E52CE" transform="translate(20.3541, 29.3411) rotate(-140) translate(-20.3541, -29.3411)"></path>
                    <path d="M21.5907315,32.1899633 C21.473701,32.9126181 21.3987546,33.6431815 21.3601668,34.3773908 C21.3336768,34.8817552 22.0128743,34.8842177 22.051353,34.390844 C22.1075518,33.670496 22.2022705,32.9577674 22.3416378,32.2528559 C22.4634005,31.6371076 22.6815092,31.0244594 22.5516441,30.3884524 C22.5198759,30.232947 22.3501173,30.1939717 22.2530025,30.291376 C21.7846139,30.7612149 21.698513,31.5244108 21.5907315,32.1899633" id="Fill-36" fill="#3E52CE" transform="translate(21.9755, 32.4983) rotate(-140) translate(-21.9755, -32.4983)"></path>
                    <g id="Group-40" stroke-width="1" fill="none" transform="translate(18.4821, 17.3409) rotate(-140) translate(-18.4821, -17.3409)translate(1.1389, 9.2566)">
                        <mask id="mask-6" fill="white">
                            <use xlink:href="#path-5"></use>
                        </mask>
                        <g id="Clip-39"></g>
                        <path d="M33.150512,4.33908966 C33.5520345,4.75649881 33.8941696,5.24662378 34.1561052,5.80204896 C35.4430794,8.53073321 34.3073068,11.801932 31.6191556,13.1084162 C26.2575162,15.7141291 20.5080186,16.6830688 14.9922345,15.9101897 C9.6981286,15.1685202 4.92006324,12.823528 1.5375514,9.30702672 C1.5365003,9.30595973 1.5355543,9.30499943 1.53445064,9.30382573 C-0.547159794,7.13883589 -0.505641105,3.67066952 1.62715819,1.55753572 C3.7595896,-0.555171273 7.17547406,-0.513184949 9.25729472,1.65073789 C9.25803049,1.65153814 9.25881882,1.65233839 9.25955459,1.65313864 C10.9761159,3.43769077 13.5358219,4.64654479 16.4678297,5.0573919 C19.8824528,5.53572656 23.5100826,4.90273072 26.9586039,3.22669216 C29.0994967,2.18621023 31.5794764,2.70589102 33.150512,4.33908966" id="Fill-38" fill="#3E52CE" mask="url(#mask-6)"></path>
                    </g>
                </g>
            </g>
            <g id="Group-43" mask="url(#mask-2)">
                <g transform="translate(11.8908, 48.5874) rotate(-149) translate(-11.8908, -48.5874)translate(-2.9753, 34.6392)">
                    <path d="M10.7830747,2.00838149 C11.1356859,2.61510298 11.4671422,3.23875852 11.7706838,3.87468427 C11.9124672,4.17178382 12.0452645,4.47361977 12.1802587,4.77420827 C12.3135378,5.07108811 12.4200954,5.38226264 12.6745361,5.58065505 C12.7726264,5.65719073 12.9409689,5.58164147 12.9617085,5.4571191 C13.0603119,4.86427255 12.6078084,4.12397557 12.3618103,3.61006341 C12.0458012,2.9500233 11.6904063,2.31916217 11.2996498,1.70594738 C11.0872216,1.37257122 10.5788036,1.65689972 10.7830747,2.00838149" id="Fill-1" fill="#2B3990" transform="translate(11.8556, 3.5845) rotate(-140) translate(-11.8556, -3.5845)"></path>
                    <g id="Group-5" stroke-width="1" fill="none" transform="translate(15.1671, 4.8039) rotate(-140) translate(-15.1671, -4.8039)translate(14.565, 2.3654)">
                        <mask id="mask-8" fill="white">
                            <use xlink:href="#path-7"></use>
                        </mask>
                        <g id="Clip-4"></g>
                        <path d="M0.00463508961,0.38247037 C0.120494598,1.16401039 0.236159906,1.94559377 0.351747535,2.72717714 C0.40938599,3.11694985 0.4583243,3.50824019 0.526682575,3.89601828 C0.58424335,4.22248382 0.630695905,4.56035331 0.82450715,4.82117018 C0.89022431,4.90962677 1.04375855,4.88937715 1.08807491,4.78496368 C1.34639928,4.17652108 1.10710647,3.25496815 1.01214285,2.61938151 C0.891777907,1.8139929 0.736767751,1.01992153 0.549403933,0.230749968 C0.455488985,-0.164789759 -0.0536636438,-0.0106844981 0.00463508961,0.38247037" id="Fill-3" fill="#2B3990" mask="url(#mask-8)"></path>
                    </g>
                    <path d="M16.8108938,6.95551355 C16.7946715,7.46027939 16.6974592,8.10818721 16.9603983,8.56282232 C17.0345678,8.6910624 17.1823083,8.68049328 17.259999,8.56843449 C17.553475,8.14498534 17.5021772,7.47116032 17.523587,6.96888587 C17.5491861,6.3689911 17.5571839,5.7678638 17.5713769,5.1673995 C17.5822845,4.70383609 16.9213513,4.69644817 16.8978337,5.15476508 C16.8671021,5.75479548 16.8302184,6.35478854 16.8108938,6.95551355" id="Fill-6" fill="#2B3990" transform="translate(17.1758, 6.7355) rotate(-140) translate(-17.1758, -6.7355)"></path>
                    <path d="M19.7581743,7.36170882 C19.73041,7.97973085 19.6686601,8.59312413 19.5804879,9.20402066 C19.5151539,9.65638814 19.2578187,10.3509115 19.4740749,10.7783276 C19.5214479,10.8720717 19.6572026,10.924839 19.7447815,10.8622872 C20.1626808,10.5638428 20.1896922,9.74968247 20.2554281,9.26573411 C20.340579,8.63900671 20.3750983,8.00713235 20.3797199,7.37328253 C20.3828434,6.94903347 19.7770552,6.94139377 19.7581743,7.36170882" id="Fill-8" fill="#2B3990" transform="translate(19.8845, 8.9701) rotate(-140) translate(-19.8845, -8.9701)"></path>
                    <path d="M22.587464,10.4669328 C22.6281202,10.0547108 21.9586181,9.94538719 21.897669,10.3603297 C21.8170569,10.9094634 21.7110291,11.4520991 21.5955673,11.9937152 C21.5038519,12.4239145 21.2706935,12.987216 21.4776707,13.4089906 C21.5332207,13.5222009 21.6813374,13.5652741 21.7841737,13.5038179 C22.1947736,13.2584258 22.2619842,12.5880689 22.3523159,12.1419802 C22.4640221,11.5905853 22.5321352,11.0281197 22.587464,10.4669328" id="Fill-10" fill="#2B3990" transform="translate(21.9919, 11.815) rotate(-140) translate(-21.9919, -11.815)"></path>
                    <path d="M24.5832156,13.3511777 C24.7051287,12.9417357 24.0340152,12.7691405 23.8967075,13.1720201 C23.7382076,13.6369473 23.5616016,14.0945951 23.3776214,14.5510034 C23.2339524,14.9074079 22.8808475,15.4153244 23.0373834,15.7986436 C23.0984666,15.9482949 23.2390134,16.0070389 23.3973857,15.9461121 C23.8093664,15.7876297 23.9494035,15.1685715 24.0919019,14.8093992 C24.2813461,14.3318867 24.4370756,13.8418497 24.5832156,13.3511777" id="Fill-12" fill="#2B3990" transform="translate(23.7981, 14.4565) rotate(-140) translate(-23.7981, -14.4565)"></path>
                    <path d="M26.3581971,16.0092453 C26.5565219,15.6879373 26.0705582,15.4190628 25.8567033,15.7134595 C25.5247888,16.1704121 25.2012325,16.6327372 24.8788033,17.0965243 C24.6044181,17.4911697 24.2356567,17.9237009 24.2016885,18.4225415 C24.1916485,18.5703694 24.3612355,18.6471931 24.4787321,18.5900312 C24.9215431,18.3745646 25.1945907,17.8342675 25.4526695,17.4349913 C25.7583505,16.9620388 26.0623301,16.488577 26.3581971,16.0092453" id="Fill-14" fill="#2B3990" transform="translate(25.303, 17.0979) rotate(-140) translate(-25.303, -17.0979)"></path>
                    <path d="M26.8214676,18.9347033 C26.4224441,19.3046324 26.0235849,19.6740063 25.6330471,20.0532304 C25.3206834,20.3564989 24.8095441,20.6962199 24.800661,21.1753731 C24.7979826,21.3217551 24.9237127,21.4532966 25.0673969,21.4540047 C25.5374107,21.4562504 25.8818876,20.943315 26.186777,20.6315708 C26.5676077,20.2422311 26.9390336,19.84419 27.3109616,19.4459807 C27.618263,19.1170052 27.1516795,18.6285475 26.8214676,18.9347033" id="Fill-16" fill="#2B3990" transform="translate(26.1059, 20.1459) rotate(-140) translate(-26.1059, -20.1459)"></path>
                    <path d="M26.8408326,22.1820755 C26.4833938,22.5169437 26.1098373,22.8362173 25.7231303,23.1428449 C25.3929378,23.4046898 24.9583628,23.6573901 24.8088136,24.0477189 C24.7650017,24.1620336 24.883411,24.3067207 25.0170996,24.2994624 C25.4776166,24.2744749 25.8603734,23.9406837 26.1893486,23.674094 C26.5910837,23.3485277 26.963784,22.9968902 27.3210789,22.6309871 C27.60877,22.336405 27.1488534,21.8935184 26.8408326,22.1820755" id="Fill-18" fill="#2B3990" transform="translate(26.1058, 23.194) rotate(-140) translate(-26.1058, -23.194)"></path>
                    <path d="M5.64466303,11.0349437 C5.65561034,11.3622099 5.67413196,11.6890156 5.67417095,12.016469 C5.67422311,12.667112 5.63449664,13.3130389 5.53872928,13.9546999 C5.48173333,14.3364741 6.02177259,14.5136303 6.09639588,14.1209874 C6.21892254,13.4762806 6.30392325,12.8188929 6.32254319,12.1595827 C6.33175243,11.8329453 6.33114908,11.504011 6.30473703,11.1778751 C6.28205357,10.8975217 6.29021276,10.55471 6.06695396,10.3660521 C5.9868855,10.298404 5.85085626,10.2593749 5.77383335,10.3605586 C5.6115625,10.5738515 5.63570221,10.7671266 5.64466303,11.0349437" id="Fill-20" fill="#2B3990" transform="translate(5.9312, 12.3205) rotate(-140) translate(-5.9312, -12.3205)"></path>
                    <path d="M7.59759745,13.3409672 C7.64438624,13.9030251 7.69121351,14.4650401 7.7380023,15.0270979 C7.77388498,15.457739 8.37437842,15.4823698 8.35085271,15.0389186 C8.31976149,14.4527802 8.28963847,13.8666047 8.25757931,13.2805466 C8.23100975,12.7950172 8.2586167,12.1980306 7.98384169,11.7926581 C7.90015871,11.6692461 7.71172524,11.7175746 7.6525168,11.8360687 C7.43918235,12.2629565 7.55862032,12.8726863 7.59759745,13.3409672" id="Fill-22" fill="#2B3990" transform="translate(7.9403, 13.5407) rotate(-140) translate(-7.9403, -13.5407)"></path>
                    <path d="M9.60888531,13.3155562 C9.6805143,13.6226382 9.76096754,13.9257557 9.81936433,14.2363655 C9.93503118,14.8518382 10.0098648,15.4705072 10.0328622,16.0971849 C10.0463083,16.4647595 10.5500581,16.4774107 10.5586601,16.1071818 C10.5735131,15.4697045 10.5444899,14.8303619 10.4461259,14.1996188 C10.3774928,13.7592603 10.3106244,12.7647004 9.87853533,12.5607218 C9.7773759,12.5129567 9.66295186,12.5255467 9.60233638,12.6382189 C9.48177549,12.8622965 9.55260229,13.07421 9.60888531,13.3155562" id="Fill-24" fill="#2B3990" transform="translate(10.0493, 14.4567) rotate(-140) translate(-10.0493, -14.4567)"></path>
                    <path d="M11.4653105,15.6548245 C11.4246052,16.2652958 11.3936577,16.8768144 11.3590844,17.4878814 C11.3357891,17.8991243 11.8917716,17.8982022 11.9274728,17.4988486 C11.9797406,16.9137508 12.0357103,16.3289333 12.082694,15.743245 C12.1262343,15.1999372 12.225066,14.6154228 12.0433608,14.0915408 C11.9947959,13.9514544 11.8267019,13.8994839 11.7496363,14.0430179 C11.4921037,14.5227352 11.5016685,15.1093251 11.4653105,15.6548245" id="Fill-26" fill="#2B3990" transform="translate(11.7536, 15.8775) rotate(-140) translate(-11.7536, -15.8775)"></path>
                    <path d="M13.1919059,17.2530111 C13.0311458,17.8377408 12.8358653,18.4145967 12.5895946,18.9698017 C12.4395876,19.3079416 12.9348339,19.6158253 13.1171821,19.271149 C13.4169012,18.7044966 13.6787099,18.1171196 13.8665426,17.5050305 C13.9926195,17.0942521 14.3766269,16.1969371 13.9919004,15.8527575 C13.9137719,15.7828389 13.8176063,15.7714152 13.7237645,15.8126819 C13.4664061,15.9258729 13.4446191,16.1783664 13.3885771,16.4236227 C13.3252328,16.700847 13.2673393,16.9786126 13.1919059,17.2530111" id="Fill-28" fill="#2B3990" transform="translate(13.3602, 17.6054) rotate(-140) translate(-13.3602, -17.6054)"></path>
                    <path d="M13.5876448,20.6411259 C13.4433932,21.0482962 14.0777282,21.219354 14.2277628,20.8228421 C14.4332405,20.2796683 14.6565235,19.745153 14.8969164,19.2172191 C15.1107765,18.747509 15.3323664,18.3139476 15.3637023,17.7874226 C15.3734262,17.6243324 15.178351,17.5738325 15.0726962,17.6598616 C14.6290143,18.0212103 14.4220565,18.5384216 14.2021369,19.0575406 C13.9812492,19.5788561 13.7768749,20.1069222 13.5876448,20.6411259" id="Fill-30" fill="#2B3990" transform="translate(14.4653, 19.3329) rotate(-140) translate(-14.4653, -19.3329)"></path>
                    <path d="M14.6020348,22.6272568 C14.4381964,22.9667516 14.9223913,23.2685445 15.1092819,22.9316893 C15.4145764,22.3815617 15.7229189,21.8331335 16.0247416,21.2810023 C16.2671849,20.8375535 16.6446732,20.3161806 16.5557161,19.7835296 C16.5352278,19.6608292 16.3946443,19.6253669 16.3004413,19.6686709 C15.8258078,19.8868069 15.611138,20.5412689 15.3923506,20.9895161 C15.1264713,21.5341506 14.8654595,22.0813575 14.6020348,22.6272568" id="Fill-32" fill="#2B3990" transform="translate(15.5689, 21.3649) rotate(-140) translate(-15.5689, -21.3649)"></path>
                    <path d="M15.4115592,24.6659722 C15.2402949,24.9293979 15.6500889,25.279568 15.8389194,25.0224053 C16.1522482,24.5956867 16.4552707,24.1610701 16.738976,23.7111392 C16.9997994,23.2975339 17.3197337,22.8478229 17.3714215,22.3395269 C17.3965061,22.0933819 17.1025546,22.0250837 16.9582722,22.1489281 C16.6111266,22.44689 16.4178746,22.9676728 16.1939378,23.3700071 C15.9478273,23.8122447 15.6861818,24.2434961 15.4115592,24.6659722" id="Fill-34" fill="#2B3990" transform="translate(16.3718, 23.6004) rotate(-140) translate(-16.3718, -23.6004)"></path>
                    <path d="M17.3664579,25.891927 C17.2723247,26.4731928 17.2120418,27.0608199 17.1810037,27.6513796 C17.1596966,28.057064 17.7060076,28.0590447 17.7369579,27.6622006 C17.7821612,27.0827902 17.858348,26.5095086 17.9704478,25.9425146 C18.0683874,25.4472387 18.2438226,24.9544564 18.1393659,24.4428856 C18.1138132,24.3178052 17.9772683,24.2864555 17.8991542,24.3648024 C17.5224068,24.7427163 17.4531518,25.3565913 17.3664579,25.891927" id="Fill-36" fill="#2B3990" transform="translate(17.6759, 26.1399) rotate(-140) translate(-17.6759, -26.1399)"></path>
                    <g id="Group-40" stroke-width="1" fill="none" transform="translate(14.8661, 13.9481) rotate(-140) translate(-14.8661, -13.9481)translate(0.9161, 7.4456)">
                        <mask id="mask-10" fill="white">
                            <use xlink:href="#path-9"></use>
                        </mask>
                        <g id="Clip-39"></g>
                        <path d="M26.6645423,3.49013734 C26.987506,3.82587947 27.2627016,4.22011043 27.473389,4.66686547 C28.5085639,6.86167671 27.5950076,9.49285832 25.4327991,10.5437261 C21.1201761,12.6396255 16.4955802,13.4189902 12.0589712,12.7973265 C7.80066865,12.2007663 3.95744217,10.3145769 1.23672613,7.48608671 C1.23588067,7.48522848 1.23511976,7.48445606 1.23423204,7.483512 C-0.440106791,5.74210713 -0.406711323,2.95249505 1.30880116,1.25280047 C3.02401772,-0.446550807 5.77157696,-0.412779198 7.44608488,1.32776744 C7.4466767,1.32841111 7.44731079,1.32905479 7.44790261,1.32969847 C8.82861496,2.7650991 10.8875089,3.7374382 13.245863,4.06790218 C15.9924077,4.45264963 18.9102838,3.94350079 21.6840945,2.59538282 C23.4061169,1.75847345 25.4008832,2.17647756 26.6645423,3.49013734" id="Fill-38" fill="#2B3990" mask="url(#mask-10)"></path>
                    </g>
                </g>
            </g>
            <path d="M25.9282312,82.4699879 C25.7117711,83.0385201 26.0546662,83.7532742 26.6344714,83.9420906 C27.2159215,84.1314388 27.9719088,83.8723704 28.3860681,84.3211416 C28.6857511,84.6458082 28.6111527,85.148698 28.6266681,85.5896684 C28.6427615,86.0483237 28.7935588,86.5234228 29.1378765,86.8280111 C29.4821942,87.1325993 30.0449724,87.2116717 30.4048944,86.9256105 C30.6840829,86.7037735 30.8001595,86.3155032 31.0986867,86.1203487 C31.4993756,85.8583992 32.0504172,86.0592271 32.4108283,86.374054 C32.7712393,86.6888366 33.0376687,87.1080887 33.4339563,87.3765979 C33.830244,87.6451515 34.4497046,87.6974971 34.7292487,87.3094928 C35.2382343,86.6030271 34.085737,85.4431362 34.7079095,84.8333392 C35.2696208,84.2828465 36.3452078,85.1667375 36.96618,84.6836158 C37.3042737,84.4205583 37.279289,83.8855343 37.0730985,83.5106053 C36.8669525,83.1356763 36.5273917,82.8521415 36.2837686,82.5002605 C36.0401455,82.1483796 35.904419,81.6556398 36.1466194,81.3027837 C36.5725153,80.6822605 37.6717089,81.0549733 38.202256,80.5205699 C38.5633338,80.1568989 38.4740202,79.5283976 38.1850957,79.1054223 C37.8961267,78.6824914 37.4564492,78.3894272 37.096705,78.0244266 C36.7369609,77.6593816 36.4430127,77.1511731 36.567136,76.6546659 C36.8695754,75.4450445 39.0988156,75.6390024 39.3726693,74.4226439 C39.526712,73.738517 38.9146312,73.1462719 38.3795496,72.6912511 C37.8444679,72.2362303 37.2757324,71.5703646 37.5321146,70.9174855 C37.8518922,70.1032261 39.0672513,70.1903653 39.7433943,69.6334014 C40.4347415,69.0638497 40.2644721,67.7761754 39.4487348,67.4047036 C38.9350813,67.170855 38.2323532,67.2287409 37.926624,66.7554147 C37.6401446,66.3118735 37.9355154,65.7132016 38.3276241,65.3589272 C38.7197328,65.0046971 39.2194713,64.7466924 39.4870121,64.2915829 C39.9454503,63.5118512 39.3623109,62.3485474 38.4616168,62.2460281 C37.8285524,62.1739588 37.100306,62.5219393 36.5967887,62.1326497 C36.1806733,61.8109084 36.2033018,61.1945515 36.1857414,60.6698548 C36.1682254,60.1451581 35.9385618,59.495559 35.4128605,59.4652863 C35.0231524,59.4428588 34.7119106,59.8011666 34.5792516,60.1671424 C34.4465481,60.5331181 34.4233417,60.9356161 34.2558731,61.2871425 C34.08836,61.6386245 33.6916722,61.9378497 33.3246816,61.8052793 C32.8329897,61.6275881 32.763815,60.8395679 32.2560742,60.7144438 C31.8667219,60.6185287 31.5082669,61.0218688 31.4636323,61.4192253 C31.4189977,61.8166261 31.5771749,62.204586 31.6656884,62.5945406 C31.7542462,62.9845394 31.752957,63.4464303 31.4622542,63.7218983 C31.0251997,64.1360532 30.3136246,63.8478202 29.7924135,63.5454924 C29.2712468,63.2431646 28.554737,62.9610925 28.1241732,63.3819402 C27.7277967,63.7693683 27.9292303,64.4577502 28.2909306,64.8775341 C28.6525864,65.2973624 29.1505467,65.6147157 29.3885682,66.1146358 C29.6266342,66.6145559 29.3812328,67.394199 28.8263234,67.3809464 C28.4843175,67.372791 28.2078853,67.0666071 27.8665463,67.0446228 C27.4193112,67.0158128 27.0810396,67.5249078 27.1447017,67.9671635 C27.2083194,68.4094193 27.550592,68.7615219 27.9196721,69.0149613 C28.3705971,69.3246467 28.9668068,69.6908884 28.8702467,70.2282172 C28.7944924,70.6499957 28.3056013,70.864741 27.8762823,70.8837113 C27.4469633,70.9026373 27.0073748,70.8010931 26.5920152,70.9110143 C25.7109709,71.1440651 25.3702098,72.4542113 26.026614,73.0847515 C26.3630184,73.4079554 26.8420845,73.5242149 27.2581109,73.7361236 C27.6741818,73.9480323 28.0722922,74.3584197 27.9857349,74.8160999 C27.8764157,75.3942503 27.1452797,75.5602402 26.5636073,75.6593467 C25.9819349,75.7584531 25.2638692,76.1231878 25.3773673,76.7005403 C25.4474757,77.0572082 25.8241579,77.2682304 26.1796342,77.3488098 C26.5351105,77.4293891 26.9153492,77.4317826 27.2404171,77.5962656 C27.5655295,77.7607485 27.8087969,78.1787596 27.6199446,78.489686 C27.4434512,78.7802239 27.0345378,78.7908171 26.6938212,78.7934765 C26.1810123,78.7975099 25.6329938,78.8770255 25.2513324,79.2185349 C24.8697155,79.5600886 24.7613299,80.2368578 25.1510379,80.5692366 C25.4204015,80.7990075 25.8153999,80.7936444 26.1666973,80.7460857 C26.5899702,80.688776 27.8526758,80.5942348 27.4637679,81.3507856 C27.1653741,81.9311964 26.2001732,81.7557213 25.9282312,82.4699879" id="Combined-Shape" fill="#2B3990" mask="url(#mask-2)" transform="translate(32.5406, 73.5268) rotate(279) translate(-32.5406, -73.5268)"></path>
            <path d="M67.1121511,66.2610622 C64.6052379,69.281474 58.440223,72.6746996 54.3952519,74.0674106 L54.3952519,74.0674106 C50.8999717,75.2816395 50.6591035,78.7334403 52.7852027,80.9193281 C54.9119748,83.1052159 61.4611677,81.8117382 67.9511529,77.5074963 C74.4418109,73.2039435 76.3438623,67.1458919 74.1962329,64.8476776 C72.0486036,62.5487741 69.6190643,63.2406504 67.1121511,66.2610622" id="Fill-24" fill="#2B3990" mask="url(#mask-2)" transform="translate(63.2326, 72.7232) rotate(19) translate(-63.2326, -72.7232)"></path>
            <g id="Group-8" mask="url(#mask-2)">
                <g transform="translate(40.5764, 56.6518) rotate(-106) translate(-40.5764, -56.6518)translate(29.7281, 45.8036)" id="Group-3">
                    <g transform="translate(0, 0)">
                        <mask id="mask-12" fill="white">
                            <use xlink:href="#path-11"></use>
                        </mask>
                        <g id="Clip-2"></g>
                        <path d="M19.9087172,2.01704785 C22.3643289,4.62922946 22.2796448,8.77787969 19.71958,11.2834263 C18.6649658,12.3156183 17.3546567,12.9067634 16.0067354,13.063855 C15.0883521,13.2885687 14.0886835,13.3349795 13.3290758,13.4082658 C12.2003701,13.5171548 10.9868671,13.8399496 10.3106973,14.7685121 C10.0388019,15.1418791 9.85855796,15.4850761 9.80797409,15.9422484 C9.74793053,16.484902 9.64313752,17.0223539 9.48764736,17.5451255 C9.17502433,18.5963326 8.6558741,19.6087582 7.87292872,20.3750274 C6.01837571,22.1901341 3.07289917,22.1274825 1.29402371,20.2352749 C0.304777717,19.1829118 -0.159370339,17.6958594 0.0489694892,16.2534261 C0.29305223,14.5635649 1.38998012,13.4436952 2.7453219,12.5461118 C3.44499932,12.0827553 4.20018871,11.7067297 4.98885522,11.4296521 C5.6420272,11.200199 6.32284188,11.1129259 6.91789623,10.7415818 C7.58874142,10.3229022 8.2104755,10.0040954 8.52938611,9.22152749 C8.81685882,8.51617603 8.81957777,7.72730829 8.86472373,6.97693317 C8.74758214,5.11564685 9.40454933,3.21621468 10.8270719,1.82406452 C13.3871368,-0.681482094 17.4531621,-0.595075962 19.9087172,2.01704785 Z M6.76893722,14.8769735 C5.64748211,13.6840487 3.79055001,13.6445735 2.62139992,14.7888335 C1.45224982,15.9330934 1.41356138,17.8277862 2.53501649,19.020711 C3.65647161,20.2136358 5.5134037,20.253111 6.6825538,19.108851 C7.85176054,17.9645911 7.89039234,16.0698983 6.76893722,14.8769735 Z M13.5861302,3.34261038 C12.4169801,4.4868703 12.3782917,6.38156314 13.4997468,7.57448792 C14.6212019,8.76747049 16.478134,8.80688787 17.6472841,7.66262795 C18.8164342,6.51836803 18.8551226,4.62367519 17.7336675,3.43075041 C16.6122124,2.23782563 14.7552803,2.19835045 13.5861302,3.34261038 Z" id="Combined-Shape" fill="#3E52CE" mask="url(#mask-12)"></path>
                    </g>
                </g>
            </g>
            <g id="Group-8" mask="url(#mask-2)" fill="#3E52CE">
                <g transform="translate(34.4878, 22.5) rotate(3) translate(-34.4878, -22.5)translate(17.6128, 1.1629)">
                    <path d="M20.5488328,2.34882718 C21.2212532,2.38970657 21.5150142,3.26690761 21.5374187,3.97544376 C21.5598801,4.68397992 21.5309362,5.51629144 22.0631861,5.95076212 C22.7072312,6.47644831 23.6387254,6.00654483 24.4484731,6.10386531 C25.6005439,6.24230458 26.346433,7.81319831 25.7600483,8.86612685 C25.4178389,9.48069428 24.7786272,9.82909679 24.2770841,10.3074395 C23.7755409,10.7858421 23.3977344,11.5942724 23.764168,12.1932182 C23.9876285,12.5584565 24.3769006,12.689463 24.7921095,12.7935913 L25.1061938,12.8698878 C25.3159114,12.9217122 25.5233709,12.9797766 25.7110881,13.0700003 C26.7544912,13.5716257 26.9722815,15.3104661 26.0879847,16.0795732 C25.2231355,16.8316821 23.6685791,16.7140117 23.2595542,17.8135655 C22.9316177,18.6951956 23.6590828,19.5943626 24.3435016,20.2088103 C25.0279203,20.823258 25.8108281,21.6230097 25.6137933,22.546836 C25.2635092,24.1893734 22.4121054,23.927458 22.0252576,25.5608978 C21.8664924,26.2313676 22.2424792,26.9176386 22.7026252,27.4105854 C23.1627711,27.9034723 23.7251591,28.2992183 24.0947771,28.8703326 C24.4643382,29.4415069 24.5785786,30.290218 24.1167267,30.7813094 C23.4381081,31.5029533 22.0321382,30.999652 21.4873781,31.8375896 C21.1775814,32.3140769 21.3511881,32.9794593 21.6628045,33.4546298 C21.9744209,33.9298003 22.4087504,34.312678 22.6724302,34.8189719 C22.9361669,35.3252658 22.9681246,36.0477476 22.5356716,36.4029734 C21.741391,37.0553677 20.365616,35.8617853 19.6471355,36.6051557 C18.8513195,37.4286091 20.3254698,38.9948941 19.6744303,39.9488862 C19.3168676,40.4728366 18.5245204,40.4021506 18.0176319,40.0395032 C17.5107435,39.6769156 17.1699557,39.110769 16.7089568,38.6856951 C16.2479579,38.2605615 15.5431248,37.9893689 15.0306069,38.3430983 C14.648763,38.6066297 14.5002903,39.1309393 14.1431825,39.430502 C13.6828091,39.8167913 12.9629639,39.7100141 12.5225498,39.2987064 C12.0821358,38.8873987 11.889252,38.2458377 11.8686672,37.6264821 C11.866863,37.572348 11.8660115,37.517523 11.8656662,37.4622505 L11.8661002,37.1271962 C11.8652591,36.6784966 11.8396974,36.2323497 11.5609175,35.9134981 C11.0311697,35.3074896 10.0641922,35.6573285 9.32046392,35.4016378 C8.57883966,35.1466654 8.14024527,34.1814809 8.41711757,33.4137504 C8.57944242,32.9636382 8.93487996,32.7751823 9.30663025,32.6225402 L9.62514469,32.4952074 C9.93940687,32.3661105 10.2285414,32.2159185 10.3812107,31.9024101 C10.8786596,30.8807845 9.26354276,31.0084503 8.72213771,31.0858398 C8.27279597,31.1500618 7.76755662,31.157304 7.42301579,30.8470276 C6.92454329,30.3981923 7.06317847,29.4843015 7.55130166,29.0230767 C8.03948172,28.5619117 8.74044801,28.454536 9.39637777,28.4490894 C9.83218581,28.4454982 10.3552237,28.4311934 10.580975,28.0388591 C10.8225345,27.6189924 10.5113731,27.0545217 10.0955244,26.8324084 C9.6797326,26.610295 9.1933722,26.607063 8.73868522,26.4982508 C8.28399823,26.3894386 7.80218698,26.1044799 7.71251197,25.6228453 C7.5673374,24.8432042 8.48580965,24.3506764 9.22982222,24.2168458 C9.97383479,24.0830152 10.9090252,23.8588668 11.0488545,23.0781483 C11.1595693,22.4601094 10.6503494,21.9059334 10.1181564,21.6197777 C9.58602023,21.3336219 8.97325048,21.1766283 8.54295828,20.7401825 C7.70335681,19.8887181 8.13922171,18.1195324 9.26615851,17.804827 C9.79744172,17.6563923 10.359716,17.7935148 10.9088546,17.7679577 C11.4579932,17.7423408 12.0833299,17.4523545 12.1802267,16.8827963 C12.303736,16.1572021 11.5411288,15.6626393 10.9643541,15.2444486 C10.4922667,14.9022109 10.0544684,14.4267411 9.97309556,13.829531 C9.89166587,13.2323208 10.3243464,12.5448528 10.8964013,12.583757 C11.3330054,12.613444 11.6865877,13.0269064 12.1240448,13.0379193 C12.833825,13.0558152 13.147716,12.0030064 12.8432076,11.3279279 C12.5387561,10.6528494 11.9018191,10.2243041 11.4392279,9.65737942 C10.9765799,9.09051459 10.7189278,8.16094244 11.2259299,7.63777007 C11.7766607,7.06946877 12.6931427,7.4503713 13.359763,7.8586265 C14.0264401,8.26688171 14.9366102,8.65610376 15.4956431,8.09684021 C15.8674788,7.72485574 15.8691279,7.10113084 15.7558542,6.57448702 C15.6426374,6.04790304 15.4403142,5.52401244 15.4974059,4.98737321 C15.5544977,4.45079383 16.0129946,3.90613435 16.5110122,4.03565557 C17.1604594,4.20461972 17.2489403,5.26874071 17.8778595,5.50869015 C18.3472743,5.68770955 18.8546745,5.28364403 19.0689392,4.80901219 C19.2831471,4.3343205 19.3128302,3.79079821 19.4825702,3.29659454 C19.6522533,2.80239087 20.0503603,2.31854172 20.5488328,2.34882718 Z M18.6432265,7.6720613 C16.5322234,7.36477184 14.5466842,10.8119592 13.1824496,21.1419131 C11.8181577,31.4718068 13.2795553,34.9717429 15.3906157,35.2790323 C17.5016188,35.5863218 19.4628672,32.5847011 20.8271019,22.2547472 C22.1913938,11.9248535 20.7542296,7.97935075 18.6432265,7.6720613 Z" id="Combined-Shape" transform="translate(16.875, 21.3371) rotate(25) translate(-16.875, -21.3371)"></path>
                    <path d="M17.4378232,17.0806292 C18.1395928,17.1979518 18.6429765,18.5235664 18.2615036,21.9581334 C17.8800873,25.3927016 17.2505812,26.3796731 16.5488116,26.2623504 C15.8469841,26.1449667 15.3386581,24.9677216 15.7200756,21.5332132 C16.1015485,18.0986462 16.7359957,16.9632454 17.4378232,17.0806292" id="Fill-6" transform="translate(16.9912, 21.672) rotate(25) translate(-16.9912, -21.672)"></path>
                </g>
            </g>
            <g id="Group-6" mask="url(#mask-2)" fill="#1F2B75">
                <g transform="translate(41.7526, 33.403)" id="Combined-Shape">
                    <path d="M7.59796936,-8.44376652e-15 C8.26628146,0.00643973794 8.92068949,0.0493083219 9.13009355,0.17917637 C13.0408307,0.824469013 15.9561648,5.639007 14.4347101,9.77970135 C14.009065,10.9397107 13.2855471,12.0595889 12.3596411,12.8729931 C10.8771677,14.1751585 8.94306171,14.7679413 7.00108067,14.8402172 C4.36727872,14.938249 1.98646193,13.3316061 0.809342643,10.9772463 C-0.215394922,8.92776332 -0.340410936,5.52180812 0.859939676,3.47332343 C1.89826166,1.70455873 3.88040533,0.264629728 5.87692092,0.0468035293 C5.9578189,0.0386357275 6.5421327,0.00621202953 7.19876242,0.000103053808 Z M5.82024965,4.1047019 C5.50288245,4.19625417 5.19429849,4.34203054 4.90367133,4.54949665 C3.55983793,5.50863445 3.35294419,7.8345731 4.01578489,9.26090256 C5.11407837,11.6233835 8.41754683,11.741262 9.83672079,9.66443985 C11.7210153,6.90745894 9.06789584,3.16894332 5.82024965,4.1047019 Z"></path>
                </g>
            </g>
            <g id="Group-6" mask="url(#mask-2)" fill="#2B3990">
                <g transform="translate(53.8144, 13.9184)" id="Combined-Shape">
                    <path d="M7.59796936,-8.44376652e-15 C8.26628146,0.00643973794 8.92068949,0.0493083219 9.13009355,0.17917637 C13.0408307,0.824469013 15.9561648,5.639007 14.4347101,9.77970135 C14.009065,10.9397107 13.2855471,12.0595889 12.3596411,12.8729931 C10.8771677,14.1751585 8.94306171,14.7679413 7.00108067,14.8402172 C4.36727872,14.938249 1.98646193,13.3316061 0.809342643,10.9772463 C-0.215394922,8.92776332 -0.340410936,5.52180812 0.859939676,3.47332343 C1.89826166,1.70455873 3.88040533,0.264629728 5.87692092,0.0468035293 C5.9578189,0.0386357275 6.5421327,0.00621202953 7.19876242,0.000103053808 Z M5.82024965,4.1047019 C5.50288245,4.19625417 5.19429849,4.34203054 4.90367133,4.54949665 C3.55983793,5.50863445 3.35294419,7.8345731 4.01578489,9.26090256 C5.11407837,11.6233835 8.41754683,11.741262 9.83672079,9.66443985 C11.7210153,6.90745894 9.06789584,3.16894332 5.82024965,4.1047019 Z"></path>
                </g>
            </g>
            <path d="M19.4841907,14.8453608 L21.3660262,19.9693282 C21.8468476,21.0559143 22.7055559,21.9554277 23.7998391,22.5205568 L26.9072165,24.1240373 L23.7998391,25.7268659 C22.7055559,26.2919949 21.8468476,27.1915084 21.3660262,28.2780945 L19.4841907,33.4020619 L17.603046,28.2780945 C17.1222246,27.1915084 16.2635163,26.2919949 15.1685422,25.7268659 L12.0618557,24.1233854 L15.1685422,22.5205568 C16.2635163,21.9554277 17.1222246,21.0559143 17.603046,19.9693282 L19.4841907,14.8453608 Z" id="Fill-19" fill="#FFFFFF" mask="url(#mask-2)"></path>
            <path d="M64.4651711,65.3362873 L65.8760296,61.2371134 L67.2874062,65.3362873 C67.6480223,66.2055562 68.2920535,66.9251669 69.1127659,67.3772702 L71.443299,68.6600545 L69.1127659,69.9423174 C68.2920535,70.3944207 67.6480223,71.1140314 67.2874062,71.9833003 L65.8760296,76.0824742 L64.4651711,71.9833003 C64.1045551,71.1140314 63.4605238,70.3944207 62.6392933,69.9423174 L60.3092784,68.6595331 L62.6392933,67.3772702 C63.4605238,66.9251669 64.1045551,66.2055562 64.4651711,65.3362873" id="Fill-19-Copy" fill="#FFFFFF" mask="url(#mask-2)"></path>
        </g>
    </g>
</svg>