<?xml version="1.0" encoding="UTF-8"?>
<svg width="118px" height="118px" viewBox="0 0 118 118" version="1.1" xmlns="http://www.w3.org/2000/svg" xmlns:xlink="http://www.w3.org/1999/xlink">
    <title>Group 66</title>
    <g id="R5---Dev-Facing" stroke="none" stroke-width="1" fill="none" fill-rule="evenodd">
        <g id="Homepage---Desktop" transform="translate(-230, -5736)">
            <g id="Group-66" transform="translate(230, 5736)">
                <path d="M57.3249425,108.76758 L53.8538537,114.088174 C53.2503244,115.013283 52.0111184,115.273974 51.0860097,114.670445 C50.7106605,114.425572 50.4284333,114.061727 50.2845988,113.637272 L48.2457385,107.62061 C47.8912353,106.574474 46.7557926,106.013794 45.7096562,106.368298 C45.4468774,106.457345 45.2055012,106.600095 45.0008736,106.787471 L40.3156576,111.077683 C39.501024,111.823636 38.2359186,111.76796 37.4899656,110.953326 C37.1873062,110.622801 37.0044302,110.200199 36.9706721,109.75331 L36.4921493,103.418628 C36.408947,102.317197 35.4486116,101.491759 34.3471802,101.574961 C34.0705119,101.595861 33.8012186,101.674098 33.5564212,101.804698 L27.9514674,104.79496 C26.9769161,105.314886 25.7654025,104.94634 25.2454761,103.971789 C25.0345236,103.576379 24.9624897,103.121575 25.0409291,102.68033 L26.1528112,96.4256606 C26.3461377,95.3381411 25.621251,94.2998102 24.5337315,94.1064837 C24.2605577,94.0579221 23.980268,94.0667305 23.7106825,94.1323491 L17.5381707,95.634771 C16.4649363,95.896002 15.3831384,95.2377431 15.1219074,94.1645086 C15.0159168,93.7290596 15.0592512,93.2706301 15.2449594,92.8627547 L17.8773827,87.0811009 C18.3350906,86.0758262 17.8912,84.8898445 16.8859253,84.4321366 C16.6334105,84.317165 16.359736,84.2559915 16.0823014,84.2525054 L9.73007326,84.1726847 C8.62559096,84.158806 7.74148203,83.2521953 7.7553607,82.147713 C7.76099177,81.6995857 7.91697149,81.2663353 8.1982798,80.9174579 L12.1858395,75.9721024 C12.8791693,75.1122376 12.744166,73.8531246 11.8843012,73.1597947 C11.6683119,72.9856374 11.4184487,72.8583257 11.1505971,72.7859538 L5.01778649,71.128906 C3.95145502,70.8407898 3.32058691,69.742793 3.60870314,68.6764615 C3.72560203,68.2438133 3.98442634,67.8629649 4.34365913,67.5950066 L9.43580221,63.7966843 C10.3211895,63.1362579 10.5035562,61.8831282 9.84312974,60.9977409 C9.67723734,60.7753407 9.46688514,60.5898903 9.22544675,60.4531801 L3.69740073,57.3230235 C2.73622161,56.7787732 2.39823409,55.5583814 2.94248447,54.5972023 C3.16330601,54.2072181 3.50871202,53.9027017 3.92329736,53.7324994 L9.80006573,51.3198729 C10.8218783,50.9003818 11.3101564,49.7319743 10.8906652,48.7101617 C10.7852934,48.4534928 10.6276694,48.2215562 10.4278147,48.0290978 L5.85188067,43.6225117 C5.05624832,42.8563244 5.03237838,41.5902194 5.79856566,40.7945871 C6.10943482,40.471771 6.51971941,40.2627206 6.96360738,40.2009687 L13.2557421,39.3256321 C14.3497757,39.1734346 15.1132848,38.1631645 14.9610872,37.0691309 C14.9228567,36.7943208 14.8278651,36.5304714 14.6821516,36.2943575 L11.3458524,30.8882239 C10.7657593,29.9482421 11.0575068,28.715978 11.9974886,28.1358849 C12.3788724,27.9005207 12.8282558,27.8000716 13.2735553,27.8506502 L19.5856984,28.5676042 C20.683211,28.6922634 21.6739769,27.9036098 21.798636,26.8060972 C21.8299491,26.5304132 21.8035585,26.2512297 21.721142,25.9862963 L19.8341095,19.9203025 C19.5060051,18.8655887 20.0950384,17.744593 21.1497523,17.4164886 C21.5776868,17.2833651 22.0379328,17.2978289 22.456664,17.4575599 L28.3922002,19.7217557 C29.424231,20.1154387 30.5800003,19.5979556 30.9736833,18.5659248 C31.0725725,18.3066892 31.1164411,18.0297137 31.1025001,17.7526076 L30.7833035,11.4079022 C30.7278038,10.3047278 31.5771119,9.36543695 32.6802862,9.30993722 C33.1278828,9.28741902 33.5700723,9.41588694 33.9359248,9.67473396 L39.1219027,13.3439037 C40.0236053,13.981874 41.2717568,13.7680767 41.9097272,12.8663741 C42.0699788,12.6398756 42.1813502,12.3825115 42.2367607,12.1106441 L43.5054564,5.88588837 C43.7260486,4.80357009 44.7822662,4.10500306 45.8645845,4.32559525 C46.3037191,4.41509727 46.7000677,4.64949718 46.9900536,4.99119586 L51.1006191,9.83479213 C51.8153363,10.6769638 53.0774441,10.780286 53.9196157,10.0655688 C54.1311607,9.88603911 54.303037,9.66445747 54.4243173,9.4149114 L57.2011884,3.70122955 C57.6840119,2.70777334 58.880773,2.29382372 59.8742293,2.77664721 C60.2773094,2.9725457 60.6029131,3.2981494 60.7988116,3.70122955 L63.5756827,9.4149114 C64.0585061,10.4083676 65.2552673,10.8223172 66.2487235,10.3394937 C66.4982696,10.2182134 66.7198512,10.0463371 66.8993809,9.83479213 L71.0099464,4.99119586 C71.7246636,4.14902422 72.9867714,4.04570199 73.828943,4.76041921 C74.1706417,5.05040514 74.4050416,5.44675374 74.4945436,5.88588837 L75.7632393,12.1106441 C75.9838315,13.1929624 77.0400491,13.8915294 78.1223674,13.6709373 C78.3942347,13.6155267 78.6515988,13.5041553 78.8780973,13.3439037 L84.0640752,9.67473396 C84.9657778,9.03676363 86.2139294,9.25056091 86.8518997,10.1522635 C87.1107467,10.518116 87.2392147,10.9603055 87.2166965,11.4079022 L86.8974999,17.7526076 C86.8420002,18.8557819 87.6913082,19.7950728 88.7944825,19.8505725 C89.0715887,19.8645135 89.3485642,19.8206449 89.6077998,19.7217557 L95.543336,17.4575599 C96.5753668,17.0638769 97.7311362,17.58136 98.1248191,18.6133908 C98.2845502,19.032122 98.299014,19.492368 98.1658905,19.9203025 L96.278858,25.9862963 C95.9507536,27.0410102 96.5397869,28.1620059 97.5945008,28.4901103 C97.8594341,28.5725267 98.1386177,28.5989173 98.4143016,28.5676042 L104.726445,27.8506502 C105.823957,27.7259911 106.814723,28.5146447 106.939382,29.6121573 C106.989961,30.0574567 106.889512,30.5068402 106.654148,30.8882239 L103.317848,36.2943575 C102.737755,37.2343394 103.029503,38.4666035 103.969485,39.0466966 C104.205598,39.19241 104.469448,39.2874017 104.744258,39.3256321 L111.036393,40.2009687 C112.130426,40.3531662 112.893935,41.3634363 112.741738,42.4574699 C112.679986,42.9013579 112.470935,43.3116425 112.148119,43.6225117 L107.572185,48.0290978 C106.776553,48.795285 106.752683,50.06139 107.51887,50.8570224 C107.711329,51.0568771 107.943265,51.214501 108.199934,51.3198729 L114.076703,53.7324994 C115.098515,54.1519905 115.586793,55.320398 115.167302,56.3422106 C114.9971,56.756796 114.692583,57.102202 114.302599,57.3230235 L108.774553,60.4531801 C107.813374,60.9974305 107.475387,62.2178222 108.019637,63.1790014 C108.156347,63.4204398 108.341798,63.6307919 108.564198,63.7966843 L113.656341,67.5950066 C114.541728,68.2554331 114.724095,69.5085627 114.063668,70.39395 C113.79571,70.7531828 113.414862,71.0120071 112.982214,71.128906 L106.849403,72.7859538 C105.783071,73.0740701 105.152203,74.1720669 105.44032,75.2383983 C105.512691,75.5062499 105.640003,75.7561132 105.81416,75.9721024 L109.80172,80.9174579 C110.49505,81.7773227 110.360047,83.0364358 109.500182,83.7297656 C109.151304,84.0110739 108.718054,84.1670536 108.269927,84.1726847 L101.917699,84.2525054 C100.813216,84.266384 99.9291074,85.1729947 99.9429861,86.277477 C99.9464723,86.5549117 100.007646,86.8285862 100.122617,87.0811009 L102.755041,92.8627547 C103.212749,93.8680294 102.768858,95.0540112 101.763583,95.5117191 C101.355708,95.6974273 100.897278,95.7407616 100.461829,95.634771 L94.2893175,94.1323491 C93.2160831,93.8711182 92.1342851,94.5293771 91.8730542,95.6026115 C91.8074357,95.8721971 91.7986272,96.1524868 91.8471888,96.4256606 L92.9590709,102.68033 C93.1523974,103.76785 92.4275108,104.80618 91.3399913,104.999507 C90.8987463,105.077946 90.4439424,105.005912 90.0485326,104.79496 L84.4435788,101.804698 C83.4690275,101.284772 82.2575139,101.653318 81.7375874,102.627869 C81.6069872,102.872667 81.5287503,103.14196 81.5078507,103.418628 L81.0293279,109.75331 C80.9461256,110.854741 79.9857902,111.680179 78.8843588,111.596977 C78.4374693,111.563219 78.0148679,111.380343 77.6843424,111.077683 L72.9991264,106.787471 C72.1844929,106.041518 70.9193875,106.097194 70.1734344,106.911828 C69.9860586,107.116455 69.8433091,107.357831 69.7542615,107.62061 L67.7154012,113.637272 C67.3608979,114.683409 66.2254552,115.244088 65.1793189,114.889585 C64.7548646,114.74575 64.3910194,114.463523 64.1461463,114.088174 L60.6750575,108.76758 C60.0715281,107.842472 58.8323221,107.58178 57.9072134,108.18531 C57.6748355,108.33691 57.476543,108.535203 57.3249425,108.76758 Z" id="Star" fill="#798BFB"></path>
                <g id="Group-69" transform="translate(28.7577, 26.9084)">
                    <g id="Group-104" transform="translate(7.409, 10.7582)">
                        <g id="noun-microscope-7349523" transform="translate(0, 1.6154)" fill="#2B3990" fill-rule="nonzero">
                            <path d="M30.8949927,0 L30.8923533,0 C30.4066845,0 29.9421318,0.192790722 29.6016288,0.535923422 L18.8318895,11.3056627 C18.4887512,11.6488011 18.2960716,12.113365 18.2960716,12.5990337 C18.2960716,13.0847025 18.4887568,13.5492552 18.8318895,13.8924048 L26.0113403,21.0690401 C26.3676719,21.4280126 26.8375121,21.604858 27.3047113,21.604858 C27.7745458,21.604858 28.2417564,21.4280126 28.5980823,21.0690401 L33.8348582,15.8402038 C35.9253454,18.5588789 37.1685447,21.9638531 37.1685447,25.6588771 C37.1685447,31.8140596 33.7213384,37.1640174 28.6511821,39.8831992 L13.4268048,39.8831992 C11.6240024,38.9145083 10.0271237,37.6158441 8.71528314,36.063844 L17.5367166,36.063844 L17.5367166,36.0664834 C18.5476396,36.063844 19.3658717,35.2456047 19.3658717,34.2346817 C19.3658717,33.2237587 18.5476396,32.4055266 17.5367166,32.4055266 L1.82920441,32.402887 L1.82920441,32.4055266 L1.8265649,32.4055266 C0.818288463,32.4055266 0,33.2237587 0,34.2346817 C0,35.2456047 0.818232154,36.0638369 1.82915514,36.0638369 L4.20473687,36.0638369 C5.13648881,37.5683682 6.26352181,38.9409103 7.55424629,40.1418775 L7.55160679,40.1418775 C5.67757304,40.7806516 4.32085392,42.538519 4.2812684,44.6158297 L4.2759894,47.2236315 C3.27300604,47.2315497 2.46265721,48.0471567 2.46265721,49.0527866 C2.46265721,50.0637096 3.28088936,50.8845883 4.29181234,50.8845883 L38.0774632,50.8819489 C39.0883862,50.8819489 39.9092649,50.0637167 39.9092649,49.0527937 C39.9092649,48.0471638 39.0962695,47.2315219 38.0932861,47.2236386 L38.0906466,44.6158368 C38.0484146,42.459355 36.5887618,40.6460229 34.6065014,40.0732435 L34.6065014,40.070604 C38.4416795,36.4597626 40.8303814,31.341518 40.8303814,25.6587716 C40.8303814,20.952543 39.1859774,16.6289933 36.4408933,13.2318461 L39.3680821,10.3020107 C40.0807341,9.58671221 40.0807341,8.43062355 39.3680821,7.7152687 L32.1886313,0.535817898 C31.8454929,0.192679567 31.380929,0 30.8952603,0 L30.8949927,0 Z" id="Shape"></path>
                        </g>
                        <path d="M36.5433905,0 L36.5407509,0 C36.0735573,0 35.6063525,0.17948627 35.2500265,0.535817898 C34.5347279,1.24846989 34.5347279,2.4072051 35.2500265,3.12255995 L38.3936687,6.26884868 C38.7526412,6.62518031 39.2198404,6.80466658 39.6896862,6.80466658 C40.1568798,6.80466658 40.6240847,6.62518031 40.9830572,6.26884868 C41.6983558,5.55355014 41.6983558,4.39481494 40.9830572,3.6795164 L37.8394151,0.535874208 C37.4804425,0.176901668 37.0132433,0 36.5433975,0 L36.5433905,0 Z" id="Path" fill="#FFFFFF"></path>
                        <path d="M17.3227337,16.8427044 L17.3174547,16.8427044 C16.8502611,16.8427044 16.3857027,17.0221963 16.0293767,17.3785279 C15.3140782,18.0938265 15.3140782,19.2525617 16.0267373,19.9678602 L21.551198,25.4896744 C21.9075296,25.8486469 22.3773698,26.0281332 22.844569,26.0281332 C23.3144035,26.0281332 23.781614,25.8486469 24.13794,25.4923153 C24.8532386,24.7770167 24.8532386,23.6182815 24.13794,22.902983 L18.6161259,17.3785223 C18.2597943,17.0221907 17.7899541,16.8427044 17.3227549,16.8427044 L17.3227337,16.8427044 Z" id="Path" fill="#FFFFFF"></path>
                    </g>
                    <path d="M16.7981491,5.82987676 L18.8175811,0 L20.8377546,5.82987676 C21.3539223,7.06615772 22.2757563,8.08959366 23.4504828,8.73257841 L26.7862906,10.5569642 L23.4504828,12.3806084 C22.2757563,13.0235932 21.3539223,14.0470291 20.8377546,15.2833101 L18.8175811,21.1131868 L16.7981491,15.2833101 C16.2819814,14.0470291 15.3601475,13.0235932 14.1846794,12.3806084 L10.8496131,10.5562226 L14.1846794,8.73257841 C15.3601475,8.08959366 16.2819814,7.06615772 16.7981491,5.82987676" id="Fill-19" fill="#FFFFFF"></path>
                    <path d="M54.8006148,27.5811969 L56.1221821,23.7677856 L57.4430077,27.5811969 C57.7811866,28.3903046 58.3841238,29.0599877 59.153184,29.4804864 L61.3350308,30.6737533 L59.153184,31.8670203 C58.3841238,32.287519 57.7811866,32.9572021 57.4430077,33.7655682 L56.1214404,37.5789795 L54.8006148,33.7655682 C54.4624359,32.9572021 53.8594987,32.287519 53.0911801,31.8662787 L50.9085917,30.6730117 L53.0911801,29.4797447 C53.8602403,29.0592461 54.4631776,28.389563 54.8006148,27.5811969" id="Fill-21" fill="#FFFFFF"></path>
                    <path d="M4.53426619,27.8580561 L6.07386983,23.4150092 L7.61273184,27.8580561 C8.00653219,28.8006554 8.70884657,29.5808399 9.60472382,30.0703093 L12.146998,31.4608473 L9.60472382,32.8513852 C8.70884657,33.3408546 8.00653219,34.1210391 7.61273184,35.0636384 L6.07312821,39.5059437 L4.53426619,35.0628968 C4.14046584,34.1210391 3.43815147,33.3408546 2.54227421,32.8506436 L0,31.4601057 L2.54227421,30.0703093 C3.43815147,29.5800983 4.14046584,28.7999138 4.53426619,27.8580561" id="Fill-23" fill="#FFFFFF"></path>
                </g>
            </g>
        </g>
    </g>
</svg>