<?xml version="1.0" encoding="UTF-8"?>
<svg width="157px" height="37px" viewBox="0 0 157 37" version="1.1" xmlns="http://www.w3.org/2000/svg" xmlns:xlink="http://www.w3.org/1999/xlink">
    <title>logo/main</title>
    <defs>
        <polygon id="path-1" points="0 0 27.7570167 0 27.7570167 29.2605309 0 29.2605309"></polygon>
    </defs>
    <g id="R5---Dev-Facing" stroke="none" stroke-width="1" fill="none" fill-rule="evenodd">
        <g id="logo/main" transform="translate(0, -0)">
            <path d="M6.50359905,1.85694253e-05 C6.0752506,3.49608432 6.0752506,5.59387232 6.0752506,8.31355039 L6.0752506,18.5740865 C6.0752506,21.2937645 6.0752506,23.3917382 6.50359905,26.887804 L0,26.887804 C0.389441527,23.3917382 0.389441527,21.2937645 0.389441527,18.5740865 L0.389441527,8.31355039 C0.389441527,5.59387232 0.389441527,3.49608432 0,1.85694253e-05 L6.50359905,1.85694253e-05 Z" id="Fill-1" fill="#2B3990"></path>
            <path d="M26.967411,17.5256381 C26.967411,11.3875145 24.9032964,8.20248666 20.8532535,8.20248666 C16.8421174,8.20248666 14.7780029,11.3875145 14.7780029,17.5256381 C14.7780029,23.6245803 16.8421174,26.8487896 20.8532535,26.8487896 C24.9032964,26.8487896 26.967411,23.6245803 26.967411,17.5256381 M8.54693842,17.5256381 C8.54693842,11.0380379 13.882399,7.3475503 20.8532535,7.3475503 C27.8630148,7.3475503 33.1593823,11.0380379 33.1593823,17.5256381 C33.1593823,24.0132383 27.8630148,27.6647302 20.8532535,27.6647302 C13.882399,27.6647302 8.54693842,24.0132383 8.54693842,17.5256381" id="Fill-3" fill="#2B3990"></path>
            <path d="M61.5654745,14.6508125 L70.5226296,14.6508125 C70.5226296,10.7660887 69.3153981,8.20220811 66.4725866,8.20220811 C63.8632167,8.20220811 62.0327298,10.3388062 61.5654745,14.6508125 L61.5654745,14.6508125 Z M77.4156702,19.6231476 C75.9357179,24.5958541 72.664558,27.6644516 66.939842,27.6644516 C60.6307776,27.6644516 55.2176893,24.0519556 55.2176893,17.5255453 C55.2176893,10.9606963 60.7476845,7.34782884 66.5502143,7.34782884 C72.8203718,7.34782884 76.4420663,11.1549325 76.5198802,15.5057489 L61.4876606,15.5057489 C61.4487537,16.0104659 61.4487537,16.5153685 61.4487537,17.0596384 C61.4487537,22.0317878 63.9021236,26.1887394 68.7701427,26.1887394 C72.1971165,26.1887394 75.1959279,24.1683859 76.714601,19.6231476 L77.4156702,19.6231476 Z" id="Fill-5" fill="#2B3990"></path>
            <path d="M96.9898353,17.5256381 C96.9898353,11.5429406 94.9648138,8.62976914 91.9270955,8.62976914 C89.4737255,8.62976914 87.1759833,10.3778949 85.5793103,12.4754972 L85.5793103,18.1861526 C85.5793103,23.3139138 87.9937733,26.1884609 91.3818401,26.1884609 C95.3931623,26.1884609 96.9898353,22.3033656 96.9898353,17.5256381 M103.181993,17.5256381 C103.181993,24.789626 98.2359737,27.6647302 93.3681408,27.6647302 C89.0064702,27.6647302 86.591821,25.372706 85.5793103,22.2647412 C85.6182172,23.8966224 85.6962172,25.1006639 85.9687518,26.8875997 L79.8935012,26.8875997 L79.8935012,8.08029984 C79.8935012,5.36080746 79.8935012,3.84591373 79.5040597,0 L86.0076587,0 C85.5793103,3.84591373 85.5793103,5.36080746 85.5793103,8.08029984 L85.5793103,11.31008 C87.6432387,8.90162553 90.2915155,7.3475503 93.7573962,7.3475503 C98.0414391,7.3475503 103.181993,10.2612789 103.181993,17.5256381" id="Fill-7" fill="#2B3990"></path>
            <path d="M125.515943,8.12449507 L125.515943,26.8877854 L119.401786,26.8877854 C119.596506,25.1396597 119.713413,23.8576266 119.75232,22.7308338 C118.272554,25.372706 115.857905,27.6647302 111.846769,27.6647302 C107.87454,27.6647302 105.537891,25.5671279 105.537891,19.9732741 L105.537891,16.2439764 C105.537891,13.5242983 105.537891,11.9705945 105.031728,8.12449507 L111.2237,8.12449507 L111.2237,21.9542604 C111.2237,24.6733814 112.04149,26.1884609 114.066697,26.1884609 C116.520067,26.1884609 118.428368,24.2071032 119.83032,21.4491721 L119.83032,18.962726 L119.83032,16.2439764 C119.83032,13.5242983 119.83032,11.9705945 119.323972,8.12449507 L125.515943,8.12449507 Z" id="Fill-9" fill="#2B3990"></path>
            <g id="Group-13" transform="translate(128.2073, 6.8668)">
                <mask id="mask-2" fill="white">
                    <use xlink:href="#path-1"></use>
                </mask>
                <g id="Clip-12"></g>
                <path d="M9.07294511,27.7263807 C5.15153699,27.7263807 1.49931265,26.7678269 1.49931265,24.4667037 C1.49931265,23.4695256 1.99914558,22.5874779 3.22927446,21.8972523 C3.99829117,22.1276989 4.80565632,22.2426436 5.61302148,22.2426436 C11.2258568,22.2426436 15.6469117,18.3690615 19.7606205,18.3690615 C21.8366492,18.3690615 22.7207112,19.4433027 22.7207112,20.8235681 C22.7207112,25.1569293 15.1472649,27.7263807 9.07294511,27.7263807 M12.8020525,0.843609003 C15.9544439,0.843609003 17.6845919,3.45149913 17.6845919,7.74660726 C17.6845919,12.0032767 15.9544439,14.6494198 12.8020525,14.6494198 C9.64947494,14.6494198 7.95804773,12.0032767 7.95804773,7.74660726 C7.95804773,3.45149913 9.64947494,0.843609003 12.8020525,0.843609003 M22.2979475,16.4517683 C17.0693413,16.4517683 13.1097709,19.9413347 6.57396659,19.9413347 C4.49812411,19.9413347 3.53699284,18.8295832 3.53699284,17.5638912 C3.53699284,16.2601318 4.26728878,15.2631393 6.30496897,14.1125777 C8.15034845,14.9946254 10.4184916,15.4545901 12.8020525,15.4545901 C18.6840716,15.4545901 23.7972601,12.7319409 23.7972601,7.74660726 C23.7972601,5.13054659 21.8465155,2.50074454 19.2267208,1.28927522 C17.3878568,0.417812075 15.1712792,0 12.8020525,0 C6.95856802,0 1.80684487,2.68476755 1.80684487,7.74660726 C1.80684487,10.2009282 3.0371599,12.1182214 4.99777088,13.4225379 C1.69161337,14.5725424 0,16.145187 0,18.215678 C0,19.82639 0.999479714,20.9385129 2.34521241,21.5524181 C0.88424821,22.3193354 0,23.3930195 0,24.7354033 C0,28.1867167 5.07465394,29.2605866 9.72654415,29.2605866 C17.261642,29.2605866 27.7570167,26.882586 27.7570167,20.7851294 C27.7570167,17.8708438 25.4503389,16.4517683 22.2979475,16.4517683" id="Fill-11" fill="#2B3990" mask="url(#mask-2)"></path>
            </g>
            <path d="M53.420264,8.08133972 C51.4185122,7.89230297 49.5345981,8.57268672 50.1234143,10.2742032 C50.6727652,11.6728523 52.8314477,12.655732 51.6932807,15.1126527 C51.6932807,15.1126527 48.2627699,22.5469222 47.9930277,23.0856213 C47.4915193,24.0859562 46.6309131,24.1167815 45.9162544,22.6063444 L44.2039776,18.8412077 L39.890894,8.89858014 C39.8257389,8.63879388 39.7700778,8.37065137 39.7214907,8.08133972 L32.4993236,8.08133972 C33.3627222,9.29132349 33.9122592,10.1226767 34.5010754,11.5213258 L40.1377389,23.0789363 C42.9991661,29.1273696 46.6893666,27.5135008 48.1199871,24.5992151 C48.8705742,23.07058 53.1849609,13.9788036 53.1849609,13.9788036 C54.166011,11.7861258 54.0483594,9.7824848 53.420264,8.08133972" id="Fill-14" fill="#2B3990"></path>
            <path d="M154.428458,6.50711667 L154.150897,6.50748806 L154.150897,6.23061793 C154.150897,5.34801313 153.433632,4.63253316 152.548826,4.63308992 C151.664019,4.63364733 150.946568,5.34987007 150.946568,6.23247487 L150.945451,9.70588592 L154.428458,9.70384328 C155.313265,9.7032862 156.03053,8.98706345 156.03053,8.10464435 C156.03053,7.22203956 155.313265,6.50655959 154.428458,6.50711667" id="Fill-16" fill="#2B3990"></path>
        </g>
    </g>
</svg>