<?xml version="1.0" encoding="UTF-8"?>
<svg width="334px" height="70px" viewBox="0 0 334 70" version="1.1" xmlns="http://www.w3.org/2000/svg" xmlns:xlink="http://www.w3.org/1999/xlink">
    <title>Group 42</title>
    <defs>
        <polygon id="path-1" points="0 0 60.0945551 0 60.0945551 60 0 60"></polygon>
        <polygon id="path-3" points="0 0 60.0727153 0 60.0727153 60 0 60"></polygon>
        <polygon id="path-5" points="-1.56412031e-16 0 17.1879704 0 17.1879704 17.3057944 -1.56412031e-16 17.3057944"></polygon>
        <polygon id="path-7" points="0 0 2.56523214 0 2.56523214 2.58367897 0 2.58367897"></polygon>
    </defs>
    <g id="R5---Dev-Facing" stroke="none" stroke-width="1" fill="none" fill-rule="evenodd">
        <g id="Group-42">
            <g id="Group-32" transform="translate(79.5727, 0)">
                <g id="Group-3">
                    <mask id="mask-2" fill="white">
                        <use xlink:href="#path-1"></use>
                    </mask>
                    <g id="Clip-2"></g>
                    <path d="M32.1465377,55.3517024 L31.0661023,55.3517024 L31.0661023,54.3388453 C31.2669298,54.3415702 32.1686097,54.4017912 32.196949,54.2404752 L32.1468102,53.5957564 C31.6696747,53.6625172 30.9353056,53.5821317 30.4925042,53.6638797 C30.4162061,53.6780493 30.3565301,53.6908565 30.3284633,53.7731494 L30.5254758,57.9856214 L32.3495452,57.9180431 L32.3492727,57.1746818 L31.2045288,57.2387176 L31.1334081,56.0942463 L32.0833193,56.0650895 L32.1465377,55.3517024 Z M24.3783023,56.6991812 C22.5114515,56.7509549 23.2932344,53.0641222 25.0816072,53.8745169 C25.206954,53.931468 25.4222236,54.1805267 25.4957968,54.0693495 C25.9595802,53.3693145 25.326306,53.0445027 24.6843121,52.9894591 C23.1177488,52.8548474 22.4267061,54.9053586 22.6414308,56.1798092 C22.8057442,57.1534273 23.9840047,57.703591 24.8559828,57.3302754 L25.3941568,55.0822066 L24.2649451,54.8227931 L24.1447756,54.8775643 L23.9755574,55.5538923 L24.5840346,55.6220156 L24.3783023,56.6991812 Z M36.0625372,52.9210633 L35.3813042,53.0984563 L35.1169859,54.608886 L34.2278406,53.3368879 L33.4972864,53.4616897 L34.712061,55.3230906 L34.2401028,57.7147632 L34.9739269,57.5711593 L35.2535049,55.8920564 L36.2102285,57.2986661 L37.008361,57.1741368 L35.6017512,55.1694045 L36.0625372,52.9210633 Z M39.4973137,51.8498926 C36.4843566,51.6229058 37.9405602,57.0942963 40.4093483,56.0855265 C41.0472549,55.8247506 40.9625095,55.6552598 40.721353,55.0819342 C40.4488598,55.1830291 40.2401301,55.4301804 39.9278529,55.4737793 C38.5588472,55.6642521 37.6677945,52.1196608 39.7090409,52.5828992 L39.4973137,51.8498926 Z M20.0601029,54.7434976 L20.2622928,51.6711371 C20.2110641,51.4087261 19.7821599,51.4321606 19.6202989,51.234058 L17.8373761,55.1841191 L18.437951,55.4865865 L19.5862373,52.853485 L19.4063918,55.8623546 L20.1284987,56.1986112 L21.8152315,52.1787919 L21.2451757,52.0387304 L20.0601029,54.7434976 Z M42.6130006,50.9615648 L42.2429549,50.2936841 C41.7652744,50.5533701 41.2726067,50.796979 40.8090958,51.0811893 C40.7567771,51.1133435 40.6979186,51.0637498 40.7210805,51.1972714 L42.8462548,54.8791992 L44.3610444,54.0363778 L43.9904537,53.4665946 L42.9947636,53.928198 L42.4726667,52.9608473 L43.355817,52.5147759 L42.9860438,51.8490751 L42.1132482,52.3079536 L41.6006885,51.4681297 L42.6130006,50.9615648 Z M16.0746177,54.2036886 L18.2343986,50.5231233 C18.2316737,50.4871542 17.6817825,50.1255558 17.5956746,50.2863267 L15.4745877,53.8431802 C15.4511533,53.991689 16.0411011,54.2284855 16.0746177,54.2036886 L16.0746177,54.2036886 Z M47.5328649,51.8992139 C47.6176103,51.7515226 47.2173178,51.3531375 47.1034157,51.2354205 C46.8614418,51.415266 46.6102031,51.6872142 46.3611443,51.8433528 C46.3031032,51.8798668 46.273129,51.9425403 46.1921985,51.8785044 L44.0999959,49.1007089 C43.9656568,49.0260458 43.7114206,49.3448628 43.5874362,49.4075363 L46.0559519,52.8221482 C46.1287076,52.8834592 46.1840237,52.85294 46.2575969,52.8196958 C46.6382698,52.6482976 47.1080481,52.0695221 47.5328649,51.8992139 L47.5328649,51.8992139 Z M15.5794976,50.534023 C15.7032095,50.4236633 16.0021345,49.9762295 16.043281,49.816821 C16.2596406,48.9783595 15.3217191,48.6134911 14.8263265,48.1292708 L12.171153,51.5370704 C12.2635282,51.6536975 12.5621807,51.9466277 12.6978823,51.8790494 C12.9450336,51.75561 13.4246216,50.8228658 13.6753153,50.6212209 C13.7355363,50.5729896 13.7687805,50.5220333 13.8483485,50.5868867 C13.9006672,50.6419303 13.9739678,50.7089637 13.9995822,50.7789944 C14.1047645,51.0670197 13.4829351,52.1338305 13.3911049,52.4831667 L13.9810526,52.9207908 L14.7276839,50.8304956 C15.0274264,50.8645573 15.3576882,50.7321256 15.5794976,50.534023 L15.5794976,50.534023 Z M49.8321624,48.8761746 L48.9258501,49.5999164 L46.4281776,47.0477453 L45.994096,47.4943617 L48.9364773,50.5468302 C49.1623741,50.5909741 50.0114629,49.5484152 50.2422646,49.3756546 L49.8321624,48.8761746 Z M9.4821903,49.1151511 C10.8258542,50.4590874 14.024924,47.6128962 12.8019747,46.0991966 C11.4746604,44.4571527 8.04914869,47.682382 9.4821903,49.1151511 L9.4821903,49.1151511 Z M50.4471795,45.0206686 L49.8703114,45.8307908 L49.1253151,45.2915268 C49.0095055,45.1130438 49.8016431,44.4375332 49.7708514,44.3130038 L49.1642816,43.8726549 C49.0967033,44.1702174 48.0982883,45.0931518 48.1557843,45.3119638 L51.4831985,47.918906 L52.603963,46.5466304 L52.0344522,46.1005591 L51.2959957,46.9752622 L50.4583517,46.2703223 L51.0488444,45.4686474 L50.4471795,45.0206686 Z M9.51761441,41.7869921 L5.81851954,44.1083615 L6.09155771,44.5386282 L6.28639033,44.5181912 L8.71512201,42.9952268 L6.76379837,45.4724623 L7.19542756,46.1605076 L10.8084146,43.8710199 L10.4489961,43.3418381 L7.97230561,44.8846945 L9.83098157,42.4502405 L9.51761441,41.7869921 Z M51.5941032,42.7251861 L54.6705512,43.2431956 L55.0326946,42.5622352 L51.3556717,40.493467 C51.2300524,40.4752099 50.9600116,40.9992143 50.986171,41.0351834 L53.5516942,42.4535104 C53.002348,42.4872995 50.7913384,41.8450331 50.4455445,42.0147964 C50.3490819,42.0622102 50.0752263,42.5625077 50.1368097,42.6581528 L53.7358996,44.6740573 C53.9070253,44.7737898 54.1822434,44.1743048 54.1596265,44.1435131 L51.5941032,42.7251861 Z M4.34950883,41.1479956 C5.46564088,42.3434232 9.19688994,40.6754924 8.18921018,38.895022 C7.37690802,37.4598004 4.26449096,38.6783899 4.01733965,40.0890871 C3.9592986,40.4201663 4.11843462,40.9005718 4.34950883,41.1479956 L4.34950883,41.1479956 Z M53.4846609,37.1881247 C52.9854534,37.0810349 52.7922557,36.7491382 52.4573616,37.3418109 C51.8325348,38.4484057 52.7922557,39.3849647 53.7557916,39.7858022 C55.219625,40.3953694 56.5616539,40.1553029 56.7311446,38.37783 L55.9834233,38.1331311 C56.2916131,40.5261662 51.942077,38.9514281 53.2792011,37.418109 C53.3663989,37.318104 53.5364346,37.3698777 53.4846609,37.1881247 L53.4846609,37.1881247 Z M6.68886275,33.8781501 L2.46303857,34.821249 L2.61318231,35.4370836 L4.36204352,35.0370636 L4.66396596,36.1739051 L2.84016913,36.5123417 L2.97178333,37.1597855 L7.15918597,36.3068818 L7.0943326,35.6338237 L5.33893155,35.9722602 L5.13783159,34.8945497 L6.76025596,34.5187816 L6.68886275,33.8781501 Z M54.0904132,33.9484534 L53.3497768,33.8108443 L53.0761936,35.601397 L57.3020178,36.3801825 L57.6033953,34.621784 L56.9235248,34.582545 L56.7259672,35.6346411 L55.5795884,35.4286363 L55.7730586,34.4574706 C55.737907,34.3209515 55.1828384,34.2855274 55.038962,34.28471 C55.0024479,34.4471159 54.917975,35.2602355 54.7961706,35.2907548 L53.8895858,35.0937422 L54.0904132,33.9484534 Z M55.915845,27.2606533 L56.8643938,27.1633733 C57.3848557,26.1622334 56.3826258,24.6297317 55.2267098,25.0534586 C54.3454668,25.3766355 54.5416619,26.7592659 53.9825059,27.0497436 C53.2203425,27.4456762 52.6036905,26.3832253 53.1456794,25.8079922 C53.3887433,25.5496687 53.9176526,25.6267843 53.8895858,25.2357566 C53.3119002,25.3008824 52.7775411,25.0929701 52.680261,25.815077 C52.5173101,27.0233118 53.3350622,28.1819528 54.6212299,27.755501 C55.5828584,27.4366839 55.3130901,26.5292817 55.6537066,25.9524136 C56.0411919,25.2959775 57.0276172,26.0469687 56.5243223,26.6881452 C56.3210424,26.9472862 55.8839633,26.9099546 55.915845,27.2606533 L55.915845,27.2606533 Z M3.11020987,20.2382317 C2.93935664,20.225152 2.8333568,20.2226996 2.75596874,20.3902829 C2.685393,20.5426066 2.40145511,21.7195046 2.38101813,21.9118848 C2.37311582,21.9879104 2.34586651,22.0593036 2.39845769,22.1298793 L5.54139398,24.2218094 L1.79842771,24.6997625 C1.65673126,24.80004 1.27387835,26.5731531 1.35508132,26.6535386 C1.79570278,26.775888 1.70605253,26.216732 1.87390832,26.1055548 C2.01723973,26.0502387 2.16983591,26.1041923 2.31343982,26.1328041 C3.63012685,26.3938526 5.0255644,27.0004224 6.35233368,27.2944425 C6.72646681,27.412977 6.58150044,27.7116296 6.65153118,28.0081021 L6.95645105,28.0685956 C6.9384665,27.7718505 7.47255312,26.3115596 7.29243514,26.1851228 C6.90058995,25.9096322 6.8945951,26.9927926 6.46187593,26.8508236 L3.04344904,25.9112671 L7.50198239,25.339304 C7.6093447,25.2638234 7.59898996,25.0191245 7.49871247,24.9319267 L3.85357125,22.5350767 L7.48127291,23.361821 L7.57473807,24.0798405 L7.86358083,24.0912852 L8.47560051,21.6652785 L8.44317382,21.3876079 C7.92407432,21.3034075 8.21346207,21.9192421 7.67038317,21.9276894 L3.27697569,20.9835005 C3.02219457,20.8142823 3.12655946,20.5025501 3.11020987,20.2382317 L3.11020987,20.2382317 Z M51.4589466,21.3186671 C51.8371672,22.8871379 52.2603491,25.0316592 54.378711,24.7449963 C56.7308721,24.4267243 56.3188624,21.5050525 55.1376045,20.1714709 C54.7907207,20.2286944 55.1629464,20.5652235 54.9719287,20.7464315 C54.6482068,21.0540763 52.6085953,21.3769807 52.0927658,21.6560137 C51.7995631,21.6696384 51.7058254,21.2589911 51.6289824,21.2562662 L51.4589466,21.3186671 Z M7.21313962,17.0149099 C6.45370114,17.1143699 5.75748107,17.7051351 5.52286445,18.4302395 C4.82964181,20.5701284 7.84314384,22.2625835 9.28327028,20.367666 C10.4549909,18.8261721 9.01404702,16.7786583 7.21313962,17.0149099 L7.21313962,17.0149099 Z M54.2045879,19.2027576 C55.0381445,18.3662036 53.581941,17.0639587 53.3786611,16.1914355 C53.3685788,16.0900681 53.0881833,15.9832508 53.0786461,16.0862532 C53.0563016,16.21487 53.1628465,16.3601088 53.1364146,16.4772809 C53.0947232,16.6614863 52.1584366,17.1146424 51.9330848,17.2350844 C51.6344322,17.3947654 50.5485469,17.9994278 50.3117504,18.0490215 C50.0229076,18.1092425 50.0389847,17.8154949 49.8038231,17.7574538 L49.6425071,17.9184973 C49.8591392,18.1522964 50.3883209,19.4902379 50.5550868,19.5556363 C50.5948708,19.5711684 50.7139503,19.5913329 50.7166752,19.528932 C50.7450145,19.2905004 50.5553593,19.0918529 50.8153177,18.8853031 C50.8719963,18.8403417 52.0110178,18.2381318 52.0660614,18.2803682 C52.1377271,18.4629387 52.0837735,18.5514989 51.9878559,18.70791 C51.8284474,18.9678685 50.8785362,19.9995277 50.865184,20.1474915 L51.4240675,21.2475464 C51.705553,21.1707034 51.545872,20.966061 51.6306173,20.7137323 C51.7701338,20.2976352 52.6505593,19.7177697 52.6750837,19.1580688 C53.0900908,19.5700784 53.7726862,19.6360218 54.2045879,19.2027576 L54.2045879,19.2027576 Z M49.5089855,17.730477 C49.9951133,17.748734 49.6487745,17.449264 49.6495919,17.3132899 L51.7693164,13.8924106 C51.8600566,13.6109252 51.62544,13.5321746 51.3752912,13.5670538 C50.6883359,13.6624264 48.110278,14.735232 47.7372348,14.6657462 C47.5729214,14.635227 47.3778163,14.3521066 47.2047832,14.6011654 L48.050057,15.713755 C48.4064781,15.6249222 48.1160003,15.3431643 48.0920209,15.1913856 C48.0448796,14.894913 48.6427297,14.7240598 48.8727139,14.6463992 C49.0313049,14.6444918 49.4493095,15.3202749 49.5547643,15.4884031 L48.9266675,16.3881756 C48.7762513,16.2502941 48.6822412,16.0303921 48.4846836,16.2265872 L49.5089855,17.730477 Z M9.86286327,12.1356471 C9.68683268,11.9596165 9.01622697,13.0166175 8.9271217,13.1703037 L10.3356389,15.3758635 L7.75049616,14.6995354 C7.62869171,14.913715 6.98560782,15.6129325 7.02702678,15.814305 C7.08397786,16.092793 7.42704676,15.6175649 7.4935351,15.6083001 L7.6970875,15.6824183 L10.0707756,17.6340144 C10.2416288,17.8394743 10.0192744,18.0048776 9.99829238,18.2122449 C10.0606933,18.1953504 10.1367189,18.2651086 10.1688731,18.2593863 C10.2604308,18.2433092 10.9746354,17.2909455 10.9435712,17.1672336 C10.8550109,16.813265 10.4424563,17.5568988 10.2661532,17.3759634 L8.37777546,15.8827008 L11.4160744,16.6593063 L11.3792878,16.3252297 L9.79637493,13.8910481 L11.7550559,15.2747685 C11.9613332,15.5033903 11.8032872,15.5815958 11.7051896,15.8164849 C11.8825827,16.0636362 11.8817652,16.0154049 12.0395388,15.8309271 C12.3676205,15.4475292 12.6809877,14.8663012 13.0194242,14.4641013 L12.867918,14.2973355 C12.6730854,14.4894432 12.6142269,14.6044353 12.3373738,14.4929856 C12.0349064,14.3711811 10.1868577,13.058854 9.90673467,12.8010754 C9.58137782,12.5016054 9.87975784,12.4904332 9.86286327,12.1356471 L9.86286327,12.1356471 Z M10.0462512,10.8309498 C10.0805853,10.8102403 10.09203,10.6846209 10.1745955,10.6568266 C10.6906975,10.484066 10.6351089,11.6097353 10.6735305,11.8312722 C10.7332065,12.1751586 10.9457512,11.9465368 10.9942549,11.680311 C11.1405838,10.8778186 10.5620808,9.65895662 9.63533147,9.72653493 C8.72084437,9.79329576 9.16609822,11.3595865 10.0462512,10.8309498 L10.0462512,10.8309498 Z M14.6347638,12.7879958 C14.3497359,13.0806534 14.0257415,13.1245248 13.6665955,12.957214 C13.5698604,12.9122527 13.0973573,12.4882533 13.0368638,12.778186 C13.0188792,12.8653838 13.5807602,13.5128276 13.6932998,13.5436193 C14.0622556,13.6436243 14.8592981,13.000268 15.0516783,12.6983455 C15.4786751,12.0282848 15.2783927,11.0274174 14.5579207,10.6478344 C13.6592382,10.1745137 12.9215992,11.0699263 12.3624432,10.8173251 C11.8564233,10.5887033 12.0771428,9.51290028 12.966833,9.80719291 C13.1706579,9.87449873 13.8960348,10.3025855 13.4412437,9.67121882 C13.0439486,9.12023761 12.6946124,9.11451526 12.1929524,9.56985135 C11.5929224,10.1142927 11.4024497,11.3459619 12.2223817,11.7680538 C13.0801902,12.2100377 13.8551608,11.3756636 14.4731753,11.678676 C14.9208816,11.8980331 14.9696579,12.4438369 14.6347638,12.7879958 L14.6347638,12.7879958 Z M46.9900585,8.70822793 C46.5739615,8.52266008 46.8565369,9.03821717 46.8671641,9.13604222 C46.9143054,9.57148631 45.6807288,12.0081203 45.4643692,12.6569265 C45.4177729,12.7967155 45.3619118,12.9275123 45.3815313,13.0803809 C45.6692841,13.2155376 47.112953,12.4659088 47.2047832,12.5411169 L46.5581569,14.0888782 L46.7529895,14.2828933 L50.4766087,12.6084228 L50.8507419,12.7427619 C50.9175027,12.4122277 50.6602691,12.3819809 50.4768812,12.2056778 C50.3161103,12.0511742 50.3095704,11.7917607 49.9735863,11.8656064 C49.9444296,12.079786 50.2032981,12.240012 49.9915709,12.4086853 L47.8124429,13.4177275 L48.4514394,12.0653439 C48.5250126,12.0062128 49.2400347,11.7571541 49.3501219,11.7427119 C49.5771088,11.7132827 49.7621316,11.8816835 49.905463,11.6952981 L49.805458,11.4590465 C49.4754688,11.3331547 48.3936709,9.97341375 48.1841236,9.97205128 C47.9337024,9.97068882 48.0988333,10.2984981 48.0549619,10.5175826 C47.9544119,11.0167901 47.5039807,11.5977456 47.3911685,12.1187525 L46.5976684,12.4054153 C46.752717,12.0958631 47.5573893,9.95433923 47.7165253,9.91837013 C47.7677541,9.90692541 48.0734914,10.0456244 48.0808487,9.87368125 C48.0857536,9.76250403 47.4415797,9.22977987 47.3036982,9.09843816 C47.2382998,9.03603722 47.012948,8.71831018 46.9900585,8.70822793 L46.9900585,8.70822793 Z M44.9482672,14.2570065 C33.5509676,3.64394225 15.1680329,7.89647076 9.72688917,22.4318018 C3.36471849,39.4272012 19.615394,56.2762717 36.8421402,50.6274882 C52.2995881,45.5588426 56.9338795,25.417782 44.9482672,14.2570065 L44.9482672,14.2570065 Z M44.9289202,11.8465318 C44.8180154,11.7119202 44.8381799,11.5369796 44.856982,11.3770261 C45.0488172,9.7398871 45.8047132,7.88012117 46.052137,6.2176403 C46.0336075,5.59962578 45.7017108,5.67728633 45.292971,5.93560986 C43.8811839,6.82829751 42.5492372,8.07958617 41.1668794,9.03412977 C40.9663244,9.21506524 39.9850765,8.71994514 40.3804641,9.33768717 C40.4251529,9.40717293 41.6303903,10.2055779 41.7541022,10.2592591 C41.8437524,10.2982256 41.9304052,10.3254749 42.0298653,10.3175726 C42.3764766,9.94234953 41.599871,9.70255553 41.6949711,9.36520898 C41.7854389,9.04557448 42.3168006,8.67007889 42.5827539,8.48532851 L43.8828189,9.244767 L43.9029833,9.3325098 C43.9130656,9.48783091 43.6193179,10.6189501 43.5255803,10.7189551 C43.3424649,10.9146052 42.698836,10.3077629 42.8473448,10.9892683 L44.9087557,12.3108602 L45.0425498,12.3081353 L45.1815213,12.101313 C45.1820663,11.9282798 44.9891411,11.9198325 44.9289202,11.8465318 L44.9289202,11.8465318 Z M38.1645495,4.6483521 C38.5403176,4.63472744 38.9675869,4.74454219 39.1362602,5.11186299 C39.2013861,5.25355944 39.2297254,5.75985176 39.4411801,5.62115274 C39.5564447,5.44103475 39.8343877,4.81375546 39.6430975,4.672059 L36.9162583,3.83523246 L36.8058986,3.99791089 C36.8266081,4.08292876 37.1925664,4.1529595 37.1778518,4.4445272 C36.990104,4.89114352 36.4369428,7.22450259 36.1579098,7.40216814 C35.9529949,7.53269237 35.590579,7.37464633 35.590579,7.67765874 L38.5855515,8.6294774 C38.6302404,8.62021264 38.9877514,7.88420857 39.0049185,7.81663026 C39.0684094,7.56293911 38.867037,7.57819873 38.6934588,7.70954044 C38.4419476,7.89974068 38.3787292,8.07822371 37.987974,8.08994091 C36.7255131,8.12781747 37.4329054,6.95800426 37.6225606,6.26668907 C38.2114184,6.27649883 38.4130633,6.48223117 38.3909914,7.07245139 C38.4264155,7.14684203 38.5893664,7.16346411 38.6275155,7.13784976 C38.6888264,7.09670329 38.9967437,5.90154822 39.0338028,5.72088524 C38.7678494,5.64758458 38.6226106,6.07321892 38.4468525,6.11491037 C38.3604721,6.13534736 37.8231156,5.98956351 37.7786992,5.92552761 L38.1645495,4.6483521 Z M17.4493458,4.46087679 C17.8349236,4.1011858 18.3414884,4.0251602 18.8229839,4.22217277 C18.9892047,4.29029606 19.6262938,4.79904082 19.7211214,4.46768912 C19.7453733,4.38321624 19.2360835,3.61533047 19.1527006,3.55510947 C18.7295187,3.2504621 17.359968,4.00635817 16.9885598,4.30392072 C14.0941373,6.62147519 16.6670179,11.0464919 20.1731876,9.44695693 C20.6187139,9.24367702 21.5438283,8.55862918 21.5953295,8.04007466 C21.6206713,7.7831136 21.0470732,6.58686855 20.8805799,7.11550532 C20.7099991,7.65749424 21.092852,8.2223726 20.4658453,8.79406328 C18.6581255,10.4423745 15.7726953,6.02526012 17.4493458,4.46087679 L17.4493458,4.46087679 Z M24.7183738,3.42485774 C24.4712224,3.50742317 22.8689626,3.90853312 22.8283611,3.99872837 C22.8171889,4.02379774 22.8030192,4.17039907 22.8635127,4.16794663 C23.5828947,4.00826563 23.6204988,5.03175 23.6777223,5.52196522 L22.4272511,5.85277194 C22.3754774,5.4707365 21.9441207,4.77860384 22.2190663,4.46986907 C22.3313335,4.34397722 22.5498731,4.34806462 22.4899246,4.10009583 C22.231601,4.14015232 20.5576755,4.56960157 20.5323336,4.67478394 C20.4762,4.90940056 20.9576954,4.80639814 21.0737775,4.87479393 C21.2617978,4.98542616 21.8329435,7.54059467 22.0027068,7.92944243 C22.0013443,8.18940092 21.37352,8.25697923 21.7116841,8.54609449 L23.570905,8.01555028 C23.570905,7.52942245 23.1428182,7.91527279 22.9324535,7.60817298 C22.8774099,7.52778749 22.5378834,6.30620058 22.5523255,6.23562485 L23.7398508,5.85222695 L23.8760974,5.9219852 C23.9019842,6.25551685 24.3660401,7.20542806 24.1837421,7.44685702 C24.1156189,7.53732475 23.909069,7.58964344 23.8412182,7.71335534 L23.9474906,7.8790312 C24.207994,7.7752113 25.7399507,7.44031718 25.7988092,7.30706802 C25.8099814,7.28199865 25.8233336,7.13730477 25.7650201,7.13784976 C25.4925269,7.14929447 25.3107739,7.19044094 25.1769798,6.9165853 C25.0134839,6.58169118 24.4529654,4.63772486 24.3965593,4.25187453 C24.3104515,3.66410674 24.7513454,3.90880562 24.7183738,3.42485774 L24.7183738,3.42485774 Z M35.9843316,3.6379474 C34.4101386,2.73708496 32.2525376,3.57036909 32.3465477,5.55411942 C32.4108561,6.90296064 33.6610548,7.70627052 34.9431352,7.53786974 C35.472317,7.46838398 35.6960339,7.21932522 35.711021,6.67951623 C35.7279156,6.07975875 35.1586773,6.97026645 35.0167084,7.07136142 C34.0308281,7.77357634 33.3376054,6.52228767 33.3599499,5.62306019 C33.3814768,4.75571441 34.0444527,3.22239531 35.1371504,3.64148981 C35.7151084,3.86329926 35.4794018,4.44180227 35.9952314,4.50474819 L35.9843316,3.6379474 Z M26.9969617,3.03546499 C24.9775148,3.37471899 24.8548928,7.11359786 27.3871719,7.27246139 C30.4369156,7.4634791 30.2973991,2.48094137 26.9969617,3.03546499 L26.9969617,3.03546499 Z M32.0792319,3.01966038 C31.7086412,3.00739819 31.3334181,3.03437501 30.9620099,3.02211282 C30.7987865,3.01693545 30.0998415,2.82946015 30.0535177,3.05426702 C30.0180935,3.2264827 30.3818719,3.23520249 30.4905967,3.35864189 C30.7025964,3.59952586 30.5276558,3.873654 30.5230234,4.13088756 C30.5143036,4.62519018 30.5549051,5.12903006 30.5287458,5.62197022 C30.5170286,5.84078224 30.4911417,6.30919801 30.4568076,6.49531085 C30.3843244,6.8885185 29.700639,6.63019497 29.9843044,7.03866224 C30.418931,7.10978296 30.8639124,7.05582931 31.3018089,7.07163391 C31.4437778,7.07653879 31.8748621,7.24957196 31.9432578,7.03648229 C32.0402654,6.73483235 31.4988215,6.81767027 31.4683022,6.68905349 L31.5838393,3.43902738 L32.0745995,3.28506874 L32.0792319,3.01966038 Z M29.8366131,0.000708482259 C54.1122127,-0.178864521 68.6816053,27.4255117 54.5525617,47.3374056 C42.098806,64.8881461 15.8138417,64.0393298 4.50047005,45.7574902 C-7.80968168,25.8643983 6.61283715,0.172651677 29.8366131,0.000708482259 L29.8366131,0.000708482259 Z" id="Fill-1" fill="#FFFFFF" mask="url(#mask-2)"></path>
                </g>
                <path d="M13.6994309,36.1224039 C11.5194855,36.2766351 11.7682718,39.4947795 13.9468547,39.3481782 C16.0573144,39.2059367 15.8690216,35.9689903 13.6994309,36.1224039 M36.1302517,10.8530217 L34.4585061,11.1723837 C28.3554764,12.8678363 27.2069177,21.2385542 32.7597836,24.4534286 C38.533914,27.7963749 45.3822126,22.2475964 43.3363338,15.9025928 L42.7815377,14.4989804 C47.9098593,18.6594062 50.6781174,25.3112372 50.0402109,31.9200142 L49.5320111,30.5719904 C48.6633029,28.6184868 46.9555882,26.914042 45.2277089,25.6930001 C45.0876474,25.5940851 43.8886775,24.7749706 43.8284565,24.8308317 C44.406142,25.6060748 44.9494934,26.4508036 45.2121768,27.3966274 C46.2318463,31.069018 43.6524259,34.0495483 40.8784453,36.0267588 C36.89841,38.8642303 31.8872605,40.1607528 27.01481,39.7193139 C27.7919605,40.1247837 28.6871006,40.4455082 29.5274696,40.7180014 C34.0764707,42.1943694 39.933439,43.0123939 44.5203166,41.3567254 C45.783595,40.9008443 46.9275214,40.1942695 47.8466408,39.213294 L47.87934,39.313299 C45.6288189,43.4587377 42.1171993,46.742008 37.7491337,48.5630799 C31.3253796,51.2416878 23.6031954,50.3607174 18.1012857,46.1013765 C18.5165653,46.2054689 18.9367498,46.2981166 19.3615667,46.3597001 C22.7947082,46.8559101 26.9376944,46.2880344 30.3239671,45.5275059 C31.067601,45.3604676 31.8390292,45.1751722 32.5513264,44.9187562 C31.7984277,44.7637075 31.007925,44.7509004 30.2419467,44.5950343 C24.5762686,43.4434781 23.5786711,37.9344836 26.3109601,33.4110968 C27.7113026,31.0924524 29.8037777,29.2345939 31.9902629,27.6786579 L34.3072724,26.1813079 C30.2334994,27.5846477 26.2185849,29.5686706 22.6442919,31.9728778 C18.9966983,34.4264064 14.7812289,37.87508 14.4215379,42.5889395 C12.3061733,40.0078841 10.8630495,36.8535031 10.2894513,33.5533383 C7.83156288,19.4071275 20.2812311,7.46048168 34.3203521,10.4004106 C34.9299193,10.5282099 35.5236819,10.7167751 36.1302517,10.8530217" id="Fill-4" fill="#FFFFFF"></path>
                <path d="M44.0981702,8.75940215 C44.004705,8.85014238 43.0626961,8.23785021 43.0883105,8.12285809 L44.5030951,7.00345612 L44.0981702,8.75940215 Z" id="Fill-6" fill="#FFFFFF"></path>
                <path d="M48.4877355,11.7295505 L48.7613187,11.0581273 C48.886938,10.972837 49.2133849,11.2510525 49.1591587,11.4178183 L48.4877355,11.7295505 Z" id="Fill-8" fill="#FFFFFF"></path>
                <path d="M53.5960289,18.3914364 C53.2134484,18.7538524 52.3992388,18.7489475 52.331388,18.1181258 L53.6396278,17.4785843 C53.9750669,17.6785943 53.8437252,18.1568198 53.5960289,18.3914364" id="Fill-10" fill="#FFFFFF"></path>
                <path d="M55.3591687,21.6672949 C55.5499139,21.6460404 55.6174922,21.7757472 55.6679035,21.9378806 C56.126782,23.4175186 53.6222972,24.2993065 52.6113475,23.5763821 C52.3056102,23.3575701 51.9876106,22.841468 52.4227822,22.5866869 L55.3591687,21.6672949 Z" id="Fill-12" fill="#FFFFFF"></path>
                <path d="M27.0648942,3.30656845 C27.6878137,3.14634246 28.0774789,3.60876338 28.3104606,4.12050557 C28.6091131,4.77585165 28.8224752,6.47866151 28.0894686,6.89639355 C27.2098606,7.3975085 26.5779489,5.93967001 26.4915686,5.26415943 C26.4269877,4.75650464 26.4373425,3.46788441 27.0648942,3.30656845" id="Fill-14" fill="#FFFFFF"></path>
                <path d="M9.16514449,20.0130978 C8.52614799,20.6545468 6.91816576,20.0705939 6.31949825,19.5615766 C5.07311446,18.5021232 6.02520562,17.6513995 7.44598504,17.9625867 C8.16836445,18.1209052 10.0376676,19.1375773 9.16514449,20.0130978" id="Fill-16" fill="#FFFFFF"></path>
                <path d="M11.5333827,46.3871129 C12.0222354,46.3064549 12.3936436,46.460686 12.3642144,47.0100323 C12.3255203,47.7345916 10.8562371,49.1016899 10.1390351,48.6940401 C9.8395651,48.5240044 9.82675792,48.2855728 9.8796216,47.9735682 C9.97581169,47.4070548 10.9682318,46.4803056 11.5333827,46.3871129" id="Fill-18" fill="#FFFFFF"></path>
                <path d="M6.53787428,38.9607201 C6.84170417,38.9201186 7.29431534,38.8999541 7.50113766,39.1776247 C8.27093088,40.2103738 5.23372194,41.5243359 4.78247324,40.4787796 C4.44730663,39.702174 5.94520162,39.0397431 6.53787428,38.9607201" id="Fill-20" fill="#FFFFFF"></path>
                <path d="M15.1062315,50.0608659 C14.8574452,50.3093797 14.4511579,50.2750455 14.2615026,49.9742131 C14.2448805,49.8889227 14.7748798,49.1616384 14.8351008,49.1433814 C15.1345708,49.0518237 15.4675574,49.6998124 15.1062315,50.0608659" id="Fill-22" fill="#FFFFFF"></path>
                <polygon id="Fill-24" fill="#FFFFFF" points="49.7044176 15.1735645 49.2981302 14.4994164 50.5129048 14.0936741 49.868186 15.1027163"></polygon>
                <path d="M18.8249186,22.8917975 C19.2486455,23.2356839 19.289792,25.3180767 19.248373,25.8758703 C19.2183987,26.2794327 18.8984918,28.2103193 18.2461431,27.2849325 C17.8842721,26.7715553 17.7837222,24.9662881 17.8319535,24.3245666 C17.8624727,23.9188243 18.0949094,22.2991248 18.8249186,22.8917975" id="Fill-26" fill="#FFFFFF"></path>
                <path d="M13.1718569,37.018525 L13.1718569,38.5379469 L13.5097484,38.5382194 L13.5190132,38.0406469 C14.1389352,37.5602414 14.0601847,38.4226823 14.1800817,38.5085177 L14.5234231,38.5030678 C14.4814591,38.2185849 14.4247805,37.9428218 14.1849865,37.7610689 C15.1428,37.0869208 13.7511774,36.6615589 13.1718569,37.018525 M13.4909464,36.459914 C15.4531698,36.0563516 15.6681669,39.2278997 13.6105709,39.0101776 C12.2535549,38.8668462 12.2312105,36.719055 13.4909464,36.459914" id="Fill-28" fill="#FFFFFF"></path>
                <polygon id="Fill-30" fill="#FFFFFF" points="14.1080072 37.5837031 13.576918 37.6602737 13.5766455 37.186953 14.0540536 37.2166548"></polygon>
            </g>
            <g id="Group-172">
                <g id="Group-3">
                    <mask id="mask-4" fill="white">
                        <use xlink:href="#path-3"></use>
                    </mask>
                    <g id="Clip-2"></g>
                    <path d="M30.974816,56.5184711 C30.0699618,56.723269 30.0480063,58.6053225 31.1213059,58.8374748 C32.7298155,59.1851634 32.961248,56.0689234 30.974816,56.5184711 L30.974816,56.5184711 Z M29.3688258,57.3621378 C29.3738648,56.5569832 28.6241388,56.1869792 27.9356002,56.5541038 C27.3665571,56.8571615 27.3392027,57.7746131 27.503329,58.320261 C27.7167652,59.0307551 29.3220354,59.0149183 29.2730855,58.0359194 C28.8001426,57.9005872 28.8001426,58.4440756 28.4351776,58.4998641 C27.4655368,58.6477937 27.751678,56.3385081 28.6990034,56.8319667 C28.9437531,56.9593805 28.8339757,57.5190656 29.3688258,57.3621378 L29.3688258,57.3621378 Z M35.7010052,56.0278919 L35.1233239,56.0736025 L34.8447411,57.9383795 L34.027349,56.3003559 L33.4050368,56.3064747 L33.6936975,58.6121611 L34.0766588,58.6118011 L33.886258,56.9788166 L34.6690972,58.4037639 L35.1287228,58.4134819 L35.3274019,56.6905158 C35.4630941,56.6678404 35.4666933,56.8607608 35.4904485,56.957221 C35.5962667,57.3866128 35.6070645,57.8861902 35.7110831,58.3235004 L36.0908051,58.2202016 L35.7010052,56.0278919 Z M24.1815713,56.2092946 C24.373052,56.1628641 25.1785665,56.5497847 25.2375944,56.2564449 C25.2951826,55.9699438 24.1063467,55.8076171 23.8871518,55.8655652 L23.4196078,57.9758118 L23.5761756,58.1122237 L24.8531933,58.3231404 L24.757453,57.9873294 L23.8925507,57.842999 L23.99333,57.1746163 L24.8524735,57.3632176 L24.9456943,57.0234474 L24.124703,56.7898554 L24.1815713,56.2092946 Z M37.8238492,57.8426391 L37.6712405,56.9752173 C37.9635005,56.7948943 38.5127477,56.752783 38.5912116,56.3514654 C38.8445995,55.0571713 37.6215707,55.2983217 36.856008,55.6935206 L37.4297301,57.7868506 L37.8238492,57.8426391 Z M22.9236297,55.5463108 C22.4917184,55.4631679 22.0047384,55.1759469 21.5904635,55.097483 C21.4040218,55.0622102 21.3359958,55.0125404 21.2031831,55.2022215 L21.7866232,55.5963405 L21.3082815,57.4478002 L21.6822447,57.5550582 L22.1667051,55.7320326 L22.9315481,55.8248936 L22.9236297,55.5463108 Z M40.2108789,54.5899872 C39.0821507,54.5997052 39.9556913,56.4378477 39.7465742,57.1699373 L40.1154985,57.05944 L40.1896432,56.3917771 L40.9516067,56.1182333 L41.3435662,56.5022744 L41.7618003,56.3539849 L40.2108789,54.5899872 Z M20.04962,56.9784566 L20.04962,54.7206404 C20.04962,54.6997647 20.1144067,54.6680912 20.1212453,54.6227405 C20.1090078,54.4920873 19.7080502,54.3722319 19.572358,54.4291003 C19.4327067,54.4877682 18.0347539,56.0448084 18.0311546,56.1607046 C18.5030177,56.5519442 18.5048173,55.8414502 18.9928771,55.9613055 C19.0727806,55.9807416 19.5935937,56.2564449 19.6231076,56.3050349 C19.7552005,56.5220704 19.3830369,57.0176886 20.04962,56.9784566 L20.04962,56.9784566 Z M44.4536874,55.0553716 C44.299639,54.7587925 43.530477,53.1078117 43.3389964,53.0484239 C43.1784693,52.9987541 43.1079238,53.0657003 43.0150629,53.1826763 L43.7802657,54.6724103 C43.4559723,54.5442766 41.9439229,53.1362458 41.7700786,53.865816 C42.0515408,54.4362988 42.3614372,54.9934643 42.6673743,55.5509898 C42.7865098,55.7673054 42.6857305,56.0498474 43.1090036,55.6791235 L42.4370216,54.1922689 C42.8279013,54.3920279 43.608581,55.0967631 43.973546,55.1986222 C44.1297539,55.2425332 44.2841622,55.0456536 44.4536874,55.0553716 L44.4536874,55.0553716 Z M16.5918102,54.9607111 L16.9445378,53.0811771 L16.49535,52.8475851 C16.5453798,53.5318046 16.2045298,54.3664731 16.2012849,55.0139801 C16.1998507,55.331075 16.4791534,55.4710862 16.763495,55.4206966 L18.4144759,53.855738 C18.2838227,53.6678566 18.1276148,53.6718158 17.936494,53.7603576 C17.8306758,53.8093076 16.6871906,55.0841657 16.5918102,54.9607111 L16.5918102,54.9607111 Z M45.4150499,54.2876493 C45.4938737,54.3646735 46.315225,53.9575971 46.2788725,53.7610775 C46.1849318,53.5749957 46.0002897,53.7297639 45.8991505,53.6649772 C45.8376031,53.6253853 45.1123521,52.5546053 45.0759996,52.4563455 C44.9838585,52.2090763 45.2372465,52.04495 44.9820589,51.8880222 L44.2636464,52.414594 C44.3622662,52.6024755 44.6181736,52.5110542 44.7207525,52.5794402 C44.8190124,52.6449467 45.3247085,53.753519 45.5618998,53.9054078 L45.4150499,54.2876493 Z M15.8014126,52.2886199 C15.7808968,52.254067 15.1434677,51.879024 15.1038759,51.8858626 C14.8137754,51.9358924 15.1625438,52.2072766 15.1431078,52.3066162 C14.6860017,52.6769801 14.5758643,53.6754151 13.8999231,53.6160273 C13.6735296,53.8348623 14.6251742,54.3362393 14.6690852,54.2876493 C14.4207362,53.5706766 15.2456867,53.1081716 15.4497648,52.468583 L15.8215684,52.5585645 C15.8150898,52.4711024 15.8485629,52.3699632 15.8014126,52.2886199 L15.8014126,52.2886199 Z M47.3395746,52.5567648 L47.0512739,52.0402709 C48.0068776,51.3744077 47.581445,51.0152015 46.807244,51.7886826 L46.5135443,51.212081 L47.1434149,50.6837096 L46.9051439,50.4454385 L45.896631,51.3556915 L47.3021423,53.0243088 L48.4884587,52.2231134 L48.165605,51.9888015 L47.3395746,52.5567648 Z M13.141199,52.0877812 C14.6723245,52.0147162 14.0849251,50.8050047 13.0843307,50.3457387 C12.8388611,50.3450191 11.7911163,51.8268348 11.5935169,52.1252135 L11.9181702,52.2526273 L12.4576994,51.6443523 C13.2470173,51.7120184 12.1258475,52.8691807 12.9389205,53.135166 L13.141199,52.0877812 Z M49.3540809,49.0046544 C48.5978762,48.5378303 47.6087993,49.6129295 48.1562469,50.2492788 C48.666982,50.8431568 49.4275058,49.8234863 49.8223447,50.0718352 C50.0858106,50.6984665 49.5203667,50.9266597 48.9754386,50.7362588 L48.8728597,51.1167006 C49.6517397,51.5496917 50.677889,50.5347002 50.1084859,49.8339241 C49.5279252,49.1194709 48.4593046,50.5051862 48.3862397,49.722707 C48.3412489,49.2425656 48.9365666,49.2911556 49.2518619,49.3850963 L49.3540809,49.0046544 Z M11.0795425,48.5302719 L9.4829104,50.1089076 C9.84679566,50.6171232 9.97276978,50.0966701 10.3118201,49.883234 C10.5976014,49.8278054 11.2429489,50.8903071 11.8854169,50.014607 C12.3288458,49.4102911 11.5355688,48.8495263 11.0795425,48.5302719 L11.0795425,48.5302719 Z M55.6477481,19.3179521 L55.3227349,19.5540636 C59.1465895,28.5032654 57.6622544,39.3028472 51.6136967,46.8929682 C51.5460306,47.7539113 52.1600645,46.8641741 52.372061,46.5938696 C57.4477384,40.1202393 59.0036988,30.7553229 56.9164875,22.8499066 C56.8124689,22.4557876 55.8352696,19.3301896 55.6477481,19.3179521 L55.6477481,19.3179521 Z M4.43638696,19.3179521 C0.827048315,27.6214466 1.77617336,37.4114357 6.6168191,44.9983173 C6.98754295,45.579598 7.56126511,46.4758139 8.00037491,46.9775508 C8.08243806,47.0718514 8.21849011,47.2942858 8.36318039,47.2669314 C8.93834226,47.1589536 8.11555126,46.4693352 7.96006319,46.2494204 C3.40519876,39.7912669 1.64731983,32.3638325 3.20400009,24.5196037 C3.54125082,22.8200328 4.11065386,21.1557346 4.75132227,19.551904 L4.43638696,19.3179521 Z M7.46336522,16.3384841 L5.11952664,15.9745988 L4.79847258,16.3863542 L6.45377259,18.2594095 C6.72983588,17.9581514 6.44657406,17.7385965 6.2579728,17.4844887 L6.61214006,16.6390223 L7.21537615,16.7066884 L7.46336522,16.3384841 Z M53.6094868,16.460499 C53.7754127,16.2567809 54.5496137,15.9440051 54.830356,16.0951741 C55.1834435,16.4155083 55.2068387,16.6674565 54.8368347,16.9741135 C54.9599294,17.580229 55.4803825,17.025223 55.5019781,16.6663767 C55.5232137,16.3183282 55.1064193,15.7611627 54.7612502,15.6844984 C54.2739103,15.5758007 53.3003103,15.9378864 53.1441024,16.4277457 C53.0004919,16.879093 53.1153083,17.5762698 53.6778728,17.5870676 L53.5817725,18.0661292 L54.6460739,17.5248004 C54.6773875,17.3282808 54.3350978,16.6077088 54.0608341,16.8661357 L54.2533945,17.3934274 C53.6076872,17.5874275 53.2117685,16.9489187 53.6094868,16.460499 L53.6094868,16.460499 Z M52.6214897,14.9920006 C52.4616826,14.8008799 53.8603553,13.2157655 53.145902,12.8781548 L51.2757262,14.1789276 L51.5143571,14.493503 L52.8115307,13.5508567 C52.9994121,13.7956064 51.5748247,15.506335 52.2910776,15.6629028 C52.3958161,15.6859381 53.9902886,14.5604493 54.0640734,14.4661487 C54.1821292,14.3164194 54.1680921,14.1645306 54.0115242,14.1270983 C53.7415797,14.0626715 52.9310262,14.8786239 52.6214897,14.9920006 L52.6214897,14.9920006 Z M7.65664552,13.1664556 L9.00060947,14.0849869 L9.14853908,13.7405377 L7.27512388,12.4962733 L7.02029622,12.9789341 L8.13498726,14.5114993 C8.07164028,14.5741265 6.72407707,13.9266195 6.45017333,13.9399367 C6.25077428,13.9496547 5.98406906,14.2559518 6.01538263,14.4553509 C6.03265908,14.566568 7.77902038,15.6938565 7.8938368,15.6647025 C7.96582201,15.6467062 8.11411155,15.4620641 7.99389624,15.3746021 L6.69528298,14.4632692 C7.05196972,14.3840855 8.34374439,15.1348913 8.574457,14.8055589 C8.85196,14.4092803 7.50907583,13.3190643 7.65664552,13.1664556 L7.65664552,13.1664556 Z M52.4278495,12.1093527 C52.5030741,12.0416866 52.0081757,11.304558 51.8051774,11.3416304 C51.6255743,11.4334116 51.7623462,11.6014971 51.7058378,11.7195528 C51.6730845,11.7872189 50.6692507,12.7082697 50.6001449,12.7377837 C50.4666123,12.794652 50.0080665,12.5603401 50.1232429,12.8292049 C50.1610351,12.9173868 50.6307386,13.475992 50.7455551,13.4543965 C50.9255181,13.3352609 50.7757888,13.1916504 50.8812472,13.0224852 C50.9204791,12.9594981 51.8840012,12.0855976 51.9505875,12.0582432 C52.1100348,11.9927367 52.2655229,12.1327479 52.4278495,12.1093527 L52.4278495,12.1093527 Z M9.28495106,10.8550104 C9.35009768,10.7635892 9.22736289,10.6307764 9.14206041,10.5749879 L8.91638676,10.5854258 L8.14326556,11.5680239 L9.81728172,13.0689156 L10.8239949,11.9650224 C10.3895642,11.4694042 10.200603,12.4224884 9.89934487,12.4789968 C8.75442003,12.1651413 10.0343171,11.7400686 9.81800157,11.3405507 C9.71866198,11.1573483 9.61176393,11.3628661 9.52898094,11.4370108 C9.39328881,11.5586659 9.28855032,11.7152337 9.13162256,11.8145733 L8.71986713,11.4715637 C8.70511016,11.2019791 9.24571912,10.9100791 9.28495106,10.8550104 L9.28495106,10.8550104 Z M12.6513396,10.1891471 L11.6352683,9.80942514 C11.7983148,8.3412867 10.4377943,8.78255606 9.87235041,9.67301316 L11.3682032,11.3333521 L11.6730605,11.1019197 C11.6777396,10.9064798 10.8553085,10.4641307 11.2076761,10.2330581 C11.7259697,10.0253808 12.3018514,10.8830846 12.6513396,10.1891471 L12.6513396,10.1891471 Z M48.4895384,10.2838077 L49.3429232,8.71884915 L49.1136502,8.46078216 L47.9258942,10.4446947 L48.3268519,10.8478119 L49.738122,9.99694663 C49.5398027,10.2352177 48.4294308,12.1673008 49.4437025,11.7735417 C49.9875507,11.562625 50.7056033,10.8848842 51.2750063,10.6192588 C51.2444126,10.3615517 51.0939635,10.355433 50.8866461,10.4220193 C50.6955253,10.4835667 49.5081292,11.4042576 49.450901,11.3409106 C49.4883333,10.9043203 50.2708126,10.0775701 50.2985269,9.73815978 C50.370872,8.85022216 48.6018354,10.3946649 48.4895384,10.2838077 L48.4895384,10.2838077 Z M12.6513396,7.40259951 C12.5055695,7.27122649 11.9163706,7.81291523 11.7889567,7.93025113 L12.2539812,7.98567974 C12.3637587,8.41831088 13.0468984,8.89377322 13.1811508,9.23138387 C13.2509764,9.40666787 13.0321414,9.57007431 13.2761713,9.70576644 L13.9002831,9.08453404 C13.7861865,8.89449307 13.6137819,9.06761751 13.4662122,8.95064154 C13.4118634,8.90781034 12.6272246,7.94104891 12.5991503,7.87806185 C12.5160074,7.69198007 12.6362227,7.57464417 12.6513396,7.40259951 L12.6513396,7.40259951 Z M47.7840833,7.33817274 C46.6650732,6.21484347 44.9223111,8.42910866 46.2453994,9.21266772 C47.377007,9.88285006 48.5895979,8.14620677 47.7840833,7.33817274 L47.7840833,7.33817274 Z M15.3414271,6.44051712 C15.5152714,6.21880266 14.7558273,5.71886535 14.1407137,6.15257626 C13.6324981,6.51142255 13.6173812,6.96780881 13.8484537,7.50229903 C14.4455711,8.88189566 16.0000918,8.43486748 15.8219284,7.01783854 L15.4839578,7.11105939 C15.3471859,7.31297791 15.6326073,8.01771316 14.9242727,7.95868529 C14.3512704,7.91081512 13.6368172,6.45527409 14.5315934,6.3408176 C14.7684248,6.31022388 15.1740614,6.65323343 15.3414271,6.44051712 L15.3414271,6.44051712 Z M44.9464262,7.0297161 C46.4959079,6.76301088 45.6443228,5.60656841 44.6077358,5.29487243 L43.3969445,7.30505954 L43.7813455,7.36156793 C43.9310747,7.26690738 44.1016797,6.56001257 44.3082773,6.63415734 C44.7315503,6.78640607 44.4731234,7.49690014 44.4623256,7.81795419 L44.8370087,8.07458148 L44.9464262,7.0297161 Z M29.1575492,5.02816721 C9.58764889,5.78761122 -1.72662716,27.8330831 9.40264689,44.1341348 C19.4543023,58.8569108 41.3410467,58.5668104 51.0270172,43.6154814 C61.7092631,27.1265482 49.9897103,5.5871324 30.6656395,5.00081283 L29.1575492,5.02816721 Z M16.9902484,6.45563401 C17.011484,6.42072118 17.6096812,6.17777109 17.7122601,6.07015319 C17.9386536,6.04855763 18.3057782,6.83967513 18.5120158,6.20260598 L16.8765118,4.75786273 L16.3146672,4.82012995 C16.2513202,4.91910961 16.5399809,6.92605739 16.6080069,7.14453251 C16.6306822,7.21723758 16.680352,7.25718937 16.7350608,7.30397976 C17.1126233,7.13697407 16.8916287,6.61796067 16.9902484,6.45563401 L16.9902484,6.45563401 Z M40.409918,4.62469009 L39.650474,4.42385134 L39.7073423,4.7200705 C39.9477729,4.7726197 40.1651683,4.92234895 40.4178364,4.90327287 L40.409918,4.62469009 Z M42.9247215,5.27867576 C42.9729515,5.34346245 43.2353377,5.41688737 43.2882468,5.22792618 C43.4358165,4.69847493 43.0697717,4.25648572 42.556877,4.15570642 C41.1682822,3.88180268 40.4300739,6.68526685 42.3348026,6.45095497 L42.3402015,6.72917783 L42.6198641,6.72197931 C42.6421795,6.42935941 43.1309591,5.92366328 42.9700721,5.67171503 C42.8520164,5.4863531 42.0936522,5.17897624 42.1483609,5.6713551 L42.5313223,5.91106587 C42.1328841,6.42252081 41.495455,6.09606787 41.5901156,5.45683917 C41.6307872,5.18185565 42.0029508,4.55810377 42.2973703,4.51707219 C43.1079238,4.40405541 42.8358197,5.15954023 42.9247215,5.27867576 L42.9247215,5.27867576 Z M18.6081161,4.71107235 C18.6430289,4.54550635 18.5559268,3.7896616 18.2737448,3.8476097 C18.1564089,3.87136482 18.0649876,4.11035573 18.1783644,4.22841148 L18.6081161,4.71107235 Z M20.7874684,3.29908237 C20.0794939,2.49572738 18.5778823,3.96242612 19.689334,4.44688661 C20.0712156,4.61317245 21.2514132,4.14634834 20.8680919,4.9050725 C20.6132642,5.40968885 19.8566996,4.75246384 19.6662987,5.00045291 C19.9563991,5.92870224 21.4799662,5.49211192 21.2982035,4.47532077 C21.1495541,3.64317169 19.8531004,4.34430768 19.7580799,3.97394375 L19.7760762,3.57334603 C20.0859725,3.4182179 20.4473383,3.39842196 20.5765518,3.75078959 L20.911283,3.51179868 C20.8554945,3.44989139 20.8414574,3.3602698 20.7874684,3.29908237 L20.7874684,3.29908237 Z M38.8823917,3.07808776 C38.9594159,3.02085952 39.8649899,3.5618284 39.5511344,2.93663681 L37.9210292,2.50220605 L37.9760979,2.7984252 L38.4972709,2.88660709 C38.5944509,2.98162757 38.0052519,4.35690509 37.9588214,4.6124526 C37.8994336,4.94214488 38.2064506,5.03284625 38.3820945,4.74094621 C38.5296642,4.49547663 38.7909705,3.14575386 38.8823917,3.07808776 L38.8823917,3.07808776 Z M37.0550471,2.88552731 C37.1810212,1.60347065 34.9167263,1.73232418 35.4936878,2.96003201 C35.6855284,3.3685481 36.4964418,3.26596917 36.4345345,3.76230722 C36.3747868,4.23920927 35.453736,4.00201799 35.5044856,3.47832555 L35.1344816,3.46284873 C34.913487,4.47927996 36.8671657,4.7035139 36.8682455,3.70291942 C36.8689653,3.03633634 36.0886456,3.12667778 35.8147418,2.63213936 C35.8860072,2.2696938 36.2261373,2.25457691 36.5180374,2.39566793 L36.6641674,2.84485567 L37.0550471,2.88552731 Z M24.372692,1.92596441 L23.0226093,2.27689233 L23.5520606,4.49619648 L23.8932705,4.42277156 L23.7410218,3.45708991 L24.4050854,3.27208791 L24.4695122,2.98270735 L23.5085095,3.07916754 L23.4361644,2.54539718 L24.3672931,2.30352686 L24.372692,1.92596441 Z M26.2810201,1.65242059 C26.0693835,1.59519235 25.7850419,1.61822762 25.672745,1.83166378 C25.6205557,1.9313633 25.1569709,3.96134634 25.2386742,4.03873044 L25.6119175,4.02829259 L25.8102368,3.41029952 L26.6373469,3.30196178 C26.7377663,3.31779852 27.0383045,4.14382886 27.3514402,3.84652992 C27.4849728,3.71947602 26.3184524,1.99111103 26.2810201,1.65242059 L26.2810201,1.65242059 Z M33.506176,1.9313633 C33.7246511,1.81726673 34.4948929,2.16495532 34.5571602,1.87593468 C34.6277057,1.54840196 33.3539273,1.55919974 33.1163761,1.54048358 L32.8395929,3.69536097 C32.8903425,3.90843721 34.1166106,3.94622944 34.3660394,3.94263018 L34.3660394,3.65540918 L33.3082167,3.55858907 L33.4183541,2.89956443 L34.2699391,2.88588724 L34.2702991,2.59830631 L33.403957,2.50112627 L33.506176,1.9313633 Z M31.0028902,2.06957491 C30.9528605,2.57347141 31.0392427,3.14251453 31.0028902,3.65468933 L31.3865714,3.65504925 L31.4826716,1.73268411 C31.7306607,1.67725549 32.2482344,1.91840596 32.1564533,1.4936932 C32.1226202,1.33784521 30.6602406,1.33244632 30.4259287,1.34936284 L30.4266486,1.63514414 L31.0993504,1.73376388 C31.1518996,1.87233542 31.0093689,2.00406836 31.0028902,2.06957491 L31.0028902,2.06957491 Z M29.5613863,2.02170474 C29.5667852,0.789317874 27.3532398,1.3957933 28.0752515,2.4035863 C28.3052443,2.72428043 29.8133345,2.76711164 29.1366735,3.27784673 C28.5949848,3.68708267 28.3689512,3.02085952 28.2534149,2.99386506 C27.717485,2.86789094 27.9489175,3.661168 28.5604319,3.74755025 C28.9343951,3.80009946 29.5732638,3.65864851 29.6560468,3.21881885 C29.8201731,2.34851761 29.0178979,2.39566793 28.4164614,2.20598689 L28.496725,1.77299583 C28.8044618,1.46237963 29.124436,1.77695501 29.2734454,2.07425395 L29.5613863,2.02170474 Z M29.061449,0.0320334203 L30.7664188,0 C54.7176992,0.643187889 68.5050273,27.9716546 54.387287,47.5523527 C42.0547801,64.6571194 16.2531198,64.0319278 4.82942623,46.3055688 C-7.83997148,26.645687 5.87177213,0.8987354 29.061449,0.0320334203 L29.061449,0.0320334203 Z" id="Fill-1" fill="#FFFFFF" mask="url(#mask-4)"></path>
                </g>
                <path d="M27.4478644,20.0842347 L27.3521241,21.5246588 L28.5366408,20.6446396 C29.95223,19.819689 32.9183808,19.8956334 33.6450715,21.6214789 C34.1464485,22.8121144 33.7631272,24.5656742 33.8844223,25.8495305 L34.7003747,25.9463506 C34.7856772,25.9503098 34.4678625,24.7164832 34.4585044,24.5555963 C34.1572463,19.4082935 42.5071712,18.6013393 43.8511352,22.5605261 C43.9072836,22.7253722 44.1235992,23.4117512 43.9778291,23.4988533 L40.8986616,23.831785 C40.9019009,22.6551866 40.4451548,21.8575905 39.1433022,22.1239357 C38.03401,22.3510491 38.0984368,24.3446796 38.2172124,25.2160606 C38.3575835,26.2476087 39.367896,26.7745405 40.2968652,26.3512674 C40.8371142,26.1054379 40.8144389,25.6234969 41.042992,25.1764688 L44.0696103,25.1764688 C43.8252205,28.544297 39.6993879,28.9481341 37.1532709,28.0090869 C36.383389,27.7251053 35.8219044,27.3295465 35.2773362,26.7147928 C35.0905346,26.5035162 34.996234,26.1450298 34.7989945,26.1367515 C34.6629424,26.1525883 34.8457849,26.2591264 34.8457849,26.2814418 L34.8457849,28.1066269 L34.7018144,28.2509573 L29.1773092,28.2509573 L29.1233203,25.9416716 L30.234772,25.8495305 C30.0969203,24.595908 30.8412474,22.2391121 28.8432978,22.3877616 C28.4218243,22.4190751 27.5439647,22.9701219 27.5439647,23.3987939 L27.5439647,25.8488107 L28.6007076,25.8488107 L28.6007076,28.2509573 L22.8361316,28.2509573 L22.8361316,25.8488107 L23.8928746,25.8488107 L23.8928746,22.5342515 C23.6394866,22.2607077 23.1795011,22.4334722 22.8361316,22.390281 L22.8361316,20.0842347 L27.4478644,20.0842347 Z" id="Fill-4" fill="#FFFFFF"></path>
                <path d="M25.49289,32.0312968 C25.3975095,31.9395156 25.2193461,31.8340573 25.0890529,31.8117419 C23.9048961,31.6105432 23.5669255,32.3750262 23.4225952,33.4011754 C23.2692667,34.4924712 23.2174373,37.721368 23.7562467,38.6197435 C24.2435866,39.4320966 25.4353018,39.2474546 25.7948679,38.3674353 C26.2390167,37.2815384 26.1940259,33.9158697 25.8643337,32.7648261 C25.8020664,32.5470708 25.6516173,32.1839054 25.49289,32.0312968 M23.7756827,29.3347306 C28.642603,28.7527302 30.1204594,32.799379 29.5478171,36.9324101 C29.0691154,40.3891401 26.4672098,42.5289006 22.9528917,41.3447438 C18.4718121,39.834494 18.6201016,29.9509241 23.7756827,29.3347306" id="Fill-6" fill="#FFFFFF"></path>
                <path d="M34.5296978,31.8263549 C33.803367,31.9915609 33.6352815,33.2574209 33.5928102,33.8674956 C33.5197452,34.9245985 33.4707953,37.8975878 34.0329998,38.719659 C34.3868071,39.2365128 35.3478098,39.2577485 35.7538064,38.8146795 C36.4063523,38.1016659 36.3610016,34.96599 36.2857771,33.9686348 C36.2011945,32.8442258 36.0003557,31.4916236 34.5296978,31.8263549 M31.7093171,40.5149702 C29.0631406,38.0879887 29.2834154,30.4993074 33.4204056,29.4673994 C38.9744248,28.0820439 40.7452611,33.685733 39.5269114,38.072152 C38.5749069,41.4986482 34.309783,42.9002003 31.7093171,40.5149702" id="Fill-8" fill="#FFFFFF"></path>
                <path d="M44.7143099,31.8266428 C43.9976971,31.9900492 43.8195337,33.4416311 43.7774223,34.0596242 C43.7090364,35.0580591 43.6726838,38.0166514 44.2748401,38.758459 C44.7960131,39.4005671 45.88191,39.1878508 46.2018843,38.4060914 C46.6118401,37.405137 46.5970831,33.6892602 46.252274,32.6494338 C46.0050048,31.903667 45.4906704,31.6495592 44.7143099,31.8266428 M44.2402872,29.3345147 C49.5553155,28.6992452 50.9158361,33.9750415 49.7108036,38.1678203 C48.3772775,42.8072674 41.8561369,42.8500986 40.5632825,38.1462248 C39.7005397,35.0076694 40.1846403,29.819695 44.2402872,29.3345147" id="Fill-10" fill="#FFFFFF"></path>
                <path d="M18.60862,29.4038365 L18.60862,32.1900242 L13.5163859,32.1900242 L13.3252652,34.0155692 C14.3881269,33.2550454 15.5197344,33.1132345 16.7881139,33.3860585 C19.5753814,33.9860553 20.1285878,37.3268891 18.7817444,39.5209984 C16.9212866,42.5526557 11.0570111,42.3492975 10.2457377,38.5797917 C10.263734,38.378593 11.1559908,37.9430825 11.4007405,37.8088301 C12.1393088,37.4021136 12.9322259,37.0353489 13.7085864,36.7067364 C13.2428421,37.6853754 13.4983896,39.0880073 14.8103202,39.0156622 C16.4886554,38.9235211 16.5260877,35.9771663 15.2465505,35.4081232 C14.2567539,34.9675737 13.4321632,35.5592921 12.6039733,36.0264762 L10.5538344,35.0571953 L11.2106995,29.4038365 L18.60862,29.4038365 Z" id="Fill-12" fill="#FFFFFF"></path>
                <path d="M22.3557023,17.5861678 L22.3557023,19.9400843 C21.9946965,20.2391829 21.3698648,20.0203478 20.9145583,20.0840547 L20.9145583,25.8489906 C21.3698648,25.9126975 21.9946965,25.6938625 22.3557023,25.992961 L22.3557023,28.1068069 L22.2117319,28.2507773 L14.8616816,28.2507773 L14.8616816,25.992961 C15.2226875,25.6938625 15.8475191,25.9126975 16.3028256,25.8489906 L16.3028256,20.0840547 C15.8475191,20.0203478 15.2226875,20.2391829 14.8616816,19.9400843 L14.8616816,17.5861678 L22.3557023,17.5861678 Z" id="Fill-14" fill="#FFFFFF"></path>
                <path d="M46.1494791,27.8331911 C45.1064133,28.9820751 43.1494953,27.6568273 44.0251954,26.2369189 C45.0099531,24.6402869 47.4282964,26.4248003 46.1494791,27.8331911" id="Fill-16" fill="#FFFFFF"></path>
                <path d="M30.1380598,5.96066368 L30.522101,5.96030375 C30.3961268,10.5101292 30.3324199,15.0894686 30.3302604,19.6536911 L30.1380598,19.7958619 L30.1380598,5.96066368 Z" id="Fill-18" fill="#FFFFFF"></path>
                <path d="M30.1380598,39.5881606 L30.1380598,54.0478306 L29.9458593,54.1450106 C29.8418407,54.0715857 29.854798,53.9700865 29.84508,53.860669 C29.4639183,49.600584 30.2827501,44.819686 29.9411803,40.4973338 C30.0833511,40.2360275 29.8691951,39.7278119 30.1380598,39.5881606" id="Fill-20" fill="#FFFFFF"></path>
                <path d="M34.5585999,21.621443 L41.3313287,8.65258676 L41.432108,9.03878743 C39.2743512,12.8982747 37.2868395,16.8545821 35.1506782,20.725227 C34.991231,21.0142477 34.7986705,21.4026079 34.5585999,21.621443" id="Fill-22" fill="#FFFFFF"></path>
                <polygon id="Fill-24" fill="#FFFFFF" points="27.9272859 20.6606923 27.7221281 20.3385585 24.4925114 7.04072983 24.6134466 6.53899289 24.8078067 6.91943475"></polygon>
                <path d="M27.2553759,54.0006803 L26.967795,54.0003203 C27.4317397,49.4335783 28.1861448,44.8859124 28.7069578,40.3184506 L28.8880006,39.9729216 L27.2553759,54.0006803 Z" id="Fill-26" fill="#FFFFFF"></path>
                <path d="M33.5978492,20.9489211 L33.6899903,20.5134105 C35.2995797,16.5275892 36.6291466,12.4215526 38.2326172,8.43465152 C38.3240384,8.20753817 38.4107806,7.97286637 38.5147993,7.75151184 C38.564469,7.64569357 38.5666286,7.43153756 38.7357939,7.49884374 C38.8833635,7.55787161 38.9125176,7.72631701 38.8056195,7.85229114 L33.8148846,20.6383049 L33.5978492,20.9489211 Z" id="Fill-28" fill="#FFFFFF"></path>
                <path d="M29.080885,19.9874506 C28.7843059,20.0346009 28.9279164,19.9107863 28.8926436,19.7473799 C28.1958268,16.538279 27.9183238,12.0658377 27.5447205,8.69800943 C27.464457,7.97311832 27.3215663,7.0423495 27.2981711,6.34337307 C27.284494,5.93809632 27.5853922,5.9751687 27.639741,6.29694261 L29.080885,19.9874506 Z" id="Fill-30" fill="#FFFFFF"></path>
                <polygon id="Fill-32" fill="#FFFFFF" points="36.0944404 6.63365345 32.8007569 19.7205654 32.5408903 20.180191 35.8050598 6.69736036"></polygon>
                <path d="M31.4826716,40.7415077 L33.0199159,54.0004643 L32.7326949,54.0004643 C32.2287984,49.6320416 31.8479966,45.2416634 31.2976696,40.8768399 C31.2735546,40.6867989 31.3199851,40.7375485 31.4826716,40.7415077" id="Fill-34" fill="#FFFFFF"></path>
                <polygon id="Fill-36" fill="#FFFFFF" points="33.2121524 6.15228832 31.3880471 19.795646 32.9245715 6.15192839"></polygon>
                <path d="M21.9689978,7.40245554 L26.3910495,19.6989698 L26.1560177,19.5067693 C25.015772,15.6677978 22.7946682,11.6722585 21.7490829,7.86460061 C21.6583816,7.5345484 21.5594019,7.32867069 21.9689978,7.40245554" id="Fill-38" fill="#FFFFFF"></path>
                <path d="M24.8527974,19.6998696 L24.4194464,19.1250677 C22.8386511,15.9134474 21.0293028,12.8101648 19.4233126,9.61366135 C19.3455686,9.45889314 18.8139578,8.62674407 19.1386111,8.5554787 L24.8527974,19.6998696 Z" id="Fill-40" fill="#FFFFFF"></path>
                <path d="M33.0190521,41.7021504 L35.7775255,52.8271053 C35.7832843,53.0596176 36.0111175,53.3428794 35.7573696,53.5185233 L32.829731,41.7482209 L33.0190521,41.7021504 Z" id="Fill-42" fill="#FFFFFF"></path>
                <path d="M27.3517281,41.4146054 L24.3819781,53.3673903 L24.085759,53.4231789 C25.0028506,49.868549 25.8227622,46.2761269 26.8028409,42.7380536 C26.8982213,42.3928845 26.9928819,41.9156225 27.1163365,41.6057262 C27.1778839,41.450958 27.1069784,41.3706945 27.3517281,41.4146054" id="Fill-44" fill="#FFFFFF"></path>
                <path d="M36.9605665,20.180263 L43.8279559,10.1890752 C44.0381528,10.3499621 43.9690469,10.3474426 43.8837445,10.5302851 C43.7901637,10.7296841 43.5202191,11.0676547 43.3791281,11.275332 C41.6845962,13.7721392 39.8637302,16.3204158 38.0946935,18.7693528 C38.0032723,18.8960468 37.0339914,20.2601666 36.9605665,20.180263" id="Fill-46" fill="#FFFFFF"></path>
                <path d="M34.5586358,41.9901632 C34.7015265,42.0146382 34.7439978,42.1661671 34.7976268,42.278464 C36.2747634,45.3691492 37.1659403,49.16277 38.5905277,52.3225609 C38.7319786,52.7793071 38.4821899,52.7731884 38.2752325,52.3481157 C37.1601815,50.058266 36.1163959,46.5500666 35.2284583,44.0575786 C34.9869479,43.3798378 34.7173632,42.6927389 34.5586358,41.9901632" id="Fill-48" fill="#FFFFFF"></path>
                <path d="M25.6223554,41.991099 L21.4443335,52.5581686 L21.3975431,52.2266766 C22.8725202,49.1406705 23.7636971,45.282263 25.2854646,42.2779601 C25.3621288,42.1267912 25.4028005,41.9525869 25.6223554,41.991099" id="Fill-50" fill="#FFFFFF"></path>
                <path d="M40.9962736,51.5016776 L36.1919804,41.7980707 L41.2428229,51.1143971 C41.3439621,51.3184752 41.2453424,51.5247128 40.9962736,51.5016776" id="Fill-52" fill="#FFFFFF"></path>
                <path d="M23.8924787,41.8945309 L19.075948,51.1525493 C18.6915469,51.5207536 18.6274801,51.300119 18.8171611,50.8934025 C19.986201,48.3879571 21.7203248,45.4196468 23.1078398,42.9825874 C23.2590088,42.716602 23.4324932,42.3451583 23.5861816,42.1155255 C23.6696844,41.9902712 23.6955991,41.8538592 23.8924787,41.8945309" id="Fill-54" fill="#FFFFFF"></path>
                <polygon id="Fill-56" fill="#FFFFFF" points="37.9186177 41.222225 43.7310638 49.6794078 43.6371231 50.0587699 37.7267771 41.270815"></polygon>
                <path d="M38.8817079,40.0690578 L39.2189586,40.2590988 C41.2046708,42.6760023 43.4506094,44.8837889 45.4640359,47.2729781 C45.570574,47.3996721 46.0071643,47.8801734 46.0409974,47.94532 C46.1284594,48.1137654 46.0564742,48.1296022 45.9416578,48.2347006 L38.8817079,40.0690578 Z" id="Fill-58" fill="#FFFFFF"></path>
                <path d="M20.9140185,40.3572866 L14.0459092,48.0420682 C13.8688255,47.9780013 13.929653,47.921133 13.9976791,47.8048769 C14.0664249,47.6879009 14.2359501,47.4813033 14.3316905,47.3693663 C16.0859701,45.3167079 18.1375487,43.086606 20.0005261,41.1239291 C20.1113833,41.0073131 20.8010017,40.2525481 20.9140185,40.3572866" id="Fill-60" fill="#FFFFFF"></path>
                <path d="M22.2596021,41.4146054 L16.3521355,49.8681891 C16.0076862,49.7918847 16.514822,49.211324 16.6084028,49.0695131 C18.1031758,46.8001792 19.9470771,44.2083516 21.6045366,42.0556338 C21.6912788,41.9433368 22.113832,41.2799931 22.2596021,41.4146054" id="Fill-62" fill="#FFFFFF"></path>
                <path d="M45.1822138,13.4146246 C43.4243348,15.374782 41.4548194,17.8039231 39.5932817,19.5952751 C39.5015006,19.6830971 39.3863242,19.7554422 39.2664689,19.7961139 C39.1995226,19.7262882 39.7106176,19.1205326 39.7926808,19.0258721 C41.6254243,16.9163454 43.5567876,14.6081395 45.4611565,12.5885943 C45.6393199,12.399993 46.066912,11.8097143 46.2767614,12.1570429 C46.2807081,12.2509836 45.3423809,13.2357414 45.1822138,13.4146246" id="Fill-64" fill="#FFFFFF"></path>
                <path d="M43.8773018,24.8871962 C43.9035764,24.7183908 44.070942,24.7219901 44.187918,24.6701607 C46.4687695,23.6566089 49.9496145,22.2604557 52.3121693,21.552841 C52.4064699,21.5247668 52.6778542,21.3466034 52.7160063,21.5747965 C52.7448004,21.7461213 52.5432418,21.8065889 52.4287853,21.8623775 C49.7797294,22.6128233 46.9766252,24.147908 44.3592428,24.8414856 C44.1961963,24.8846767 44.0450273,24.9059123 43.8773018,24.8871962" id="Fill-66" fill="#FFFFFF"></path>
                <path d="M48.0580591,14.0316459 L48.2963301,14.1766961 L48.1062892,14.4649969 C46.0730668,16.0972616 44.2147685,17.9591592 42.1934237,19.6011419 C42.0584514,19.7109194 41.8388965,19.9067192 41.714722,19.9877025 C41.5682321,20.0834429 41.4717719,20.0233352 41.4771708,19.9401923 L48.0580591,14.0316459 Z" id="Fill-68" fill="#FFFFFF"></path>
                <path d="M15.9180286,24.4092863 L15.7765777,24.5996872 C13.1016071,23.549063 10.4090002,22.5326318 7.71279398,21.5338369 L7.65628559,21.2376178 L15.9180286,24.4092863 Z" id="Fill-70" fill="#FFFFFF"></path>
                <path d="M21.490512,17.2013708 C21.3418626,17.3478607 20.7382666,16.402335 20.6439659,16.2713219 C19.3453527,14.4666525 17.7991103,12.3427288 16.6491465,10.4664342 C16.5757215,10.3465788 16.4637845,10.2544377 16.495458,10.092471 L16.9212506,10.2904303 L21.490512,17.2013708 Z" id="Fill-72" fill="#FFFFFF"></path>
                <path d="M14.4778564,27.8669521 L14.431066,28.1530934 C11.7229823,27.7237016 8.97710629,27.5091856 6.27082216,27.1064283 L6.2146737,26.8102092 L14.4778564,27.8669521 Z" id="Fill-74" fill="#FFFFFF"></path>
                <polygon id="Fill-76" fill="#FFFFFF" points="50.0258829 16.3370444 50.1151445 16.6141874 43.6447536 20.9563356 43.2049239 21.0441575"></polygon>
                <path d="M51.5633071,19.1220803 L44.2622067,22.7738902 L44.4832013,22.4675932 L51.2721269,18.875171 C51.446691,18.777991 51.5899416,18.9381581 51.5633071,19.1220803" id="Fill-78" fill="#FFFFFF"></path>
                <path d="M15.7912267,22.2279904 L15.9182806,22.4853375 L9.09408227,18.9821771 C8.72839738,18.8979544 8.70032314,18.4394085 9.14951088,18.6380877 C11.369175,19.6196061 13.5460078,21.236394 15.7912267,22.2279904" id="Fill-80" fill="#FFFFFF"></path>
                <polygon id="Fill-82" fill="#FFFFFF" points="14.4770286 25.9463866 14.2592733 26.1162717 6.85235472 24.3155616 6.79152721 23.9279212"></polygon>
                <path d="M14.95717,35.6494536 C15.0194372,35.8866449 14.5835667,35.9345151 14.4046835,36.0090197 C12.2764406,36.8973173 10.0477784,37.5624607 7.92421456,38.466595 L7.46458896,38.3856116 L14.95717,35.6494536 Z" id="Fill-84" fill="#FFFFFF"></path>
                <path d="M54.0616259,27.098474 L54.0619859,27.385695 C51.4744773,27.7089086 48.871492,27.9597771 46.2793044,28.2498775 L46.6187147,27.9658958 L54.0616259,27.098474 Z" id="Fill-86" fill="#FFFFFF"></path>
                <path d="M53.5807287,24.216078 C53.6307584,24.2664677 53.5861276,24.5648464 53.4162425,24.5792434 L46.5679291,26.1366435 L46.9105788,25.8584207 L53.5807287,24.216078 Z" id="Fill-88" fill="#FFFFFF"></path>
                <path d="M18.9924451,17.2013708 C18.8797883,17.3064693 18.1894501,16.5509844 18.0789528,16.4347283 C17.0157312,15.3146384 15.2524533,13.4541805 14.3817922,12.2531072 C14.2684155,12.0965394 14.1060888,11.9637267 14.3346419,11.8219158 L18.9924451,17.2013708 Z" id="Fill-90" fill="#FFFFFF"></path>
                <path d="M17.2635043,41.4146054 L12.2195003,45.9388762 C11.8145835,46.0306573 11.7843497,45.8712101 12.0737302,45.5915475 C13.2182952,44.4858546 15.0899107,42.8435119 16.3532512,41.8965464 C16.6134778,41.7011066 16.9341719,41.4667947 17.2635043,41.4146054" id="Fill-92" fill="#FFFFFF"></path>
                <polygon id="Fill-94" fill="#FFFFFF" points="42.9165511 41.60677 43.4449226 41.7978907 48.1991861 45.9773523 47.9605551 46.2156233"></polygon>
                <path d="M54.2537905,29.98033 L54.2537905,30.2686308 L48.7292852,30.2686308 C48.6936525,30.2686308 48.5813556,30.1466159 48.4895744,30.1707309 L48.4892145,29.98033 L54.2537905,29.98033 Z" id="Fill-96" fill="#FFFFFF"></path>
                <path d="M14.4561889,18.8534315 C14.4961407,18.9221774 14.514137,19.1240959 14.4284746,19.1244558 L10.4638889,16.4624426 C10.1187198,16.1673032 10.4595698,16.0233328 10.7640673,16.2551252 L14.4561889,18.8534315 Z" id="Fill-98" fill="#FFFFFF"></path>
                <path d="M15.9179566,17.2013708 C15.7088396,17.2352039 15.5731475,17.1085099 15.4172995,17.0048512 C14.6952878,16.5243499 13.2523442,15.1224379 12.5544475,14.4648529 C12.3593676,14.2812906 11.8709479,13.8630565 12.4608667,13.8853719 L15.9179566,17.2013708 Z" id="Fill-100" fill="#FFFFFF"></path>
                <path d="M10.8257946,29.7886694 C10.789442,30.3030038 10.0962244,29.9862688 9.7258605,29.975831 C8.88183386,29.9517159 7.96870142,29.9556751 7.123595,29.975831 C6.79282294,29.9837493 5.86493353,30.3048034 6.07081125,29.6914894 L10.8257946,29.7886694 Z" id="Fill-102" fill="#FFFFFF"></path>
                <path d="M10.4414655,32.190636 C10.4706195,32.3839163 10.3669608,32.4407847 10.1985154,32.4749776 C8.93805431,32.7294454 7.48467284,32.6603396 6.21557351,32.9587183 L6.21413381,32.5750371 L10.4414655,32.190636 Z" id="Fill-104" fill="#FFFFFF"></path>
                <polygon id="Fill-106" fill="#FFFFFF" points="54.061122 32.8631579 53.9218306 33.223084 50.1850782 32.7519408 50.0274306 32.3822967"></polygon>
                <path d="M49.9297466,43.9111966 C49.8509228,43.9903804 49.6187705,43.8305732 49.5309485,43.7823431 C48.7855416,43.3723873 47.6665315,42.4848096 46.9416404,41.9495996 C46.8333026,41.8700559 46.7026495,41.9510393 46.7602376,41.7023303 C46.9394808,41.6663377 47.0460189,41.7228461 47.1986276,41.7912321 C47.5484757,41.9481598 49.4938761,43.2723279 49.7728189,43.5408327 C49.8606408,43.6254153 50.0438432,43.7967401 49.9297466,43.9111966" id="Fill-108" fill="#FFFFFF"></path>
                <polygon id="Fill-110" fill="#FFFFFF" points="10.1537046 34.6891349 9.93774898 35.0069496 6.695175 35.7444381 6.69445515 35.457577"></polygon>
                <path d="M13.0359566,41.8926592 C12.1534179,42.2320695 11.2287678,43.3021297 10.4088562,43.6404602 C10.0813235,43.7754325 10.1140768,43.5159258 10.3534276,43.2949312 C10.5600252,43.1045303 12.4395591,41.8339913 12.6551548,41.7508484 C12.8437561,41.6777834 12.9571328,41.6734643 13.0359566,41.8926592" id="Fill-112" fill="#FFFFFF"></path>
                <path d="M53.4789776,35.7526444 L53.4847364,36.0326669 C53.3508439,36.0510231 53.2255897,36.0143107 53.0960163,35.9901956 C52.697938,35.9160508 50.8346008,35.4733418 50.575454,35.3398092 C50.3803741,35.2393898 50.3922516,35.1825215 50.4116876,34.9762839 L53.4789776,35.7526444 Z" id="Fill-114" fill="#FFFFFF"></path>
                <path d="M52.6064088,38.5445549 C52.6582382,38.6194196 52.6701157,38.8936832 52.4879932,38.8094605 C51.8689203,38.4930855 50.9179956,38.3142023 50.3435536,37.9740721 C50.2125405,37.8963281 50.0854866,37.857816 50.1229189,37.6670552 C50.2229784,37.5810329 52.5308244,38.4362172 52.6064088,38.5445549" id="Fill-116" fill="#FFFFFF"></path>
                <path d="M49.2116941,40.06823 C49.3383881,40.0513135 51.4587126,41.1418895 51.4655512,41.2696632 C51.3604528,41.4078748 51.3226605,41.4255112 51.149896,41.397437 C51.037959,41.3790807 49.3016756,40.4220373 49.1638239,40.306501 C49.0259723,40.1909648 49.1361096,40.0783079 49.2116941,40.06823" id="Fill-118" fill="#FFFFFF"></path>
                <path d="M44.2615949,28.3479213 L39.6509419,29.0195434 C39.6048714,28.7258437 39.7218473,28.8622557 39.8924523,28.831662 C41.3030026,28.5797137 42.8355678,28.4562591 44.2615949,28.3479213" id="Fill-120" fill="#FFFFFF"></path>
                <polygon id="Fill-122" fill="#FFFFFF" points="10.5377817 40.355451 8.84001045 41.2088357 8.61685629 40.9806426 10.3146276 40.0797476 10.4427612 40.1153803"></polygon>
                <path d="M41.5713634,24.1204457 C40.6992626,24.742038 39.6525975,25.1710699 38.6894354,25.6562502 C38.6368862,25.4007027 38.7538621,25.4910441 38.8787565,25.4179791 C39.6965085,24.9385576 40.6870251,24.4465387 41.5713634,24.1204457" id="Fill-124" fill="#FFFFFF"></path>
                <path d="M15.7257561,37.3788264 C15.80422,37.4641289 15.7444723,37.6052199 15.6059007,37.692322 C15.4561715,37.7862627 14.0618179,38.4953171 13.9973911,38.4348495 C13.9559996,38.2368901 14.095291,38.2116953 14.2183857,38.1281925 C14.3562374,38.0349716 15.6688878,37.3169191 15.7257561,37.3788264" id="Fill-126" fill="#FFFFFF"></path>
                <path d="M19.7610313,32.4788288 C19.8089014,32.7707289 19.6865266,32.6314375 19.5274393,32.6724691 C18.7356019,32.8761872 17.8804176,33.1266958 17.0720236,33.150091 C17.0482685,33.0032411 17.2512668,33.0363543 17.3603244,33.00864 C18.1521617,32.8060016 18.9623553,32.6490739 19.7610313,32.4788288" id="Fill-128" fill="#FFFFFF"></path>
                <path d="M41.6674997,29.98033 L41.6674997,30.1725306 L39.6497541,30.1725306 C39.6425556,30.1102634 39.777168,29.98033 39.7940845,29.98033 L41.6674997,29.98033 Z" id="Fill-130" fill="#FFFFFF"></path>
                <path d="M40.4179803,22.9670626 C40.4647707,23.1697009 40.3085628,23.1833781 40.1995052,23.2758791 C39.6970484,23.7013118 39.0157084,23.992132 38.4977747,24.4078466 L38.7151701,24.0975904 L40.4179803,22.9670626 Z" id="Fill-132" fill="#FFFFFF"></path>
                <path d="M23.0272884,23.7351808 C22.566583,23.2550394 21.9010797,22.848323 21.4569309,22.3760999 C21.3381553,22.2501258 21.2496135,22.2386082 21.2996432,22.005736 C21.6689274,22.3753801 22.1314324,22.7090316 22.5025162,23.0599595 C22.5964569,23.1492211 23.1291475,23.6275629 23.0272884,23.7351808" id="Fill-134" fill="#FFFFFF"></path>
                <path d="M20.6262936,29.8842298 C20.6334921,29.946497 20.4988797,30.0764303 20.4823231,30.0764303 L19.0411791,30.0764303 C19.0242626,30.0764303 18.8896503,29.946497 18.8968488,29.8842298 L20.6262936,29.8842298 Z" id="Fill-136" fill="#FFFFFF"></path>
                <path d="M18.9938848,39.8763894 C18.9085824,39.7792094 19.8357519,38.8261251 19.9055776,38.8214461 C19.9894404,38.8156873 20.0484682,38.9135871 19.9541676,39.0597171 C19.7799634,39.3300216 19.2307162,39.6078845 18.9938848,39.8763894" id="Fill-138" fill="#FFFFFF"></path>
                <path d="M40.7057412,39.5881246 C40.6639898,39.6356348 39.7800114,38.8250813 39.7436588,38.7736119 C39.6540373,38.6469179 39.694349,38.5267026 39.7940485,38.5331813 C39.8638742,38.5378603 40.7910437,39.4909446 40.7057412,39.5881246" id="Fill-140" fill="#FFFFFF"></path>
                <path d="M11.1801058,9.8709725 C11.1311559,9.92928053 10.8619312,10.092327 10.7917456,10.0811693 L10.3479567,9.6596959 C10.6931258,8.97799592 11.6760839,9.27709448 11.1801058,9.8709725" id="Fill-142" fill="#FFFFFF"></path>
                <path d="M46.9250838,7.4157728 C47.1126053,7.36394345 47.4261009,7.48235912 47.5347985,7.63460785 C47.9742683,8.25044136 46.7897516,9.54509544 46.2311463,8.74749926 C45.9424856,8.37317615 46.622386,7.49927565 46.9250838,7.4157728" id="Fill-144" fill="#FFFFFF"></path>
                <path d="M13.0467184,50.837362 C13.4559543,50.8690355 13.8889454,51.3041861 13.5175017,51.6497151 C13.2669932,51.8041234 12.8937498,51.5672921 12.7519389,51.3466574 L13.0467184,50.837362 Z" id="Fill-146" fill="#FFFFFF"></path>
                <path d="M45.2912714,6.08491016 C45.4532381,6.2648732 45.3621768,6.51358211 45.1577388,6.62120001 C44.9101097,6.70506278 44.6333265,6.53769716 44.445805,6.38256902 L44.7884546,5.77393403 C44.9137089,5.8963089 45.190852,5.973693 45.2912714,6.08491016" id="Fill-148" fill="#FFFFFF"></path>
                <path d="M31.1682762,56.8034606 C31.9633529,56.572388 32.2556129,58.0516842 31.6340206,58.4252874 C30.6982128,58.987492 30.5103314,56.9945813 31.1682762,56.8034606" id="Fill-150" fill="#FFFFFF"></path>
                <path d="M19.7612112,54.8652587 L19.665111,55.8251815 L18.993129,55.6322611 C19.1011068,55.5300421 19.6150813,54.7209283 19.7612112,54.8652587" id="Fill-152" fill="#FFFFFF"></path>
                <polygon id="Fill-154" fill="#FFFFFF" points="6.3100901 16.5298208 5.974639 17.2014428 5.34980734 16.4340804"></polygon>
                <path d="M17.4550929,5.67419852 C17.4853267,5.97437686 17.1056047,5.99093346 16.9267214,6.15038071 L16.6880905,5.09615725 L17.4550929,5.67419852 Z" id="Fill-156" fill="#FFFFFF"></path>
                <path d="M26.101309,2.117841 L26.4867898,2.98094371 L25.8151678,3.07776383 C25.8468412,2.8178972 25.867357,2.51771886 25.9141474,2.26361105 C25.9429415,2.10740314 25.8486409,2.09588551 26.101309,2.117841" id="Fill-158" fill="#FFFFFF"></path>
                <path d="M40.0345871,56.0178139 L40.0817374,55.0571713 L40.7022499,55.7784631 C40.5370439,55.9803816 40.2868953,56.0386897 40.0345871,56.0178139" id="Fill-160" fill="#FFFFFF"></path>
                <path d="M37.5376,56.6905158 L37.3489987,55.8306524 C38.3931442,55.4570491 38.5803058,56.5022744 37.5376,56.6905158" id="Fill-162" fill="#FFFFFF"></path>
                <path d="M11.1625414,49.0058782 C11.792772,49.3449286 11.6912728,50.2148699 10.9476655,49.8920162 C10.3156354,49.6173926 10.8742406,49.3089359 11.1625414,49.0058782" id="Fill-164" fill="#FFFFFF"></path>
                <path d="M46.0792575,36.041989 L46.0396656,36.3209317 C45.4868192,36.0023971 44.8313938,35.8753432 44.2623507,35.5956806 C44.1252189,35.5280145 44.0212002,35.6176361 44.0697903,35.3613688 L46.0792575,36.041989 Z" id="Fill-166" fill="#FFFFFF"></path>
                <path d="M45.7983712,38.4347415 C45.7289055,38.500608 44.2384516,37.7091305 44.1653866,37.4755385 C44.4778025,37.5129708 44.8855987,37.721728 45.156623,37.8764962 C45.2505637,37.9297652 45.9463008,38.2947303 45.7983712,38.4347415" id="Fill-168" fill="#FFFFFF"></path>
                <path d="M46.0871039,34.1107337 C45.5382166,34.060344 44.9159045,33.899817 44.3896925,33.73893 C44.2331247,33.6910599 44.1183083,33.817034 44.1661785,33.5355718 C44.7726539,33.6536275 45.614161,33.7122955 46.0871039,34.1107337" id="Fill-170" fill="#FFFFFF"></path>
            </g>
            <g id="Group-47" transform="translate(159.1673, 11.25)">
                <path d="M20.8683585,20.3817119 L24.5665486,31.3014107 L29.0211067,20.609767 L29.4962361,20.2043749 L34.1628237,31.2992975 L37.6863183,20.3817119 L40.3278827,20.3817119 L34.5189066,37.3782415 C34.281518,37.6055921 34.1249613,37.3794742 34.0222925,37.1655075 L29.2345451,25.840945 C29.1686821,26.5212358 28.869657,27.1550352 28.6141297,27.7752745 C27.4467343,30.609497 26.0523405,34.4017268 24.6632299,37.0321966 C24.5639071,37.2200998 24.5221704,37.5302195 24.215925,37.4632999 L18.3148463,20.3817119 L20.8683585,20.3817119 Z" id="Fill-1" fill="#FFFFFF"></path>
                <path d="M2.55351222,1.36244846 C2.77910182,1.53203689 2.85042406,1.77400419 2.95362117,2.01896526 C3.89754018,4.26235783 4.77841384,7.30755323 5.5071334,9.67950193 C5.71176658,10.3460567 5.94316762,11.0518827 5.98877863,11.7526016 C6.23655737,11.7305886 6.2703694,11.4997159 6.34644645,11.3190329 C7.66511538,8.18261545 8.8559326,4.60435236 10.3521147,1.58856637 C10.440519,1.41052493 10.5717167,1.12770144 10.828829,1.18669638 L15.4091255,11.9299387 L18.7508805,1.53432625 C19.0159175,1.16010463 20.7734383,1.45472711 21.308267,1.36297677 L15.8618896,17.6360699 L15.4087733,17.7427891 C13.8516591,14.0815809 12.0971321,10.4464361 10.9172333,6.6455772 C10.6601211,6.66494867 10.6442717,6.91079026 10.5630876,7.08266805 C9.03080416,10.3231631 7.89704474,14.0748889 6.25909872,17.2192311 C6.05323281,17.6144091 5.98525655,17.8266148 5.46028966,17.7406759 L0,1.36244846 L2.55351222,1.36244846 Z" id="Fill-3" fill="#FFFFFF"></path>
                <g id="Group-7" transform="translate(1.2393, 20.1942)">
                    <mask id="mask-6" fill="white">
                        <use xlink:href="#path-5"></use>
                    </mask>
                    <g id="Clip-6"></g>
                    <path d="M8.23292213,2.52312468 C0.323197884,3.18527681 1.36362204,15.3745114 9.0648388,14.8048141 C16.7243188,14.2381104 15.8952198,1.88157674 8.23292213,2.52312468 M7.70284821,0.0601300573 C19.3364738,-1.15358072 20.6891309,16.3989101 9.41687128,17.271683 C-2.12834996,18.1654122 -3.47537168,1.22646878 7.70284821,0.0601300573" id="Fill-5" fill="#FFFFFF" mask="url(#mask-6)"></path>
                </g>
                <path d="M73.6115938,22.847172 L73.6115938,34.8222638 L76.3412103,34.8222638 C76.6124109,34.8222638 77.9751059,34.4568474 78.3132261,34.3288196 C81.2407839,33.220067 81.8810991,30.2271745 81.4924369,27.3816814 C80.9650046,23.5181293 76.931688,22.6286266 73.6115938,22.847172 L73.6115938,22.847172 Z M70.7939251,37.2877239 L70.7939251,20.6458684 L71.0580815,20.3817119 L75.9890017,20.3817119 C76.6358328,20.3817119 78.2404951,20.7289896 78.9415662,20.9512332 C85.9940148,23.1872294 86.4848175,33.5993956 79.7201233,36.4401339 C79.1115069,36.6958374 77.2659339,37.2877239 76.6934189,37.2877239 L70.7939251,37.2877239 Z" id="Fill-8" fill="#FFFFFF"></path>
                <path d="M39.6234655,1.18634417 L40.1523067,1.44997229 L47.6362108,10.1653737 L55.113599,1.30028365 L55.6489561,1.18634417 L55.6489561,17.5640433 L53.0073917,17.5640433 L53.0073917,7.96635938 C53.0073917,7.87390463 53.2954983,7.60957209 53.1822632,7.34999436 L48.0877422,13.436687 L47.3030215,13.7006673 L42.0889256,7.34999436 L42.0889256,17.5640433 L39.6234655,17.5640433 L39.6234655,1.18634417 Z" id="Fill-10" fill="#FFFFFF"></path>
                <path d="M41.736717,20.2056076 C42.0390881,20.133581 42.0880451,20.3213081 42.2655582,20.4692358 C42.9384527,21.0294235 43.3744869,21.7380672 43.9341464,22.3227334 C46.8638174,25.3837782 49.8218412,28.4261559 52.5676593,31.6518583 L52.5016202,20.6684097 C52.6645166,20.1689779 55.1206432,20.3015845 55.1206432,20.6458684 L55.1206432,37.4638282 C54.3355702,37.5554024 54.0576777,36.6803402 53.627631,36.2272238 C50.4744837,32.9037837 47.3417644,29.5414244 44.2021771,26.1931535 L44.2021771,37.2877239 C43.7538156,37.2206282 41.5658959,37.4870739 41.5893177,37.0235675 C41.6090414,36.9399179 41.736717,36.8830362 41.736717,36.8474632 L41.736717,20.2056076 Z" id="Fill-12" fill="#FFFFFF"></path>
                <path d="M70.7939251,1.45050061 C70.8495741,1.24533911 71.2944135,1.08666914 71.4817885,1.20325018 L81.4482347,12.2821473 L81.3594782,1.36174404 C81.7918142,1.42267613 84.001747,1.17419297 84.001747,1.6266049 L84.001747,17.7401476 C83.1022062,17.9210067 82.9727696,17.1642865 82.5087348,16.6796475 C79.4059533,13.4388002 76.3466695,10.1752355 73.346909,6.8222098 L73.4354895,17.5640433 L70.7939251,17.5640433 L70.7939251,1.45050061 Z" id="Fill-14" fill="#FFFFFF"></path>
                <path d="M68.5045693,22.847172 L60.6679284,22.847172 L60.4037719,23.1113284 L60.4037719,29.1869265 L67.3598914,29.1869265 C67.7557739,29.1869265 67.7557739,31.6523866 67.3598914,31.6523866 L60.4037719,31.6523866 L60.4037719,34.8222638 L68.8567779,34.8222638 C68.8032422,35.2382221 69.0362282,37.2877239 68.5926215,37.2877239 L57.7622075,37.2877239 L57.7622075,20.3817119 L68.2404129,20.3817119 C68.6840196,20.3817119 68.4510336,22.4312137 68.5045693,22.847172" id="Fill-16" fill="#FFFFFF"></path>
                <path d="M68.5045693,1.36244846 C68.4510336,1.7784068 68.6840196,3.82790854 68.2404129,3.82790854 L60.7559805,3.82790854 L60.7559805,9.81545444 L67.6240479,9.81545444 L67.6240479,12.1048102 L61.0201369,12.1048102 C60.4837233,12.1048102 60.9259211,14.7631045 60.7559805,15.2746875 L68.8567779,15.2746875 L68.8567779,17.5640433 L58.1144161,17.5640433 L58.1144161,1.36244846 L68.5045693,1.36244846 Z" id="Fill-18" fill="#FFFFFF"></path>
                <path d="M26.5425973,2.62111866 C27.4645032,2.44114008 27.7725097,3.22128209 27.9568908,3.95968738 C28.3643962,5.59252637 28.1236616,7.26868701 27.0341044,8.57573306 L25.0090811,7.43809934 C25.4842105,7.03358778 25.7886948,6.65883785 25.8737532,6.01676161 C26.0209764,4.90519132 25.0867431,2.90535099 26.5425973,2.62111866" id="Fill-20" fill="#FFFFFF"></path>
                <path d="M34.8684031,10.6973671 C34.1314067,11.5336864 33.6960769,12.0436844 33.8278029,13.2345016 C33.9007101,13.8943644 34.3414991,14.361393 34.0303228,15.0511935 C33.6682524,15.8537008 32.4432709,15.8290462 32.0824332,15.1552712 C31.3535376,13.7941611 31.5453152,10.9620519 32.6908736,9.82741192 L34.8684031,10.6973671 Z" id="Fill-22" fill="#FFFFFF"></path>
                <path d="M23.3725792,8.08501846 C24.7759543,7.78951545 27.8021304,9.8185891 27.9261078,11.405641 L26.1532659,12.4568075 C25.808982,12.0589879 25.7459367,11.5341971 25.3452994,11.1499375 C24.6776881,10.5096223 22.9448218,10.2729382 22.6295951,9.63913883 C22.3284568,9.03386838 22.7116597,8.22414085 23.3725792,8.08501846" id="Fill-24" fill="#FFFFFF"></path>
                <path d="M30.8189554,11.9280191 L30.9936509,14.217551 C29.7508829,13.7697178 29.0043768,14.1324927 28.0141423,14.8480044 C27.6672169,15.098953 27.4465582,15.5571764 27.0290149,15.6290269 C26.0764668,15.7928039 25.3646533,14.9082321 25.8003353,14.0417989 C26.0472335,13.550468 27.5201698,12.4936661 28.0548224,12.246944 C28.9846531,11.8177778 29.8209724,11.9236165 30.8189554,11.9280191" id="Fill-26" fill="#FFFFFF"></path>
                <path d="M33.8111962,5.76487964 C33.8492348,6.84404674 34.6203955,7.425367 35.5282131,7.83516169 C36.1137599,8.09931812 37.3362758,8.16271567 37.2929542,9.16633403 C37.2203992,10.8460168 34.9255842,9.9656714 34.0434778,9.49582515 C32.9990032,8.9396878 32.16603,7.96635938 31.8745773,6.82309033 C32.1623318,6.79068714 32.4597719,6.65543904 32.703148,6.50451766 C33.1171692,6.24775761 33.353149,5.79059087 33.8111962,5.76487964" id="Fill-28" fill="#FFFFFF"></path>
                <path d="M29.0770198,6.27315184 L28.8817201,4.18068065 C30.0255175,4.56071372 30.7463124,4.17539753 31.6898792,3.554806 C31.9642497,3.37447521 32.1363035,3.04058147 32.4147244,2.869232 C33.4655387,2.22169652 34.5681277,3.35668868 33.8156341,4.44906359 C33.0717695,5.528759 30.3620528,6.83879883 29.0770198,6.27315184" id="Fill-30" fill="#FFFFFF"></path>
                <path d="M87.7011346,4.35618619 C88.8311958,3.20446413 88.3240155,1.70264673 86.5647336,1.90164458 C85.5192024,2.01981056 85.1323013,3.70460031 86.1139066,4.1800819 L86.1928013,2.23307286 C86.5182421,1.74103747 88.134175,2.25684693 87.8446596,3.17241315 C87.7111725,3.59365461 87.4183111,3.65705216 87.7011346,4.35618619 M86.4136361,1.3978102 C89.3494707,0.732312085 89.7138305,5.27862047 86.7306238,5.0706413 C84.6874618,4.92834903 84.49181,1.83349222 86.4136361,1.3978102" id="Fill-32" fill="#FFFFFF"></path>
                <path d="M22.8441606,3.85354932 C24.5081701,3.52934132 25.0819178,6.07510496 23.4739096,6.43541434 C21.4548739,6.88800237 21.2960278,4.15521597 22.8441606,3.85354932" id="Fill-34" fill="#FFFFFF"></path>
                <path d="M36.4050892,11.7783481 C38.1217538,11.4560772 38.561134,13.9576387 37.2146406,14.3612697 C35.2248382,14.957735 34.7581618,12.0875872 36.4050892,11.7783481" id="Fill-36" fill="#FFFFFF"></path>
                <path d="M29.7163312,15.660215 C31.4257756,15.4723117 31.6659818,18.0036348 30.2009702,18.2679673 C28.284075,18.6138362 27.8989349,15.8599173 29.7163312,15.660215" id="Fill-38" fill="#FFFFFF"></path>
                <path d="M22.6653795,11.7866426 C24.6826542,11.3345829 24.8453746,14.0640233 23.2953046,14.3683315 C21.8267709,14.6566142 21.0003135,12.1598076 22.6653795,11.7866426" id="Fill-40" fill="#FFFFFF"></path>
                <path d="M35.789728,6.25173756 C35.4015941,5.86113824 35.3262215,5.13488415 35.5981265,4.64408149 C36.3743942,3.24281964 38.4388648,4.23992214 38.0070571,5.6457627 C37.7709012,6.41445793 36.3354752,6.80100685 35.789728,6.25173756" id="Fill-42" fill="#FFFFFF"></path>
                <g id="Group-46" transform="translate(28.6744, 0)">
                    <mask id="mask-8" fill="white">
                        <use xlink:href="#path-7"></use>
                    </mask>
                    <g id="Clip-45"></g>
                    <path d="M2.28199885,2.20523077 C2.18778306,2.29627669 1.32821801,2.58385499 1.1718374,2.58367897 C0.111513463,2.58262226 -0.524223029,0.883744165 0.570969559,0.230925557 C2.13829775,-0.703483812 3.06460632,1.44956725 2.28199885,2.20523077" id="Fill-44" fill="#FFFFFF" mask="url(#mask-8)"></path>
                </g>
            </g>
            <g id="Group-17" transform="translate(267, 9)" fill="#FFFFFF">
                <text id="AWARDS" font-family="HelveticaNowText-Regular, Helvetica Now Text " font-size="9" font-weight="normal" letter-spacing="-0.225">
                    <tspan x="15.127" y="26">AWARDS</tspan>
                </text>
                <text id="ECO-EXCELLENCE" font-family="EspritStd-Bold, ITC Esprit Std" font-size="10" font-weight="bold" letter-spacing="-0.333333333">
                    <tspan x="23.165" y="7">ECO</tspan>
                    <tspan x="0.246666667" y="17">EXCELLENCE</tspan>
                </text>
                <text id="TM" font-family="HelveticaNowText-Regular, Helvetica Now Text " font-size="2" font-weight="normal">
                    <tspan x="53.486" y="21.1153846">TM</tspan>
                </text>
                <text id="WINNER" font-family="HelveticaNeue-Bold, Helvetica Neue" font-size="12" font-weight="bold">
                    <tspan x="9.454" y="39">WINNER</tspan>
                </text>
            </g>
        </g>
    </g>
</svg>