<?xml version="1.0" encoding="UTF-8"?>
<svg width="117px" height="147px" viewBox="0 0 117 147" version="1.1" xmlns="http://www.w3.org/2000/svg" xmlns:xlink="http://www.w3.org/1999/xlink">
    <title>Group 13</title>
    <defs>
        <polygon id="path-1" points="0 0 14 0 14 15 0 15"></polygon>
        <polygon id="path-3" points="0 0 89 0 89 124 0 124"></polygon>
    </defs>
    <g id="R5---Dev-Facing" stroke="none" stroke-width="1" fill="none" fill-rule="evenodd" opacity="0.65062314">
        <g id="Homepage---Desktop" transform="translate(-1332, -1710)">
            <g id="Group-13" transform="translate(1332, 1710)">
                <path d="M34.8057546,17.9731023 L34.8057546,17.9731023 C33.4242003,17.9069512 32.3889459,17.1462133 30.4678929,18.1678806 C30.872517,20.2920664 35.0536324,20.2369405 34.8057546,17.9731023 M36.3076025,14.9301509 L36.3076025,14.9301509 C36.5554803,14.2098388 38.3161419,11.9018998 36.4935109,11.6997714 C36.8689729,12.7324639 34.240739,14.5993954 36.3076025,14.9301509 M30.4678929,16.2641984 L30.4678929,16.2641984 C30.8287738,15.1469796 30.0960762,11.0603106 29.3342164,10.9427087 C28.215121,11.6042198 27.7521728,16.7346064 30.4678929,16.2641984 M37.0585265,5.80864704 C47.4766851,16.2458231 27.0304109,29.9427792 25,13.0411691 C25.6415661,8.25256327 31.7583156,2.94209867 37.0585265,5.80864704" id="Fill-1" fill="#FFFFFF"></path>
                <g id="Group-5" transform="translate(0, 17)">
                    <mask id="mask-2" fill="white">
                        <use xlink:href="#path-1"></use>
                    </mask>
                    <g id="Clip-4"></g>
                    <path d="M6.02522031,10.6190946 L6.02522031,10.6190946 C8.19957806,10.6838109 6.13768709,6.3945566 5.24919952,6.5275846 C4.6981123,7.50911556 5.5153709,9.13780977 6.02522031,10.6190946 M0.0119964566,4.48902032 C3.05234842,-0.54447173 11.4461191,-2.58663136 13.7779304,5.03551375 C14.6176823,7.78955297 12.9794162,12.8589985 10.4864026,14.1461344 C4.31947414,17.3495925 -0.287914957,10.9678437 0.0119964566,4.48902032" id="Fill-3" fill="#FFFFFF" mask="url(#mask-2)"></path>
                </g>
                <path d="M59.1449917,9.56018207 L59.1449917,9.56018207 C61.180623,9.46020252 62.2756275,6.55008352 60.4410462,6.05018578 C60.8682775,7.64985855 58.0248559,7.61772227 59.1449917,9.56018207 M56.359013,10.4885636 L56.359013,10.4885636 C55.5655835,7.01427428 58.3587426,5.32533405 58.5813336,2.36165458 C53.8135763,2.77585556 54.3880049,8.26401864 56.359013,10.4885636 M54.6859898,1.81176706 C61.0908685,-3.09080151 68.0091429,2.74371928 65.4565258,9.92439328 C64.1568811,13.5736468 57.5294113,19.533142 53.5766245,13.2558547 C51.1927459,9.47805601 51.4727798,4.27554879 54.6859898,1.81176706" id="Fill-6" fill="#FFFFFF"></path>
                <path d="M90.3042688,130.718798 L90.3042688,130.718798 C85.9891024,136.116827 76.0679081,136.406531 70.0967505,138.705828 C76.2412523,138.977196 86.8263185,137.194966 91.834862,131.481563 C91.5287433,130.799475 91.2041838,130.187063 90.3042688,130.718798 M68.5698455,137.943063 L68.5698455,137.943063 C67.6625542,138.614149 65.6340572,137.062949 65.7115089,138.896519 C66.1725309,139.105546 68.8685878,139.325574 68.5698455,137.943063 M81.3383121,132.427685 L81.3383121,132.427685 C82.9611097,131.499899 83.8388956,130.201731 83.0533141,128.063789 C82.1902808,128.20314 81.7735169,127.455044 80.9584299,127.499049 C80.5490423,128.881561 81.5005918,130.931492 81.3383121,132.427685 M74.0984219,133.571833 L74.0984219,133.571833 C76.6838335,132.490026 77.2149309,130.385088 77.3329525,128.067456 C74.7180355,127.495382 73.8402495,131.221196 74.0984219,133.571833 M67.9981782,134.334598 L67.9981782,134.334598 C69.9234063,134.081565 70.2664067,128.89623 68.3780604,129.791012 C68.2969205,131.327543 66.5819185,132.060971 67.9981782,134.334598 M101.354045,121.987339 L101.354045,121.987339 C102.954714,120.414136 104.817243,118.965616 104.588576,116.486629 C102.467874,117.803133 102.206014,120.043755 101.354045,121.987339 M74.854498,128.261814 L74.854498,128.261814 C74.7180355,127.407371 75.4741117,126.992984 75.4261654,126.178879 C74.5889493,126.255889 74.0578519,125.735155 72.9477109,126.36957 C73.2243241,127.722745 73.807056,128.467174 74.854498,128.261814 M71.9998495,133.014427 L71.9998495,133.014427 C72.5014415,131.364215 74.7254119,130.572112 73.5193782,128.082125 C71.9703441,128.910898 69.9639762,131.969293 71.9998495,133.014427 M63.9854423,133.769858 L63.9854423,133.769858 C67.7473822,132.794399 67.1683385,129.662662 67.4154463,126.941644 C64.5349806,128.353493 64.689884,131.272536 63.9854423,133.769858 M57.892575,136.432201 L57.892575,136.432201 C56.6127778,132.95942 54.1896459,131.782268 50.8334055,132.449688 C52.3381814,135.471411 54.6285389,136.912597 57.892575,136.432201 M67.2236612,126.373238 L67.2236612,126.373238 C70.5098263,124.536001 67.7400059,123.164491 67.2236612,126.373238 M55.7866263,130.179728 L55.7866263,130.179728 C57.3577894,129.376625 57.9921558,128.111462 57.6934135,126.380572 C55.7313037,126.98565 56.1222503,128.764213 55.7866263,130.179728 M101.730239,109.860108 L101.730239,109.860108 C100.727055,112.361097 99.0341822,114.517376 97.7285678,116.868012 C97.064696,118.631906 92.9302503,120.538819 95.0620163,122.17803 C98.4145686,120.289453 104.367285,113.299885 103.445241,109.288035 C102.873574,109.478726 102.301906,109.66575 101.730239,109.860108 M94.2985638,118.008492 L94.2985638,118.008492 C96.9061044,116.882681 94.4128972,115.958561 94.6747578,113.461239 C93.0519602,114.469703 93.048272,112.269419 91.4328507,113.277882 C91.9418191,115.7422 93.948187,115.225133 94.2985638,118.008492 M81.902603,117.069705 L81.902603,117.069705 C80.8219674,120.769848 81.6444307,126.292561 85.5354568,127.887766 C99.7533766,126.439246 89.4338592,106.603688 81.902603,117.069705 M91.4291626,111.374637 L91.4291626,111.374637 C87.5639537,110.839235 90.392785,113.281549 91.4291626,111.374637 M80.1802247,113.849956 L80.1802247,113.849956 C80.501096,116.116248 84.9711658,113.798616 83.4221317,112.144736 C81.965302,113.574921 81.1354624,112.698474 80.1802247,113.849956 M74.2754544,118.983951 L74.2754544,118.983951 C74.1057982,120.150102 73.1653133,120.949538 74.2754544,122.764772 C77.3993397,120.736844 72.6563449,117.572103 74.2717662,115.181128 C72.1178712,114.994104 73.0067217,113.200872 71.2216443,113.670266 C71.4798167,116.956023 67.7178768,118.246856 68.1788988,121.627959 C71.6052147,120.491146 70.2664067,116.98536 72.3686672,115.188462 C72.9477109,117.67845 70.2627185,118.565898 71.2253325,121.253911 C73.7000988,121.481273 72.9403345,117.740791 74.2754544,118.983951 M53.6806776,122.02401 L53.6806776,122.02401 C54.5510872,121.888326 54.9604748,122.636422 55.7829381,122.585082 C54.9789157,120.931203 56.3103473,119.20398 54.0642479,119.369001 C54.4367538,120.505814 52.747569,120.612161 53.6806776,122.02401 M99.4325052,103.028227 L99.4325052,103.028227 C99.6722367,103.820329 100.122194,104.194378 100.579528,104.546423 C102.143315,104.212713 102.191261,103.138242 101.531078,101.697056 C100.520517,101.990427 99.7939465,102.415815 99.4325052,103.028227 M60.7398471,124.095944 L60.7398471,124.095944 C60.5628147,126.714282 56.387799,129.827683 59.0322215,132.266331 C60.4706103,129.339954 61.2488155,126.094535 63.7862808,123.725563 C63.9079906,127.895101 59.6924051,129.904693 60.3673413,134.338265 C64.3026255,133.296797 63.351076,129.824016 64.3653245,127.326694 C65.5086592,125.526128 67.0687578,123.923588 66.843779,121.451936 C65.715197,120.846858 63.7457109,121.92133 62.0712788,122.394391 C58.5085004,121.587621 60.3341477,116.284937 58.0659193,116.134584 C58.2318872,119.057294 56.8230039,126.204549 60.7398471,124.095944 M82.466894,111.194947 L82.466894,111.194947 C84.1634552,109.984791 85.310478,108.4996 84.5617782,106.071953 C82.3710014,107.036411 82.0021838,108.910319 82.466894,111.194947 M65.8774768,111.015257 L65.8774768,111.015257 C63.3105061,111.796358 63.5981838,113.992975 60.7324708,114.631057 C60.6439546,116.321608 61.2229982,118.345869 62.0712788,120.502147 C63.1998608,121.103558 65.1693469,120.029086 66.8364027,119.548691 C65.6635626,116.901016 70.1446968,114.583384 67.7879521,112.914836 C67.3527473,113.648263 68.3116732,115.071114 66.6446175,115.188462 C67.618296,113.351225 66.6851874,113.501578 65.8774768,111.015257 M98.2854824,101.513699 L98.2854824,101.513699 C99.8529574,101.183656 99.3661181,99.8268145 99.2407201,98.6679984 C97.6732451,99.0017081 97.6252988,100.083514 98.2854824,101.513699 M42.8153101,123.740231 L42.8153101,123.740231 C41.4101149,121.572952 41.8231906,121.286915 41.0929317,118.620905 C40.3552964,118.833599 40.0602423,118.155178 39.1898327,118.620905 C40.4253718,120.271117 40.639286,123.963927 42.8153101,123.740231 M42.6161485,117.480424 L42.6161485,117.480424 C41.8674487,127.128668 54.2265277,119.493684 47.5767457,115.203131 C45.0687858,115.540507 44.9360115,117.055036 42.6161485,117.480424 M77.3181998,107.216101 L77.3181998,107.216101 C79.0036964,106.772377 79.8187834,104.253052 77.6943938,104.568426 C78.0668996,105.694238 76.381403,105.807919 77.3181998,107.216101 M68.3522431,108.928655 L68.3522431,108.928655 C71.487193,108.800305 70.1742022,105.085493 67.9686728,105.892263 C67.7178768,106.71737 67.7326295,107.674493 68.3522431,108.928655 M41.0929317,116.728661 L41.0929317,116.728661 C42.5276323,115.855881 43.3943538,114.711734 43.7594832,113.307219 C41.8379433,112.496782 39.8684572,114.528377 41.0929317,116.728661 M70.2553421,105.133165 L70.2553421,105.133165 C70.1520732,104.315393 69.1636419,103.031894 69.3037926,104.190711 C69.4107497,105.015817 70.4028692,106.291982 70.2553421,105.133165 M45.0946031,113.497911 L45.0946031,113.497911 C46.7911642,114.389026 47.3075089,113.791282 48.5282952,112.35743 C48.1447249,110.901576 47.0493365,110.872239 46.0461526,110.655878 C47.16367,112.309758 44.423355,112.060392 45.0946031,113.497911 M91.9934535,99.812146 L91.9934535,99.812146 C90.9865814,97.395501 89.1092996,96.6987445 87.4127385,95.6389412 C82.6992491,96.6254017 82.1017646,99.6434575 83.7983257,103.801994 C86.8890175,106.214972 91.5766896,102.771528 91.9934535,99.812146 M89.9022576,104.93514 L89.9022576,104.93514 C92.2848195,104.667439 97.6843097,99.8231474 94.8517902,96.9701128 C92.6573253,99.3537535 91.8533028,102.426816 89.9022576,104.93514 M103.046918,96.764753 L103.046918,96.764753 C105.757728,95.6939483 102.987907,90.3912645 101.328228,89.7531822 C102.102745,92.1954971 101.711798,94.0474026 103.046918,96.764753 M77.5026087,102.096774 L77.5026087,102.096774 C79.0922127,101.788734 79.9331169,102.94755 80.7482038,104.183376 C80.4974079,106.423999 78.0189533,107.568146 79.03689,110.443183 C81.9321085,109.343042 81.7993341,106.754041 82.8467762,104.740782 C78.5021045,103.629638 83.9237237,96.581396 80.5453542,96.027658 C79.4499658,98.0079133 76.3777149,99.0163767 77.5026087,102.096774 M45.2863882,110.274495 L45.2863882,110.274495 C46.7174007,109.724424 47.2189926,108.712294 46.8096051,107.241771 C45.3712163,107.795509 44.8622479,108.803972 45.2863882,110.274495 M97.5257181,93.5560059 L97.5257181,93.5560059 C98.2006543,92.3018442 99.0231177,91.1320267 97.8982239,89.0050857 C95.788587,89.5074839 95.3791994,93.8237071 97.5257181,93.5560059 M86.2657157,94.1244125 L86.2657157,94.1244125 C88.1098038,94.5718036 89.8026768,95.3088986 92.5614327,93.9337213 C91.9713245,91.3557222 90.1788708,92.6502224 90.6472692,90.1455661 C89.1572459,91.4510678 85.3141662,91.6087548 86.2657157,94.1244125 M43.7594832,109.519064 L43.7594832,109.519064 C43.5935153,107.854183 45.6699586,107.304112 44.8954415,105.34586 C43.3648483,105.877595 41.789997,108.811306 43.7594832,109.519064 M94.0809614,89.0050857 L94.0809614,89.0050857 C94.2137357,89.3901354 94.3391337,89.7605165 94.4682199,90.1492333 C95.9471786,91.5904191 96.1242111,88.4880191 96.1832219,87.6739141 C95.0546399,87.9049439 95.1357798,88.7373846 94.0809614,89.0050857 M52.9061606,102.683516 L52.9061606,102.683516 C53.8577101,102.995223 54.5510872,103.845999 55.7608091,103.629638 C55.5468948,102.412148 56.4025518,101.741061 56.7197349,100.787605 C55.6833574,100.270538 52.3566223,101.033303 52.9061606,102.683516 M72.3502263,94.3261052 L72.3502263,94.3261052 C73.5193782,94.7698291 77.8013509,93.8860485 77.3071353,92.0524787 C75.8281766,91.454735 72.3907962,92.7639038 72.3502263,94.3261052 M98.6506119,78 C103.050606,78.7004237 105.293017,85.9173543 106.856804,91.0770196 C109.700388,100.420891 109.965937,111.477317 106.119169,119.137971 C102.92152,125.507793 93.6162511,133.769858 86.3062856,137.74137 C78.4172764,142.006253 60.5259329,141.892572 53.5073333,138.518804 C44.1467417,134.030225 34.0632676,120.348127 36.3204315,106.299316 C57.7302952,97.2524826 80.2761173,89.4414754 98.6506119,78" id="Fill-8" fill="#FFFFFF"></path>
                <g id="Group-12" transform="translate(28, 23)">
                    <mask id="mask-4" fill="white">
                        <use xlink:href="#path-3"></use>
                    </mask>
                    <g id="Clip-11"></g>
                    <path d="M10.9792477,15.6236987 L10.9792477,15.6236987 C10.4740339,19.0191906 13.1135929,23.3203914 14.7756731,26.9908962 C16.3169412,30.3973886 17.4847905,34.0568928 18.9455174,37.602725 C21.511857,43.8216821 26.3955904,49.5162813 26.3443368,54.0888282 C23.3496637,55.0165381 19.9046914,55.1668785 16.6940211,57.3193123 C13.7872113,59.2664033 12.4875671,62.9735764 10.2616976,64.5283156 C-2.56267868,81.6304475 8.70944654,107.562325 22.7931964,117.224443 C43.9352954,131.726787 80.2191646,107.965677 85.6117727,89.8734991 C91.8866745,68.8331833 71.8465272,45.5120943 53.966352,44.2103669 C49.9136587,43.913353 47.5120627,45.4900933 44.1293268,44.976736 C38.9820037,31.8824579 36.1154645,23.0563791 30.2798791,9.15539668 C22.2989655,12.5508886 17.2687933,11.9898624 10.9792477,15.6236987 M25.9269863,5.56556238 L25.9269863,5.56556238 C28.123568,5.21721279 35.7457066,7.5126533 36.7122025,1.94639339 C33.8639682,2.38641394 27.168055,2.23974042 25.9269863,5.56556238 M23.4704757,5.74890428 L23.4704757,5.74890428 C23.8475556,5.62056495 24.2246354,5.49222563 24.6017153,5.37121998 C24.4772423,4.98986884 24.3491084,4.61585137 24.2246354,4.23816707 C23.8475556,4.36283956 23.4704757,4.48751205 23.0897349,4.61218453 C23.2142079,4.99720251 23.3386808,5.37855365 23.4704757,5.74890428 M19.6813722,7.64465947 L19.6813722,7.64465947 C19.4324263,6.73895051 20.9810164,6.72061632 20.2488225,5.56556238 C19.6777113,5.74890428 19.113922,5.94324669 18.5428107,6.13392226 C18.8576541,6.76828521 18.985788,7.77666563 19.6813722,7.64465947 M39.5494539,1.00034921 C40.5818473,4.98986884 35.3722877,5.85524258 33.1171305,8.20568566 C37.5615475,20.841609 41.5410214,29.9903696 46.0183871,41.1852256 C61.4054421,40.2428483 79.0476543,50.2533157 85.7838383,65.8007084 C92.3369737,80.9117473 87.9255054,92.0662682 81.0794924,100.881346 C76.2653175,107.070969 70.0087205,114.078296 61.0247013,118.331828 C49.6903396,123.703745 36.2619033,125.603167 27.7172004,122.523024 C15.1161432,117.994479 4.6274655,101.999732 1.95129676,88.8064493 C-0.604059974,76.1998606 6.32615536,56.9269607 22.5552333,52.2004066 C17.7703461,41.2915639 13.5712141,30.0637063 7.95162584,17.8934714 C5.14000123,17.8421356 2.00987228,18.4398302 0,16.7640853 C0.567450279,7.30364354 15.5481376,4.51684675 25.9269863,1.76671833 C30.6716028,0.508992937 36.4669176,-1.06408052 39.5494539,1.00034921" id="Fill-10" fill="#FFFFFF" mask="url(#mask-4)"></path>
                </g>
            </g>
        </g>
    </g>
</svg>