<?xml version="1.0" encoding="UTF-8"?>
<svg width="164px" height="110px" viewBox="0 0 164 110" version="1.1" xmlns="http://www.w3.org/2000/svg" xmlns:xlink="http://www.w3.org/1999/xlink">
    <title>lactobacillus-acidophilus</title>
    <defs>
        <filter x="-2.2%" y="-2.4%" width="104.4%" height="106.7%" filterUnits="objectBoundingBox" id="filter-1">
            <feOffset dx="0" dy="1" in="SourceAlpha" result="shadowOffsetOuter1"></feOffset>
            <feGaussianBlur stdDeviation="1" in="shadowOffsetOuter1" result="shadowBlurOuter1"></feGaussianBlur>
            <feColorMatrix values="0 0 0 0 0   0 0 0 0 0   0 0 0 0 0  0 0 0 0.35 0" type="matrix" in="shadowBlurOuter1" result="shadowMatrixOuter1"></feColorMatrix>
            <feMerge>
                <feMergeNode in="shadowMatrixOuter1"></feMergeNode>
                <feMergeNode in="SourceGraphic"></feMergeNode>
            </feMerge>
        </filter>
        <polygon id="path-2" points="-2.4660726e-15 0 94.9583333 0 94.9583333 58.5208333 -2.4660726e-15 58.5208333"></polygon>
        <polygon id="path-4" points="0 0 106 0 106 80.6041667 0 80.6041667"></polygon>
    </defs>
    <g id="Asset-Guide" stroke="none" stroke-width="1" fill="none" fill-rule="evenodd">
        <g id="Illustrations" transform="translate(-820, -423)">
            <g id="lactobacillus-acidophilus" filter="url(#filter-1)" transform="translate(822.1264, 424.8058)">
                <g id="Group-3">
                    <mask id="mask-3" fill="white">
                        <use xlink:href="#path-2"></use>
                    </mask>
                    <g id="Clip-2"></g>
                    <path d="M75.0658136,26.6657469 C60.5876731,25.2628804 37.1267668,13.3171674 24.2434697,3.72583037 L24.2434697,3.72583037 C13.0795657,-4.54193269 2.16779887,1.98139641 0.153739458,13.1677317 C-1.86031996,24.3540669 16.1021737,41.9081961 43.0018662,52.9420459 C69.9045965,63.9758956 92.2293667,57.1140488 94.5380924,45.6257922 C96.8468182,34.134486 89.5439542,28.0686134 75.0658136,26.6657469" id="Fill-1" fill="#57E389" mask="url(#mask-3)"></path>
                </g>
                <path d="M18.3298976,18.5045616 C16.7541199,15.9126572 17.391861,14.8301196 13.9307225,14.1527604 C11.5995622,12.4856524 8.3644193,13.1011524 7.77621151,16.2188607 C7.33660358,18.5323983 10.0980844,19.0582023 11.0577918,20.6943806 C12.2496866,22.7264583 11.0516002,25.3864079 13.1443816,26.9761917 C15.4167212,28.6989731 21.3235657,26.6266867 21.9736901,23.7935311 C22.7135936,20.5799409 19.5094091,20.4438504 18.3298976,18.5045616" id="Fill-4" fill="#2EC27E"></path>
                <path d="M17.7683504,5.62648928 L17.7683504,5.62648928 C16.6547488,5.47037016 15.5793447,6.15417189 14.8682851,7.053418 C12.6851559,9.82609349 18.0827445,10.8720916 19.3461975,11.6932781 C19.7046655,11.9243344 21.25313,14.1849392 21.3853518,14.2036735 C22.5753482,14.3816493 23.7888507,14.3910164 24.9876619,14.2879778 C25.7310424,14.2224078 25.246229,10.7815425 25.1727725,10.4443252 C24.4029476,6.88793173 20.8564645,5.04572617 17.7683504,5.62648928" id="Fill-6" fill="#2EC27E"></path>
                <path d="M31.33226,17.9263004 L31.33226,17.9263004 C23.998019,16.3679369 27.3675501,22.1936795 26.6716002,25.5731539 C26.2874107,27.4425861 22.8391522,28.8439052 24.996282,31.057627 C25.8055992,31.8851301 26.999106,32.1206967 28.164271,31.9847929 C34.1129104,31.2962137 36.6353351,20.7047779 31.33226,17.9263004" id="Fill-8" fill="#2EC27E"></path>
                <path d="M39.7534842,20.9791667 C34.9709057,22.4186326 38.8749942,27.005502 42.7004957,26.454278 C43.1495641,26.3885881 43.7698398,26.0230094 43.9635006,25.5746044 C45.0524915,23.0412587 41.4908176,21.6160732 39.7534842,20.9791667" id="Fill-10" fill="#2EC27E"></path>
                <path d="M41.722198,33.4606624 C37.6916582,30.8407487 37.3494138,44.5279609 33.9911399,40.9959746 C33.4961077,40.4756647 33.1416403,39.4319841 33.4533272,38.7341567 C33.9728054,37.5772322 35.5892994,37.1671055 36.3654609,36.1907592 C37.520536,34.7308307 35.8032022,33.9901542 34.6909076,34.2686731 C33.108027,37.4823522 27.0790239,34.9879251 26.5289882,38.8014909 C26.1684092,41.3081606 29.2547209,43.3251268 31.1706788,44.1300769 C33.6152822,45.1584542 37.0438384,47.8395807 39.7970729,47.438636 C44.5701609,46.7469298 45.7619051,36.0866972 41.722198,33.4606624" id="Fill-12" fill="#2EC27E"></path>
                <path d="M51.0131263,27.6283052 C48.8468886,27.5211565 46.9602605,29.6987946 45.8653687,31.5612897 C43.584344,35.4470029 48.3524214,40.6689223 51.9490822,37.8389382 C52.7849674,37.1802893 54.7128011,36.0174117 55.0807083,34.8041111 C55.7517711,32.5918073 53.6856042,27.1997107 51.0131263,27.6283052" id="Fill-14" fill="#2EC27E"></path>
                <path d="M69.5971016,29.0200602 C67.8751961,28.5133041 66.1106239,28.9590053 64.3856709,28.43088 C62.5540511,27.8691744 61.4995744,26.5290183 59.4607165,26.6328117 L59.4607165,26.6328117 C58.0222397,26.0131039 55.1056671,27.6799041 56.8550011,29.1940668 C58.0770969,30.2533702 59.4637641,30.9555022 60.6797646,32.0514385 C61.6367174,32.9153661 62.1913843,34.0509881 63.3433847,34.7225926 C65.7296714,36.1146454 72.9494839,35.2201904 71.6054833,31.0745593 C71.3464356,30.2655812 70.4351971,29.2673328 69.5971016,29.0200602" id="Fill-16" fill="#2EC27E"></path>
                <path d="M75.5693874,31.5100261 C73.1270181,33.1090512 73.5137774,36.5218959 71.4794848,38.5117275 C68.8391679,41.095227 63.8752503,36.5726112 61.9749531,40.9639638 C60.4035534,44.5916028 72.3443637,47.4913274 76.2545907,42.9329126 C77.5245009,41.4502345 77.2169208,40.1405852 77.6676323,38.4878615 C78.3162915,36.0952903 80.5881212,34.5857629 78.8705448,32.0350792 C77.9843485,30.7194634 76.7570732,30.5911834 75.5693874,31.5100261" id="Fill-18" fill="#2EC27E"></path>
                <path d="M55.0281493,40.8926769 C53.4065396,40.6573703 51.9318041,41.5352448 50.7388269,42.5760239 C45.4603527,47.1856193 50.9096804,51.3306351 56.023296,49.0348876 C61.2118474,46.7059559 60.7202689,41.158151 55.0281493,40.8926769" id="Fill-20" fill="#2EC27E"></path>
                <path d="M84.8774782,38.6511194 C81.1559813,38.4270744 80.6532371,45.3876052 79.2401987,47.6219992 C78.680933,48.5030407 77.5237289,48.8360805 76.6104599,49.1388439 C72.6182545,50.46192 70.1432062,49.1418715 66.6418458,47.8490717 C64.8896782,47.0164724 62.9024999,48.1306417 61.9356842,49.7776747 C60.7844297,51.727471 69.7088828,54.1071914 70.4793606,54.1041667 C72.3951432,54.0890256 83.9969322,51.2793812 84.5859461,50.5769701 C85.4962403,49.4900494 85.4486432,48.0186193 85.7937221,46.7167366 C86.3440634,44.6337243 89.2028632,38.9114959 84.8774782,38.6511194" id="Fill-22" fill="#2EC27E"></path>
                <g id="Group-26" transform="translate(53, 24.2917)">
                    <mask id="mask-5" fill="white">
                        <use xlink:href="#path-4"></use>
                    </mask>
                    <g id="Clip-25"></g>
                    <path d="M70.4132178,12.1195198 C59.1610161,25.292245 31.489539,40.0908987 13.3338126,46.1648384 L13.3338126,46.1648384 C-2.35464357,51.4603761 -3.43577299,66.5144899 6.10715704,76.04766 C15.653107,85.5808301 45.0489554,79.9396698 74.1790513,61.1678602 C103.312167,42.3990559 111.849466,15.9784701 102.209898,5.95541768 C92.570331,-4.07064014 81.6654195,-1.05320547 70.4132178,12.1195198" id="Fill-24" fill="#57E389" mask="url(#mask-5)"></path>
                </g>
                <path d="M76.6440297,86.2353396 C73.1548999,86.0133041 72.5526096,84.6658835 69.6331337,87.5584275 C66.5237731,88.6898958 64.9779936,92.2363798 67.538469,94.9160131 C69.4373152,96.9021658 71.7515339,94.5814391 73.9292731,94.7578509 C76.6351289,94.9768447 78.3618921,97.9302204 81.2398308,96.9782053 C84.3669931,95.9410261 86.2925418,88.8206838 84.0435959,86.2779217 C81.4920214,83.3914609 79.2549432,86.4026265 76.6440297,86.2353396" id="Fill-27" fill="#2EC27E"></path>
                <path d="M73.695955,74.4607344 C69.7370538,72.9371698 65.4560931,75.2210601 63.818451,78.6119381 C62.8765789,79.6024007 62.7672002,81.0910078 63.1287575,82.3611304 C64.237736,86.2705447 69.0747051,81.6648935 70.7579217,80.9540909 C71.2349343,80.7559983 74.5011038,80.6889965 74.6135208,80.5724714 C75.6252737,79.5237463 76.5003033,78.3410174 77.2507627,77.1058522 C77.7156222,76.3367871 74.0727039,74.6063906 73.695955,74.4607344" id="Fill-29" fill="#2EC27E"></path>
                <path d="M85.1338253,73.4676379 C78.9893487,79.2605232 86.6757741,80.0659192 89.4477842,83.004123 C90.9809885,84.6328127 90.1240264,88.8029742 93.5985122,88.2899071 C94.9014444,88.0960155 95.8837445,87.1384891 96.4958603,85.9602246 C99.6205656,79.9376524 91.1471342,70.4011673 85.1338253,73.4676379" id="Fill-31" fill="#2EC27E"></path>
                <path d="M93.1047215,66.428939 C90.9807945,72.3332523 98.9904925,71.5522276 101.341645,67.2478491 C101.619365,66.7436802 101.698263,65.8519133 101.36058,65.3390015 C99.4417876,62.4509588 95.1371272,65.097117 93.1047215,66.428939" id="Fill-33" fill="#2EC27E"></path>
                <path d="M106.552051,74.3290549 C101.276146,76.4974185 114.336273,86.1683811 108.632265,87.0533654 C107.79415,87.1841363 106.536977,86.8222355 106.072698,86.0406514 C105.300908,84.739025 105.997328,82.8747797 105.575255,81.4484648 C104.939132,79.3196365 103.057895,80.4965744 102.572511,81.7769126 C104.622577,85.5236503 98.1136176,89.735689 101.44799,92.8802725 C103.636737,94.9421947 107.685617,93.2908322 109.765831,91.958794 C112.418858,90.2618137 117.345046,88.7290574 118.8223,85.7547802 C121.381867,80.5969335 111.837001,72.1576501 106.552051,74.3290549" id="Fill-35" fill="#2EC27E"></path>
                <path d="M117.489999,61.8637931 C115.90448,59.7832535 109.48845,58.3648376 108.041959,61.272296 C106.450523,63.3410645 107.163415,66.59577 108.130701,68.8675897 C110.151055,73.6083949 118.273885,72.2547199 118.134856,66.8988754 C118.102317,65.6511402 118.356711,63.0026457 117.489999,61.8637931" id="Fill-37" fill="#2EC27E"></path>
                <path d="M125.692996,42.0867419 C124.702615,41.7957969 123.071582,42.0057572 122.239043,42.6506354 C120.530636,43.9793843 119.744521,45.9920041 118.017544,47.3087553 C116.17915,48.7064912 114.102445,48.829468 112.784,50.8750815 C111.162252,51.8528967 110.797049,55.8061498 113.529881,55.1312773 C115.439459,54.6603663 117.110727,53.7875312 119.054349,53.3466145 C120.58325,53.0016797 122.102865,53.2296366 123.582247,52.5637624 C126.633858,51.190022 130.774888,43.5804597 125.692996,42.0867419" id="Fill-39" fill="#2EC27E"></path>
                <path d="M136.678916,40.8776212 C134.807304,38.6309374 134.845085,35.4264567 131.273329,35.3348156 C129.427873,35.287517 128.500786,36.375385 128.60541,38.1372581 L128.60541,38.1372581 C128.538567,41.563451 132.072542,43.5145186 132.650882,46.8165527 C133.397783,51.1000329 125.803804,52.7732211 128.776877,57.5799422 C131.232641,61.5500691 141.837474,52.0962598 140.02108,45.2556986 C139.431115,43.0297079 137.972188,42.432563 136.678916,40.8776212" id="Fill-41" fill="#2EC27E"></path>
                <path d="M122.789599,65.6339902 C121.479469,67.0563939 121.333575,69.0905202 121.529073,70.9613225 C122.395685,79.2314567 129.98802,76.7103278 131.219367,70.1654892 C132.465304,63.5256256 126.845458,60.2532063 122.789599,65.6339902" id="Fill-43" fill="#2EC27E"></path>
                <path d="M150.416481,40.0859446 C148.697219,38.1318693 144.943549,31.4343135 141.564309,35.5333967 C138.656228,39.0626655 145.364783,44.2685608 146.616007,47.1772988 C147.109008,48.3228941 146.616007,49.6922385 146.263418,50.802034 C144.734491,55.6439641 141.611113,57.1982743 137.776316,59.7848137 C135.670141,60.9542756 135.370597,63.6720811 136.344117,65.7425059 C137.498613,68.1977792 146.344545,60.9870921 146.89371,60.2233619 C148.260383,58.3200031 153.758278,44.948758 153.468094,43.889679 C153.021897,42.2548191 151.492971,41.3091063 150.416481,40.0859446" id="Fill-45" fill="#2EC27E"></path>
            </g>
        </g>
    </g>
</svg>