<?xml version="1.0" encoding="UTF-8"?>
<svg width="92px" height="90px" viewBox="0 0 92 90" version="1.1" xmlns="http://www.w3.org/2000/svg" xmlns:xlink="http://www.w3.org/1999/xlink">
    <title>Group 165</title>
    <defs>
        <polygon id="path-1" points="3.31479408e-17 0.0580478987 0.537507748 0.0580478987 0.537507748 0.479459849 3.31479408e-17 0.479459849"></polygon>
        <polygon id="path-3" points="0.0583174139 0 0.479190334 0 0.479190334 1.39089938 0.0583174139 1.39089938"></polygon>
    </defs>
    <g id="R5---Dev-Facing" stroke="none" stroke-width="1" fill="none" fill-rule="evenodd" opacity="0.65">
        <g id="Homepage---Desktop" transform="translate(-1348, -1247)">
            <g id="Group-165" transform="translate(1393.877, 1292) rotate(-63) translate(-1393.877, -1292)translate(1362, 1257)">
                <g id="Group-3" transform="translate(0, 69.4625)">
                    <mask id="mask-2" fill="white">
                        <use xlink:href="#path-1"></use>
                    </mask>
                    <g id="Clip-2"></g>
                    <path d="M0.34286027,0.184099342 C-0.0204949681,0.231937531 0.147207449,0.429740383 0.0999067675,0.479191096 C0.694927845,0.317938771 0.317059898,0.129273552 0.34286027,0.184099342" id="Fill-1" fill="#FFFFFF" mask="url(#mask-2)"></path>
                </g>
                <polygon id="Fill-4" fill="#FFFFFF" points="6.15224401 67.9417245 6.06893031 68.0556762 6.88164203 67.6326576"></polygon>
                <path d="M11.6077327,66.5558145 C10.9976614,66.344574 9.654967,67.144923 8.64982752,67.2685498 L8.4686874,67.2250117 L8.10479466,67.6362051 C9.27441152,67.2787625 10.7579329,66.7014791 11.6077327,66.5558145" id="Fill-6" fill="#FFFFFF"></path>
                <path d="M14.7311364,66.5023325 C14.5091457,66.4152563 15.3170199,66.1852029 14.044739,66.6673474 C14.114615,66.6625098 14.1361154,66.6657349 14.1775034,66.6651974 C14.2936051,66.6270343 14.4543199,66.5770461 14.7311364,66.5023325" id="Fill-8" fill="#FFFFFF"></path>
                <path d="M14.1775034,66.6654661 C13.6104328,66.8535938 14.5865468,66.6692287 14.1775034,66.6654661" id="Fill-10" fill="#FFFFFF"></path>
                <path d="M16.7804385,65.7571318 C16.5466226,65.8855961 16.3101192,66.0049228 16.0730783,66.1247871 C16.2579809,66.1634876 16.9304031,65.9651473 16.7024998,66.1059743 C17.4458731,65.7780946 17.2598954,65.7485317 16.7804385,65.7571318" id="Fill-12" fill="#FFFFFF"></path>
                <path d="M17.3974974,65.2533795 L17.0303796,65.4366697 C17.1093932,65.4490323 17.2152822,65.4269945 17.3974974,65.2533795" id="Fill-14" fill="#FFFFFF"></path>
                <path d="M16.2487358,65.8209339 C16.5121146,65.7005322 16.7701183,65.5645428 17.0302721,65.4366159 C16.9028827,65.4145781 16.853432,65.3000889 16.6685294,65.6043183 C16.6997048,65.4715539 16.5744655,65.6365688 16.2487358,65.8209339" id="Fill-16" fill="#FFFFFF"></path>
                <path d="M15.7646563,65.9105365 C15.3190624,65.9621372 14.7616669,66.0803889 15.4722521,65.7202587 C14.0586067,66.2158409 14.3467109,66.4088062 15.7646563,65.9105365" id="Fill-18" fill="#FFFFFF"></path>
                <path d="M11.7761338,66.0949016 L11.1848753,66.1470399 L10.7333688,66.4088062 C10.9596596,66.2808793 11.8433223,66.2002532 11.7761338,66.0949016" id="Fill-20" fill="#FFFFFF"></path>
                <path d="M21.4689036,64.3255336 C21.4866413,64.2325448 21.1442489,64.2121195 21.0534101,64.1341809 L20.5406277,64.420135 C20.8400195,64.3706843 21.3893524,64.2255572 21.4689036,64.3255336" id="Fill-22" fill="#FFFFFF"></path>
                <path d="M21.0533026,64.1340734 L21.8181761,63.7040672 C21.086628,63.9577708 20.9759014,64.0652724 21.0533026,64.1340734" id="Fill-24" fill="#FFFFFF"></path>
                <path d="M17.3943798,64.8048293 C16.9772738,65.0467078 16.5617803,65.2987989 16.1392992,65.5331523 L17.6523835,64.713453 L17.3943798,64.8048293 Z" id="Fill-26" fill="#FFFFFF"></path>
                <path d="M24.5698933,63.1347927 L24.1812752,63.4911604 C24.4199286,63.2981951 24.6558945,63.0998547 24.8891729,62.8972143 L24.5698933,63.1347927 Z" id="Fill-28" fill="#FFFFFF"></path>
                <path d="M26.5903311,62.255215 C26.3145897,62.5400942 27.1563268,62.3057408 26.8375847,62.5433192 C27.3831551,62.2917656 27.7916609,61.9466856 28.1652288,61.6532064 C27.7443603,61.9106726 27.2649034,62.1186881 26.5903311,62.255215" id="Fill-30" fill="#FFFFFF"></path>
                <path d="M28.7991117,61.1781033 C28.5916337,61.3114052 28.3879183,61.4758826 28.1653901,61.6532601 C28.3879183,61.5145831 28.6002339,61.3630059 28.7991117,61.1781033" id="Fill-32" fill="#FFFFFF"></path>
                <path d="M23.2075261,63.20483 C23.2881523,63.2263303 23.4553172,63.2994313 23.929399,63.173117 L23.5268057,63.0838907 C23.4295168,63.1209788 23.3193277,63.1623669 23.2075261,63.20483" id="Fill-34" fill="#FFFFFF"></path>
                <path d="M23.5128305,63.0813645 L23.5268057,63.084052 C23.8734982,62.9550501 24.1143017,62.8658238 24.2175032,62.8276608 C24.1288144,62.8599113 23.9164988,62.9362374 23.5128305,63.0813645" id="Fill-36" fill="#FFFFFF"></path>
                <path d="M23.1270612,63.2350917 C23.1566241,63.223804 23.1781244,63.2157414 23.2076874,63.2049912 C23.1684493,63.1958536 23.1474865,63.1958536 23.1270612,63.2350917" id="Fill-38" fill="#FFFFFF"></path>
                <path d="M19.6033217,64.262699 C20.0381654,63.9681447 20.9831041,63.4779377 19.9559267,63.6429526 C19.6672851,63.9149315 20.2563936,63.8197926 19.6033217,64.262699" id="Fill-40" fill="#FFFFFF"></path>
                <path d="M22.6290603,63.1213013 L21.7550727,63.4061804 C21.7932357,63.4561686 21.9792134,63.4787439 21.7668978,63.6297836 L22.6290603,63.1213013 Z" id="Fill-42" fill="#FFFFFF"></path>
                <polygon id="Fill-44" fill="#FFFFFF" points="23.0213334 62.8898504 22.6289528 63.1215163 22.9530699 63.0156273"></polygon>
                <path d="M27.2692034,61.6241272 C27.5927831,61.3704235 27.9867763,61.1860584 28.4286076,60.9715928 C27.9292629,61.1446703 27.4229306,61.3435482 26.9509988,61.5542512 C26.9128358,61.6488526 26.756421,61.8606306 27.2692034,61.6241272" id="Fill-46" fill="#FFFFFF"></path>
                <path d="M25.4407096,62.3269723 C25.4643599,62.3124596 25.4949978,62.2941844 25.5170357,62.2807467 C25.4595223,62.2839717 25.4170592,62.2947219 25.4407096,62.3269723" id="Fill-48" fill="#FFFFFF"></path>
                <path d="M32.8023082,58.9089606 C32.7727452,58.9078855 32.7447948,58.907348 32.7141569,58.906273 C32.7146944,58.9213232 32.7152319,58.9347609 32.7157694,58.9503487 L32.8023082,58.9089606 Z" id="Fill-50" fill="#FFFFFF"></path>
                <path d="M26.8531187,61.5501124 C26.4709507,61.661914 26.2752978,61.8043535 26.0946952,61.9564682 C26.3586115,61.8204788 26.6424156,61.6882519 26.9509451,61.5538749 C26.9681453,61.5108743 26.9654578,61.489374 26.8531187,61.5501124" id="Fill-52" fill="#FFFFFF"></path>
                <path d="M29.9854988,60.5208388 C29.7785583,60.5649144 29.5511926,60.6310279 29.3098516,60.6949913 C29.5259297,60.6820911 29.9441107,60.605765 29.9854988,60.5208388" id="Fill-54" fill="#FFFFFF"></path>
                <path d="M25.6648503,62.288003 C25.64765,62.2987532 25.6325998,62.3084283 25.6143246,62.3202535 C25.7530016,62.3159534 25.7288137,62.2998282 25.6648503,62.288003" id="Fill-56" fill="#FFFFFF"></path>
                <path d="M25.6648503,62.288003 C25.8400778,62.1788889 25.9658546,62.0649373 26.0948565,61.9563607 C25.8798534,62.0660123 25.6831256,62.1751264 25.5170357,62.2810154 C25.5686364,62.2767154 25.6234622,62.2810154 25.6648503,62.288003" id="Fill-58" fill="#FFFFFF"></path>
                <path d="M33.4387711,56.9385109 C33.4753216,57.1583516 32.6421846,57.7979858 31.7466967,57.9925636 C31.0334239,58.5230837 31.8509732,58.9041767 32.7142107,58.9063268 C32.6975479,58.8111879 32.6599224,58.7337868 33.4135082,58.2140168 C33.0764909,58.2532549 31.4972931,58.8735388 32.0939267,58.3575314 C33.1141164,57.7221972 33.0033898,57.984501 33.5752981,57.8232487 C33.01629,57.8135735 34.7562026,56.7901588 34.3390966,56.5574179 C34.0542175,56.7638209 33.7655758,56.9637738 33.4742466,57.1588891 C33.429096,57.1137384 33.7231127,56.8573472 33.4387711,56.9385109" id="Fill-60" fill="#FFFFFF"></path>
                <path d="M31.1475906,59.6450237 L30.8207859,59.8288513 C31.2223041,59.6799617 31.5345962,59.6262109 32.116717,59.5342971 C32.6294994,59.1623417 32.7090506,59.0328023 32.7160382,58.9500262 C32.1650927,59.2220051 31.6055472,59.4757087 31.0454641,59.7283374 L31.1475906,59.6450237 Z" id="Fill-62" fill="#FFFFFF"></path>
                <path d="M29.3013052,60.5449729 C29.4733077,60.2170932 30.2376437,59.7387113 29.6372476,59.7478489 C28.6546834,60.2262308 29.0212637,60.2407435 28.4665557,60.6030237 C30.0581161,59.8311626 28.0553622,60.9271409 29.2776549,60.5266976 C28.976113,60.7040752 28.6949965,60.8422147 28.4289301,60.971754 C28.7320845,60.8674775 29.0271763,60.7739512 29.3099053,60.6949376 C29.2932426,60.6960126 29.2808799,60.6970876 29.2669047,60.6981626 L29.2593796,60.7024627 L29.2599171,60.6981626 C29.1776784,60.7030002 29.147578,60.6976251 29.2330417,60.6777373 C29.2373418,60.6723622 29.2566921,60.6626871 29.2652922,60.658387 C29.2626046,60.6239865 29.2808799,60.585286 29.3018427,60.5460479 C29.7898998,60.378883 29.4012816,60.5686232 29.2652922,60.658387 C29.2642172,60.6707497 29.2561546,60.6863374 29.2599171,60.6981626 L29.2669047,60.6981626 C29.7898998,60.4181211 30.3032197,60.1176542 30.8208396,59.8290126 C30.466622,59.9590894 30.047366,60.1719425 29.3013052,60.5449729" id="Fill-64" fill="#FFFFFF"></path>
                <path d="M20.6674257,62.8540524 C20.7260141,62.8545899 20.7292391,62.8707152 20.7389143,62.8852279 C20.8362032,62.8196519 20.8695287,62.786864 20.6674257,62.8540524" id="Fill-66" fill="#FFFFFF"></path>
                <path d="M21.3958562,62.736392 C21.2878172,62.8132556 21.2195537,62.9341948 20.8201855,63.0545966 C20.4568302,63.1131849 20.7830974,62.9503201 20.7390218,62.8852816 C20.5250937,63.0282587 19.9714607,63.3410882 20.7503094,63.1776858 L20.8561985,63.1056598 C21.5528085,62.9465575 22.5015097,62.8675439 22.3993832,62.947095 C22.1311668,62.8283058 21.9075636,62.7562798 21.3958562,62.736392" id="Fill-68" fill="#FFFFFF"></path>
                <path d="M25.3807237,61.631061 L26.6922426,60.9586389 L25.924144,61.0634529 L26.0058452,61.1602043 C25.2173213,61.4380958 25.4409246,61.5052842 25.3807237,61.631061" id="Fill-70" fill="#FFFFFF"></path>
                <polygon id="Fill-72" fill="#FFFFFF" points="33.0048948 58.936051 32.9382439 59.2435054 33.5477777 58.5501204"></polygon>
                <polygon id="Fill-74" fill="#FFFFFF" points="34.7078806 58.0430356 34.7433562 58.2655638 35.1325118 57.9129587"></polygon>
                <path d="M43.2810217,19.3183974 C43.2804842,19.186708 43.2912344,19.0571686 43.2810217,18.9254792 C43.2810217,19.1103819 43.2713466,19.2291711 43.2810217,19.3183974" id="Fill-76" fill="#FFFFFF"></path>
                <path d="M42.5071181,22.0244801 L42.5764566,22.1276816 C42.5753816,21.9852421 42.5571063,21.9212786 42.5071181,22.0244801" id="Fill-78" fill="#FFFFFF"></path>
                <g id="Group-82" transform="translate(63.2165, 21.3477)">
                    <mask id="mask-4" fill="white">
                        <use xlink:href="#path-3"></use>
                    </mask>
                    <g id="Clip-81"></g>
                    <path d="M0.292191389,1.39089938 C0.432480911,0.703964482 0.591583204,-0.111972279 0.366904966,0.0127295182 L0.1750147,0.257833051 C0.312616683,0.715789653 0.298641482,1.08236994 0.292191389,1.39089938" id="Fill-80" fill="#FFFFFF" mask="url(#mask-4)"></path>
                </g>
                <path d="M38.5925566,18.3091728 C38.6506075,18.2828349 38.7108083,18.2548845 38.7710092,18.2274716 C38.8193849,18.0624568 38.8650731,17.908192 38.9059237,17.7689775 C38.8118598,17.9318424 38.7048958,18.11567 38.5925566,18.3091728" id="Fill-83" fill="#FFFFFF"></path>
                <path d="M38.996655,19.2898019 C38.7757393,19.4505168 38.5569736,19.6155316 38.3398205,19.7837716 C38.5010728,19.6837951 38.7112384,19.5225428 38.996655,19.2898019" id="Fill-85" fill="#FFFFFF"></path>
                <path d="M37.5258725,5.70020855 L37.0216902,5.63087005 C37.5839234,6.03292585 37.4108459,5.76040942 37.5258725,5.70020855" id="Fill-87" fill="#FFFFFF"></path>
                <path d="M51.1953396,47.2088682 C51.675334,46.9191515 52.0376142,46.6622228 52.3262559,46.4015315 C51.7511226,46.7654243 51.1974896,46.9411893 51.1953396,47.2088682" id="Fill-89" fill="#FFFFFF"></path>
                <path d="M45.4538968,21.0194481 C45.4780846,20.7308065 45.4592719,20.6023421 45.4065961,20.5991171 C45.3791832,20.8915213 45.3845583,21.0645988 45.4538968,21.0194481" id="Fill-91" fill="#FFFFFF"></path>
                <path d="M53.5032903,45.3097458 C53.4178266,45.3640341 53.3361254,45.4156348 53.2501242,45.4699231 C52.9797578,45.7741525 52.7007913,46.0751568 52.3261484,46.401424 C52.7561546,46.1396577 53.2167987,45.7972653 53.5032903,45.3097458" id="Fill-93" fill="#FFFFFF"></path>
                <path d="M5.01100756,41.5420852 C4.99488233,41.5845483 4.98305716,41.6372241 4.9653194,41.6753871 C4.99488233,41.6925874 5.00455747,41.631849 5.01100756,41.5420852" id="Fill-95" fill="#FFFFFF"></path>
                <path d="M1.38664657,59.2443116 C1.37858395,59.0669341 1.3893341,58.7777549 1.3957842,58.505776 C1.3753589,58.6374654 1.3683713,58.8599936 1.38664657,59.2443116" id="Fill-97" fill="#FFFFFF"></path>
                <path d="M41.5044511,54.3418647 C41.1615212,54.5638554 41.461988,54.397228 41.5044511,54.3418647" id="Fill-99" fill="#FFFFFF"></path>
                <path d="M39.3345861,54.5597704 C39.3953245,54.4931194 39.4345625,54.4307685 39.4162873,54.3791678 C39.4162873,54.4447437 39.3856493,54.5044071 39.3345861,54.5597704" id="Fill-101" fill="#FFFFFF"></path>
                <path d="M55.2495455,41.3501412 C55.2570706,41.3410036 55.2635207,41.334016 55.2721208,41.3238033 C55.1613942,41.3866917 55.180207,41.3754041 55.2495455,41.3501412" id="Fill-103" fill="#FFFFFF"></path>
                <path d="M40.9222765,54.5648767 C41.0684786,54.5111259 41.2324184,54.4412499 41.4060334,54.3573987 C41.3243323,54.3853491 41.1765176,54.4471625 40.9222765,54.5648767" id="Fill-105" fill="#FFFFFF"></path>
                <path d="M41.0498271,54.6172837 C40.9240502,54.6817846 40.8256863,54.7323104 40.7316225,54.7801485 C40.7074346,54.8398119 40.7590354,54.8376619 41.0498271,54.6172837" id="Fill-107" fill="#FFFFFF"></path>
                <path d="M41.9864343,54.0401079 C41.788094,54.1631971 41.5951287,54.2647861 41.4064635,54.3572374 C41.4833271,54.3298246 41.5188026,54.323912 41.5042899,54.3416497 C41.6058788,54.2782238 41.7493934,54.18846 41.9864343,54.0401079" id="Fill-109" fill="#FFFFFF"></path>
                <path d="M14.389819,10.6445273 C14.3693937,10.6622651 14.3484309,10.6843029 14.3247806,10.7025782 C14.184491,11.0879712 14.2683423,10.9337065 14.389819,10.6445273" id="Fill-111" fill="#FFFFFF"></path>
                <path d="M56.9411361,14.6253635 C56.9561864,14.6334261 56.9669365,14.6339636 56.9809117,14.6404137 C56.9690865,14.6285885 56.9540363,14.6135383 56.9432862,14.6027881 L56.9411361,14.6253635 Z" id="Fill-113" fill="#FFFFFF"></path>
                <path d="M55.7814094,14.0790406 C56.0829513,14.0876407 56.3151546,14.1268788 56.4887696,14.2241677 C56.6602346,14.3268317 56.794074,14.4558335 56.9429637,14.6025731 C56.964464,14.3408069 56.9768267,14.0715155 56.9800517,13.795774 C56.5806834,13.8366246 56.1560523,13.970464 55.7814094,14.0790406" id="Fill-115" fill="#FFFFFF"></path>
                <path d="M10.6795643,13.4536503 L10.8671545,13.2467098 C10.6446263,13.8207681 10.6661266,13.638553 10.6795643,13.4536503 M43.9582815,52.4234996 C43.8620676,52.5304636 43.8894805,52.555189 43.9582815,52.5530389 C44.0034321,52.4449999 44.2598233,52.2697724 44.5656652,52.0902448 C44.445801,52.0880947 44.271111,52.1472206 43.9582815,52.4234996 M45.1757365,51.7543024 C45.1837992,51.7435523 45.1897117,51.7360272 45.1950868,51.726352 C45.8024706,51.4312603 45.585855,51.5349993 45.1757365,51.7543024 M40.522532,17.1119281 C40.4247056,17.3237061 40.1484266,17.5102213 39.8140967,17.7069491 C39.9920118,17.4978586 40.2274402,17.2957557 40.522532,17.1119281 M40.3655797,25.5642374 C40.4354557,25.4492107 40.527907,25.2686081 40.6321835,25.1143434 C40.731085,24.9541661 40.8342865,24.8106515 40.9557632,24.7848512 C40.977801,24.9934042 40.9235127,25.1261686 40.8192362,25.2379702 C40.7074346,25.3438592 40.5477948,25.430398 40.3655797,25.5642374 M42.6107496,12.6043881 L42.6784755,13.5525517 C42.0474414,12.5791252 41.8480261,11.8416646 41.8749015,12.7199522 C42.2398692,12.6549138 42.5478612,13.4945009 42.7462015,14.3577384 C42.846178,14.7888196 42.9208915,15.2247383 43.019793,15.5547681 C43.1036442,15.8869479 43.2229709,16.1170012 43.4078736,16.1352765 C43.3831482,16.343292 43.33316,16.5502325 43.2874718,16.7544854 C43.2896218,16.5797954 43.2460837,16.553995 43.2487713,16.3819925 C42.921429,17.5591345 43.8373422,17.2559801 43.6035264,18.8142151 C43.4879622,19.3463478 43.298222,19.6898152 43.2810217,19.3183974 C43.2842468,19.7188406 43.2476962,20.1171339 43.2149083,20.5224147 C43.1020316,20.854057 43.0122679,20.7384928 43.1106318,20.4095381 C43.0466683,20.7051674 42.9617421,20.995959 42.8848785,21.2889008 C42.7849021,21.5737799 42.7069635,21.8688716 42.5908618,22.1483757 L42.5763491,22.1279504 C42.5774241,22.2682399 42.5591488,22.4918431 42.5344235,22.7208214 C42.500023,22.9449621 42.4511098,23.1712529 42.4183218,23.3201425 C42.1119424,23.6904854 42.4575599,23.0734265 42.3221079,23.1390024 C42.2285816,23.4738698 42.0920546,23.7872368 41.9695028,24.115654 C41.5846473,24.35807 41.8990893,23.5668586 42.2232065,22.9616249 C41.6937613,23.2142535 41.6271104,23.3889435 41.5271339,23.7243484 C41.4223199,24.0441655 41.2621426,24.5392101 40.4612561,25.1353062 C40.6466963,24.8971903 40.7988109,24.6284364 40.9659759,24.3784953 C40.2828035,24.5752231 39.9662114,25.2170074 39.0631984,25.6228257 C39.1986504,25.6196007 39.6528444,25.4148102 40.0194247,25.292796 C40.3720298,25.1605691 40.6418587,25.1272436 40.3446169,25.5798251 C40.2274402,25.676039 40.0790881,25.7679528 39.932886,25.9130799 C39.7893714,26.0625071 39.6270441,26.2366596 39.4432164,26.4651004 C39.2819641,26.26676 38.8971085,26.6559156 38.3096126,26.991858 L38.1827607,26.6698908 C37.6178401,27.0939844 37.7221166,27.1944984 37.3877868,27.5153905 C37.0233565,27.6368673 36.8008283,27.6051543 36.6342009,27.5358158 C36.4718736,27.4670148 36.3804973,27.3568257 36.290196,27.2514742 C35.773651,27.2670619 35.948341,27.3519882 36.1192685,27.4702399 C36.290196,27.5669913 36.4627359,27.723406 35.772576,27.7674817 C35.2958066,27.6911556 34.9340639,27.6083794 34.6223094,27.5014153 C34.3067924,27.3874637 34.0466386,27.2944748 33.8095977,26.9289696 C33.8031476,26.6758034 33.8800112,26.6983787 33.9310744,26.7419169 C33.9821377,26.7897551 34.0611513,26.8488809 34.0848017,26.7720173 C33.9773001,26.683866 33.864961,26.5618518 33.7918599,26.3936118 C33.8122852,26.2758977 33.8939864,26.3264234 33.9310744,26.3500737 C33.9047366,26.1511959 33.8413107,26.1092703 33.764447,26.0496069 C33.6988711,25.9856435 33.6171699,25.8894296 33.7493968,25.4690985 C33.62362,25.2815083 33.9606374,24.9090154 34.421819,24.4940595 C34.8722505,24.0855536 35.4774842,23.5604085 35.7113001,22.9223868 C35.9854291,22.7385592 35.7790261,23.1734029 35.9435035,23.1820031 C36.8314663,21.6458059 36.7277273,21.8882219 37.3662865,20.5487526 L38.3402505,19.7838791 C37.5538767,20.2789237 38.0736467,19.2189584 38.5923416,18.3089578 C38.2821997,18.4573099 38.0145208,18.5852368 37.8495059,18.6857507 C38.1720106,18.2449944 38.5036529,17.8090756 38.8444328,17.3774569 C39.0271854,17.2796305 38.9879473,17.4758208 38.9062462,17.7687625 C38.962147,17.6687861 39.0153602,17.5736472 39.0572858,17.4989336 C39.5630806,17.1818041 39.482992,17.5365592 39.3271147,17.9601153 C39.140062,18.0498791 38.9535468,18.1396429 38.7713317,18.2272566 C38.6428674,18.6583378 38.5654663,19.0894191 38.7675692,19.1652077 C38.8094948,19.0625437 38.9196839,18.8926912 39.0567483,18.7206887 C39.0261104,18.8335654 39.0191228,18.9168791 39.0760986,18.9055914 C39.1384495,18.8900037 39.1991879,18.7206887 39.3174396,18.4728977 L39.8409721,18.4841853 L39.7947465,18.3154079 C40.3408543,17.8902393 40.8869622,17.4725958 41.4529579,17.0947278 C41.8738264,16.4744439 42.2554569,15.8579225 42.7875896,15.2247383 C43.3191848,14.5937043 43.9921445,13.9228946 45.0381346,13.3246485 C44.6360788,13.844956 45.1327359,13.7912052 45.2488376,14.1045722 C44.5183646,14.0707092 43.7631662,15.0817613 42.7714644,15.7262331 C43.301447,15.3956658 43.2788717,15.6063689 43.1837328,15.7418208 C43.6922152,15.2435511 44.2307979,14.782907 44.7951811,14.3523633 C44.8870949,14.6221922 45.2773255,14.3077501 45.8218209,14.1937985 C45.5245791,14.0438338 45.8298835,13.7740049 46.3335282,13.5342765 C46.8285729,13.2746602 47.5128202,13.0612697 47.9073509,12.8677669 C48.0089399,13.0386943 47.8525251,13.2343472 46.8635109,13.5391141 C47.4698196,13.5375015 47.7622238,13.2843354 48.0782784,13.0279442 C48.3889579,12.7763906 48.7227502,12.5087117 49.3166962,12.5871878 C49.0640676,12.6323385 48.921628,12.6285759 48.8420769,12.7441401 C49.3983974,12.4442108 50.8776187,12.4313106 50.5416764,12.6264259 L50.2917353,12.6559888 C51.1270223,12.6017005 52.3880155,12.6129882 53.4560434,12.774778 C54.5289089,12.91453 55.3991339,13.2047842 55.6178996,13.0435319 C55.6055369,13.1026578 55.1878934,13.4579504 55.0680291,13.5068636 C55.611987,13.4375251 56.1489572,13.4794507 56.7386032,13.5095511 C57.0288574,13.532664 57.3040614,13.5987774 57.6007656,13.6503782 C57.8969324,13.7041289 58.1990118,13.7680924 58.4806658,13.8712938 C58.2436249,13.919132 58.1758989,14.3093627 57.9995964,14.5695164 C57.9125201,14.7006683 57.801256,14.8017198 57.6426913,14.8248326 C57.4825139,14.8500954 57.2890112,14.7812945 56.9810192,14.6404674 C57.0498202,14.7060434 57.1223837,14.7753819 57.2019349,14.850633 C57.2744984,14.9344842 57.3545871,15.0237105 57.4491885,15.1156243 C57.6297911,15.3085896 57.9001575,15.4789795 58.2011618,15.7541835 C58.0882852,15.5149925 58.1527861,14.8753583 58.4473403,15.1140118 C58.7832827,16.1917148 58.7779076,15.7977216 59.1692133,17.0307644 C59.0036609,16.6614966 59.8034724,16.6641841 60.1017892,17.281243 C59.9711748,17.2371674 59.5959944,17.6230979 59.4277545,17.452708 C59.6384575,17.6327731 59.8679733,17.8101506 60.0749138,18.0090285 L60.6828351,18.63415 C60.4113937,18.3003577 60.1910155,18.770677 60.1593025,19.1555325 C60.1877904,19.0560936 60.2969045,19.3823608 60.4242938,19.7790415 C60.5694209,20.1692721 60.642522,20.6632417 60.7360483,20.857282 L60.6994978,20.162822 C60.7897991,20.6100285 60.9236385,20.9244705 61.0590905,21.1862368 C61.1837923,21.4506906 61.3316069,21.6549435 61.4821091,21.862959 C61.6379863,22.0698995 61.7831134,22.2832901 61.892765,22.5660192 C61.997579,22.8482107 62.1228183,23.1954407 62.1244309,23.6738226 C61.9889789,23.4448443 61.3326819,23.179853 61.2993565,24.1070539 C61.3805201,24.2097179 61.5240347,24.3763453 61.6874371,24.5999485 C61.8406268,24.8240892 62.0196168,25.1057433 62.1953819,25.4363105 C62.3813596,25.7674153 62.518424,26.1447458 62.6366757,26.5559392 C62.7624526,26.9676701 62.8140533,27.4073515 62.8070657,27.8534829 L62.5834625,28.1587873 C62.5721748,28.6113688 62.5318617,29.0644879 62.5049863,29.5245945 C62.3646968,29.0521252 62.201832,28.2034004 61.9513534,27.3439255 C61.717,26.4833756 61.4278208,25.6201382 61.2370056,25.0321047 C61.1606795,25.3734221 61.1080037,25.4180353 61.0736032,25.5061866 C61.0424278,25.5948753 61.027915,25.7254897 60.9892145,26.2312845 C60.7860366,26.5709894 60.8026993,25.6663639 60.7768989,25.3728846 C60.7193856,26.1474333 60.6032839,26.9149944 60.4452566,27.6691177 C60.8543,27.6271921 60.4431066,29.4864314 60.7231482,29.4815939 C60.8462374,28.6043812 60.8618252,27.7406063 60.8537625,26.8805939 C61.0402777,26.8499559 61.2402306,27.2450241 61.3520322,27.8851959 C61.4493211,28.519455 61.4143831,29.3950551 61.1166038,30.2314172 C60.8543,30.6173477 60.5919963,29.731535 60.4646069,29.7390601 C60.4930948,29.8621493 60.436119,30.2695802 60.3560304,30.6646484 C60.2893794,31.0634792 60.125977,31.4246844 60.0657762,31.4870353 C60.085664,31.2354816 60.1286646,30.9930657 60.1281271,30.7388245 C59.9201116,31.1699057 59.8787235,31.5655114 59.8255102,31.9901425 C59.7701469,32.4120861 59.6798456,32.85768 59.2665022,33.3059615 C59.0751494,33.6612541 58.353814,34.1777991 58.5139913,34.3320638 C59.152013,33.9407581 60.3667805,34.3476515 60.4506317,34.9045095 C60.4167687,34.9711605 60.0738388,35.4221295 59.6760831,35.8806236 C59.2837024,36.3428803 58.8644464,36.8260997 58.6381556,36.9647767 C58.316726,37.1684922 58.2914631,36.8497501 58.2726503,36.531008 C58.2592126,36.2138784 58.218362,35.8768611 57.9684209,36.0553136 C58.0490471,36.1300272 57.9517582,36.499295 57.9033825,36.6503347 C57.6045282,36.9631642 57.7367551,36.3423428 57.2830986,37.1383917 C57.523902,37.4775591 56.2177582,38.6767389 57.3083614,37.6758995 C56.8912554,38.4869987 56.6891525,38.4171227 56.0866063,39.2894977 C56.4929622,39.1653335 56.133907,40.5370532 55.6157495,41.3277271 C55.5786615,41.2250631 55.3550583,41.3083768 55.2497068,41.3503025 C53.9682883,42.74191 53.1545016,43.3616564 51.8773831,44.5619112 C51.697318,44.6081369 51.0060831,45.101569 51.1630353,44.7414388 C51.0195208,44.9553669 50.9453447,45.2171332 50.5389888,45.5729633 C49.545137,46.0196323 51.4076014,44.7441264 50.5588766,44.9843923 C50.655628,45.1918703 49.7010143,46.1104711 49.200057,46.7119422 C49.5854501,46.8081561 50.6088649,45.6159639 51.0759591,44.9919174 C51.3909386,45.3267848 50.7072288,46.593153 49.3849597,47.9299348 C48.2954315,48.9404494 48.7017874,48.0987122 48.540535,48.3094153 C46.2959027,49.9230135 47.1209771,50.3772076 45.0349095,51.4334103 C44.1098587,51.6984016 44.6790794,50.9792163 44.3931253,50.9184779 C45.3181761,50.1562919 46.0094111,50.028365 46.662483,49.5429955 C46.3706163,49.7090854 46.0658494,49.8552876 45.7686076,50.0106273 C46.0292988,49.7198356 46.6302325,49.1925405 47.0253007,48.9963502 C46.6490453,49.1275021 45.6971191,49.7907866 44.5968407,50.5400724 C44.0399827,50.9045027 43.4460366,51.2898957 42.8741284,51.6462634 C42.29362,51.9897308 41.7340744,52.3020228 41.25408,52.5326136 C40.9858636,52.8137302 40.4752313,53.2276112 40.800961,53.1711728 L41.355669,52.7906174 C42.0076659,52.6691406 40.4386808,53.7205058 41.2255921,53.3732758 C40.5300571,53.9688343 39.797434,54.7320954 38.6176045,55.2427277 L38.2456491,55.0739503 C38.3155251,55.1422138 39.0717985,54.8406719 39.3276522,54.567618 C38.9417217,54.9664487 37.4087496,55.1406012 37.1147328,55.8044233 L38.0048457,55.5652324 C37.298023,56.1634785 36.4729486,57.0105907 35.4183584,57.447047 C36.0273547,57.4911226 35.6306739,57.2917072 36.5245493,57.2470941 C36.1009932,57.1997934 36.7508401,56.8729887 37.3377986,56.5434965 C37.925832,56.2145417 38.4654898,55.9092373 37.8543435,55.9678257 C38.7890695,55.9409503 39.2013379,55.4421431 40.319354,55.2051022 C40.2355028,55.1287761 39.8839728,55.2223024 40.7316225,54.780471 C40.7525853,54.7310203 40.8192362,54.6444816 40.8627744,54.5907308 C40.8896498,54.5789056 40.8993249,54.5751431 40.9224377,54.5649304 C40.903625,54.570843 40.8891122,54.5751431 40.8702995,54.5810557 C40.8977124,54.5455802 40.8987874,54.5407426 40.8514867,54.5869683 C40.631646,54.6622193 40.4440558,54.70737 40.3494545,54.6933948 C40.628421,54.2359757 41.9345648,53.4754022 42.2952325,53.0830216 C42.8015648,52.8266304 42.1608556,53.3146874 42.4838977,53.2491115 L43.0300056,52.6788158 C43.2256584,52.8486682 44.514602,52.1993588 43.4659244,53.045396 C43.8099294,52.8373805 44.1437217,52.6110898 44.4828891,52.3944742 C45.1547737,52.1230327 45.9954359,51.6097128 46.4302796,51.1748691 C46.9333869,50.8959026 47.4493943,50.1213539 47.1580651,50.5680228 L48.5926733,49.3140172 L48.6437365,49.3516428 C50.1471457,48.2121264 51.3979262,46.6420662 53.2501779,45.4702993 C53.672659,44.9908424 54.0709523,44.4608598 54.8718388,43.7551121 L55.1637055,43.7438245 C55.4131091,43.4137947 55.8651531,42.9902386 56.2661339,42.5962454 C56.6649647,42.2011772 56.9826317,41.807184 57.0143447,41.6045436 C57.2637483,41.5206924 57.55454,41.2868765 57.864682,40.9665219 C58.1619237,40.6348796 58.4683032,40.2070235 58.7762951,39.760892 C59.0934247,39.3217482 59.3659411,38.8272411 59.6282449,38.3805721 C59.8840986,37.9296031 60.1512399,37.5404475 60.3404426,37.2217054 L60.1308146,37.0362653 C60.3807557,36.5981964 60.605434,36.1574401 60.8290372,35.6838958 C61.0445778,35.2055139 61.2203428,34.6728437 61.4364209,34.0864227 L61.1837923,34.0584723 C61.4503961,33.0200074 62.3792095,31.575724 62.8016906,29.9137501 C62.8586664,30.0475895 62.7140769,30.4587829 62.5753999,30.7361369 C63.1290328,29.8481741 63.315548,28.725858 63.3268357,27.6508425 C63.3725238,26.5731394 63.2725474,25.5448871 63.4768003,24.6096236 C63.3773614,24.1441419 63.3848865,23.8087371 63.4316497,23.4770948 C63.4343372,23.5206329 63.4407873,23.558796 63.449925,23.5921215 C63.4483124,23.5437458 63.4456249,23.4727947 63.4434749,23.3996937 C63.4811004,23.1906032 63.4929256,22.9739876 63.5085133,22.7385592 C63.4708878,22.9411996 63.4493875,23.1320148 63.4375623,23.2970297 C63.3977867,22.9379745 63.3085604,22.3945542 63.177946,21.8731717 L63.3918741,21.6054928 C63.381124,21.5624922 63.3730614,21.5280917 63.3617737,21.4829411 C63.3585486,20.9389832 63.1639708,21.0867979 63.0231438,21.3980148 C62.932305,21.1405486 62.8377036,20.9088828 62.7414897,20.7363428 C63.0376565,20.2208729 62.2700955,19.4232114 62.4743484,18.7373515 C62.3915722,18.669088 62.2899832,18.4761227 62.1620564,18.2294067 C62.0239169,17.9869907 61.855677,17.6918989 61.6885121,17.3984197 C61.3407446,16.8211364 60.9010632,16.309429 60.6484346,16.3045914 C60.6887477,16.2589033 60.6366094,16.1067886 60.781199,16.3545796 C60.6581097,16.0831382 60.4936323,15.8321221 60.3361426,15.5880936 C60.1775778,15.3440651 59.9959002,15.1252994 59.7636968,14.9688847 L59.848623,14.5619913 C59.6454451,14.4426646 59.4530173,14.3195753 59.2476894,14.2136863 L58.6171928,13.9266571 C58.5070037,13.7562672 58.4129399,13.6073775 58.3446764,13.4859008 C58.2678128,13.3740992 58.2188996,13.2875604 58.211912,13.2289721 C58.1920242,13.1182455 58.3581141,13.0913701 58.7456571,13.2687477 C58.3086634,13.018269 57.9802461,12.8822796 57.7485803,12.7500527 C57.5169144,12.6178258 57.3465245,12.5366621 57.1782846,12.4683986 C57.0138072,12.3958351 56.8568549,12.3281091 56.6418518,12.250708 C56.5338128,12.214695 56.412336,12.1738444 56.2677464,12.1254687 C56.1177818,12.0926807 55.9436293,12.0593552 55.7404513,12.0238797 L55.8968661,11.8599398 C55.3534458,11.6067737 54.3848568,11.627199 54.0935276,11.3831705 C53.5205443,11.0332529 51.8800707,10.7128983 50.027819,10.9144637 C48.1653546,11.0660409 46.1685133,11.7158878 44.5973782,12.2716708 C45.0241594,12.4237855 44.6414538,12.5060242 44.1813472,12.6570638 C43.7121029,12.7914408 43.16277,13.0102064 43.231571,13.2477849 C42.98808,13.2144594 42.5553863,13.397212 42.9413168,13.0005313 C41.59916,14.0201835 40.7101222,14.264212 40.0909132,15.3171897 C39.8490348,15.3290149 40.2188401,14.9194339 40.0339374,14.9629721 C39.9511612,15.0747737 39.7189579,15.409641 39.5292176,15.4574792 C39.3427025,15.5042424 39.6302691,15.203238 39.7888339,14.9785598 C38.513328,16.135814 38.7428438,16.6045207 38.9503218,16.9893763 C38.2090986,17.4333577 37.9387322,17.766075 37.7350168,18.3971091 C37.435625,18.5142858 36.9948686,18.774977 37.6576157,17.9853781 C37.2254594,18.3782963 35.1668048,20.4982269 35.4097583,20.7691308 C35.2264681,20.8508319 34.8835382,21.3711395 34.8184997,21.512504 C33.9971879,22.5090434 33.9041991,22.5230186 33.138788,23.6103967 L33.4000168,23.3464804 C33.411842,23.6797352 33.27424,23.907101 33.0715996,24.1849925 C32.8754092,24.463959 32.5942927,24.7923763 32.4233652,25.3400967 L32.3938023,25.2944085 C32.1013981,25.8937296 32.0487223,26.3559863 32.0551724,26.6548406 C32.0583975,26.9574575 32.1169858,27.1160223 32.165899,27.2627619 C32.2191123,27.412189 32.2739381,27.5546286 32.3916523,27.8303701 C32.5185041,28.0915988 32.6974942,28.5398803 33.2591898,29.0386875 C33.2651023,28.9370985 33.2710149,28.8441097 33.2871402,28.7414457 C33.5607316,28.5990061 33.9428996,28.9994494 34.6169343,29.2929286 C35.2716188,29.6025331 36.1923695,29.7788356 36.9034923,29.5380322 C36.7218147,29.526207 36.5406746,29.489119 36.3649095,29.4617061 C36.7449275,29.3337792 37.2947979,29.4332182 37.9252945,29.4466559 C38.5176281,29.4557935 39.1534997,29.453106 39.5335177,29.2725033 C39.7173454,29.2295027 39.3174396,29.4756813 39.1056615,29.626721 C40.1634768,29.2655157 40.1688519,29.1166261 40.0984383,29.0091246 C40.0242623,28.8914104 39.8823602,28.7774587 40.5053317,28.3044519 C40.8466491,28.2695139 40.4725437,28.9182857 41.3594315,28.2695139 C41.6190478,28.1528747 42.12323,27.5084029 42.6171997,26.7628797 C43.1025692,26.0033812 43.5642883,25.1492814 44.065783,24.6133862 C43.7809039,24.8171016 43.50785,25.0009293 43.7771414,24.3435573 C43.891093,24.0995288 44.0587954,23.8313124 44.2479982,23.5448208 C44.4162381,23.2502665 44.6258661,22.9444246 44.7871184,22.6197699 C45.1219858,21.9769107 45.3633267,21.2915883 45.2552877,20.7642932 C45.3235512,20.6395914 45.3713894,20.5971283 45.4063274,20.5992783 C45.4294402,20.3912628 45.4611532,20.1203589 45.4794284,19.8204296 C45.5079163,19.5226503 45.5278041,19.1979956 45.5240416,18.8814036 C45.5428543,18.250907 45.449328,17.6693236 45.3509641,17.4263701 C45.5799424,17.244155 45.6449808,16.829199 45.6460558,16.3153416 C45.6148804,15.8047092 45.522429,15.1957129 45.3547266,14.6324048 C45.0644724,13.4939634 44.6231786,12.5285995 45.0171718,12.4162604 C44.8973075,12.0131296 44.7521804,11.6196739 44.5925406,11.2315933 C44.4484886,10.8376001 44.2625109,10.4613447 44.0856708,10.0824017 L44.1888723,10.1071271 C43.5444005,8.62199317 43.0262431,8.25380036 42.572049,7.89313266 C42.4086467,7.56149038 42.6247248,7.73725542 42.6784755,7.73940545 C42.3806962,7.23522318 42.1420428,6.84606757 41.9044644,6.54452572 C41.6776361,6.23545877 41.4809083,5.99358028 41.2583801,5.79040235 C40.8310614,5.37168382 40.3650422,5.04541661 39.5028798,4.56273466 L39.52008,4.23001736 C39.2690639,4.11660322 38.6885555,3.49201922 37.816718,2.85077248 C36.9610056,2.19232549 35.7913888,1.55430379 34.6464973,1.3194129 C34.6782102,1.2984501 34.7405611,1.26619964 34.9270763,1.29415004 C33.6580205,0.972182898 32.199762,0.426075026 30.84793,0.167533799 C29.5046981,-0.101220075 28.312506,-0.0700446258 27.8690621,0.433062627 C27.587408,0.475525739 27.310054,0.551314331 27.033775,0.617965292 C26.7580335,0.686228776 26.4833671,0.746429644 26.2140757,0.838880976 C28.3651817,0.66150342 25.9496219,1.27802481 26.8451098,1.34198823 C26.0442233,1.48227775 24.6794911,1.41885184 25.677643,1.17052326 L25.8458829,1.19202357 C25.9915475,0.908756984 25.3196628,0.967882836 24.6171402,1.12322258 C23.9162301,1.27587478 23.1927447,1.51237818 23.1642567,1.34360075 C19.0410348,2.79218413 15.6923615,5.67000062 13.3568904,8.88859701 C13.5536182,8.84075882 13.7433584,8.79130811 13.9427738,8.74992001 C13.6675698,9.1165003 13.3907534,9.48361809 13.1305996,9.85987351 C12.8580832,10.1098146 12.5984669,10.0910018 13.1730627,9.28420272 C12.6839307,9.58413204 12.4081892,10.7655741 12.4732276,10.8333 C11.322961,12.3823974 12.4796777,9.95124983 12.1636232,10.4462945 L11.7615674,11.1466671 L11.8954068,11.0155152 C11.700829,11.659987 11.8051055,11.7873763 11.2165345,12.8027284 C10.7897534,13.4154873 10.8214663,13.0220316 10.6682766,13.2719727 C10.6446263,13.25746 10.5860379,13.3391612 10.4462859,13.6638158 L9.65722454,15.197863 L10.2371954,14.7167935 C10.0404676,15.4687669 9.51586,16.1583893 10.1786071,15.6020688 C9.93027847,15.8025592 9.61798647,16.2567532 9.2868817,16.8367241 C8.98480234,17.4290576 8.66659776,18.1477055 8.3645184,18.8572157 C8.21616626,19.2130458 8.06028902,19.5629634 7.9339747,19.9015933 C7.81088542,20.2418357 7.69532126,20.5627278 7.59158226,20.8492194 C7.38249175,21.4205902 7.21478933,21.8489838 7.11373787,22.0021735 C6.93797284,23.0691264 6.66653143,24.0764159 6.23598772,25.3008586 C6.39509001,25.0116794 6.78585815,24.9321283 6.41014023,25.9797309 C5.82156925,25.3830973 5.57646571,27.863158 4.83793007,28.6092188 C5.34264984,27.9034711 4.19292077,31.7305263 4.95564426,30.6049851 C4.69119045,31.4993979 4.6804403,30.59961 4.35686063,31.2537569 C4.22463373,32.3642479 3.98974284,33.5607402 3.66670068,34.8131332 C3.36838388,36.0687513 3.07436714,37.3958579 2.9120398,38.7589776 C3.00019108,38.8148784 3.2028315,38.3811096 3.2657199,38.9831183 L2.60781042,40.3532256 C2.58416008,40.8971834 3.08135475,40.9149212 2.63199827,41.8555597 C2.72552462,41.7260204 2.8701142,41.5341301 2.85828903,41.8974853 C1.78004849,47.1822615 2.27885568,52.8088926 1.19954012,58.1818201 C1.41293069,57.4551096 1.40916814,57.9453167 1.39626795,58.5053997 C1.45324378,58.1431195 1.62900881,58.5231375 1.75962319,58.4564865 L1.32047936,60.709719 C1.65803423,61.1354252 1.26457856,63.1387165 1.59514582,63.3865076 L1.55752028,62.6673222 C1.92786312,63.6337612 2.49224625,61.3627909 3.00234111,61.5202807 C2.58738512,60.4377401 3.7720522,58.7354531 3.20014396,56.9638275 C3.32215822,56.5827345 3.35118363,57.2997699 3.47964799,57.098742 C3.2791576,56.6466979 3.25658227,56.1097277 3.39955933,55.1239385 L3.44901005,55.2384276 C3.53662381,52.45575 3.82150291,51.275383 4.19560831,48.1777259 L3.92201686,48.3878914 C4.01339318,47.7229943 4.10530701,47.5886174 4.19614582,47.2817005 C3.8763287,46.4829639 4.01339318,49.1554525 3.64896293,48.4239044 C3.94351717,47.9998108 4.04886869,46.8232063 4.15798276,45.6826149 C4.26978438,44.542561 4.42351159,43.4438951 4.7433287,43.1783663 C4.85620533,42.1560266 4.41813652,43.4455077 4.53155065,42.4226304 L4.71860335,42.1700018 L4.54445084,41.8872727 C4.66646509,41.2218381 4.90888109,40.9100836 5.04594556,40.9025585 C5.00832002,41.0621983 5.02229522,41.3675027 5.01100756,41.5421927 C5.3120119,40.7020681 5.26847377,39.095995 5.37006274,38.8068158 L5.14269696,39.7705672 C5.37651283,36.9701518 6.15589906,33.6435164 6.47141611,30.9484525 L6.30855127,31.1220675 C6.54881723,29.0526627 6.80198338,29.5380322 7.29326546,27.3256503 L7.29917805,27.4127265 C7.30509063,26.9440198 7.39055436,26.3360985 7.60179491,25.7512901 C7.56416937,26.336636 8.18714085,24.8063515 8.11027724,25.5658499 C8.56178375,23.3695933 8.24734171,24.4553589 8.30163,22.9110991 L8.6074719,22.655783 C8.61123446,22.1225753 8.53652088,22.0500117 8.88052584,20.9642461 C8.71981102,21.8984346 9.41319602,20.3939504 9.2664564,21.4501531 C9.85825243,20.4084631 10.1275438,19.5774761 10.3237341,18.8792535 C10.5338997,18.1890936 10.6736517,17.6349231 11.2095469,17.2866181 C11.2009468,16.6846094 10.8951049,17.105478 10.6403262,17.6198729 C10.3957602,18.1385679 10.177532,18.7341264 10.2425705,18.4298971 C9.88889038,18.8367904 10.1904322,17.4204575 10.5887255,16.7765232 C10.9440181,16.0987259 11.7744676,15.9068357 12.6301799,14.226049 C12.5393411,14.3905263 12.569979,14.4217018 12.4796777,14.5856416 C12.9344093,14.0314711 12.9677348,13.2714352 13.609519,12.6463137 C13.5649059,12.0534426 14.2136777,11.7078252 13.9261111,11.3579076 C13.642307,11.8631649 13.369253,12.3743348 13.1064118,12.8908797 C13.5052425,11.9937793 13.5675934,10.9182263 14.7162475,9.72334655 C14.7140974,9.87922379 14.5195196,10.3334178 14.3899803,10.6446348 C14.7603231,10.3269677 14.8404118,9.84697333 15.2392425,9.5325313 C15.3634068,9.71259639 15.0785277,10.1485152 14.72216,10.6725852 C14.373855,11.2025679 13.9669617,11.834677 13.8336597,12.3641221 C14.2405531,12.0281798 14.6399214,10.5392833 14.7388228,11.2310558 C14.6705593,10.2705294 15.8278135,9.76903471 16.2798575,8.53276688 L16.4233721,8.76013266 C16.5125984,8.57791754 16.6948135,8.19521202 16.9415295,7.92538313 L16.7560894,8.63435585 C17.2016833,7.6808171 18.2315481,7.38572535 18.8174316,6.65095226 C17.3822859,8.01245938 18.2756238,6.72405331 17.5392382,7.1879225 C18.3067992,6.17902045 18.7190677,6.08603161 19.1318736,5.97476751 C19.5688674,5.89037879 20.0047862,5.76782703 21.0910894,4.9959659 C20.7981476,5.19753131 19.8790094,5.64635028 20.2751526,5.21311903 C20.4992933,5.08089213 20.7696597,4.94490266 21.0298135,4.84600124 C21.2867422,4.74172474 21.5243206,4.65841104 21.6963231,4.64766088 C23.2249951,3.75862306 21.3302803,4.54445939 21.9220763,4.04672722 C22.2623187,4.031677 22.4493714,3.93170056 22.6326616,3.74841042 C22.8143392,3.56458277 23.0073045,3.33560447 23.3679722,3.15231432 L23.4652611,3.3931178 C23.9538556,3.23885307 24.2317471,3.15983943 24.3876244,3.06685059 C24.5445766,2.9770868 24.5859647,2.89484811 24.6214402,2.81583447 C24.6902412,2.65296963 24.7472171,2.51053007 25.6926932,2.39281588 L25.0030707,2.92387353 C25.3089127,2.82604712 25.6126045,2.70564539 25.9259716,2.62394421 L25.7872946,2.94752387 C26.7682462,2.55729325 27.1181637,2.55890577 28.1394285,2.59330627 C28.0174142,2.50623001 28.0437521,2.38797831 28.2200546,2.28531433 C28.3958197,2.18265035 28.7236994,2.09019901 29.1907936,2.10847428 C29.8175276,2.29283944 28.8322759,2.31595227 30.1368073,2.37292809 C29.8261278,2.49977992 29.5079232,2.68629511 28.9516027,2.43850404 C28.8924768,2.52235524 28.6634985,2.58954371 28.6065227,2.68038252 C28.9365524,2.76960881 29.3466709,2.79218413 29.7347515,2.79755921 C30.1212195,2.8244346 30.4888748,2.81207192 30.7167781,2.84485989 C30.5431631,2.80615933 30.3324601,2.7830465 30.2276461,2.73359579 C30.5415506,2.69382022 30.8554551,2.68145754 31.1725847,2.67339492 C31.4918643,2.65458215 31.8100689,2.65726969 32.129886,2.67231991 C32.3986399,2.8314222 32.1492363,2.85668506 31.9095078,2.88194793 C32.2825382,2.93677372 32.5695673,2.8663602 33.1119126,3.01094979 C32.9119598,3.18295227 32.8899219,3.36785493 32.1202108,3.29529139 C32.4131526,3.31141662 32.6996442,3.35764228 32.9893609,3.40279294 C33.2812276,3.43934346 33.5698692,3.49363174 33.8558234,3.56297024 C33.8950614,3.62585865 34.0842642,3.7613106 34.2304663,3.8790248 C34.3750558,4.00211407 34.4728823,4.11660322 34.3573181,4.10585307 C34.5621085,4.23055487 34.8055996,4.32676875 35.0775785,4.41276999 C35.3388072,4.5170465 35.6274489,4.61272288 35.9284532,4.71431184 C36.2203199,4.83095102 36.5170242,4.96479045 36.8088909,5.11260508 C37.088395,5.27815747 37.3539238,5.47112275 37.5882772,5.68773837 C37.6656783,5.69580099 37.7909176,5.7522393 38.0204334,5.90381649 C38.9207589,6.72835337 39.4609542,7.65017916 40.5300571,8.63704339 C40.5784328,8.93697271 40.6450837,9.21647674 40.6698091,9.51586856 C41.325031,10.4274817 40.492969,8.31077618 41.600235,9.85449844 C42.3360831,10.9967024 41.5486343,10.4495195 41.671186,10.9085511 C42.1108674,11.4035958 42.955292,12.3646596 42.9622796,13.6514532 C42.7940397,13.2762728 42.742439,12.9607557 42.6107496,12.6043881" id="Fill-117" fill="#FFFFFF"></path>
                <path d="M38.9546756,19.1709052 C38.8670618,19.2004682 38.8165361,19.1843429 38.7676229,19.1649926 C38.7219348,19.2778693 38.7574103,19.3133448 38.9546756,19.1709052" id="Fill-119" fill="#FFFFFF"></path>
                <path d="M37.6192914,5.71579628 L37.5886534,5.68730837 C37.5601655,5.68623335 37.5408152,5.69160843 37.525765,5.70020855 C37.557478,5.70504612 37.5897284,5.70880868 37.6192914,5.71579628" id="Fill-121" fill="#FFFFFF"></path>
                <path d="M57.576524,36.4315153 C57.7517516,36.2208123 57.8812909,36.1213733 57.9683672,36.0557974 C57.922679,36.0117217 57.81679,36.0923479 57.576524,36.4315153" id="Fill-123" fill="#FFFFFF"></path>
                <path d="M37.9074493,56.5640293 L38.6454474,56.0705971 C38.2788671,56.2920503 38.1181523,56.3178507 37.9101368,56.3877267 C37.9563625,56.4307273 38.1466402,56.4242772 37.9074493,56.5640293" id="Fill-125" fill="#FFFFFF"></path>
                <path d="M30.3894896,58.6360679 C30.2879007,58.7193816 30.1465361,58.7548571 30.0465597,58.8381708 L30.1293359,58.9322346 C30.6179304,58.6919687 30.9194723,58.4414901 30.3894896,58.6360679" id="Fill-127" fill="#FFFFFF"></path>
                <path d="M36.7790592,56.2107792 C36.6129694,56.0532894 36.1630754,56.3763316 35.6390053,56.7015237 C35.6712558,56.6832485 35.7013562,56.6649732 35.7352192,56.6504605 C35.7185565,57.0046781 36.2517641,56.6069224 36.7790592,56.2107792" id="Fill-129" fill="#FFFFFF"></path>
                <path d="M35.5166148,56.7748935 C35.3542875,56.8732575 35.1860475,56.9689338 35.0172701,57.0468725 C35.01082,57.189312 35.2328107,56.9614087 35.5166148,56.7748935" id="Fill-131" fill="#FFFFFF"></path>
                <path d="M42.55587,53.4870124 C42.2769035,53.595589 42.5461949,53.8224172 42.3580672,53.8353174 C42.2269153,54.2454358 43.8453511,52.5071358 42.55587,53.4870124" id="Fill-133" fill="#FFFFFF"></path>
                <polygon id="Fill-135" fill="#FFFFFF" points="35.996663 55.8140984 36.3191676 55.9474004 36.5169705 55.5937203"></polygon>
                <path d="M40.2944137,53.5892464 L39.415051,54.0257027 C39.4505265,54.0574156 39.3570002,54.1434169 39.2360609,54.2390932 C39.759056,53.9386264 40.355152,53.6462222 40.2944137,53.5892464" id="Fill-137" fill="#FFFFFF"></path>
                <path d="M39.2358459,54.2392545 C38.9644045,54.3978193 38.7058633,54.5477839 38.5752489,54.6719482 C38.722526,54.5864845 39.036968,54.3994318 39.2358459,54.2392545" id="Fill-139" fill="#FFFFFF"></path>
                <polygon id="Fill-141" fill="#FFFFFF" points="37.127203 55.0970631 37.4061695 55.0040743 38.0173158 54.6826446"></polygon>
                <path d="M49.0174119,47.684025 C49.2781032,47.438384 49.5500821,47.2067181 49.8005607,46.9503269 C49.8225985,46.8062748 49.5721199,46.9605396 49.2813282,47.2325185 C49.1216884,47.441609 48.8330468,47.716813 49.0174119,47.684025" id="Fill-143" fill="#FFFFFF"></path>
                <path d="M46.0104861,49.0514985 C46.2733274,48.9257217 46.3238531,48.9628097 46.5060682,48.9375468 L46.3351408,48.6494427 L46.0104861,49.0514985 Z" id="Fill-145" fill="#FFFFFF"></path>
                <path d="M48.4179295,47.1188894 C48.4437299,46.9802124 49.4477944,45.9600227 48.416317,46.8071349 C48.3910541,46.9447368 47.6105929,47.6639222 48.4179295,47.1188894" id="Fill-147" fill="#FFFFFF"></path>
                <polygon id="Fill-149" fill="#FFFFFF" points="59.1725996 35.4851254 59.0462852 35.7237788 59.5445549 35.9532947"></polygon>
                <path d="M60.6197854,22.1481607 C60.6466608,23.3129399 60.9933533,22.378214 60.9557278,23.4489294 C61.1185926,23.7149957 60.9895907,22.5706417 61.1336428,22.8404706 C60.9315399,22.1395605 60.9073521,21.7740553 60.6197854,22.1481607" id="Fill-151" fill="#FFFFFF"></path>
                <path d="M61.1337503,22.8402019 C61.1681508,22.9520035 61.2084639,23.0707927 61.2584521,23.197107 C61.2004013,22.9923166 61.1633133,22.8977152 61.1337503,22.8402019" id="Fill-153" fill="#FFFFFF"></path>
                <polygon id="Fill-155" fill="#FFFFFF" points="0.987224558 62.2164607 0.846397528 63.0264849 1.04742543 62.5072524"></polygon>
                <path d="M1.34224843,63.7915734 L0.987493312,63.972176 L1.28688513,64.4704457 C1.2777475,64.2866181 1.25893472,63.9286379 1.34224843,63.7915734" id="Fill-157" fill="#FFFFFF"></path>
                <path d="M38.4514609,26.2293495 L38.4546859,26.3277134 C38.5853003,26.3433011 38.7298899,26.2809502 38.9878936,26.1003476 C38.8158911,26.1637735 38.6256134,26.1874239 38.4514609,26.2293495" id="Fill-159" fill="#FFFFFF"></path>
                <path d="M43.058601,18.3688362 L43.0333382,18.5343886 C43.1478273,18.4408622 43.2687665,18.3462608 43.3794931,18.2468219 L43.058601,18.3688362 Z" id="Fill-161" fill="#FFFFFF"></path>
                <path d="M40.9726947,10.5457334 C41.1167468,10.8440502 41.3645378,11.1579547 41.4795645,11.4740093 C41.1430847,10.8370626 41.2650989,10.2850421 40.9726947,10.5457334" id="Fill-163" fill="#FFFFFF"></path>
            </g>
        </g>
    </g>
</svg>