<?xml version="1.0" encoding="UTF-8"?>
<svg width="139px" height="167px" viewBox="0 0 139 167" version="1.1" xmlns="http://www.w3.org/2000/svg" xmlns:xlink="http://www.w3.org/1999/xlink">
    <title>magnifying-glass</title>
    <defs>
        <filter x="-5.5%" y="-1.8%" width="109.7%" height="104.9%" filterUnits="objectBoundingBox" id="filter-1">
            <feOffset dx="0" dy="1" in="SourceAlpha" result="shadowOffsetOuter1"></feOffset>
            <feGaussianBlur stdDeviation="1" in="shadowOffsetOuter1" result="shadowBlurOuter1"></feGaussianBlur>
            <feColorMatrix values="0 0 0 0 0   0 0 0 0 0   0 0 0 0 0  0 0 0 0.35 0" type="matrix" in="shadowBlurOuter1" result="shadowMatrixOuter1"></feColorMatrix>
            <feMerge>
                <feMergeNode in="shadowMatrixOuter1"></feMergeNode>
                <feMergeNode in="SourceGraphic"></feMergeNode>
            </feMerge>
        </filter>
        <polygon id="path-2" points="1.5241956e-16 -1.84315553e-15 23.4120173 -1.84315553e-15 23.4120173 80.6283 1.5241956e-16 80.6283"></polygon>
        <polygon id="path-4" points="-2.34924927e-15 0 71.807921 0 71.807921 71.8083237 -2.34924927e-15 71.8083237"></polygon>
    </defs>
    <g id="Asset-Guide" stroke="none" stroke-width="1" fill="none" fill-rule="evenodd">
        <g id="Illustrations" transform="translate(-111, -580)">
            <g id="magnifying-glass" filter="url(#filter-1)" transform="translate(180.904, 662.4019) rotate(-29) translate(-180.904, -662.4019)translate(145, 590.3759)">
                <g id="Group-3" transform="translate(29.733, 63.4237)">
                    <mask id="mask-3" fill="white">
                        <use xlink:href="#path-2"></use>
                    </mask>
                    <g id="Clip-2"></g>
                    <path d="M23.0213513,73.986 C20.7273513,82.104 3.92935129,83.146 0.767351286,75.081 C-0.217648714,72.568 -0.0416487136,69.829 0.146351286,67.168 C1.71535129,44.89 3.28535129,22.611 4.85535129,0.333 L11.6153513,-1.84315553e-15 C15.3643513,22.017 19.1133513,44.034 22.8633513,66.05 C23.3103513,68.68 23.7553513,71.389 23.0213513,73.986" id="Fill-1" fill="#9CB4FF" mask="url(#mask-3)"></path>
                </g>
                <g id="Group-6" transform="translate(-0, 0)">
                    <mask id="mask-5" fill="white">
                        <use xlink:href="#path-4"></use>
                    </mask>
                    <g id="Clip-5"></g>
                    <path d="M71.764221,34.1401 C72.738221,53.9451 57.473221,70.7901 37.668221,71.7641 C17.863221,72.7391 1.01822104,57.4741 0.0442210405,37.6691 C-0.93077896,17.8641 14.335221,1.0191 34.140221,0.0441 C53.945221,-0.9299 70.790221,14.3351 71.764221,34.1401" id="Fill-4" fill="#3E52CE" mask="url(#mask-5)"></path>
                </g>
                <path d="M63.624221,34.5406 C64.377221,49.8496 52.577221,62.8716 37.268221,63.6246 C21.958221,64.3776 8.93722104,52.5776 8.18422104,37.2686 C7.43122104,21.9586 19.231221,8.9376 34.540221,8.1846 C49.849221,7.4316 62.871221,19.2316 63.624221,34.5406" id="Fill-7" fill="#E2E6FF"></path>
                <path d="M50.362421,50.7635 C50.097421,50.3885 50.953421,49.3995 52.034421,47.7845 C52.299421,47.3745 52.598421,46.9425 52.862421,46.4405 C53.162421,45.9645 53.410421,45.4145 53.694421,44.8575 C54.212421,43.7115 54.694421,42.4215 55.054421,41.0165 C55.394421,39.6055 55.575421,38.2275 55.679421,36.9575 C55.705421,36.3225 55.757421,35.7135 55.740421,35.1415 C55.759421,34.5665 55.730421,34.0325 55.713421,33.5375 C55.632421,31.5655 55.489421,30.2635 55.912421,30.1015 C56.279421,29.9535 57.182421,31.0325 57.863421,33.1485 C58.028421,33.6765 58.192421,34.2635 58.291421,34.9085 C58.427421,35.5495 58.475421,36.2465 58.527421,36.9825 C58.578421,38.4545 58.458421,40.0925 58.053421,41.7605 C57.630421,43.4255 56.963421,44.9425 56.195421,46.2185 C55.785421,46.8445 55.397421,47.4355 54.949421,47.9275 C54.537421,48.4455 54.083421,48.8665 53.664421,49.2385 C53.264421,49.6275 52.822421,49.8945 52.458421,50.1435 C52.096421,50.3955 51.746421,50.5585 51.448421,50.6715 C50.857421,50.9025 50.485421,50.9375 50.362421,50.7635" id="Fill-9" fill="#FFFFFF"></path>
            </g>
        </g>
    </g>
</svg>