<?xml version="1.0" encoding="UTF-8"?>
<svg width="156px" height="156px" viewBox="0 0 156 156" version="1.1" xmlns="http://www.w3.org/2000/svg" xmlns:xlink="http://www.w3.org/1999/xlink">
    <title>Group 3</title>
    <defs>
        <polygon id="path-1" points="0 0 60 0 60 160 0 160"></polygon>
    </defs>
    <g id="R5---Dev-Facing" stroke="none" stroke-width="1" fill="none" fill-rule="evenodd" opacity="0.65062314">
        <g id="Homepage---Desktop" transform="translate(69, -1279)">
            <g id="Group-3" transform="translate(9, 1357) rotate(135) translate(-9, -1357)translate(-21, 1277)">
                <mask id="mask-2" fill="white">
                    <use xlink:href="#path-1"></use>
                </mask>
                <g id="Clip-2"></g>
                <path d="M19.9514991,154.245801 L19.9514991,154.245801 C20.670767,153.586582 23.2145869,151.840769 21.6649673,150.793281 C21.0595604,151.564232 18.0519655,152.84915 19.9514991,154.245801 L19.9514991,154.245801 Z M8.50708667,151.944121 L8.50708667,151.944121 C9.30689031,154.544684 14.6333604,155.17597 16.5190085,154.821221 C15.6747713,149.053055 11.728518,152.533507 8.50708667,151.944121 L8.50708667,151.944121 Z M16.5190085,150.215068 L16.5190085,150.215068 L17.6659492,150.215068 L17.6659492,149.067021 L16.5190085,149.067021 L16.5190085,150.215068 Z M13.0865179,149.642441 L13.0865179,149.642441 C15.7414217,149.818419 17.0383255,148.63406 17.0910903,146.189922 C15.2082192,146.787688 13.9057612,147.974841 13.0865179,149.642441 L13.0865179,149.642441 Z M3.35835076,149.067021 L3.35835076,149.067021 C3.82767997,148.650819 4.89408482,145.083774 2.78626899,145.614502 C3.11674341,146.62847 2.09754919,148.994395 3.35835076,149.067021 L3.35835076,149.067021 Z M23.9560715,154.245801 L23.9560715,154.245801 C25.6584313,152.310043 27.8134578,150.837974 30.8210527,150.215068 L30.8210527,145.039082 C29.6935518,144.871484 29.6852205,145.810033 29.1020303,146.189922 C28.9298504,147.321208 29.8768401,147.329588 30.248971,147.916181 C28.977061,150.477638 22.9840879,151.332388 23.9560715,154.245801 L23.9560715,154.245801 Z M3.93043252,142.731815 L3.93043252,142.731815 C3.96375768,142.385446 4.0192996,142.05863 4.50529139,142.159189 C4.44419528,141.45807 4.33588854,140.801645 3.35835076,141.008349 C3.44999492,141.689914 3.26392949,142.64243 3.93043252,142.731815 L3.93043252,142.731815 Z M26.8164803,142.159189 L26.8164803,142.159189 C28.571605,142.580977 28.4994005,141.17036 30.248971,141.586562 C29.9545988,142.438519 29.4047338,143.033492 29.1020303,143.891035 C30.1878748,143.756957 30.3683861,144.539081 31.3931345,144.463662 L31.3931345,140.438515 C29.5324802,138.849127 27.1997196,140.477622 26.8164803,142.159189 L26.8164803,142.159189 Z M21.0928856,138.134042 L21.0928856,138.134042 C15.2915321,141.634042 7.75171657,143.835169 5.07459606,150.215068 C11.5480067,147.326795 16.4634666,142.87148 21.0928856,138.134042 L21.0928856,138.134042 Z M9.08472263,150.793281 L9.08472263,150.793281 C9.97617043,149.966464 11.0759004,149.340765 11.3674955,147.91617 C9.98450172,147.910595 7.71561432,149.932944 9.08472263,150.793281 L9.08472263,150.793281 Z M6.22153669,143.310029 L6.22153669,143.310029 C9.9317369,141.675948 13.9640802,140.360303 15.9497038,136.983203 C11.5757777,137.960858 8.50708667,140.242984 6.22153669,143.310029 L6.22153669,143.310029 Z M5.07459606,130.078163 L5.07459606,130.078163 C12.9976508,133.444091 22.203724,138.527898 33.114934,136.983203 C30.337838,132.670346 22.5064274,133.46085 16.5190085,132.382636 C13.5891723,130.145203 9.20969195,129.374252 5.64945493,127.77369 C5.77720134,128.860284 5.00794576,129.044642 5.07459606,130.078163 L5.07459606,130.078163 Z M24.5281533,126.050224 L24.5281533,126.050224 C24.4004069,127.139611 25.1779937,127.315589 25.1057892,128.351904 C23.5478384,128.854698 22.3120307,129.131234 20.5208038,128.351904 C21.0206811,127.332349 22.437,126.569778 20.5208038,126.050224 C19.3905257,126.829555 18.2963499,127.647992 18.8073356,130.078163 C20.7707424,131.173137 23.9394089,131.050232 26.2443986,131.80163 C26.8664681,129.726207 29.0825907,126.240168 27.3913392,123.745751 C26.9747748,125.055809 25.6723168,125.469217 24.5281533,126.050224 L24.5281533,126.050224 Z M25.6750939,122.594911 L25.6750939,122.594911 C27.2608157,122.273681 29.5435886,122.650777 29.1020303,120.296024 C26.949781,120.044627 26.4971143,121.508317 25.6750939,122.594911 L25.6750939,122.594911 Z M27.963421,118.569765 L27.963421,118.569765 C28.1328238,117.888199 30.9904556,117.122835 29.1020303,116.262498 C29.265879,117.284846 26.4082472,118.047417 27.963421,118.569765 L27.963421,118.569765 Z M24.5281533,117.418925 L24.5281533,117.418925 C27.8856623,116.572555 30.5350118,115.016686 31.3931345,111.661932 C28.9798381,111.161931 25.7278587,114.779256 24.5281533,117.418925 L24.5281533,117.418925 Z M22.2398262,111.086524 L22.2398262,111.086524 C23.62282,111.092099 25.9000387,109.069749 24.5281533,108.212206 C24.1476911,109.550197 21.5288896,108.639581 22.2398262,111.086524 L22.2398262,111.086524 Z M25.1057892,103.60326 L25.1057892,103.60326 C20.6874296,103.795997 24.8003087,107.935669 25.1057892,103.60326 L25.1057892,103.60326 Z M25.1057892,106.480359 L25.1057892,106.480359 C28.4716295,107.363042 29.7074372,103.083706 31.9596621,104.7541 C26.4054701,109.907739 19.8543008,114.055791 19.3821945,124.318377 C23.100726,124.036254 22.8591186,119.759711 25.1057892,117.991551 C24.0949263,117.835127 22.2426033,119.614459 21.6649673,117.991551 C24.2504437,113.874226 27.7579159,110.684277 32.537298,108.787626 C31.9957643,105.368626 35.8253796,101.499904 33.114934,99.5781134 C30.654427,102.100464 27.4413269,103.851863 25.1057892,106.480359 L25.1057892,106.480359 Z M27.3913392,101.882586 L27.3913392,101.882586 C30.6349873,100.15074 34.6923245,99.2540906 35.400484,94.9719607 C32.0624146,96.6032482 28.6604721,98.1674966 27.3913392,101.882586 L27.3913392,101.882586 Z M26.8164803,97.8490603 L26.8164803,97.8490603 C25.4945827,98.9524141 21.9037976,99.4384484 24.5281533,101.882586 C25.9833516,99.6954321 28.1994741,98.2764353 29.6768892,96.1200072 C32.3790036,94.6144182 35.4115924,93.4551984 36.5446475,90.3713945 C32.0040956,91.0110603 29.5991305,95.5362074 26.8164803,97.8490603 L26.8164803,97.8490603 Z M36.5446475,83.4663552 L36.5446475,83.4663552 C33.0121814,87.9691559 26.0583332,89.0250236 25.1057892,96.1200072 C28.9881694,91.7848046 36.2280586,90.8211159 37.6860339,84.0389819 C37.5610646,83.5920538 37.2083734,83.371383 36.5446475,83.4663552 L36.5446475,83.4663552 Z M29.1020303,86.3434549 L29.1020303,86.3434549 C27.7523617,84.969151 26.2916092,86.4384271 26.8164803,88.6423414 C31.2237316,87.1367523 33.1649217,83.1339525 38.2581157,82.3127221 C38.3858621,81.2289214 39.7355308,78.4998667 38.2581157,77.7065693 C34.764529,80.1451208 31.4320138,82.7317172 29.1020303,86.3434549 L29.1020303,86.3434549 Z M28.5327257,84.0389819 L28.5327257,84.0389819 C29.0548197,83.0250137 29.815744,82.2596494 30.8210527,81.7400954 C31.2403942,80.1674672 29.6852205,80.583669 29.6768892,79.4356224 C30.8516008,78.3155088 31.5542061,76.7205342 32.537298,75.4104761 L30.248971,75.4104761 C29.5880221,77.8266812 27.6412778,81.9747327 28.5327257,84.0389819 L28.5327257,84.0389819 Z M32.537298,80.0138356 L32.537298,80.0138356 C35.0700095,77.7568487 41.9822014,76.8629925 39.9771381,71.9579565 C37.6943652,74.5305864 31.8180302,76.3015391 32.537298,80.0138356 L32.537298,80.0138356 Z M30.8210527,72.5305832 L30.8210527,72.5305832 C32.4762019,72.2763928 33.4315229,71.3182907 33.6814616,69.6534835 C31.3709177,69.2456616 30.4183738,70.2037637 30.8210527,72.5305832 L30.8210527,72.5305832 Z M34.8256251,73.1060031 L34.8256251,73.1060031 C36.3613592,71.776392 38.294218,70.8434296 41.1213016,70.80991 C40.4964551,69.3294606 42.8625408,68.0613021 41.1213016,67.3518037 C39.3134122,69.1925889 33.925846,70.4607474 34.8256251,73.1060031 L34.8256251,73.1060031 Z M31.3931345,67.9272237 L31.3931345,67.9272237 C33.4315229,68.0585088 34.3840668,67.1004067 34.2507662,65.0473307 L32.537298,65.0473307 C31.9513308,65.8071085 31.9791017,67.1730325 31.3931345,67.9272237 L31.3931345,67.9272237 Z M34.8256251,70.2261101 L34.8256251,70.2261101 C36.5668643,67.95795 39.4661525,66.8462163 42.2654652,65.6283372 C42.6792525,64.3182792 42.7736737,62.6897849 43.4068516,61.5948111 C38.4636208,62.002633 35.4171465,67.3601836 34.8256251,70.2261101 L34.8256251,70.2261101 Z M35.400484,60.4467645 L35.400484,60.4467645 L33.114934,60.4467645 C32.1984923,63.1199532 36.066987,62.4467678 35.400484,60.4467645 L35.400484,60.4467645 Z M35.400484,63.3266575 L35.400484,63.3266575 C39.3467373,62.4998405 42.7098005,61.0864304 43.9789334,57.5668715 C40.2215226,58.5808397 37.8832078,61.0277711 35.400484,63.3266575 L35.400484,63.3266575 Z M34.2507662,57.5668715 L34.2507662,57.5668715 L35.9725657,57.5668715 C36.1308602,56.2596068 35.8337109,55.4076501 34.8256251,55.2707784 C34.6506681,56.0445227 34.0091589,56.362959 34.2507662,57.5668715 L34.2507662,57.5668715 Z M37.1139522,58.723298 L37.1139522,58.723298 C41.4573303,58.100392 45.0064589,56.6786019 45.6951787,52.3880921 C41.6433957,53.2959148 39.3633999,55.9970366 37.1139522,58.723298 L37.1139522,58.723298 Z M35.9725657,54.6897719 L35.9725657,54.6897719 C35.9781199,53.5501052 37.5305166,53.9635137 37.1139522,52.3880921 C35.6643081,51.7819459 34.5784636,54.3350227 35.9725657,54.6897719 L35.9725657,54.6897719 Z M38.8301975,54.1171452 L38.8301975,54.1171452 C41.5489744,53.1450766 47.8779761,50.5361338 45.6951787,48.3629459 C43.5651461,50.4411616 39.6216698,50.6925586 38.8301975,54.1171452 L38.8301975,54.1171452 Z M38.8301975,50.6646256 L38.8301975,50.6646256 C41.6711666,48.3405995 46.1061889,47.6227212 47.98906,44.332213 C44.806508,43.7316534 38.8551913,48.1171354 38.8301975,50.6646256 L38.8301975,50.6646256 Z M34.8256251,127.77369 L34.8256251,127.77369 C36.3224798,121.877033 37.4444266,115.614453 38.8301975,109.363046 C44.3121849,84.7065807 53.0072724,61.6283307 56.5675094,35.7037073 C54.820716,34.5472808 53.2349942,38.4718682 50.8466917,38.580807 C50.796704,44.3545594 48.2917634,49.72049 46.8393422,55.2707784 C44.4704794,64.3322457 43.0513833,71.2233185 41.1213016,80.0138356 C37.8248887,94.9859272 33.8536415,110.653551 30.8210527,124.896591 C30.4044883,126.857488 28.0023003,130.673136 30.248971,131.80163 C29.8407379,133.363085 32.9510853,131.388221 32.537298,132.95247 C35.3699359,132.689899 34.4090607,129.435704 34.8256251,127.77369 L34.8256251,127.77369 Z M38.2581157,44.332213 L38.2581157,44.332213 C42.0516288,43.5472955 43.4429539,40.346173 47.411424,39.7260602 C45.2064098,42.4942212 40.6075389,42.8629369 39.4022792,46.6366861 C42.8125531,45.4607065 44.1566675,42.2093045 48.5583646,42.0305333 C48.7194362,39.3210316 50.2301764,37.9551076 49.696974,34.5472808 L47.98906,34.5472808 C47.875199,39.0137686 39.8077353,39.4998029 38.2581157,44.332213 L38.2581157,44.332213 Z M42.8403241,36.2791272 L42.8403241,36.2791272 C45.1119885,35.6925341 46.8254568,34.5333143 47.98906,32.8266076 C46.0117676,33.7148772 43.2652197,33.8349891 42.8403241,36.2791272 L42.8403241,36.2791272 Z M30.248971,66.2009639 L30.248971,66.2009639 C32.0846314,58.7009516 33.1343737,51.4216101 34.8256251,44.9076329 C35.7670606,41.2707555 38.6968969,37.438347 38.2581157,33.3992342 C37.7693468,28.8824671 34.5951261,25.3992211 29.1020303,27.6478282 C25.4501491,37.8349957 23.6061574,49.2484222 21.0928856,59.8685513 C19.7932047,65.3741469 17.9714297,71.3992964 17.0910903,75.4104761 C16.0718961,80.0529418 15.9441497,84.6898209 14.8027632,89.2233479 C13.7335813,93.4691649 11.8034996,97.6144231 10.7954137,101.882586 C9.83731564,105.958012 9.67902117,109.8407 8.50708667,113.963612 C7.51288632,117.488757 5.67167169,121.173121 6.22153669,124.896591 C8.95142202,126.65637 13.4864197,129.357492 16.5190085,128.927323 C19.5321576,109.396565 25.6750939,84.8965252 30.248971,66.2009639 L30.248971,66.2009639 Z M38.8301975,13.8321631 L38.8301975,13.8321631 C37.1306148,18.0751868 31.1681897,21.077985 31.3931345,25.3461484 C32.4512081,24.4913984 34.1146885,24.2427947 35.9725657,24.1925153 C37.5305166,26.0751999 38.0081771,29.0500651 40.5464428,29.9467146 C43.6262422,29.402021 43.9983731,26.1310659 47.411424,25.9215684 C49.494246,29.0053723 49.9052562,33.7707432 54.848487,33.9746542 C57.7394439,28.0556501 51.0133175,22.7288257 50.8466917,16.1338429 C46.5310846,15.6813282 42.5515061,14.8880308 38.8301975,13.8321631 L38.8301975,13.8321631 Z M49.1276693,12.6841165 L49.1276693,12.6841165 C49.0471335,11.6114891 48.7527614,10.7595324 47.98906,10.3824368 C47.8252113,11.6980814 48.1251377,12.5416582 49.1276693,12.6841165 L49.1276693,12.6841165 Z M47.411424,8.08075706 L47.411424,8.08075706 C47.4419721,6.32656425 46.8948842,5.15058467 45.6951787,4.62544415 C44.4565939,5.94108876 45.4924507,8.21762879 47.411424,8.08075706 L47.411424,8.08075706 Z M27.963421,160 C21.8065992,158.039103 3.53053071,157.648041 0.497941915,151.368701 C-1.01279829,148.242998 1.31163103,141.055835 2.21141012,135.256943 C6.75196202,106.206616 13.4780884,84.8825587 19.3821945,57.5668715 C20.5180267,52.2931199 21.5455522,46.9970218 22.811908,42.0305333 C24.2198956,36.527731 24.5531471,31.0388952 26.2443986,27.0752015 C28.1244925,22.6422334 32.6456048,18.6282603 35.9725657,14.4103764 C39.8327291,9.5137203 43.2624426,4.76510918 46.2700376,0.0248779603 C47.1975876,-0.139926779 47.2503524,0.566778288 47.98906,0.600297896 C51.5076405,12.2064621 56.1342824,22.7148592 60,33.9746542 C55.051215,48.3014932 53.8042989,63.6534737 49.696974,78.2875758 C48.4361724,82.8015497 46.3283566,86.8965285 45.1203198,91.5222343 C42.7459028,100.664707 40.5658825,109.980365 38.8301975,119.142391 C37.4249869,126.561398 37.7387988,134.720629 33.6814616,139.857509 C33.5176129,148.326797 32.1873839,155.617311 27.963421,160 L27.963421,160 Z" id="Fill-1" fill="#FFFFFF" mask="url(#mask-2)"></path>
            </g>
        </g>
    </g>
</svg>