<?xml version="1.0" encoding="UTF-8"?>
<svg width="151px" height="24px" viewBox="0 0 151 24" version="1.1" xmlns="http://www.w3.org/2000/svg" xmlns:xlink="http://www.w3.org/1999/xlink">
    <title>Path</title>
    <g id="R5---Dev-Facing" stroke="none" stroke-width="1" fill="none" fill-rule="evenodd" opacity="0.57">
        <g id="Homepage---Desktop" transform="translate(-182, -4089)" fill="#FF8300">
            <path d="M183.739742,4105.59333 C182.956742,4105.56733 183.239742,4103.45933 183.739742,4103.09933 C183.690742,4102.73233 182.950742,4103.05733 183.027742,4102.56533 C182.902742,4101.86933 183.651742,4102.55633 183.917742,4102.56533 C183.971742,4102.09533 183.670742,4101.98033 183.205742,4102.03033 C184.183742,4099.26233 183.043742,4093.84133 187.302742,4093.12233 C224.798742,4086.79133 286.219141,4090.01033 331.753141,4089.02433 C331.752141,4089.92533 331.737141,4090.77233 332.288141,4091.51933 C332.132141,4091.77933 332.146141,4092.20933 331.575141,4092.05333 C331.716141,4092.44733 332.198141,4092.49933 332.466141,4092.76633 C331.905141,4093.36733 331.374141,4094.21633 330.506141,4094.01333 C330.166141,4094.08433 330.904141,4094.54433 331.219141,4094.54733 C330.902141,4095.11833 330.424141,4094.99733 329.793141,4094.90433 C330.077141,4095.72433 330.731141,4095.06533 331.219141,4095.61633 C330.694141,4095.91133 330.295141,4095.52033 329.259141,4095.61633 C329.645141,4096.53733 330.852141,4096.63733 331.397141,4097.39833 C330.515141,4097.45733 330.361141,4097.96933 329.437141,4097.57633 C329.599141,4098.18633 330.555141,4098.00333 331.219141,4098.11133 C330.866141,4098.64933 330.292141,4098.96533 329.259141,4098.82333 C329.320141,4099.35033 329.762141,4099.76933 331.041141,4099.89233 C330.173141,4100.31833 329.764141,4099.89833 328.903141,4100.07033 C329.075141,4100.43333 329.587141,4100.45533 330.150141,4100.42733 C329.454141,4100.68133 329.087141,4101.26433 328.012141,4101.13933 C328.721141,4101.44033 329.457141,4101.71333 330.328141,4101.85233 C330.028141,4102.65533 329.117141,4101.86433 328.369141,4102.03033 C328.650141,4102.69833 329.987141,4102.31233 330.506141,4102.74333 C330.177141,4103.00833 329.660141,4103.08433 329.081141,4103.09933 C329.334141,4103.61833 330.136141,4103.58833 330.684141,4103.81233 C330.558141,4104.45733 329.386141,4104.05833 328.724141,4104.16833 C328.902141,4104.64533 329.810141,4104.38933 329.793141,4105.05933 C329.497141,4105.05933 329.200141,4105.05933 328.903141,4105.05933 C329.807141,4105.40733 329.225141,4105.50833 330.150141,4105.59333 C330.128141,4105.98733 329.394141,4105.66933 329.081141,4105.77233 C329.326141,4106.12133 330.172141,4105.86833 330.506141,4106.12833 C330.484141,4106.52133 329.751141,4106.20433 329.437141,4106.30633 C330.066141,4106.95033 329.613141,4107.16433 330.684141,4107.73133 C330.659141,4108.32433 329.497141,4107.68433 330.328141,4108.26633 C295.056141,4108.62233 251.825742,4108.43433 213.314742,4110.22633 C203.601742,4110.67733 191.981742,4114.02433 184.452742,4112.18533 C183.802742,4112.24033 183.292742,4112.15733 182.848742,4112.00733 C182.626742,4111.25033 183.441742,4111.53033 183.561742,4111.11633 C182.093742,4110.79033 181.494742,4109.52633 182.492742,4107.73133 C183.177742,4108.22833 183.183742,4107.26633 183.739742,4107.73133 C183.204742,4106.55133 183.172742,4106.09133 182.492742,4105.41533 C182.654742,4105.03833 183.208742,4105.75233 183.739742,4105.59333 Z" id="Path"></path>
        </g>
    </g>
</svg>