<?xml version="1.0" encoding="UTF-8"?>
<svg width="246px" height="23px" viewBox="0 0 246 23" version="1.1" xmlns="http://www.w3.org/2000/svg" xmlns:xlink="http://www.w3.org/1999/xlink">
    <title>Path</title>
    <g id="R5---Dev-Facing" stroke="none" stroke-width="1" fill="none" fill-rule="evenodd" opacity="0.57">
        <g id="Homepage---Desktop" transform="translate(-753, -4090)" fill="#ED40A9">
            <path d="M995.801875,4098.4308 C995.832875,4098.8178 995.170875,4098.5118 994.912875,4098.6098 C994.940875,4098.8178 995.236875,4098.7598 995.446875,4098.7878 C995.336875,4099.3758 994.060875,4098.8328 993.486875,4098.7878 C993.881875,4099.4608 995.217875,4099.1948 995.980875,4099.5008 C995.307875,4100.0508 995.078875,4100.3478 994.199875,4100.3908 C994.314875,4100.5718 994.608875,4100.5748 994.555875,4100.9258 C993.983875,4100.4858 993.309875,4101.4508 992.951875,4101.2818 C993.688875,4101.7078 994.057875,4101.4518 994.912875,4101.8158 C994.953875,4102.5108 993.810875,4102.0218 993.664875,4102.5288 C994.044875,4102.9808 995.135875,4102.7218 995.089875,4103.5978 C994.793875,4103.5978 994.496875,4103.5978 994.199875,4103.5978 C994.347875,4104.1028 995.293875,4103.8098 995.624875,4104.1328 C995.491875,4104.5338 994.624875,4104.2018 994.199875,4104.3108 C994.613875,4104.6678 995.307875,4104.7468 995.446875,4105.3798 C993.477875,4105.4018 995.468875,4106.3008 993.664875,4106.0928 C994.987875,4106.4308 994.581875,4107.2288 995.267875,4107.5178 C995.028875,4108.0498 994.510875,4108.3048 993.842875,4108.4078 C994.083875,4108.8208 995.182875,4108.3748 995.267875,4108.9428 C995.619875,4109.6128 994.354875,4109.5458 994.912875,4109.8338 C959.765875,4109.5028 822.7647,4109.99147 790.0577,4109.67047 C779.6477,4109.53947 760.6257,4115.17847 752.9997,4109.49247 C753.2877,4109.44247 753.3067,4109.66047 753.5347,4109.67047 C752.9847,4109.06147 752.9207,4107.54147 753.3567,4106.46347 C753.5867,4106.21747 754.1307,4106.28747 754.6037,4106.28547 C754.5487,4105.09347 753.8097,4105.18947 753.5347,4103.96947 C754.5837,4104.20547 753.9127,4104.00947 754.2477,4103.25647 C755.0247,4103.24147 755.3487,4103.48247 755.6727,4103.25647 C755.6657,4102.36147 754.7277,4103.50147 754.4257,4102.90047 C754.4277,4102.43147 754.3267,4101.71647 754.7817,4102.18747 C754.8407,4101.41547 753.7947,4101.74947 753.8907,4100.94047 C754.9267,4100.85547 754.6667,4102.06447 755.8507,4101.83147 C755.0797,4101.65247 755.0137,4100.76747 754.0697,4100.76247 C754.7737,4099.54347 753.7467,4097.90147 754.9597,4097.02147 C754.0857,4095.25747 755.2177,4093.74147 755.8507,4091.85447 C797.5927,4090.52647 954.577875,4089.8458 998.296875,4090.5918 C997.234875,4091.9078 997.017875,4093.2068 997.227875,4094.5118 C997.020875,4094.6618 996.750875,4094.7468 996.336875,4094.6898 C996.453875,4094.8718 996.746875,4094.8738 996.693875,4095.2248 C995.996875,4095.2498 995.981875,4095.8318 995.267875,4095.4028 C995.241875,4095.9638 996.261875,4095.4778 995.980875,4096.2938 C995.386875,4096.2928 994.793875,4096.2938 994.199875,4096.2938 C994.564875,4096.7588 995.330875,4096.8248 995.980875,4097.0058 C995.163875,4096.9608 995.275875,4097.8448 994.555875,4097.8968 C995.239875,4097.9698 995.035875,4098.2218 995.801875,4098.4308 Z" id="Path"></path>
        </g>
    </g>
</svg>