<?xml version="1.0" encoding="UTF-8"?>
<svg width="158px" height="22px" viewBox="0 0 158 22" version="1.1" xmlns="http://www.w3.org/2000/svg" xmlns:xlink="http://www.w3.org/1999/xlink">
    <title>Path</title>
    <g id="R5---Dev-Facing" stroke="none" stroke-width="1" fill="none" fill-rule="evenodd" opacity="0.4">
        <g id="Homepage---Desktop" transform="translate(-1097, -4091)" fill="#5F75FF">
            <path d="M1253.06825,4097.54121 C1253.28625,4097.79921 1253.74825,4097.81221 1253.95925,4098.07621 C1253.95525,4098.56421 1253.11925,4098.49921 1252.89025,4098.25421 C1252.92625,4098.93021 1253.69825,4098.87121 1254.13725,4099.14521 C1253.08425,4100.06721 1254.71425,4102.28321 1253.42425,4103.42121 C1254.59425,4103.87421 1253.56225,4105.32921 1254.67125,4105.20221 C1254.03825,4105.76121 1254.15525,4106.01121 1254.67125,4106.62821 C1253.69225,4107.72921 1255.98325,4110.63021 1254.31525,4111.43821 C1247.04125,4110.68421 1239.52125,4110.96521 1231.86725,4111.61621 C1209.11625,4113.55221 1133.7694,4110.10021 1111.5944,4111.97321 C1105.7834,4112.46321 1095.5874,4114.68021 1097.1634,4107.51821 C1097.4024,4107.10521 1097.7994,4106.84921 1098.2324,4106.62821 C1097.1124,4106.28621 1098.1864,4105.64821 1097.3414,4104.84621 C1098.0104,4104.56521 1098.1394,4103.74421 1099.3014,4103.95521 C1098.7434,4103.74121 1098.2464,4103.46721 1097.6974,4103.24321 C1098.4644,4102.81621 1097.8634,4102.55821 1097.5194,4102.17421 C1097.6424,4101.61521 1097.9944,4101.94221 1098.4104,4101.99521 C1098.5464,4101.32621 1097.4644,4101.87321 1097.6974,4101.10521 C1097.9654,4097.59421 1097.3224,4092.05721 1103.9334,4091.66221 C1120.3444,4090.68221 1188.38225,4092.68421 1207.28125,4091.84121 C1223.61925,4091.11121 1240.40525,4090.67021 1253.60325,4091.30621 C1253.31425,4093.31221 1254.39325,4094.97621 1253.06825,4097.54121 Z" id="Path"></path>
        </g>
    </g>
</svg>