<?xml version="1.0" encoding="UTF-8"?>
<svg width="234px" height="26px" viewBox="0 0 234 26" version="1.1" xmlns="http://www.w3.org/2000/svg" xmlns:xlink="http://www.w3.org/1999/xlink">
    <title>Path</title>
    <g id="R5---Dev-Facing" stroke="none" stroke-width="1" fill="none" fill-rule="evenodd" opacity="0.57">
        <g id="Homepage---Desktop" transform="translate(-447, -4087)" fill="#798BFB">
            <path d="M678.280391,4095.95147 C678.311391,4096.33847 677.649391,4096.03247 677.391391,4096.13047 C677.419391,4096.33847 677.715391,4096.28047 677.925391,4096.30847 C677.815391,4096.89647 676.539391,4096.35347 675.965391,4096.30847 C676.360391,4096.98147 677.696391,4096.71547 678.459391,4097.02147 C677.786391,4097.57147 677.557391,4097.86847 676.678391,4097.91147 C676.793391,4098.09247 677.087391,4098.09547 677.034391,4098.44647 C676.462391,4098.00647 675.788391,4098.97147 675.430391,4098.80247 C676.167391,4099.22847 676.536391,4098.97247 677.391391,4099.33647 C677.432391,4100.03147 676.289391,4099.54247 676.143391,4100.04947 C676.523391,4100.50147 677.614391,4100.24247 677.568391,4101.11847 C677.272391,4101.11847 676.975391,4101.11847 676.678391,4101.11847 C676.826391,4101.62347 677.772391,4101.33047 678.103391,4101.65347 C677.970391,4102.05447 677.103391,4101.72247 676.678391,4101.83147 C677.092391,4102.18847 677.786391,4102.26747 677.925391,4102.90047 C675.956391,4102.92247 677.947391,4103.82147 676.143391,4103.61347 C677.466391,4103.95147 677.060391,4104.74947 677.746391,4105.03847 C677.507391,4105.57047 676.989391,4105.82547 676.321391,4105.92847 C676.562391,4106.34147 677.661391,4105.89547 677.746391,4106.46347 C678.098391,4107.13347 676.833391,4107.06647 677.391391,4107.35447 C642.244391,4107.02347 516.792906,4109.99147 484.085906,4109.67047 C473.675906,4109.53947 454.653906,4115.17847 447.027906,4109.49247 C447.315906,4109.44247 447.334906,4109.66047 447.562906,4109.67047 C447.012906,4109.06147 446.948906,4107.54147 447.384906,4106.46347 C447.614906,4106.21747 448.158906,4106.28747 448.631906,4106.28547 C448.576906,4105.09347 447.837906,4105.18947 447.562906,4103.96947 C448.611906,4104.20547 447.940906,4104.00947 448.275906,4103.25647 C449.052906,4103.24147 449.376906,4103.48247 449.700906,4103.25647 C449.693906,4102.36147 448.755906,4103.50147 448.453906,4102.90047 C448.455906,4102.43147 448.354906,4101.71647 448.809906,4102.18747 C448.868906,4101.41547 447.822906,4101.74947 447.918906,4100.94047 C448.954906,4100.85547 448.694906,4102.06447 449.878906,4101.83147 C449.107906,4101.65247 449.041906,4100.76747 448.097906,4100.76247 C448.801906,4099.54347 447.774906,4097.90147 448.987906,4097.02147 C448.113906,4095.25747 449.245906,4093.74147 449.878906,4091.85447 C459.5898,4091.54552 479.152238,4090.91156 497.500977,4090.47656 C558.023767,4089.04172 647.227215,4087.54002 680.775391,4088.11247 C679.713391,4089.42847 679.496391,4090.72747 679.706391,4092.03247 C679.499391,4092.18247 679.229391,4092.26747 678.815391,4092.21047 C678.932391,4092.39247 679.225391,4092.39447 679.172391,4092.74547 C678.475391,4092.77047 678.460391,4093.35247 677.746391,4092.92347 C677.720391,4093.48447 678.740391,4092.99847 678.459391,4093.81447 C677.865391,4093.81347 677.272391,4093.81447 676.678391,4093.81447 C677.043391,4094.27947 677.809391,4094.34547 678.459391,4094.52647 C677.642391,4094.48147 677.754391,4095.36547 677.034391,4095.41747 C677.718391,4095.49047 677.514391,4095.74247 678.280391,4095.95147 Z" id="Path"></path>
        </g>
    </g>
</svg>