<?xml version="1.0" encoding="UTF-8"?>
<svg width="115px" height="22px" viewBox="0 0 115 22" version="1.1" xmlns="http://www.w3.org/2000/svg" xmlns:xlink="http://www.w3.org/1999/xlink">
    <title>Path</title>
    <g id="R5---Dev-Facing" stroke="none" stroke-width="1" fill="none" fill-rule="evenodd" opacity="0.57">
        <g id="Homepage---Desktop" transform="translate(-200, -4115)" fill="#FF8300">
            <path d="M312.983594,4128.0052 C312.961594,4128.3992 312.227594,4128.0812 311.914594,4128.1832 C312.172594,4128.5792 312.975594,4128.4292 313.340594,4128.7182 C313.420594,4129.2142 312.368594,4128.5782 312.449594,4129.0742 C312.269594,4129.6102 312.846594,4129.3902 313.162594,4129.4312 C312.243594,4129.9272 312.284594,4131.1102 311.380594,4131.2122 C311.703594,4131.3642 311.871594,4131.6712 312.271594,4131.7472 C311.975594,4131.9892 312.517594,4132.8872 311.558594,4132.8162 C312.029594,4133.3892 312.314594,4133.4582 312.271594,4134.2412 C312.064594,4134.0912 311.793594,4134.0062 311.380594,4134.0632 C311.385594,4134.2362 311.598594,4134.2012 311.736594,4134.2412 C288.397594,4135.9932 237.404328,4134.8492 210.737328,4136.2012 C208.150328,4136.3322 204.105328,4135.8952 202.185328,4134.5972 C201.981328,4134.0372 202.465328,4134.1642 202.542328,4133.8852 C202.013328,4133.8372 201.976328,4133.2122 201.651328,4132.2812 C201.387328,4132.4872 201.202328,4132.4872 200.938328,4132.2812 C201.206328,4131.8992 201.374328,4132.4092 201.829328,4132.1032 C201.314328,4131.9652 201.209328,4131.4172 201.117328,4130.8562 C201.402328,4130.9672 202.140328,4130.2992 202.542328,4129.9652 C202.422328,4129.3132 201.659328,4129.2992 202.364328,4128.7182 C202.157328,4128.5682 201.886328,4128.4832 201.473328,4128.5402 C201.476328,4128.0512 202.313328,4128.1162 202.542328,4128.3622 C202.732328,4127.4102 202.099328,4128.3842 202.185328,4127.6492 C202.381328,4126.9302 203.419328,4127.7132 203.967328,4127.1142 C203.948328,4125.8822 201.671328,4126.4772 203.789328,4125.5112 C202.526328,4125.4282 202.931328,4124.7182 201.829328,4124.6202 C202.214328,4122.0062 201.813328,4118.4242 203.611328,4115.8902 C231.074328,4114.6862 284.593594,4115.4512 314.943594,4114.9992 C314.917594,4115.3892 314.494594,4115.3822 314.052594,4115.3562 C313.999594,4115.8242 314.743594,4115.4962 314.587594,4116.0682 L314.052594,4116.0682 C314.213594,4116.5832 315.241594,4117.5732 314.052594,4118.2062 C314.605594,4118.4142 313.957594,4118.7212 314.587594,4118.7412 C314.184594,4119.3562 313.413594,4118.9002 314.052594,4119.8102 C313.845594,4119.9592 313.574594,4120.0452 313.162594,4119.9882 C312.941594,4120.5642 313.738594,4120.1242 313.518594,4120.7002 C313.098594,4120.6972 312.993594,4121.0072 312.449594,4120.8792 C312.588594,4121.3932 313.310594,4121.3242 313.696594,4121.5912 C313.534594,4122.0232 312.980594,4122.0642 312.449594,4122.1262 C313.145594,4122.2612 313.399594,4122.8392 314.052594,4123.0172 C313.358594,4123.0942 313.305594,4123.8142 312.449594,4123.7292 C312.452594,4124.2602 313.289594,4123.9582 313.518594,4124.2642 C313.475594,4124.5782 313.211594,4124.6702 312.805594,4124.6202 C313.635594,4125.3882 312.975594,4126.3842 311.558594,4126.7582 C312.061594,4127.4372 312.653594,4127.0492 312.983594,4128.0052 Z" id="Path"></path>
        </g>
    </g>
</svg>