<?xml version="1.0" encoding="UTF-8"?>
<svg width="1440px" height="91px" viewBox="0 0 1440 91" version="1.1" xmlns="http://www.w3.org/2000/svg" xmlns:xlink="http://www.w3.org/1999/xlink">
    <title>Path 8</title>
    <g id="R5---Dev-Facing" stroke="none" stroke-width="1" fill="none" fill-rule="evenodd">
        <g id="Homepage---Desktop" transform="translate(0, -4273)" fill="#2B3990">
            <path d="M0,4308.34976 C21.5,4295.13396 55.9166667,4288.52607 103.25,4288.52607 C174.25,4288.52607 197.5,4312.24645 289.75,4312.24645 C382,4312.24645 400.25,4273 488.5,4273 C576.75,4273 606,4311.81517 687.75,4311.81517 C769.5,4311.81517 819.25,4275.58768 907,4275.58768 C994.75,4275.58768 1020.75,4312.38033 1111.75,4311.81517 C1202.75,4311.25 1247.5,4275.5 1312.75,4275.58768 C1356.25,4275.64613 1398.66667,4285.51343 1440,4305.18957 L1440,4364 L0,4364 L0,4308.34976 Z" id="Path-8"></path>
        </g>
    </g>
</svg>