<?xml version="1.0" encoding="UTF-8"?>
<svg width="1440px" height="91px" viewBox="0 0 1440 91" version="1.1" xmlns="http://www.w3.org/2000/svg" xmlns:xlink="http://www.w3.org/1999/xlink">
    <title>Path 8</title>
    <g id="R5---Dev-Facing" stroke="none" stroke-width="1" fill="none" fill-rule="evenodd">
        <g id="Homepage---Desktop" transform="translate(0, -8103)" fill="#FFFFFF">
            <path d="M0,8138.34976 C21.5,8125.13396 55.9166667,8118.52607 103.25,8118.52607 C174.25,8118.52607 197.5,8142.24645 289.75,8142.24645 C382,8142.24645 400.25,8103 488.5,8103 C576.75,8103 606,8141.81517 687.75,8141.81517 C769.5,8141.81517 819.25,8105.58768 907,8105.58768 C994.75,8105.58768 1020.75,8142.38033 1111.75,8141.81517 C1202.75,8141.25 1247.5,8105.5 1312.75,8105.58768 C1356.25,8105.64613 1398.66667,8115.51343 1440,8135.18957 L1440,8194 L0,8194 L0,8138.34976 Z" id="Path-8"></path>
        </g>
    </g>
</svg>