<?xml version="1.0" encoding="UTF-8"?>
<svg width="47px" height="45px" viewBox="0 0 47 45" version="1.1" xmlns="http://www.w3.org/2000/svg" xmlns:xlink="http://www.w3.org/1999/xlink">
    <title>Group 103</title>
    <defs>
        <polygon id="path-1" points="0 0.2271 1 0.2271 1 0.7729 0 0.7729"></polygon>
        <polygon id="path-3" points="0 0 10.2981937 0 10.2981937 43.2748 0 43.2748"></polygon>
        <polygon id="path-5" points="0 0.0745709621 1 0.0745709621 1 0.925429038 0 0.925429038"></polygon>
        <polygon id="path-7" points="0.2233 0 0.7767 0 0.7767 1 0.2233 1"></polygon>
        <polygon id="path-9" points="0 0 45.524 0 45.524 6.01716573 0 6.01716573"></polygon>
        <polygon id="path-11" points="0.0692446314 0 0.930755369 0 0.930755369 1 0.0692446314 1"></polygon>
    </defs>
    <g id="R5---Dev-Facing" stroke="none" stroke-width="1" fill="none" fill-rule="evenodd" opacity="0.65062314">
        <g id="Homepage---Desktop" transform="translate(-1376, -1471)">
            <g id="Group-103" transform="translate(1376, 1471)">
                <g id="Group-3" transform="translate(18.8712, 0)">
                    <mask id="mask-2" fill="white">
                        <use xlink:href="#path-1"></use>
                    </mask>
                    <g id="Clip-2"></g>
                    <path d="M0.576666915,0.3189 C0.481666915,0.1649 0.290666915,0.4389 0.433666915,0.2269 C0.572666915,0.2339 0.679666915,0.2539 0.576666915,0.3189" id="Fill-1" fill="#FFFFFF" mask="url(#mask-2)"></path>
                </g>
                <g id="Group-6" transform="translate(16.9227, 0.7353)">
                    <mask id="mask-4" fill="white">
                        <use xlink:href="#path-3"></use>
                    </mask>
                    <g id="Clip-5"></g>
                    <path d="M9.00319372,42.978 C8.03119372,42.636 8.77319372,41.78 8.10519372,41.325 C8.05519372,41.265 8.58519372,41.247 8.44119372,41.121 C7.65519372,40.705 7.89319372,39.759 8.28519372,38.991 L8.42719372,39.005 C8.50019372,38.859 8.02419372,38.789 8.06019372,38.642 C8.14919372,38.624 8.19519372,38.661 8.31219372,38.607 C8.03619372,38.625 8.14019372,38.387 7.92819372,38.368 C8.02319372,38.295 8.23819372,38.259 8.34319372,38.167 L8.02119372,38.149 C7.24919372,38.073 7.97319372,37.617 7.54119372,37.395 C7.61519372,37.396 7.67619372,37.415 7.74119372,37.378 C7.20819372,36.991 7.18019372,36.386 6.91919372,35.889 C7.03119372,35.89 7.23219372,35.873 7.34919372,35.819 C7.02019372,35.853 6.90819372,35.705 6.81819372,35.576 C7.13919372,35.451 6.47019372,35.389 6.62319372,35.19 L6.69919372,35.19 C6.32919372,35.132 6.86719372,34.972 6.43119372,34.949 L6.67919372,34.823 C6.20019372,34.855 6.89019372,34.601 6.63219372,34.543 L6.53719372,34.564 C6.40619372,34.489 6.63219372,34.397 6.53719372,34.322 L6.58919372,34.304 C6.42919372,34.119 6.66819372,33.951 6.30319372,34.023 C6.58319372,33.897 6.47319372,34.199 6.87919372,34.008 C6.37819372,33.394 6.32219372,32.677 6.19719372,31.99 C6.33019372,31.886 6.36619372,31.828 6.50219372,31.786 C6.41619372,31.73 6.39019372,31.539 6.19119372,31.51 C6.20319372,31.532 6.37119372,31.432 6.38219372,31.393 C6.49919372,31.244 5.95619372,31.327 6.09619372,31.161 C6.20319372,31.198 6.32519372,31.196 6.45819372,31.154 C6.15119372,31.087 6.17019372,30.922 6.05219372,30.8 C6.11819372,30.811 6.16119372,30.838 6.27519372,30.812 C5.92419372,30.717 6.29519372,30.524 6.06719372,30.427 L6.28719372,30.44 C6.50719372,30.182 5.83319372,30.454 5.95219372,30.243 C6.02719372,30.275 6.10719372,30.245 6.19519372,30.238 C5.77919372,30.133 5.85919372,29.832 5.69919372,29.682 C5.73019372,29.687 5.78819372,29.674 5.78819372,29.674 C5.70819372,29.495 5.79419372,29.278 5.59119372,29.101 C5.67319372,29.01 6.11319372,29.037 6.00119372,28.852 C5.57719372,28.932 5.76919372,28.545 5.30819372,28.743 C5.34819372,28.562 5.46319372,28.266 5.29919372,28.178 C5.47319372,28.227 5.80519372,28.008 5.86519372,28.142 L6.10519372,27.992 C6.28119372,27.979 6.06419372,28.112 6.27819372,28.041 C6.24819372,27.974 6.04519372,27.796 6.10419372,27.722 C5.82119372,27.635 5.31419372,27.596 5.22419372,27.393 C5.40719372,27.465 5.68419372,27.258 5.76819372,27.313 L4.90319372,27.153 C4.87119372,27.086 5.23719372,27.082 5.10919372,26.999 C4.99719372,27.022 4.92019372,26.989 4.82319372,26.974 C4.86819372,26.939 4.67019372,26.697 5.08419372,26.597 C5.24219372,26.539 5.19019372,26.698 5.32719372,26.595 C5.30219372,26.466 5.15719372,26.483 5.12919372,26.354 L5.18519372,26.342 C5.23419372,26.246 4.96519372,26.118 4.74919372,26.249 C4.74519372,26.311 4.99719372,26.185 4.88919372,26.294 C4.63619372,26.273 4.54319372,26.133 4.51719372,26.003 C4.59219372,26.037 4.70319372,26.013 4.82519372,26.011 C4.46719372,25.89 4.33219372,25.721 4.16219372,25.547 C3.96219372,25.576 4.53719372,25.561 4.43719372,25.607 C4.67319372,25.311 3.96019372,25.152 4.33019372,24.878 C4.37119372,24.906 4.05019372,24.942 4.10519372,24.93 C4.11019372,24.805 4.40019372,24.764 4.28119372,24.703 C4.44919372,24.668 4.21019372,24.613 4.14519372,24.54 C4.01619372,24.517 4.22519372,24.505 4.25419372,24.573 C4.09319372,24.483 3.76119372,24.071 3.96719372,23.77 C3.85519372,23.793 3.53019372,23.675 3.53319372,23.613 L3.79919372,23.595 C3.94719372,23.515 3.74519372,23.397 3.96819372,23.351 C3.62919372,23.273 4.31719372,23.803 4.04419372,23.668 C4.25619372,23.589 3.58719372,23.492 3.95119372,23.473 C3.92219372,23.354 3.60919372,23.283 3.83619372,23.129 C3.79919372,23.169 4.21619372,23.17 4.18219372,23.076 C4.10819372,22.911 4.04819372,23.047 3.93919372,22.921 L3.81819372,22.85 C3.56119372,22.885 3.82819372,22.691 3.55219372,22.8 C3.76019372,22.746 3.38319372,22.571 3.81019372,22.522 L4.14819372,22.494 C4.11119372,22.424 3.77619372,22.427 3.62019372,22.392 C3.64919372,22.377 3.71319372,22.347 3.76819372,22.343 C3.25419372,22.41 3.78219372,22.159 3.37419372,22.132 C3.52619372,21.949 3.32819372,21.733 3.63619372,21.611 C3.46219372,21.515 3.26219372,21.434 3.35119372,21.28 C3.40419372,21.3 3.42419372,21.335 3.53519372,21.326 C3.67219372,21.217 3.53519372,21.217 3.44019372,21.151 C3.51919372,21.157 3.71319372,20.934 3.88019372,20.811 C3.70919372,20.715 3.43919372,20.798 3.26919372,20.812 C3.75819372,20.626 2.89219372,20.524 3.33019372,20.319 C3.40619372,20.35 3.60419372,20.455 3.71619372,20.337 C4.20419372,20.152 3.31019372,20.174 3.52619372,19.962 L3.11419372,20.068 C3.36119372,19.951 2.83119372,19.846 3.26119372,19.8 C3.10119372,19.764 3.36919372,19.572 2.96319372,19.653 C3.26519372,19.313 2.64819372,18.982 3.35619372,18.697 C3.28219372,18.665 3.33719372,18.552 3.13019372,18.604 C2.91219372,18.706 3.30619372,18.676 3.15519372,18.724 C3.13719372,18.689 3.02419372,18.698 2.96719372,18.702 C3.04719372,18.598 3.06619372,18.524 3.41919372,18.558 C3.64319372,18.322 2.69419372,18.455 2.81619372,18.177 C2.98819372,18.164 3.04919372,18.135 3.01119372,18.065 L2.70119372,17.966 C2.74419372,17.792 3.07319372,17.817 3.35919372,17.771 C3.29619372,17.69 3.29419372,17.581 3.07519372,17.572 L3.41919372,17.414 C3.17119372,17.529 3.23519372,17.367 3.16019372,17.335 L3.23519372,17.367 C3.35619372,17.333 3.26619372,17.242 3.22219372,17.196 C3.04719372,17.234 2.99019372,17.348 2.94619372,17.412 C2.81419372,17.385 2.83319372,17.311 2.67619372,17.273 C2.96019372,17.252 2.85519372,17.101 2.87419372,17.027 C2.92319372,16.939 2.60919372,16.973 2.61519372,16.949 C2.76119372,16.926 2.62119372,16.814 2.83419372,16.848 C2.88619372,16.868 2.70219372,16.93 2.83719372,16.957 C2.93819372,16.889 3.19319372,16.858 2.99119372,16.775 C2.84019372,16.713 2.43919372,16.876 2.59419372,16.694 C2.67019372,16.725 2.78319372,16.717 2.88919372,16.734 L3.01419372,16.567 L2.75719372,16.597 C2.81919372,16.568 2.84419372,16.579 2.87619372,16.565 C2.60019372,16.559 2.76019372,16.353 2.45219372,16.363 C2.41419372,16.293 2.60819372,16.182 2.62719372,16.107 L2.65219372,16.117 C2.79019372,16.01 2.67519372,15.909 2.49219372,15.861 L2.54919372,15.857 C2.56219372,15.807 2.50619372,15.701 2.34819372,15.663 C2.52419372,15.517 3.31019372,15.487 2.96919372,15.401 C2.94319372,15.281 2.47319372,15.277 2.31519372,15.349 C2.45819372,15.108 2.00619372,14.919 2.37619372,14.662 C2.26819372,14.645 2.20519372,14.674 2.13619372,14.618 C2.19219372,14.285 1.73819372,13.986 2.20719372,13.663 C2.32719372,13.741 2.46419372,13.634 2.61019372,13.612 C2.37019372,13.567 2.83619372,13.488 2.43819372,13.514 C2.20819372,13.553 2.09419372,13.561 2.01319372,13.664 C1.86219372,13.49 1.82419372,13.2 2.02619372,13.065 C1.92619372,13.133 1.84919372,13.101 1.77419372,13.069 C2.14619372,13.033 2.18319372,12.885 2.03819372,12.796 L1.81119372,12.812 L2.03319372,12.711 C1.95619372,12.68 1.55519372,12.73 1.75719372,12.595 C1.84419372,12.578 1.93219372,12.56 1.99419372,12.532 C1.79419372,12.447 1.46119372,12.333 1.63619372,12.188 L1.95219372,12.047 C1.90919372,12.001 1.69919372,11.941 1.61719372,12.044 C1.78819372,11.813 1.79519372,11.679 2.07119372,11.577 C1.33119372,11.318 1.23419372,10.811 1.23319372,10.396 L1.40319372,10.387 C1.54719372,10.257 1.10119372,10.368 1.20919372,10.276 C1.37419372,10.291 1.54819372,10.147 1.75619372,10.208 C1.91419372,10.028 1.43819372,10.044 1.34819372,9.952 C1.12419372,9.964 1.50019372,10.015 1.21619372,10.032 C1.13519372,10.024 1.36219372,9.792 1.02319372,9.811 C1.15019372,9.755 1.40119372,9.754 1.54019372,9.758 L1.36419372,9.683 C1.74119372,9.515 2.09919372,9.86 2.56619372,9.675 L2.50219372,9.594 C2.84319372,9.465 2.92819372,9.776 3.02119372,9.54 C2.84319372,9.465 2.34619372,9.445 2.20819372,9.549 C2.09019372,9.361 1.39619372,9.559 1.39719372,9.34 C1.58719372,9.256 1.46619372,9.506 1.73719372,9.429 C1.99519372,9.294 1.56019372,9.245 1.64419372,9.143 C1.53019372,9.259 1.18019372,9.218 1.11019372,9.16 C1.25519372,9.031 1.43719372,9.191 1.45219372,9.032 C1.25519372,9.031 1.09119372,8.906 0.972193715,9.047 C0.526193715,9.046 1.07319372,8.87 0.722193715,8.828 C1.02419372,8.739 1.45719372,8.898 1.58919372,8.708 C1.29519372,8.773 1.15819372,8.549 0.728193715,8.694 C0.805193715,8.617 1.03919372,8.58 1.22719372,8.606 C1.39919372,8.488 0.655193715,8.442 1.24119372,8.337 L0.933193715,8.342 C1.02719372,8.295 1.09919372,8.258 1.25519372,8.179 C1.25019372,8.094 0.809193715,7.959 1.27019372,7.909 C1.21919372,7.888 1.21619372,7.693 0.907193715,7.807 C0.728193715,7.951 1.15619372,7.916 0.735193715,8.036 C1.07519372,7.907 0.668193715,7.869 0.542193715,7.814 L0.719193715,7.781 C0.644193715,7.748 0.672193715,7.649 0.476193715,7.647 C0.582193715,7.666 0.701193715,7.634 0.740193715,7.596 L0.464193715,7.586 C0.309193715,7.436 0.935193715,7.488 0.837193715,7.335 L1.06119372,7.433 C1.01319372,7.412 1.26019372,7.325 1.16619372,7.258 C0.915193715,7.25 0.612193715,7.241 0.417193715,7.235 C0.298193715,7.156 0.691193715,7.16 0.426193715,7.1 L0.738193715,7.182 C0.821193715,7.19 1.13619372,7.053 1.11519372,6.931 C1.02019372,6.863 0.649193715,6.785 0.528193715,6.925 C0.516193715,6.864 0.657193715,6.76 0.843193715,6.787 C0.741193715,6.658 0.579193715,6.837 0.412193715,6.736 C0.570193715,6.667 0.786193715,6.485 1.01419372,6.364 L1.44319372,6.439 L1.43619372,6.356 C1.78119372,6.423 1.68219372,6.271 2.03919372,6.289 C2.08619372,6.226 1.95919372,6.171 1.86119372,6.127 C1.32219372,6.361 1.07419372,6.033 0.571193715,6.143 C0.403193715,5.931 1.79319372,5.852 0.966193715,5.709 C0.838193715,5.764 0.437193715,5.698 0.602193715,5.824 C0.640193715,5.676 0.0781937152,5.789 0.269193715,5.596 C0.494193715,5.695 0.769193715,5.402 1.09519372,5.545 C0.925193715,5.553 0.979193715,5.66 1.02919372,5.682 C1.21919372,5.6 1.54519372,5.632 1.52719372,5.488 C1.46819372,5.405 1.44319372,5.285 1.17919372,5.334 C0.888193715,5.372 1.22719372,5.465 0.925193715,5.444 C0.802193715,5.279 1.24319372,5.197 0.716193715,5.185 C0.771193715,5.292 0.473193715,5.356 0.272193715,5.377 L0.135193715,5.262 L0.332193715,5.264 C0.448193715,5.039 -0.0268062848,5.244 0.00119371517,5.035 L0.374193715,4.896 C0.710193715,4.905 0.261193715,5.207 0.795193715,5.108 C0.801193715,4.974 0.523193715,4.962 0.648193715,4.822 C0.697193715,4.845 0.715193715,4.881 0.766193715,4.902 C0.778193715,4.853 1.48619372,4.723 1.04719372,4.585 C0.873193715,4.507 0.852193715,4.582 0.651193715,4.603 C0.566193715,4.399 0.353193715,4.36 0.306193715,4.227 C0.702193715,4.21 0.317193715,3.983 0.736193715,4.087 C0.513193715,4.182 0.571193715,4.485 0.954193715,4.516 C1.41119372,4.385 0.908193715,4.689 1.38419372,4.679 C1.37619372,4.509 1.83519372,4.464 2.13219372,4.402 C2.14819372,4.353 2.01519372,4.322 1.96619372,4.3 C1.68119372,4.313 1.69219372,4.373 1.40219372,4.411 C1.45719372,4.214 1.27819372,4.051 0.990193715,3.978 C1.12319372,3.9 1.40819372,3.887 1.44319372,3.959 C1.33419372,3.744 1.34519372,3.501 1.40619372,3.279 C0.960193715,3.468 1.27019372,3.054 0.897193715,3.19 C0.807193715,3.316 0.490193715,3.451 0.276193715,3.411 C0.297193715,3.336 0.478193715,3.391 0.573193715,3.35 C0.311193715,3.287 0.961193715,3.164 0.553193715,3.119 C0.726193715,3.307 1.12019372,3.096 1.48519372,3.093 C1.26519372,2.969 1.74319372,3.071 1.72619372,2.925 C1.50919372,2.801 1.33019372,2.638 1.23319372,2.483 C1.55219372,2.241 1.18219372,1.964 1.14819372,1.783 C1.32119372,1.667 1.73619372,1.688 1.79619372,1.576 C1.77519372,1.455 1.36519372,1.715 1.53219372,1.514 L1.61519372,1.522 C1.51519372,1.478 1.85719372,1.161 1.26419372,1.172 L1.71319372,1.179 C1.75019372,1.141 1.64519372,1.121 1.59419372,1.099 C1.73819372,1.081 1.86519372,1.028 1.96619372,1.072 C2.25919372,0.928 1.89219372,0.844 1.86619372,0.725 L1.61319372,0.831 C1.38519372,0.647 1.62919372,0.48 1.51619372,0.289 L1.77319372,0.267 L1.60619372,0.165 C1.85819372,0.167 2.00619372,0.04 1.79219372,0 L2.45319372,0.241 C2.31119372,0.343 2.13319372,0.181 1.88619372,0.262 C1.67019372,0.332 1.76119372,0.51 2.01119372,0.513 C2.03219372,0.439 1.97519372,0.442 1.87619372,0.397 C2.23019372,0.334 2.22819372,0.444 2.47219372,0.471 C2.45419372,0.435 2.55619372,0.371 2.44319372,0.375 C2.62419372,0.429 2.65919372,0.5 2.68219372,0.62 C2.53319372,0.553 2.46519372,0.689 2.36019372,0.669 C2.67519372,0.644 2.78519372,0.75 2.71319372,0.91 C2.36219372,1.057 2.97819372,1.167 2.89619372,1.352 C2.57119372,1.316 2.30619372,1.253 2.16519372,1.162 C2.01819372,1.288 2.18819372,1.282 2.03919372,1.409 C2.28219372,1.437 2.65019372,1.434 2.81019372,1.561 L2.57619372,1.595 C2.71019372,1.711 3.05719372,1.673 3.01019372,1.844 C2.92519372,2.139 2.95819372,2.429 2.95419372,2.646 L2.72119372,2.68 C3.23619372,2.744 2.95219372,3.057 3.19319372,3.193 C2.99919372,3.492 3.48519372,3.761 3.09719372,3.947 C3.33419372,4.409 3.55519372,4.809 3.53119372,5.318 L3.18119372,5.275 C3.44219372,5.335 2.99219372,5.356 3.05319372,5.438 C3.31219372,5.305 3.42119372,5.518 3.63719372,5.555 C3.39919372,5.809 3.72219372,6.06 3.98519372,6.228 L3.75119372,6.264 C4.21519372,6.41 3.85819372,6.694 3.81619372,6.951 C3.72319372,6.992 3.50919372,7.064 3.54319372,7.134 C3.93819372,7.223 3.92019372,7.296 4.18119372,7.464 C4.19819372,7.608 4.13419372,7.854 4.00519372,8.019 C4.60519372,8.494 4.33619372,9.09 4.72719372,9.612 L4.45819372,9.688 C5.11319372,10.158 4.66919372,10.897 5.03319372,11.323 L4.55819372,11.34 C4.43219372,11.506 4.72519372,11.657 5.05319372,11.575 C4.92819372,11.741 5.32919372,11.91 4.95519372,12.054 C4.88819372,12.216 5.19719372,12.208 5.27619372,12.324 C5.13819372,12.647 5.19419372,12.753 5.31919372,13.023 L5.33919372,12.949 C5.23119372,12.932 5.03219372,12.956 5.01119372,13.031 C5.15519372,13.119 4.93819372,13.435 5.48319372,13.254 C5.20119372,13.599 5.84419372,13.919 5.44919372,14.272 C5.59819372,14.226 5.63819372,14.296 5.74519372,14.313 C5.78919372,14.576 5.51519372,14.897 5.80519372,15.071 C5.73519372,15.124 5.53519372,15.041 5.53419372,15.15 C5.60219372,15.206 5.73519372,15.124 5.83119372,15.19 C6.17519372,15.577 5.65719372,16.098 5.78919372,16.476 C6.18519372,17.124 6.14019372,17.866 6.28519372,18.52 L6.17219372,18.53 C6.63319372,18.687 5.81119372,19.115 6.48319372,19.195 C6.38419372,19.263 6.46319372,19.402 6.24019372,19.396 C6.57019372,19.527 6.03019372,19.933 6.45419372,20.13 C6.46019372,20.105 6.43519372,20.095 6.38319372,20.075 C6.17419372,20.37 6.54719372,20.546 6.36419372,20.852 C6.31219372,20.832 6.26919372,20.787 6.15619372,20.796 C5.95619372,20.934 6.66719372,20.972 6.13519372,21.113 C6.14819372,21.172 6.41319372,21.114 6.39119372,21.079 C6.27019372,21.707 6.71919372,22.288 6.93819372,22.887 C6.68519372,23.382 6.03219372,23.058 6.49119372,23.344 C6.39119372,23.389 6.70019372,23.332 6.58919372,23.355 C6.76119372,23.466 6.01919372,23.662 6.31619372,23.711 C6.64219372,23.619 6.51219372,23.744 6.71419372,23.714 C6.54219372,24.02 6.25019372,24.122 6.53719372,24.296 L6.36019372,24.308 C6.89419372,24.48 6.67719372,24.813 7.28119372,24.932 C7.60719372,26.297 8.14419372,27.567 8.44019372,28.899 C8.55919372,30.246 9.04119372,31.5 8.98219372,32.901 C8.58219372,33.299 8.59919372,33.321 8.84719372,33.634 C8.77119372,33.633 8.74919372,33.615 8.68419372,33.651 C9.06219372,33.6 8.76419372,33.888 9.12719372,33.856 C9.14919372,34.367 9.33219372,34.807 9.43219372,35.318 C9.37619372,35.245 9.06319372,35.261 9.10519372,35.353 L9.36319372,35.409 L9.26119372,35.445 C9.32919372,35.5 9.52819372,35.537 9.63619372,35.447 C10.2001937,36.671 9.68519372,38.077 10.0241937,39.318 C9.92619372,39.647 10.1511937,40.045 10.2901937,40.354 C9.98219372,41.413 9.75519372,42.362 10.2981937,43.27 C10.2981937,43.27 9.30619372,43.338 9.00319372,42.978" id="Fill-4" fill="#FFFFFF" mask="url(#mask-4)"></path>
                </g>
                <g id="Group-9" transform="translate(18.7377, 0.1525)">
                    <mask id="mask-6" fill="white">
                        <use xlink:href="#path-5"></use>
                    </mask>
                    <g id="Clip-8"></g>
                    <path d="M0.77,0.357770962 C0.584,0.413770962 0.493,0.538770962 0.23,0.475770962 C0.407,0.444770962 0.599,0.364770962 0.77,0.357770962" id="Fill-7" fill="#FFFFFF" mask="url(#mask-6)"></path>
                </g>
                <path d="M17.8931,3.7643 C17.9501,3.7623 17.8211,3.8163 17.7921,3.8293 C17.7731,3.7933 17.6101,3.7763 17.7051,3.7353 C17.7221,3.7713 17.8121,3.7553 17.8931,3.7643" id="Fill-10" fill="#FFFFFF"></path>
                <path d="M17.8703,4.5569 C17.7003,4.5639 17.5473,4.4129 17.5153,4.3159 L17.8703,4.5569 Z" id="Fill-12" fill="#FFFFFF"></path>
                <path d="M17.2593,5.3641 C17.1243,5.4431 17.0443,5.4351 17.0393,5.3501 C17.1273,5.3331 17.1763,5.3561 17.2593,5.3641" id="Fill-14" fill="#FFFFFF"></path>
                <path d="M17.6487,5.3713 C17.6597,5.4313 17.5647,5.4723 17.4707,5.5133 C17.6157,5.4943 17.3647,5.3843 17.6487,5.3713" id="Fill-16" fill="#FFFFFF"></path>
                <path d="M17.3467,7.0069 C17.3647,7.0429 17.5147,7.1079 17.3317,7.1659 C17.4577,7.1109 17.0967,7.0079 17.3467,7.0069" id="Fill-18" fill="#FFFFFF"></path>
                <path d="M17.6903,7.7087 C17.6823,7.7337 17.6523,7.7467 17.7023,7.7687 C17.6313,7.8217 17.5023,7.7907 17.4823,7.7557 L17.6903,7.7087 Z" id="Fill-20" fill="#FFFFFF"></path>
                <polygon id="Fill-22" fill="#FFFFFF" points="20.1765 20.9143 20.0815 20.8483 20.2495 20.8343"></polygon>
                <path d="M21.0965,26.7183 C21.2145,26.7793 20.9485,26.7983 20.9255,26.8153 C20.8965,26.7473 21.1365,26.8083 21.0965,26.7183" id="Fill-24" fill="#FFFFFF"></path>
                <polygon id="Fill-26" fill="#FFFFFF" points="22.4525 29.7019 22.4445 29.6789 22.7875 29.6289"></polygon>
                <g id="Group-30" transform="translate(0, 24.2049)">
                    <mask id="mask-8" fill="white">
                        <use xlink:href="#path-7"></use>
                    </mask>
                    <g id="Clip-29"></g>
                    <path d="M0.3297,0.425579379 C0.1627,0.507579379 0.4297,0.720579379 0.2237,0.560579379 C0.2417,0.422579379 0.2717,0.318579379 0.3297,0.425579379" id="Fill-28" fill="#FFFFFF" mask="url(#mask-8)"></path>
                </g>
                <g id="Group-33" transform="translate(0.6973, 21.5792)">
                    <mask id="mask-10" fill="white">
                        <use xlink:href="#path-9"></use>
                    </mask>
                    <g id="Clip-32"></g>
                    <path d="M44.998,1.94111202 C44.48,2.84311202 43.738,1.96811202 43.158,2.55011202 C43.089,2.59011202 43.162,2.06411202 43.008,2.18611202 C42.45,2.89111202 41.528,2.50611202 40.81,1.99611202 L40.848,1.85711202 C40.712,1.76211202 40.561,2.22111202 40.417,2.16111202 C40.414,2.07111202 40.459,2.03111202 40.423,1.90711202 C40.395,2.18211202 40.17,2.04111202 40.115,2.24711202 C40.056,2.14211202 40.055,1.92411202 39.979,1.80611202 L39.907,2.12011202 C39.703,2.87011202 39.357,2.08511202 39.06,2.47711202 C39.072,2.40411202 39.101,2.34711202 39.075,2.27711202 C38.593,2.74311202 37.971,2.67711202 37.423,2.85811202 C37.442,2.74811202 37.456,2.54611202 37.42,2.42211202 C37.402,2.75211202 37.234,2.84011202 37.087,2.90911202 C37.011,2.57311202 36.842,3.22511202 36.663,3.04411202 L36.675,2.96811202 C36.557,3.32611202 36.479,2.77011202 36.387,3.19711202 L36.297,2.93411202 C36.255,3.41211202 36.104,2.69211202 36.005,2.93811202 L36.011,3.03511202 C35.914,3.15411202 35.855,2.91611202 35.765,2.99911202 L35.754,2.94511202 C35.54,3.07611202 35.406,2.81411202 35.422,3.18611202 C35.337,2.89011202 35.629,3.04411202 35.497,2.61411202 C34.792,3.01811202 34.052,2.96411202 33.332,2.99211202 C33.246,2.84411202 33.192,2.80011202 33.17,2.66011202 C33.1,2.73711202 32.901,2.73611202 32.841,2.92911202 C32.865,2.92011202 32.789,2.73911202 32.75,2.72211202 C32.615,2.58511202 32.619,3.13511202 32.47,2.97211202 C32.524,2.87211202 32.541,2.75111202 32.517,2.61311202 C32.403,2.90711202 32.237,2.86511202 32.095,2.96411202 C32.116,2.90111202 32.15,2.86211202 32.141,2.74511202 C31.991,3.07911202 31.849,2.68511202 31.716,2.89611202 L31.762,2.68011202 C31.531,2.42611202 31.709,3.13211202 31.511,2.98311202 C31.555,2.91311202 31.537,2.83011202 31.542,2.74211202 C31.373,3.13811202 31.077,3.01711202 30.901,3.15511202 C30.911,3.12511202 30.906,3.06611202 30.906,3.06611202 C30.711,3.12011202 30.502,3.00511202 30.291,3.18111202 C30.21,3.08811202 30.302,2.65611202 30.096,2.74211202 C30.116,3.17311202 29.749,2.92911202 29.885,3.41311202 C29.706,3.34811202 29.42,3.19411202 29.306,3.34411202 C29.381,3.17811202 29.205,2.81911202 29.351,2.77911202 L29.232,2.52011202 C29.244,2.34411202 29.349,2.57711202 29.307,2.35511202 C29.233,2.37611202 29.023,2.55211202 28.955,2.48411202 C28.825,2.75211202 28.714,3.24911202 28.493,3.31011202 C28.593,3.13911202 28.421,2.83611202 28.489,2.76111202 L28.204,3.59611202 C28.13,3.61811202 28.178,3.25611202 28.074,3.37111202 C28.083,3.48611202 28.038,3.55711202 28.009,3.65111202 C27.98,3.60211202 27.705,3.76711202 27.661,3.34311202 C27.623,3.17911202 27.778,3.25111202 27.692,3.10211202 C27.556,3.11011202 27.554,3.25511202 27.418,3.26611202 L27.414,3.21011202 C27.322,3.14911202 27.154,3.39811202 27.258,3.63011202 C27.321,3.64211202 27.227,3.37511202 27.324,3.49611202 C27.267,3.74411202 27.111,3.81811202 26.975,3.82611202 C27.019,3.75711202 27.011,3.64411202 27.026,3.52311202 C26.852,3.86211202 26.661,3.97311202 26.46,4.11811202 C26.463,4.32011202 26.526,3.74911202 26.559,3.85411202 C26.289,3.58111202 26.029,4.26711202 25.8,3.86411202 C25.834,3.82711202 25.827,4.15011202 25.823,4.09411202 C25.696,4.07211202 25.693,3.77911202 25.614,3.88911202 C25.601,3.71811202 25.512,3.94811202 25.429,4.00311202 C25.389,4.12811202 25.405,3.91911202 25.478,3.89911202 C25.364,4.04811202 24.899,4.32411202 24.619,4.08311202 C24.628,4.19611202 24.464,4.50411202 24.401,4.49311202 L24.418,4.22711202 C24.356,4.07011202 24.209,4.25611202 24.191,4.02911202 C24.067,4.35511202 24.699,3.74011202 24.525,3.99311202 C24.472,3.77311202 24.285,4.42411202 24.314,4.06111202 C24.188,4.07511202 24.074,4.37711202 23.947,4.13111202 C23.983,4.17411202 24.039,3.76011202 23.938,3.78211202 C23.76,3.83511202 23.89,3.91011202 23.748,4.00311202 L23.66,4.11511202 C23.661,4.37411202 23.499,4.08411202 23.574,4.37211202 C23.545,4.15911202 23.317,4.51111202 23.323,4.08111202 L23.338,3.74211202 C23.262,3.77011202 23.222,4.10211202 23.165,4.25311202 C23.154,4.22211202 23.132,4.15511202 23.134,4.10011202 C23.137,4.61811202 22.948,4.06211202 22.868,4.46511202 C22.7,4.29011202 22.455,4.46111202 22.369,4.14011202 C22.249,4.30111202 22.14,4.49011202 21.995,4.38311202 C22.022,4.33311202 22.06,4.31711202 22.065,4.20611202 C21.971,4.05611202 21.953,4.19311202 21.874,4.28011202 C21.89,4.20211202 21.686,3.98211202 21.582,3.80211202 C21.462,3.96011202 21.513,4.23811202 21.505,4.40811202 C21.377,3.90111202 21.165,4.74811202 21.009,4.28911202 C21.05,4.21711202 21.183,4.03311202 21.076,3.90711202 C20.948,3.40111202 20.859,4.29111202 20.669,4.05111202 L20.726,4.47311202 C20.637,4.21311202 20.464,4.72711202 20.47,4.29511202 C20.413,4.44911202 20.251,4.16011202 20.283,4.57311202 C19.973,4.23211202 19.559,4.80511202 19.353,4.06911202 C19.312,4.14011202 19.203,4.07211202 19.231,4.28411202 C19.309,4.51211202 19.326,4.11711202 19.357,4.27211202 C19.319,4.28611202 19.314,4.40011202 19.311,4.45711202 C19.215,4.36511202 19.141,4.33811202 19.219,3.99111202 C19.004,3.74211202 19.025,4.70011202 18.756,4.54611202 C18.763,4.37511202 18.741,4.31111202 18.665,4.34011202 L18.527,4.63711202 C18.354,4.57411202 18.418,4.25111202 18.406,3.96111202 C18.316,4.01411202 18.204,4.00311202 18.168,4.22011202 L18.047,3.86011202 C18.136,4.12011202 17.977,4.03711202 17.936,4.10911202 L17.977,4.03711202 C17.957,3.91411202 17.853,3.99311202 17.801,4.03111202 C17.819,4.21011202 17.929,4.27911202 17.989,4.33011202 C17.946,4.45811202 17.873,4.43111202 17.815,4.58311202 C17.827,4.29811202 17.66,4.38511202 17.587,4.35711202 C17.502,4.29811202 17.5,4.61411202 17.476,4.60611202 C17.469,4.45811202 17.339,4.58511202 17.398,4.37611202 C17.425,4.32811202 17.467,4.51811202 17.51,4.38711202 C17.453,4.27811202 17.451,4.02211202 17.343,4.21211202 C17.261,4.35511202 17.381,4.77211202 17.213,4.59811202 C17.254,4.52611202 17.258,4.41211202 17.289,4.30911202 L17.132,4.16611202 L17.133,4.42511202 C17.11,4.36011202 17.124,4.33711202 17.114,4.30311202 C17.076,4.57711202 16.883,4.39411202 16.858,4.70111202 C16.782,4.73011202 16.69,4.52611202 16.616,4.49911202 L16.63,4.47611202 C16.536,4.32611202 16.419,4.43011202 16.349,4.60611202 L16.351,4.55011202 C16.302,4.53111202 16.187,4.57511202 16.13,4.72911202 C16.001,4.53711202 16.06,3.75311202 15.933,4.08211202 C15.807,4.09511202 15.749,4.56211202 15.805,4.72711202 C15.574,4.55811202 15.33,4.98811202 15.109,4.59211202 C15.079,4.69811202 15.102,4.76311202 15.036,4.82611202 C14.702,4.73311202 14.345,5.15211202 14.067,4.65211202 C14.16,4.54011202 14.066,4.39311202 14.059,4.24511202 C13.987,4.47911202 13.957,4.00711202 13.94,4.40511202 C13.955,4.63911202 13.95,4.75311202 14.046,4.84411202 C13.852,4.97611202 13.551,4.98511202 13.435,4.77011202 C13.493,4.87611202 13.453,4.94911202 13.412,5.02011202 C13.415,4.64611202 13.268,4.59511202 13.161,4.73011202 L13.152,4.95711202 L13.073,4.72611202 C13.033,4.79911202 13.04,5.20411202 12.925,4.98911202 C12.916,4.90111202 12.907,4.81111202 12.885,4.74711202 C12.777,4.93611202 12.625,5.25611202 12.495,5.06711202 L12.385,4.73911202 C12.333,4.77611202 12.249,4.97911202 12.345,5.07111202 C12.128,4.87811202 11.991,4.85711202 11.916,4.57111202 C11.572,5.28111202 11.044,5.32511202 10.619,5.28711202 L10.627,5.11611202 C10.508,4.96011202 10.576,5.41511202 10.493,5.30011202 C10.525,5.13611202 10.397,4.94911202 10.48,4.74811202 C10.312,4.57311202 10.279,5.04911202 10.176,5.12911202 C10.166,5.35311202 10.257,4.98411202 10.244,5.26811202 C10.228,5.34811202 10.014,5.10011202 9.998,5.43911202 C9.954,5.30711202 9.978,5.05811202 9.996,4.92011202 L9.902,5.08711202 C9.769,4.69611202 10.159,4.37311202 10.017,3.89011202 L9.927,3.94611202 C9.829,3.59411202 10.158,3.53911202 9.924,3.42511202 C9.829,3.59411202 9.758,4.08711202 9.851,4.23411202 C9.646,4.33311202 9.778,5.04311202 9.554,5.02111202 C9.487,4.82411202 9.731,4.96811202 9.68,4.69111202 C9.567,4.42211202 9.474,4.85011202 9.377,4.75711202 C9.485,4.88111202 9.407,5.22511202 9.341,5.28911202 C9.223,5.13311202 9.406,4.96711202 9.244,4.93711202 C9.223,5.13311202 9.079,5.28311202 9.211,5.41611202 C9.166,5.86011202 9.04,5.29811202 8.963,5.64311202 C8.901,5.33411202 9.108,4.91911202 8.926,4.76911202 C8.963,5.06711202 8.72,5.18211202 8.826,5.62411202 C8.754,5.54011202 8.74,5.30411202 8.785,5.11911202 C8.681,4.93711202 8.561,5.67311202 8.511,5.07911202 L8.486,5.38711202 C8.452,5.28811202 8.406,5.21411202 8.35,5.05011202 C8.263,5.04711202 8.081,5.47311202 8.076,5.01011202 C8.049,5.05811202 7.849,5.04411202 7.936,5.36211202 C8.065,5.55311202 8.071,5.12411202 8.153,5.55411202 C8.055,5.20411202 7.975,5.60611202 7.907,5.72611202 L7.89,5.54711202 C7.85,5.61811202 7.751,5.58211202 7.729,5.77711202 C7.759,5.67311202 7.739,5.55111202 7.704,5.50911202 L7.667,5.78311202 C7.498,5.92411202 7.612,5.30511202 7.446,5.38911202 L7.568,5.17511202 C7.541,5.22111202 7.476,4.96711202 7.398,5.05511202 C7.374,5.30411202 7.324,5.60411202 7.302,5.79811202 C7.21,5.90911202 7.252,5.51911202 7.166,5.77711202 L7.279,5.47411202 C7.296,5.39111202 7.185,5.06511202 7.058,5.07611202 C6.98,5.16411202 6.864,5.52611202 6.996,5.65911202 C6.933,5.66511202 6.839,5.51611202 6.884,5.33311202 C6.743,5.42311202 6.911,5.60011202 6.791,5.75811202 C6.736,5.59411202 6.57,5.36211202 6.468,5.12411202 L6.586,4.70411202 L6.499,4.70311202 C6.601,4.36611202 6.435,4.45111202 6.488,4.09711202 C6.428,4.04411202 6.36,4.16511202 6.305,4.25911202 C6.494,4.81711202 6.134,5.03411202 6.199,5.54511202 C5.967,5.69311202 6.016,4.30111202 5.792,5.11211202 C5.836,5.24511202 5.732,5.63911202 5.876,5.48611202 C5.728,5.43411202 5.791,6.00411202 5.612,5.79611202 C5.734,5.58211202 5.459,5.28011202 5.635,4.96911202 C5.628,5.13911202 5.743,5.09511202 5.77,5.04711202 C5.704,4.85111202 5.767,4.52911202 5.617,4.53311202 C5.527,4.58511202 5.401,4.59811202 5.427,4.86611202 C5.439,5.16011202 5.566,4.83011202 5.516,5.12911202 C5.336,5.23611202 5.293,4.79011202 5.232,5.31411202 C5.346,5.26911202 5.384,5.57111202 5.388,5.77311202 L5.257,5.90011202 L5.277,5.70411202 C5.058,5.56911202 5.224,6.06011202 5.014,6.01411202 L4.905,5.63011202 C4.945,5.29611202 5.213,5.76911202 5.16,5.22911202 C5.024,5.21111202 4.986,5.48711202 4.855,5.35111202 C4.882,5.30411202 4.92,5.28911202 4.947,5.24111202 C4.898,5.22411202 4.829,4.50811202 4.648,4.93411202 C4.553,5.10011202 4.627,5.12711202 4.63,5.32911202 C4.414,5.39711202 4.355,5.60511202 4.216,5.64111202 C4.233,5.24511202 3.967,5.61011202 4.11,5.20111202 C4.188,5.43111202 4.502,5.39911202 4.568,5.02011202 C4.476,4.55311202 4.741,5.08111202 4.774,4.60511202 C4.599,4.59911202 4.595,4.13811202 4.558,3.83711202 C4.509,3.81611202 4.466,3.94611202 4.438,3.99311202 C4.426,4.27911202 4.489,4.27211202 4.501,4.56511202 C4.304,4.49411202 4.121,4.65811202 4.021,4.93811202 C3.952,4.79911202 3.965,4.51511202 4.041,4.48511202 C3.812,4.57611202 3.563,4.54511202 3.34,4.46411202 C3.496,4.92511202 3.098,4.58111202 3.206,4.96411202 C3.327,5.06511202 3.438,5.39211202 3.379,5.60211202 C3.304,5.57411202 3.375,5.39811202 3.341,5.30111202 C3.255,5.55611202 3.184,4.89811202 3.103,5.30111202 C3.311,5.14511202 3.128,4.73411202 3.157,4.37011202 C3.01,4.57911202 3.156,4.11111202 3.004,4.11511202 C2.858,4.32211202 2.676,4.48611202 2.509,4.56911202 C2.287,4.23111202 1.971,4.57911202 1.781,4.59811202 C1.677,4.41711202 1.732,4.00411202 1.622,3.93611202 C1.496,3.94711202 1.729,4.37711202 1.536,4.19411202 L1.552,4.11211202 C1.498,4.20811202 1.201,3.84211202 1.162,4.43411202 L1.207,3.98711202 C1.171,3.94811202 1.142,4.05111202 1.114,4.09911202 C1.109,3.95411202 1.064,3.82311202 1.118,3.72611202 C0.994,3.42311202 0.877,3.78211202 0.752,3.79811202 L0.84,4.05911202 C0.631,4.27211202 0.48,4.01511202 0.274,4.11311202 L0.273,3.85511202 L0.154,4.01311202 C0.177,3.76311202 0.059,3.60511202 0,3.81511202 L0.303,3.17511202 C0.397,3.32511202 0.214,3.48911202 0.278,3.74111202 C0.332,3.96311202 0.522,3.88711202 0.546,3.63711202 C0.472,3.61111202 0.47,3.66811202 0.415,3.76311202 C0.381,3.40511202 0.493,3.41511202 0.541,3.17411202 C0.503,3.19011202 0.445,3.08211202 0.44,3.19611202 C0.511,3.01911202 0.587,2.99011202 0.713,2.97711202 C0.631,3.12011202 0.765,3.19811202 0.736,3.30111202 C0.737,2.98511202 0.855,2.88411202 1.014,2.96811202 C1.135,3.33111202 1.3,2.72511202 1.484,2.82111202 C1.419,3.14311202 1.333,3.40211202 1.227,3.53511202 C1.345,3.69111202 1.353,3.52211202 1.471,3.68011202 C1.52,3.44011202 1.548,3.07311202 1.692,2.92411202 L1.707,3.16011202 C1.838,3.03611202 1.828,2.68611202 2,2.74711202 C2.296,2.85411202 2.598,2.84611202 2.822,2.86911202 L2.837,3.10311202 C2.947,2.59611202 3.246,2.90511202 3.407,2.67711202 C3.698,2.89611202 4.018,2.43411202 4.176,2.83711202 C4.673,2.64111202 5.108,2.45111202 5.63,2.52211202 L5.553,2.86811202 C5.639,2.61311202 5.619,3.06311202 5.709,3.00911202 C5.596,2.73911202 5.826,2.65111202 5.884,2.43911202 C6.123,2.69911202 6.413,2.40011202 6.611,2.15311202 L6.626,2.38911202 C6.821,1.94011202 7.08,2.32111202 7.34,2.38711202 C7.373,2.48311202 7.426,2.70311202 7.502,2.67511202 C7.632,2.29011202 7.706,2.31511202 7.905,2.07111202 C8.055,2.06611202 8.302,2.15411202 8.459,2.29811202 C9.009,1.74611202 9.596,2.07211202 10.174,1.73311202 L10.225,2.00911202 C10.777,1.40011202 11.494,1.91811202 11.971,1.59911202 L11.938,2.07411202 C12.095,2.21611202 12.282,1.94011202 12.233,1.60611202 C12.39,1.74611202 12.608,1.36511202 12.717,1.75211202 C12.875,1.83511202 12.901,1.52711202 13.03,1.46011202 C13.347,1.63011202 13.462,1.58611202 13.755,1.48911202 L13.681,1.46211202 C13.651,1.56711202 13.654,1.76811202 13.729,1.79711202 C13.835,1.66211202 14.137,1.91211202 14.011,1.35011202 C14.335,1.66811202 14.738,1.06311202 15.057,1.49511202 C15.026,1.34111202 15.103,1.31011202 15.132,1.20411202 C15.408,1.19011202 15.708,1.49711202 15.921,1.22711202 C15.967,1.30311202 15.858,1.49211202 15.971,1.50511202 C16.036,1.44411202 15.967,1.30311202 16.046,1.21411202 C16.486,0.913112024 16.961,1.48611202 17.366,1.39911202 C18.081,1.08011202 18.84,1.20911202 19.532,1.13911202 L19.527,1.25311202 C19.746,0.813112024 20.084,1.68111202 20.251,1.02311202 C20.309,1.12911202 20.462,1.06811202 20.427,1.28811202 C20.603,0.977112024 20.953,1.56211202 21.209,1.16511202 C21.184,1.15511202 21.171,1.17811202 21.144,1.22811202 C21.421,1.47111202 21.649,1.12211202 21.941,1.34011202 C21.913,1.39011202 21.862,1.42711202 21.856,1.54011202 C21.973,1.75511202 22.104,1.05411202 22.179,1.59911202 C22.242,1.59311202 22.217,1.32311202 22.178,1.34011202 C22.808,1.53611202 23.464,1.16711202 24.109,1.02411202 C24.584,1.33711202 24.164,1.94411202 24.519,1.52511202 C24.552,1.63011202 24.535,1.31611202 24.543,1.42911202 C24.681,1.27211202 24.782,2.03311202 24.872,1.74511202 C24.822,1.41011202 24.932,1.55411202 24.929,1.35011202 C25.22,1.56011202 25.286,1.86111202 25.503,1.59911202 L25.491,1.77711202 C25.74,1.27011202 26.053,1.52911202 26.258,0.946112024 C27.706,0.800112024 29.087,0.440112024 30.5,0.332112024 C31.901,0.402112024 33.263,0.104112024 34.692,0.370112024 C35.038,0.824112024 35.062,0.811112024 35.422,0.612112024 C35.41,0.688112024 35.387,0.706112024 35.414,0.776112024 C35.421,0.394112024 35.67,0.732112024 35.694,0.368112024 C36.221,0.423112024 36.702,0.305112024 37.242,0.287112024 C37.158,0.331112024 37.124,0.643112024 37.225,0.615112024 L37.324,0.369112024 L37.344,0.475112024 C37.412,0.417112024 37.482,0.226112024 37.407,0.105112024 C38.755,-0.262887976 40.111,0.464112024 41.438,0.331112024 C41.758,0.481112024 42.203,0.323112024 42.543,0.235112024 C43.574,0.714112024 44.502,1.09811202 45.524,0.713112024 C45.524,0.713112024 45.418,1.70211202 44.998,1.94111202" id="Fill-31" fill="#FFFFFF" mask="url(#mask-10)"></path>
                </g>
                <g id="Group-36" transform="translate(0.1541, 24.3596)">
                    <mask id="mask-12" fill="white">
                        <use xlink:href="#path-11"></use>
                    </mask>
                    <g id="Clip-35"></g>
                    <path d="M0.377644631,0.2265 C0.419644631,0.4165 0.540644631,0.5175 0.453644631,0.7735 C0.436644631,0.5955 0.370644631,0.3975 0.377644631,0.2265" id="Fill-34" fill="#FFFFFF" mask="url(#mask-12)"></path>
                </g>
                <path d="M3.7439,26.4567 C3.7469,26.3997 3.7909,26.5327 3.8019,26.5627 C3.7639,26.5787 3.7319,26.7397 3.6979,26.6417 C3.7369,26.6277 3.7279,26.5367 3.7439,26.4567" id="Fill-37" fill="#FFFFFF"></path>
                <path d="M4.5541,26.5469 C4.5471,26.7169 4.3781,26.8569 4.2771,26.8799 L4.5541,26.5469 Z" id="Fill-39" fill="#FFFFFF"></path>
                <path d="M5.3259,27.2245 C5.3949,27.3655 5.3799,27.4445 5.2919,27.4425 C5.2829,27.3525 5.3109,27.3065 5.3259,27.2245" id="Fill-41" fill="#FFFFFF"></path>
                <path d="M5.3683,26.8371 C5.4303,26.8311 5.4643,26.9301 5.4973,27.0261 C5.4913,26.8801 5.3553,27.1211 5.3683,26.8371" id="Fill-43" fill="#FFFFFF"></path>
                <path d="M7.0147,27.2827 C7.0537,27.2677 7.1347,27.1247 7.1767,27.3117 C7.1317,27.1817 6.9917,27.5327 7.0147,27.2827" id="Fill-45" fill="#FFFFFF"></path>
                <path d="M7.7659,27.0045 C7.7909,27.0155 7.8019,27.0455 7.8289,26.9985 C7.8759,27.0735 7.8319,27.1995 7.7939,27.2155 L7.7659,27.0045 Z" id="Fill-47" fill="#FFFFFF"></path>
                <polygon id="Fill-49" fill="#FFFFFF" points="21.5541 25.9269 21.4741 26.0129 21.4821 25.8449"></polygon>
                <path d="M27.6045,25.7439 C27.6835,25.6349 27.6655,25.9009 27.6805,25.9259 C27.6065,25.9459 27.7015,25.7159 27.6045,25.7439" id="Fill-51" fill="#FFFFFF"></path>
                <polygon id="Fill-53" fill="#FFFFFF" points="30.8425 24.8035 30.8175 24.8085 30.8165 24.4615"></polygon>
                <path d="M3.4981,10.9019 C3.3181,10.8469 3.3711,11.1859 3.3271,10.9269 C3.4351,10.8389 3.5281,10.7829 3.4981,10.9019" id="Fill-55" fill="#FFFFFF"></path>
                <path d="M41.1401,37.1339 C40.1951,37.5769 40.0731,36.4299 39.2591,36.5759 C39.1791,36.5679 39.5381,36.1779 39.3411,36.1889 C38.4741,36.4479 37.9231,35.6009 37.6171,34.7659 L37.7281,34.6739 C37.6691,34.5169 37.2811,34.8069 37.1951,34.6749 C37.2441,34.5989 37.3051,34.5919 37.3451,34.4689 C37.1651,34.6799 37.0581,34.4339 36.8951,34.5709 C36.9051,34.4509 37.0291,34.2709 37.0331,34.1309 L36.7941,34.3469 C36.1951,34.8439 36.3551,33.9999 35.8841,34.1509 C35.9361,34.0979 35.9931,34.0669 36.0111,33.9949 C35.3431,34.0989 34.8631,33.6859 34.3021,33.5179 C34.3811,33.4379 34.5081,33.2809 34.5491,33.1589 C34.3461,33.4189 34.1551,33.3939 33.9941,33.3659 C34.1221,33.0459 33.6091,33.4839 33.5631,33.2309 L33.6171,33.1769 C33.3141,33.4019 33.5661,32.8999 33.2461,33.1979 L33.3211,32.9299 C33.0131,33.2979 33.2991,32.6199 33.0761,32.7639 L33.0251,32.8479 C32.8771,32.8899 32.9631,32.6599 32.8401,32.6759 L32.8631,32.6259 C32.6101,32.6099 32.6471,32.3169 32.4481,32.6319 C32.5471,32.3399 32.7021,32.6349 32.8371,32.2049 C32.0191,32.1299 31.4331,31.6579 30.8171,31.2649 C30.8301,31.0939 30.8101,31.0269 30.8721,30.8989 C30.7701,30.9219 30.6041,30.8059 30.4441,30.9289 C30.4691,30.9359 30.5091,30.7439 30.4871,30.7079 C30.4521,30.5169 30.1411,30.9709 30.1101,30.7509 C30.2131,30.6999 30.2961,30.6099 30.3551,30.4839 C30.0921,30.6589 29.9781,30.5289 29.8031,30.5279 C29.8561,30.4879 29.9061,30.4759 29.9661,30.3749 C29.6511,30.5619 29.7581,30.1569 29.5261,30.2529 L29.6871,30.1019 C29.6401,29.7599 29.3851,30.4419 29.3051,30.2059 C29.3821,30.1749 29.4141,30.0949 29.4691,30.0269 C29.1021,30.2529 28.9241,29.9829 28.6991,29.9949 C28.7241,29.9759 28.7541,29.9249 28.7541,29.9249 C28.5601,29.8569 28.4521,29.6409 28.1761,29.6649 C28.1611,29.5409 28.4851,29.2399 28.2651,29.1909 C28.0351,29.5559 27.8681,29.1439 27.7051,29.6209 C27.5931,29.4629 27.4431,29.1719 27.2621,29.2289 C27.4201,29.1359 27.4771,28.7399 27.6221,28.7909 L27.6711,28.5099 C27.7811,28.3719 27.7361,28.6239 27.8271,28.4179 C27.7541,28.3919 27.4781,28.4149 27.4611,28.3199 C27.1991,28.4649 26.8221,28.8089 26.6041,28.7319 C26.7851,28.6489 26.8141,28.3009 26.9151,28.2779 L26.2001,28.7989 C26.1261,28.7749 26.3721,28.5049 26.2201,28.5399 C26.1621,28.6389 26.0841,28.6719 26.0061,28.7319 C26.0091,28.6749 25.6871,28.6519 25.8921,28.2779 C25.9541,28.1209 26.0421,28.2709 26.0561,28.0979 C25.9381,28.0259 25.8531,28.1449 25.7341,28.0749 L25.7621,28.0259 C25.7211,27.9229 25.4381,28.0299 25.3931,28.2809 C25.4391,28.3269 25.5121,28.0539 25.5241,28.2089 C25.3351,28.3799 25.1621,28.3499 25.0441,28.2789 C25.1211,28.2469 25.1781,28.1489 25.2601,28.0589 C24.9221,28.2369 24.6991,28.2179 24.4491,28.2209 C24.3361,28.3889 24.7151,27.9559 24.6821,28.0619 C24.6131,27.6819 24.0051,28.0949 24.0441,27.6309 C24.0931,27.6209 23.9031,27.8819 23.9321,27.8329 C23.8381,27.7419 24.0031,27.4999 23.8751,27.5449 C23.9611,27.3959 23.7561,27.5339 23.6561,27.5309 C23.5511,27.6099 23.6831,27.4479 23.7551,27.4739 C23.5761,27.5299 23.0301,27.4889 22.9351,27.1289 C22.8781,27.2269 22.5651,27.3849 22.5191,27.3399 L22.6851,27.1309 C22.7231,26.9659 22.4941,27.0339 22.6091,26.8379 C22.3191,27.0329 23.1981,26.8929 22.9081,27.0009 C22.9891,26.7899 22.4621,27.2159 22.6931,26.9339 C22.5811,26.8729 22.3131,27.0549 22.3471,26.7809 C22.3531,26.8359 22.6361,26.5279 22.5391,26.4879 C22.3611,26.4289 22.4261,26.5659 22.2541,26.5599 L22.1171,26.6009 C21.9711,26.8139 22.0011,26.4829 21.8991,26.7619 C21.9971,26.5709 21.6061,26.7279 21.8561,26.3789 L22.0621,26.1099 C21.9831,26.0879 21.7601,26.3379 21.6271,26.4289 C21.6351,26.3969 21.6551,26.3289 21.6881,26.2859 C21.3941,26.7119 21.5551,26.1469 21.2581,26.4309 C21.2181,26.1909 20.9161,26.1889 21.0271,25.8759 C20.8361,25.9389 20.6371,26.0309 20.5771,25.8599 C20.6281,25.8339 20.6691,25.8429 20.7371,25.7549 C20.7441,25.5779 20.6511,25.6799 20.5351,25.7049 C20.5931,25.6509 20.5451,25.3489 20.5641,25.1419 C20.3741,25.2019 20.2561,25.4589 20.1521,25.5939 C20.3371,25.1039 19.6741,25.6739 19.8081,25.2079 C19.8841,25.1729 20.1001,25.0989 20.0831,24.9339 C20.2671,24.4449 19.6821,25.1209 19.6621,24.8149 L19.4671,25.1939 C19.5421,24.9289 19.1031,25.2489 19.3561,24.8989 C19.2201,24.9919 19.2511,24.6609 19.0401,25.0169 C18.9791,24.5569 18.3051,24.7839 18.5571,24.0629 C18.4831,24.0959 18.4311,23.9769 18.3321,24.1669 C18.2651,24.3989 18.5081,24.0849 18.4441,24.2309 C18.4041,24.2199 18.3341,24.3099 18.2991,24.3549 C18.2721,24.2239 18.2261,24.1579 18.4911,23.9209 C18.4561,23.5919 17.9211,24.3869 17.7861,24.1029 C17.8911,23.9669 17.9101,23.9019 17.8301,23.8809 L17.5431,24.0419 C17.4361,23.8889 17.6761,23.6629 17.8331,23.4199 C17.7281,23.4099 17.6411,23.3359 17.4871,23.4919 L17.5941,23.1269 C17.5171,23.3909 17.4341,23.2299 17.3581,23.2649 L17.4341,23.2299 C17.4881,23.1179 17.3571,23.1219 17.2911,23.1219 C17.2021,23.2779 17.2531,23.3999 17.2741,23.4759 C17.1641,23.5559 17.1191,23.4899 16.9831,23.5799 C17.1581,23.3549 16.9691,23.3279 16.9251,23.2619 C16.8881,23.1639 16.7041,23.4209 16.6881,23.3989 C16.7691,23.2749 16.5871,23.3009 16.7571,23.1659 C16.8081,23.1429 16.7321,23.3219 16.8441,23.2409 C16.8591,23.1189 17.0071,22.9089 16.8061,22.9999 C16.6561,23.0679 16.5131,23.4789 16.4751,23.2369 C16.5511,23.2029 16.6201,23.1129 16.7051,23.0469 L16.6591,22.8379 L16.5091,23.0489 C16.5281,22.9829 16.5531,22.9719 16.5641,22.9379 C16.3741,23.1389 16.3201,22.8759 16.1201,23.1109 C16.0401,23.0899 16.0831,22.8699 16.0381,22.8039 L16.0621,22.7929 C16.0711,22.6159 15.9151,22.6319 15.7531,22.7339 L15.7881,22.6889 C15.7581,22.6439 15.6381,22.6119 15.5011,22.7029 C15.5051,22.4699 16.0131,21.8689 15.7151,22.0609 C15.6041,21.9969 15.2831,22.3409 15.2331,22.5069 C15.1401,22.2329 14.6861,22.4359 14.7361,21.9839 C14.6491,22.0519 14.6301,22.1179 14.5391,22.1299 C14.3171,21.8559 13.7751,21.9779 13.8411,21.4069 C13.9831,21.3719 13.9931,21.1969 14.0751,21.0739 C13.8771,21.2189 14.1311,20.8209 13.8821,21.1319 C13.7561,21.3289 13.6851,21.4179 13.7101,21.5499 C13.4721,21.5389 13.2181,21.3649 13.2501,21.1219 C13.2351,21.2429 13.1591,21.2759 13.0821,21.3089 C13.3071,21.0099 13.2171,20.8789 13.0491,20.9229 L12.9061,21.0999 L12.9801,20.8659 C12.9031,20.9009 12.6681,21.2299 12.7011,20.9869 C12.7461,20.9109 12.7921,20.8339 12.8121,20.7689 C12.6111,20.8549 12.2941,21.0189 12.3011,20.7889 L12.4061,20.4579 C12.3411,20.4569 12.1511,20.5679 12.1751,20.7009 C12.1121,20.4139 12.0131,20.3129 12.1221,20.0379 C11.4161,20.3939 10.9551,20.1029 10.6301,19.8089 L10.7401,19.6779 C10.7391,19.4809 10.5181,19.8839 10.5201,19.7399 C10.6461,19.6309 10.6551,19.4019 10.8451,19.2939 C10.8151,19.0509 10.4981,19.4079 10.3651,19.4069 C10.2211,19.5779 10.5201,19.3419 10.3361,19.5599 C10.2751,19.6129 10.2521,19.2819 10.0321,19.5409 C10.0761,19.4089 10.2481,19.2269 10.3471,19.1289 L10.1681,19.2019 C10.3001,18.8099 10.8121,18.7969 10.9921,18.3249 L10.8851,18.3139 C11.0211,17.9749 11.3191,18.1349 11.2011,17.8989 C11.0211,17.9749 10.6631,18.3209 10.6481,18.4949 C10.4211,18.4459 10.0941,19.0899 9.9251,18.9329 C9.9921,18.7349 10.1021,19.0019 10.2301,18.7509 C10.3031,18.4669 9.9661,18.7469 9.9441,18.6139 C9.9551,18.7789 9.6811,19.0019 9.5881,19.0119 C9.5881,18.8139 9.8381,18.7989 9.7261,18.6719 C9.5891,18.8129 9.3791,18.8409 9.4051,19.0289 C9.0941,19.3499 9.3391,18.8279 9.0631,19.0499 C9.2041,18.7679 9.6271,18.5719 9.5731,18.3379 C9.4181,18.5969 9.1511,18.5329 8.9641,18.9489 C8.9581,18.8369 9.0921,18.6419 9.2431,18.5249 C9.2711,18.3159 8.7191,18.8179 9.0461,18.3199 L8.8351,18.5459 C8.8641,18.4429 8.8861,18.3639 8.9341,18.1949 C8.8661,18.1369 8.4541,18.3559 8.7371,17.9899 C8.6861,18.0109 8.5341,17.8729 8.4051,18.1759 C8.3911,18.4089 8.6631,18.0759 8.4611,18.4649 C8.6001,18.1279 8.2851,18.3929 8.1551,18.4429 L8.2531,18.2919 C8.1761,18.3219 8.1191,18.2289 7.9801,18.3669 C8.0691,18.3059 8.1281,18.1969 8.1271,18.1419 L7.9261,18.3319 C7.7011,18.3329 8.1811,17.9239 7.9941,17.8819 L8.2271,17.7929 C8.1761,17.8119 8.2831,17.5719 8.1651,17.5899 C7.9841,17.7639 7.7641,17.9729 7.6231,18.1079 C7.4791,18.1349 7.7571,17.8579 7.5261,18.0029 L7.8081,17.8399 C7.8721,17.7869 7.9881,17.4609 7.8801,17.3879 C7.7621,17.4069 7.4411,17.6129 7.4631,17.8009 C7.4081,17.7649 7.4271,17.5889 7.5791,17.4759 C7.4081,17.4549 7.4321,17.7009 7.2361,17.7459 C7.2951,17.5819 7.3071,17.2969 7.3771,17.0449 L7.7361,16.7959 L7.6681,16.7399 C7.9621,16.5439 7.7771,16.5019 8.0421,16.2629 C8.0281,16.1829 7.8981,16.2319 7.7961,16.2689 C7.5921,16.8239 7.1691,16.7569 6.8961,17.1949 C6.6161,17.1559 7.5411,16.1139 6.8481,16.5939 C6.7981,16.7249 6.4641,16.9589 6.6761,16.9359 C6.5911,16.7989 6.2781,17.2799 6.2671,17.0019 C6.5021,16.9169 6.4751,16.5049 6.8151,16.3809 C6.7001,16.5069 6.8191,16.5479 6.8721,16.5289 C6.9441,16.3349 7.2001,16.1279 7.0781,16.0339 C6.9741,16.0139 6.8661,15.9429 6.7161,16.1659 C6.5371,16.3989 6.8491,16.2289 6.6181,16.4259 C6.4061,16.3909 6.6581,16.0199 6.2731,16.3819 C6.3931,16.4229 6.2291,16.6789 6.1031,16.8369 L5.9171,16.8479 L6.0591,16.7109 C5.9711,16.4629 5.7881,16.9489 5.6511,16.7729 L5.8111,16.4069 C6.0581,16.1779 5.9651,16.7189 6.2711,16.2699 C6.1751,16.1659 5.9681,16.3519 5.9511,16.1599 C6.0031,16.1419 6.0431,16.1559 6.0951,16.1369 C6.0671,16.0909 6.4751,15.4979 6.0581,15.7029 C5.8761,15.7669 5.9171,15.8369 5.7891,15.9929 C5.5751,15.9009 5.3931,16.0199 5.2601,15.9539 C5.5311,15.6649 5.0841,15.7639 5.4621,15.5489 C5.3741,15.7749 5.6431,15.9619 5.9401,15.7159 C6.1691,15.2989 6.0371,15.8779 6.3691,15.5359 C6.2371,15.4149 6.5311,15.0599 6.6971,14.8069 C6.6721,14.7589 6.5541,14.8289 6.5021,14.8469 C6.3081,15.0569 6.3611,15.0939 6.1811,15.3249 C6.0741,15.1399 5.8241,15.1439 5.5641,15.2899 C5.6001,15.1389 5.7951,14.9309 5.8741,14.9589 C5.6351,14.8779 5.4631,14.6859 5.3441,14.4759 C5.1631,14.9279 5.0811,14.3999 4.9121,14.7609 C4.9401,14.9189 4.8111,15.2419 4.6281,15.3599 C4.5881,15.2879 4.7591,15.2039 4.7961,15.1069 C4.5611,15.2409 4.9381,14.6969 4.6111,14.9459 C4.8751,14.9689 5.0031,14.5359 5.2651,14.2809 C5.0141,14.3389 5.4341,14.0849 5.3151,13.9869 C5.0671,14.0439 4.8181,14.0449 4.6341,13.9949 C4.6861,13.5939 4.2151,13.6329 4.0561,13.5169 C4.0981,13.3109 4.4181,13.0429 4.3801,12.9179 C4.2771,12.8399 4.1641,13.3169 4.1411,13.0489 L4.2091,12.9989 C4.1021,13.0339 4.1251,12.5609 3.6931,12.9689 L4.0311,12.6719 C4.0311,12.6179 3.9381,12.6739 3.8851,12.6909 C3.9791,12.5799 4.0351,12.4549 4.1411,12.4199 C4.2541,12.1139 3.9221,12.2969 3.8181,12.2219 L3.7061,12.4739 C3.4051,12.4849 3.4681,12.1919 3.2491,12.1219 L3.4251,11.9329 L3.2281,11.9649 C3.4161,11.7979 3.4361,11.6009 3.2491,11.7139 L3.9111,11.4559 C3.8781,11.6299 3.6311,11.6239 3.5051,11.8519 C3.3951,12.0509 3.5881,12.1279 3.7751,11.9619 C3.7381,11.8909 3.6981,11.9309 3.5931,11.9629 C3.8121,11.6769 3.8881,11.7629 4.0881,11.6199 C4.0491,11.6049 4.0791,11.4869 3.9981,11.5659 C4.1711,11.4859 4.2471,11.5159 4.3501,11.5939 C4.1911,11.6429 4.2381,11.7929 4.1461,11.8479 C4.3621,11.6159 4.5181,11.6269 4.5791,11.7939 C4.4241,12.1419 4.9571,11.8069 5.0281,11.9999 C4.7631,12.1949 4.5231,12.3279 4.3531,12.3529 C4.3361,12.5489 4.4571,12.4289 4.4391,12.6259 C4.6371,12.4819 4.9061,12.2299 5.1141,12.2159 L4.9661,12.4009 C5.1471,12.3969 5.3741,12.1299 5.4611,12.2909 C5.6071,12.5699 5.8441,12.7619 5.9981,12.9279 L5.8541,13.1139 C6.2721,12.8049 6.2951,13.2359 6.5661,13.1699 C6.6431,13.5299 7.1901,13.3859 7.0501,13.7939 C7.5591,13.9689 8.0111,14.1069 8.3721,14.4939 L8.0911,14.7099 C8.3211,14.5689 8.0181,14.9029 8.1221,14.9189 C8.2071,14.6389 8.4421,14.7179 8.6211,14.5909 C8.6421,14.9439 9.0551,14.9009 9.3661,14.8329 L9.2291,15.0249 C9.6641,14.7989 9.6261,15.2579 9.7901,15.4729 C9.7551,15.5689 9.6591,15.7739 9.7361,15.7999 C10.0791,15.5809 10.1201,15.6479 10.4291,15.5799 C10.5501,15.6699 10.6901,15.8909 10.7251,16.1019 C11.4981,16.0099 11.7641,16.6269 12.4321,16.7109 L12.3041,16.9609 C13.1111,16.8159 13.3751,17.6569 13.9491,17.6929 L13.6371,18.0529 C13.6781,18.2619 13.9951,18.1519 14.1561,17.8549 C14.1991,18.0619 14.6021,17.8859 14.4591,18.2609 C14.5381,18.4229 14.7421,18.1919 14.8851,18.2139 C15.0401,18.5419 15.1601,18.5739 15.4551,18.6689 L15.4111,18.6029 C15.3251,18.6709 15.2081,18.8339 15.2521,18.9019 C15.4181,18.8559 15.5151,19.2369 15.7451,18.7089 C15.8211,19.1569 16.5021,18.9079 16.5101,19.4449 C16.5751,19.3019 16.6561,19.3219 16.7421,19.2529 C16.9761,19.4039 17.0411,19.8289 17.3721,19.7349 C17.3651,19.8239 17.1661,19.9139 17.2511,19.9909 C17.3401,19.9799 17.3651,19.8239 17.4821,19.7989 C18.0171,19.8119 18.0741,20.5549 18.4571,20.7219 C19.2301,20.8789 19.7791,21.4259 20.3921,21.7709 L20.3231,21.8609 C20.7581,21.6279 20.5381,22.5349 21.0541,22.0929 C21.0401,22.2139 21.2031,22.2529 21.0481,22.4129 C21.3731,22.2599 21.3271,22.9419 21.7671,22.7649 C21.7521,22.7429 21.7271,22.7539 21.6761,22.7789 C21.7651,23.1379 22.1601,22.9879 22.2701,23.3309 C22.2181,23.3549 22.1551,23.3559 22.0851,23.4459 C22.0601,23.6889 22.5691,23.1889 22.3211,23.6809 C22.3771,23.7119 22.5091,23.4759 22.4681,23.4679 C22.8811,23.9919 23.6381,24.0679 24.2571,24.3229 C24.4741,24.8539 23.7771,25.1099 24.3131,24.9709 C24.2801,25.0759 24.4451,24.8089 24.3871,24.9059 C24.5921,24.8569 24.2411,25.5399 24.4811,25.3549 C24.6311,25.0509 24.6401,25.2339 24.7541,25.0639 C24.8771,25.4039 24.7591,25.6899 25.0901,25.5999 L24.9791,25.7389 C25.4751,25.4669 25.5881,25.8599 26.0921,25.4999 C27.3821,26.2159 28.7381,26.7189 29.9771,27.4459 C31.1051,28.3129 32.4091,28.8549 33.4481,29.8979 C33.4771,30.4709 33.5051,30.4739 33.9181,30.5189 C33.8651,30.5729 33.8351,30.5759 33.8181,30.6479 C34.0421,30.3389 34.0561,30.7609 34.2841,30.4759 C34.6921,30.8249 35.1601,31.0059 35.6201,31.3029 C35.5251,31.2899 35.3181,31.5269 35.4181,31.5619 L35.6411,31.4169 L35.5981,31.5159 C35.6881,31.5069 35.8551,31.3909 35.8611,31.2489 C37.1941,31.7249 37.9101,33.1049 39.0901,33.7619 C39.2621,34.0639 39.7301,34.1939 40.0631,34.3169 C40.6501,35.3049 41.2061,36.1549 42.2781,36.4269 C42.2781,36.4269 41.6261,37.1789 41.1401,37.1339" id="Fill-57" fill="#FFFFFF"></path>
                <path d="M3.6781,11.0091 C3.5801,11.1761 3.6011,11.3341 3.3611,11.4621 C3.4701,11.3191 3.5561,11.1291 3.6781,11.0091" id="Fill-59" fill="#FFFFFF"></path>
                <path d="M4.8459,14.5887 C4.8849,14.5477 4.8329,14.6777 4.8209,14.7077 C4.7809,14.6937 4.6499,14.7937 4.6879,14.6967 C4.7279,14.7127 4.7809,14.6387 4.8459,14.5887" id="Fill-61" fill="#FFFFFF"></path>
                <path d="M5.4159,15.2035 C5.2989,15.3275 5.0759,15.3205 4.9819,15.2685 L5.4159,15.2035 Z" id="Fill-63" fill="#FFFFFF"></path>
                <path d="M5.5835,16.2335 C5.5465,16.3875 5.4835,16.4365 5.4155,16.3765 C5.4665,16.3025 5.5185,16.2855 5.5835,16.2335" id="Fill-65" fill="#FFFFFF"></path>
                <path d="M5.8673,15.9659 C5.9203,16.0029 5.8833,16.1009 5.8473,16.1969 C5.9363,16.0809 5.6733,16.1749 5.8673,15.9659" id="Fill-67" fill="#FFFFFF"></path>
                <path d="M6.8901,17.3945 C6.9311,17.4085 7.0861,17.3505 7.0011,17.5235 C7.0481,17.3935 6.7131,17.5725 6.8901,17.3945" id="Fill-69" fill="#FFFFFF"></path>
                <path d="M7.6687,17.6663 C7.6817,17.6903 7.6717,17.7213 7.7227,17.7023 C7.7137,17.7913 7.5997,17.8603 7.5587,17.8493 L7.6687,17.6663 Z" id="Fill-71" fill="#FFFFFF"></path>
                <polygon id="Fill-73" fill="#FFFFFF" points="19.6475 25.1669 19.5315 25.1909 19.6345 25.0579"></polygon>
                <path d="M24.7947,28.5171 C24.9227,28.4731 24.7557,28.6821 24.7537,28.7101 C24.6817,28.6841 24.8917,28.5501 24.7947,28.5171" id="Fill-75" fill="#FFFFFF"></path>
                <polygon id="Fill-77" fill="#FFFFFF" points="28.0299 29.6153 28.0059 29.6053 28.2029 29.3193"></polygon>
                <path d="M6.2453,40.2619 C6.1113,40.4109 6.4633,40.4879 6.1923,40.4329 C6.1563,40.2979 6.1443,40.1889 6.2453,40.2619" id="Fill-79" fill="#FFFFFF"></path>
                <path d="M39.4841,4.3021 C39.8961,5.2941 38.7061,5.4391 38.8021,6.2981 C38.7881,6.3821 38.4151,6.0041 38.4111,6.2121 C38.6121,7.1261 37.6871,7.7081 36.8041,8.0051 L36.7211,7.8861 C36.5571,7.9451 36.8121,8.3581 36.6671,8.4451 C36.5941,8.3911 36.5931,8.3271 36.4721,8.2811 C36.6681,8.4771 36.4041,8.5801 36.5271,8.7561 C36.4051,8.7411 36.2351,8.6041 36.0921,8.5941 L36.2871,8.8541 C36.7291,9.5041 35.8831,9.3011 35.9771,9.8001 C35.9301,9.7431 35.9051,9.6811 35.8331,9.6591 C35.8581,10.3671 35.3661,10.8481 35.1101,11.4241 C35.0391,11.3351 34.8981,11.1911 34.7791,11.1401 C35.0151,11.3711 34.9611,11.5701 34.9081,11.7381 C34.6001,11.5791 34.9661,12.1491 34.7001,12.1781 L34.6521,12.1181 C34.8341,12.4531 34.3611,12.1481 34.6131,12.5091 L34.3511,12.4071 C34.6761,12.7621 34.0311,12.4051 34.1411,12.6521 L34.2181,12.7121 C34.2361,12.8721 34.0161,12.7601 34.0101,12.8901 L33.9631,12.8621 C33.9011,13.1251 33.6081,13.0581 33.8941,13.2961 C33.6131,13.1651 33.9431,13.0311 33.5281,12.8491 C33.3081,13.6971 32.7091,14.2581 32.1831,14.8511 C32.0121,14.8171 31.9391,14.8281 31.8221,14.7491 C31.8241,14.8571 31.6711,15.0141 31.7621,15.1961 C31.7741,15.1711 31.5871,15.1041 31.5461,15.1231 C31.3451,15.1331 31.7391,15.5161 31.5101,15.5191 C31.4801,15.4061 31.4061,15.3081 31.2901,15.2301 C31.4121,15.5261 31.2571,15.6291 31.2151,15.8081 C31.1861,15.7471 31.1851,15.6941 31.0961,15.6181 C31.2161,15.9701 30.8271,15.8021 30.8731,16.0551 L30.7561,15.8661 C30.3971,15.8651 31.0321,16.2281 30.7741,16.2761 C30.7601,16.1921 30.6861,16.1471 30.6291,16.0811 C30.7751,16.4931 30.4621,16.6401 30.4181,16.8731 C30.4051,16.8441 30.3601,16.8051 30.3601,16.8051 C30.2441,16.9941 29.9991,17.0711 29.9541,17.3601 C29.8251,17.3551 29.5991,16.9721 29.4971,17.1911 C29.8101,17.4881 29.3511,17.5931 29.7921,17.8401 C29.6031,17.9301 29.2681,18.0321 29.2791,18.2281 C29.2261,18.0511 28.8401,17.9211 28.9301,17.7811 L28.6581,17.6811 C28.5471,17.5441 28.7901,17.6361 28.6051,17.5051 C28.5611,17.5751 28.5131,17.8621 28.4121,17.8621 C28.4911,18.1561 28.7411,18.6081 28.6011,18.8171 C28.5661,18.6171 28.2221,18.5211 28.2271,18.4141 L28.5541,19.2451 C28.5091,19.3171 28.3061,19.0121 28.2981,19.1751 C28.3821,19.2531 28.3931,19.3401 28.4311,19.4321 C28.3751,19.4181 28.2581,19.7471 27.9411,19.4621 C27.8021,19.3661 27.9771,19.3061 27.8071,19.2571 C27.7021,19.3641 27.7971,19.4751 27.6921,19.5851 L27.6521,19.5451 C27.5361,19.5661 27.5611,19.8751 27.8001,19.9751 C27.8601,19.9381 27.6071,19.8051 27.7661,19.8271 C27.8831,20.0541 27.8021,20.2241 27.6961,20.3291 C27.6871,20.2441 27.6051,20.1651 27.5381,20.0631 C27.6181,20.4441 27.5341,20.6671 27.4651,20.9221 C27.6001,21.0731 27.2751,20.5961 27.3721,20.6511 C26.9741,20.6401 27.1921,21.3591 26.7421,21.2141 C26.7471,21.1621 26.9511,21.4131 26.9101,21.3721 C26.7901,21.4481 26.5981,21.2261 26.6041,21.3671 C26.4821,21.2461 26.5561,21.4851 26.5231,21.5861 C26.5701,21.7101 26.4481,21.5401 26.4961,21.4721 C26.4971,21.6671 26.2911,22.2091 25.9061,22.2241 C25.9871,22.3041 26.0541,22.6531 25.9961,22.6891 L25.8351,22.4761 C25.6821,22.4011 25.6851,22.6461 25.5221,22.4871 C25.6341,22.8221 25.7461,21.9071 25.7701,22.2231 C25.5821,22.0941 25.8561,22.7191 25.6421,22.4241 C25.5501,22.5241 25.6561,22.8321 25.3931,22.7381 C25.4491,22.7441 25.2211,22.3931 25.1541,22.4821 C25.0461,22.6491 25.2011,22.6131 25.1491,22.7841 L25.1531,22.9301 C25.3261,23.1221 25.0061,23.0221 25.2561,23.1831 C25.0921,23.0451 25.1501,23.4681 24.8651,23.1461 L24.6491,22.8851 C24.6061,22.9611 24.8001,23.2351 24.8591,23.3861 C24.8301,23.3721 24.7671,23.3381 24.7311,23.2961 C25.0861,23.6751 24.5611,23.4031 24.7761,23.7541 C24.5301,23.7481 24.4651,24.0471 24.1791,23.8831 C24.2011,24.0851 24.2581,24.2971 24.0781,24.3291 C24.0621,24.2741 24.0781,24.2351 24.0021,24.1531 C23.8281,24.1181 23.9121,24.2281 23.9171,24.3461 C23.8721,24.2791 23.5691,24.2801 23.3631,24.2391 C23.3931,24.4381 23.6341,24.5871 23.7541,24.7081 C23.2901,24.4641 23.7741,25.1921 23.3331,25.0021 C23.3011,24.9271 23.2551,24.7021 23.0871,24.7021 C22.6161,24.4751 23.2401,25.1131 22.9321,25.1081 L23.2991,25.3251 C23.0371,25.2361 23.3191,25.7081 22.9871,25.4321 C23.0631,25.5821 22.7541,25.5081 23.0941,25.7451 C22.6301,25.7831 22.8611,26.4561 22.1351,26.2171 C22.1701,26.2921 22.0501,26.3501 22.2431,26.4431 C22.4771,26.5031 22.1591,26.2671 22.3061,26.3281 C22.2951,26.3681 22.3871,26.4361 22.4321,26.4701 C22.3021,26.5001 22.2361,26.5501 21.9931,26.2901 C21.6591,26.3431 22.4731,26.8481 22.1951,26.9991 C22.0541,26.9011 21.9881,26.8861 21.9701,26.9701 L22.1451,27.2501 C21.9971,27.3711 21.7571,27.1441 21.5041,27.0031 C21.4981,27.1121 21.4271,27.2091 21.5931,27.3551 L21.2181,27.2801 C21.4891,27.3331 21.3301,27.4361 21.3691,27.5111 L21.3301,27.4361 C21.2131,27.3911 21.2241,27.5281 21.2281,27.5971 C21.3911,27.6721 21.5111,27.6051 21.5881,27.5761 C21.6741,27.6821 21.6101,27.7361 21.7091,27.8671 C21.4721,27.7101 21.4541,27.9081 21.3901,27.9631 C21.2931,28.0131 21.5641,28.1751 21.5431,28.1941 C21.4131,28.1251 21.4501,28.3111 21.3031,28.1501 C21.2761,28.1001 21.4621,28.1571 21.3741,28.0501 C21.2481,28.0491 21.0271,27.9191 21.1311,28.1181 C21.2091,28.2681 21.6341,28.3671 21.3911,28.4371 C21.3521,28.3621 21.2571,28.3001 21.1851,28.2181 L20.9751,28.2941 L21.1991,28.4251 C21.1301,28.4131 21.1181,28.3881 21.0831,28.3811 C21.2981,28.5551 21.0331,28.6461 21.2831,28.8271 C21.2661,28.9141 21.0391,28.8981 20.9741,28.9551 L20.9621,28.9301 C20.7801,28.9441 20.8041,29.1081 20.9141,29.2681 L20.8671,29.2361 C20.8221,29.2751 20.7951,29.4071 20.8921,29.5441 C20.6511,29.5731 20.0191,29.1021 20.2251,29.4001 C20.1621,29.5301 20.5251,29.8281 20.6961,29.8651 C20.4281,29.9841 20.6221,30.4721 20.1551,30.4631 C20.2251,30.5501 20.2941,30.5641 20.3051,30.6621 C20.0231,30.9361 20.1301,31.5211 19.5331,31.4911 C19.5031,31.3381 19.3211,31.3411 19.1981,31.2601 C19.3391,31.4651 18.9381,31.2161 19.2491,31.4651 C19.4481,31.5891 19.5371,31.6601 19.6751,31.6231 C19.6501,31.8821 19.4591,32.1791 19.2031,32.1521 C19.3281,32.1631 19.3581,32.2441 19.3851,32.3251 C19.0901,32.0971 18.9461,32.2001 18.9781,32.3791 L19.1521,32.5271 L18.9141,32.4571 C18.9441,32.5391 19.2671,32.7821 19.0161,32.7561 C18.9411,32.7091 18.8641,32.6621 18.7981,32.6421 C18.8701,32.8571 19.0141,33.2031 18.7701,33.1991 L18.4341,33.0901 C18.4251,33.1601 18.5191,33.3641 18.6621,33.3371 C18.3511,33.4081 18.2341,33.5161 17.9621,33.3971 C18.2571,34.1681 17.8601,34.6591 17.5031,35.0031 L17.3851,34.8791 C17.1801,34.8751 17.5621,35.1281 17.4121,35.1191 C17.3201,34.9801 17.0811,34.9581 17.0021,34.7501 C16.7421,34.7671 17.0581,35.1251 17.0311,35.2681 C17.1841,35.4321 16.9931,35.0981 17.1871,35.3071 C17.2311,35.3771 16.8801,35.3821 17.1081,35.6341 C16.9781,35.5791 16.8211,35.3821 16.7381,35.2701 L16.7801,35.4671 C16.3971,35.2991 16.4781,34.7531 16.0201,34.5301 L15.9901,34.6421 C15.6651,34.4721 15.8791,34.1731 15.6181,34.2771 C15.6661,34.4711 15.9581,34.8771 16.1361,34.9061 C16.0441,35.1431 16.6491,35.5391 16.4521,35.7091 C16.2611,35.6241 16.5591,35.5251 16.3231,35.3701 C16.0451,35.2721 16.2661,35.6511 16.1211,35.6611 C16.2971,35.6651 16.4711,35.9741 16.4601,36.0741 C16.2521,36.0561 16.2911,35.7891 16.1351,35.8971 C16.2531,36.0551 16.2351,36.2811 16.4371,36.2711 C16.7041,36.6301 16.2121,36.3241 16.3821,36.6391 C16.1201,36.4611 16.0091,35.9931 15.7551,36.0281 C15.9901,36.2171 15.8631,36.4971 16.2531,36.7371 C16.1341,36.7331 15.9631,36.5701 15.8751,36.3981 C15.6661,36.3461 16.0601,36.9901 15.6171,36.5861 L15.8011,36.8341 C15.7051,36.7871 15.6151,36.7681 15.4581,36.6891 C15.3811,36.7531 15.5031,37.2141 15.1941,36.8701 C15.2031,36.9271 15.0201,37.0691 15.3021,37.2441 C15.5411,37.2881 15.2641,36.9591 15.6191,37.2201 C15.3031,37.0321 15.4971,37.3971 15.5151,37.5421 L15.3831,37.4191 C15.3941,37.5051 15.2831,37.5551 15.3901,37.7201 C15.3501,37.6181 15.2521,37.5411 15.1951,37.5361 L15.3391,37.7751 C15.2791,38.0151 14.9831,37.4511 14.8881,37.6411 L14.8601,37.3851 C14.8651,37.4411 14.6451,37.2941 14.6311,37.4191 C14.7601,37.6351 14.9161,37.8961 15.0171,38.0631 C15.0031,38.2191 14.7941,37.8851 14.8781,38.1501 L14.7901,37.8301 C14.7531,37.7551 14.4471,37.5841 14.3401,37.6851 C14.3261,37.8111 14.4471,38.1811 14.6501,38.1861 C14.5961,38.2391 14.4181,38.1911 14.3451,38.0141 C14.2731,38.1901 14.5351,38.2031 14.5241,38.4171 C14.3711,38.3301 14.0801,38.2731 13.8391,38.1541 L13.6891,37.7391 L13.6101,37.7991 C13.4961,37.4621 13.3981,37.6431 13.2291,37.3271 C13.1431,37.3271 13.1561,37.4691 13.1641,37.5801 C13.6751,37.8931 13.4781,38.3151 13.8441,38.6791 C13.7141,38.9641 12.9321,37.8101 13.2081,38.6181 C13.3271,38.6941 13.4621,39.0871 13.5071,38.8611 C13.3381,38.9241 13.7321,39.3401 13.4411,39.3011 C13.4301,39.0401 12.9981,38.9891 12.9801,38.6121 C13.0731,38.7561 13.1531,38.6391 13.1491,38.5811 C12.9731,38.4691 12.8411,38.1651 12.7071,38.2711 C12.6571,38.3761 12.5451,38.4671 12.7251,38.6681 C12.9071,38.9001 12.8361,38.5471 12.9621,38.8241 C12.8531,39.0321 12.5561,38.6951 12.7991,39.1651 C12.8811,39.0511 13.0921,39.2731 13.2121,39.4351 L13.1581,39.6281 L13.0651,39.4541 C12.7761,39.4921 13.2171,39.7821 12.9861,39.8881 L12.6641,39.6461 C12.5141,39.3431 13.0391,39.5521 12.6811,39.1431 C12.5421,39.2191 12.6621,39.4721 12.4591,39.4481 C12.4591,39.3911 12.4871,39.3531 12.4851,39.2951 C12.4281,39.3151 11.9631,38.7671 12.0301,39.2391 C12.0321,39.4411 12.1181,39.4141 12.2331,39.5801 C12.0611,39.7771 12.1151,39.9871 11.9971,40.1081 C11.8001,39.7631 11.7351,40.2391 11.6561,39.8041 C11.8551,39.9491 12.1481,39.7211 12.0031,39.3631 C11.6571,39.0351 12.2011,39.3001 11.9661,38.8831 C11.7991,38.9921 11.5391,38.6111 11.3391,38.3841 C11.2831,38.3981 11.3131,38.5311 11.3131,38.5871 C11.4591,38.8331 11.5151,38.7891 11.6881,39.0261 C11.4601,39.0881 11.3761,39.3381 11.4291,39.6371 C11.2881,39.5631 11.1491,39.3141 11.2061,39.2431 C11.0351,39.4591 10.7831,39.5921 10.5231,39.6481 C10.9121,39.9521 10.3451,39.8881 10.6461,40.1551 C10.8171,40.1711 11.0961,40.3861 11.1441,40.6011 C11.0551,40.6221 11.0371,40.4281 10.9531,40.3651 C10.9961,40.6371 10.5911,40.1121 10.7141,40.5061 C10.8421,40.2491 10.4521,40.0031 10.2961,39.6721 C10.2591,39.9371 10.1641,39.4491 10.0211,39.5391 C9.9841,39.8001 9.8891,40.0511 9.7641,40.2171 C9.3801,40.0411 9.2331,40.5161 9.0511,40.6361 C8.8641,40.5321 8.7291,40.1351 8.5911,40.1321 C8.4721,40.2091 8.8971,40.4691 8.6231,40.4071 L8.6021,40.3261 C8.5891,40.4411 8.1311,40.2581 8.3481,40.8111 L8.2001,40.3861 C8.1461,40.3681 8.1611,40.4761 8.1551,40.5331 C8.0861,40.4051 7.9861,40.3091 7.9981,40.1951 C7.7451,39.9811 7.7841,40.3621 7.6651,40.4381 L7.8621,40.6331 C7.7381,40.9331 7.4811,40.7701 7.3151,40.9481 L7.2101,40.7131 L7.1541,40.9111 C7.0771,40.6711 6.8951,40.5791 6.9201,40.7981 L6.9671,40.0761 C7.1211,40.1721 7.0041,40.4031 7.1691,40.6071 C7.3121,40.7851 7.4731,40.6311 7.3961,40.3911 C7.3111,40.4011 7.3321,40.4531 7.3161,40.5651 C7.1371,40.2521 7.2551,40.2121 7.2051,39.9691 C7.1751,40.0011 7.0721,39.9281 7.1131,40.0351 C7.1151,39.8421 7.1741,39.7791 7.2881,39.7081 C7.2691,39.8771 7.4301,39.8851 7.4451,39.9931 C7.3161,39.7041 7.3841,39.5581 7.5701,39.5601 C7.8441,39.8291 7.7361,39.2071 7.9501,39.2091 C8.0361,39.5261 8.0671,39.7991 8.0211,39.9691 C8.2071,40.0531 8.1391,39.8981 8.3261,39.9811 C8.2661,39.7441 8.1271,39.4031 8.1931,39.1971 L8.3161,39.3981 C8.3831,39.2211 8.2101,38.9171 8.4001,38.8841 C8.7291,38.8301 9.0091,38.6681 9.2241,38.5621 L9.3551,38.7571 C9.2031,38.2581 9.6331,38.3631 9.6641,38.0801 C10.0451,38.1041 10.0811,37.5251 10.4411,37.7741 C10.7851,37.3251 11.0441,36.8971 11.5371,36.6351 L11.6741,36.9641 C11.5971,36.7021 11.8461,37.0791 11.8921,36.9771 C11.6351,36.8321 11.7791,36.6121 11.7011,36.4051 C12.0581,36.4581 12.1291,36.0391 12.1351,35.7131 L12.2931,35.8891 C12.1731,35.4071 12.6191,35.5341 12.8761,35.4091 C12.9651,35.4611 13.1501,35.5941 13.1951,35.5201 C13.0491,35.1351 13.1231,35.1021 13.1191,34.7801 C13.2341,34.6731 13.4851,34.5681 13.7071,34.5641 C13.7531,33.7641 14.4211,33.5801 14.5931,32.9041 L14.8281,33.0581 C14.7811,32.2251 15.6591,32.0261 15.7311,31.4321 L16.0721,31.7641 C16.2871,31.7281 16.2001,31.4011 15.9091,31.2281 C16.1251,31.1941 15.9661,30.7791 16.3351,30.9301 C16.5011,30.8511 16.2761,30.6401 16.3031,30.4951 C16.6381,30.3401 16.6791,30.2191 16.7721,29.9161 L16.7061,29.9611 C16.7731,30.0481 16.9371,30.1651 17.0051,30.1191 C16.9601,29.9491 17.3451,29.8401 16.8111,29.6201 C17.2711,29.5331 16.9971,28.8501 17.5331,28.8141 C17.3881,28.7561 17.4041,28.6741 17.3321,28.5921 C17.4681,28.3631 17.9051,28.2401 17.7861,27.9151 C17.8751,27.9141 17.9791,28.1071 18.0501,28.0151 C18.0321,27.9271 17.8751,27.9141 17.8411,27.8001 C17.8191,27.2501 18.5701,27.0951 18.7241,26.6621 C18.8501,25.8131 19.4161,25.1161 19.8391,24.3831 L19.9291,24.4531 C19.7321,23.9611 20.6491,24.1811 20.2881,23.5681 C20.4101,23.5851 20.4671,23.4151 20.6151,23.5831 C20.4741,23.2581 21.2401,23.2441 21.1371,22.7681 C21.1101,22.7841 21.1161,22.8121 21.1311,22.8701 C21.5321,22.7811 21.4641,22.3401 21.8631,22.2421 C21.8761,22.3001 21.8591,22.3701 21.9371,22.4541 C22.1841,22.5081 21.7951,21.8991 22.2431,22.2241 C22.2911,22.1671 22.0801,21.9961 22.0601,22.0401 C22.7171,21.6551 23.0231,20.8741 23.4811,20.2801 C24.0891,20.1631 24.1301,20.9351 24.1561,20.3561 C24.2521,20.4111 24.0331,20.1851 24.1141,20.2651 C24.1281,20.0441 24.7071,20.5511 24.5951,20.2661 C24.3361,20.0471 24.5221,20.0771 24.3871,19.9241 C24.7661,19.8741 25.0161,20.0571 25.0271,19.7021 L25.1321,19.8461 C25.0061,19.2861 25.4451,19.2501 25.2121,18.6791 C26.3351,17.5081 27.1201,16.2901 28.1431,15.1471 C29.2641,14.1541 30.0631,12.9091 31.2901,11.9721 C31.8731,12.0081 31.8821,11.9781 31.9951,11.5591 C32.0411,11.6201 32.0391,11.6501 32.1101,11.6761 C31.8331,11.4131 32.2621,11.4431 32.0101,11.1801 C32.4251,10.7961 32.6791,10.3331 33.0421,9.8851 C33.0161,9.9821 33.2281,10.2151 33.2771,10.1151 L33.1601,9.8731 L33.2551,9.9261 C33.2571,9.8321 33.1621,9.6501 33.0191,9.6321 C33.6731,8.3101 35.1461,7.6521 35.9111,6.4411 C36.2421,6.2641 36.4031,5.7861 36.5511,5.4411 C37.5961,4.8521 38.4911,4.2521 38.8071,3.1291 C38.8071,3.1291 39.5531,3.7881 39.4841,4.3021" id="Fill-81" fill="#FFFFFF"></path>
                <path d="M6.4301,40.1311 C6.5481,40.2861 6.7101,40.3251 6.7261,40.5991 C6.6371,40.4421 6.4911,40.2911 6.4301,40.1311" id="Fill-83" fill="#FFFFFF"></path>
                <path d="M10.4453,40.1741 C10.4193,40.1231 10.5303,40.2121 10.5563,40.2321 C10.5263,40.2681 10.5753,40.4261 10.4923,40.3611 C10.5243,40.3261 10.4703,40.2521 10.4453,40.1741" id="Fill-85" fill="#FFFFFF"></path>
                <path d="M11.2859,39.7653 C11.3689,39.9133 11.2779,40.1393 11.1909,40.2233 L11.2859,39.7653 Z" id="Fill-87" fill="#FFFFFF"></path>
                <path d="M12.4065,39.8449 C12.5515,39.9159 12.5805,39.9919 12.4935,40.0499 C12.4355,39.9809 12.4365,39.9239 12.4065,39.8449" id="Fill-89" fill="#FFFFFF"></path>
                <path d="M12.2323,39.4937 C12.2883,39.4467 12.3753,39.5067 12.4613,39.5647 C12.3733,39.4467 12.3783,39.7387 12.2323,39.4937" id="Fill-91" fill="#FFFFFF"></path>
                <path d="M14.0505,38.7207 C14.0785,38.6807 14.0665,38.5097 14.2205,38.6287 C14.0995,38.5567 14.1795,38.9357 14.0505,38.7207" id="Fill-93" fill="#FFFFFF"></path>
                <path d="M14.5691,37.9495 C14.5981,37.9395 14.6271,37.9545 14.6221,37.8975 C14.7121,37.9215 14.7511,38.0515 14.7281,38.0925 L14.5691,37.9495 Z" id="Fill-95" fill="#FFFFFF"></path>
                <polygon id="Fill-97" fill="#FFFFFF" points="23.2831 25.1515 23.3011 25.2635 23.1741 25.1525"></polygon>
                <path d="M27.8627,20.6329 C27.8557,20.4939 28.0167,20.7069 28.0447,20.7149 C27.9977,20.7839 27.9247,20.5409 27.8627,20.6329" id="Fill-99" fill="#FFFFFF"></path>
                <polygon id="Fill-101" fill="#FFFFFF" points="29.8679 17.5031 29.8519 17.5261 29.6109 17.2751"></polygon>
            </g>
        </g>
    </g>
</svg>