<?xml version="1.0" encoding="UTF-8"?>
<svg width="30px" height="30px" viewBox="0 0 30 30" version="1.1" xmlns="http://www.w3.org/2000/svg" xmlns:xlink="http://www.w3.org/1999/xlink">
    <title>icon/check Copy 1</title>
    <g id="R5---Dev-Facing" stroke="none" stroke-width="1" fill="none" fill-rule="evenodd">
        <g id="Homepage---Desktop" transform="translate(-1007, -4650)" fill="#F7C127">
            <g id="icon/check-Copy-1" transform="translate(1007, 4650.5606)">
                <path d="M28.4115021,11.9081242 C27.8800172,11.4038515 27.3319566,10.8830333 27.1650475,10.3728515 C26.98749,9.82833636 27.1271688,9.05894242 27.2621112,8.3167303 C27.4455869,7.3046697 27.63499,6.25824545 27.1023112,5.52436667 C26.5625536,4.78336667 25.5007354,4.64130606 24.4744627,4.50282121 C23.7310991,4.40339091 22.9628566,4.29922121 22.5083112,3.96897273 C22.0632203,3.64463939 21.731796,2.95215455 21.4110082,2.28218485 C20.96119,1.34112424 20.4948263,0.366942424 19.6105839,0.0804878788 C19.4495991,0.0284030303 19.2779475,0.00236363636 19.0980385,0.00236363636 C18.3996445,0.00236363636 17.6574627,0.401272727 16.9401294,0.787151515 C16.2689778,1.14818182 15.5717657,1.52342424 14.9822809,1.52342424 C14.392796,1.52342424 13.6955839,1.14818182 13.0208566,0.784787879 C12.3035233,0.398909091 11.5625233,0 10.8629475,0 C10.6842082,0 10.5113718,0.0260424242 10.3515839,0.0781242424 C9.46615967,0.365766667 9.00097785,1.33879091 8.55115967,2.28100303 C8.23155361,2.95097273 7.90012936,3.64345758 7.45503845,3.96779091 C7.000493,4.29803333 6.23225058,4.40221515 5.48888694,4.50163939 C4.46261421,4.63894848 3.40082633,4.78217879 2.86103936,5.52318485 C2.3283727,6.25591212 2.51776664,7.30348788 2.70123936,8.31554848 C2.83618179,9.05891212 2.97467482,9.82715455 2.798303,10.3716697 C2.63258179,10.8830333 2.0833333,11.4038515 1.55184845,11.9081242 C0.789545424,12.6325485 0,13.3818515 0,14.3311848 C0,15.2805182 0.789545424,16.0298212 1.55303027,16.7542455 C2.08451512,17.2573364 2.63257573,17.7793364 2.79948482,18.2895182 C2.97704148,18.8340333 2.83736361,19.6022455 2.70242118,20.3456394 C2.51894542,21.3589121 2.32954239,22.4053061 2.86222027,23.138003 C3.40197785,23.879003 4.46258391,24.0210636 5.48888694,24.1595485 C6.23225058,24.2589788 7.000493,24.3631485 7.45385664,24.693397 C7.90012936,25.0177303 8.23037179,25.711397 8.55115967,26.3801848 C9.00097785,27.3224276 9.46615967,28.2942458 10.3504021,28.5830639 C10.5102021,28.6351488 10.6818566,28.6611882 10.8617657,28.6611882 C11.5601597,28.6611882 12.3023415,28.2622791 13.0208566,27.8751882 C13.6955839,27.5117942 14.3927657,27.1365518 14.9822809,27.1365518 C15.571796,27.1365518 16.2689778,27.5117942 16.9437051,27.8751882 C17.6610385,28.261067 18.4032203,28.6599761 19.102796,28.6599761 C19.2815354,28.6599761 19.4531597,28.6339345 19.6141597,28.5818518 C20.4995839,28.2942094 20.9647657,27.3211852 21.4145839,26.3789727 C21.73419,25.709003 22.0656142,25.0165182 22.5118869,24.6921848 C22.9664324,24.3619424 23.7346748,24.2577606 24.4780385,24.1583364 C25.5043112,24.0198424 26.5649172,23.877797 27.1058869,23.1367909 C27.6385536,22.4052455 27.4479778,21.3576697 27.2656869,20.3456091 C27.1307445,19.6022455 26.9922506,18.834003 27.1686233,18.2883061 C27.3343445,17.7781242 27.883593,17.2573061 28.4150778,16.7530333 C29.1785627,16.0286091 29.9681082,15.2781242 29.9681082,14.3299727 C29.9645566,13.3818212 29.1750172,12.6325182 28.4115324,11.9080939 L28.4115021,11.9081242 Z M12.3875627,20.3455182 C12.3283778,20.404703 12.2502536,20.434297 12.1733112,20.434297 C12.1484536,20.434297 12.123596,20.4307455 12.0999203,20.4248273 C12.0371839,20.4177273 11.9768142,20.3916818 11.9294657,20.3443364 L7.26552633,15.6816091 C7.14715664,15.5632394 7.14715664,15.3714879 7.26552633,15.2530939 L8.55458694,13.9628515 C8.6682233,13.8492152 8.86946573,13.8492152 8.98310209,13.9628515 L12.1579506,17.1377 L20.982496,8.31679091 C21.0393142,8.25997273 21.1162566,8.22801212 21.1967475,8.22801212 C21.2772415,8.22801212 21.3541809,8.25997273 21.4109991,8.31679091 L22.6988778,9.60585152 C22.8172475,9.72422121 22.8172475,9.91597273 22.6988778,10.0343667 L12.3875627,20.3455182 Z" id="Fill-2"></path>
            </g>
        </g>
    </g>
</svg>