<?xml version="1.0" encoding="UTF-8"?>
<svg width="106px" height="77px" viewBox="0 0 106 77" version="1.1" xmlns="http://www.w3.org/2000/svg" xmlns:xlink="http://www.w3.org/1999/xlink">
    <title>Group 45</title>
    <defs>
        <filter x="-6.7%" y="-4.6%" width="113.5%" height="113.0%" filterUnits="objectBoundingBox" id="filter-1">
            <feOffset dx="0" dy="1" in="SourceAlpha" result="shadowOffsetOuter1"></feOffset>
            <feGaussianBlur stdDeviation="1" in="shadowOffsetOuter1" result="shadowBlurOuter1"></feGaussianBlur>
            <feColorMatrix values="0 0 0 0 0   0 0 0 0 0   0 0 0 0 0  0 0 0 0.35 0" type="matrix" in="shadowBlurOuter1" result="shadowMatrixOuter1"></feColorMatrix>
            <feMerge>
                <feMergeNode in="shadowMatrixOuter1"></feMergeNode>
                <feMergeNode in="SourceGraphic"></feMergeNode>
            </feMerge>
        </filter>
        <polygon id="path-2" points="0 0 6.16684822 0 6.16684822 4.24482299 0 4.24482299"></polygon>
        <filter x="-8.6%" y="-7.3%" width="120.2%" height="119.4%" filterUnits="objectBoundingBox" id="filter-4">
            <feOffset dx="0" dy="1" in="SourceAlpha" result="shadowOffsetOuter1"></feOffset>
            <feGaussianBlur stdDeviation="1" in="shadowOffsetOuter1" result="shadowBlurOuter1"></feGaussianBlur>
            <feColorMatrix values="0 0 0 0 0   0 0 0 0 0   0 0 0 0 0  0 0 0 0.35 0" type="matrix" in="shadowBlurOuter1" result="shadowMatrixOuter1"></feColorMatrix>
            <feMerge>
                <feMergeNode in="shadowMatrixOuter1"></feMergeNode>
                <feMergeNode in="SourceGraphic"></feMergeNode>
            </feMerge>
        </filter>
        <polygon id="path-5" points="0 0 18.4666165 0 18.4666165 18.5651193 0 18.5651193"></polygon>
        <polygon id="path-7" points="0 0 11.2664397 0 11.2664397 11.9921665 0 11.9921665"></polygon>
        <polygon id="path-9" points="0 0 4.63685564 0 4.63685564 10.3753045 0 10.3753045"></polygon>
        <polygon id="path-11" points="0 0 4.37331948 0 4.37331948 3.95500092 0 3.95500092"></polygon>
    </defs>
    <g id="R5---Dev-Facing" stroke="none" stroke-width="1" fill="none" fill-rule="evenodd">
        <g id="Homepage---Desktop" transform="translate(-277, -178)">
            <g id="Group-45" transform="translate(279, 180)">
                <g id="illustration/star-1-copy-7" filter="url(#filter-1)" transform="translate(0, 18)">
                    <path d="M12.3204189,19.4341808 C8.55040248,20.7636228 5.01850059,22.6287403 1.44678283,24.3839156 C-0.524493095,25.3531217 -0.446422761,27.8038174 1.46786182,29.0178592 C2.51790781,29.68297 3.68505929,30.1625048 4.78819311,30.7457439 C7.58545316,32.2256741 10.3335289,33.8061896 13.1862189,35.1699397 C14.9193803,35.9980145 15.5626798,37.2315495 15.7422416,39.0607993 C16.1325933,43.0280726 16.7032874,46.977412 17.18342,50.9368879 C17.2841307,51.7719802 17.367666,52.5805617 18.0773253,53.1786156 C19.3451875,54.2468476 20.512339,54.3131248 21.8988681,53.1411885 C23.4165554,51.8585304 24.8850584,50.5080357 26.1490171,48.9587094 C26.1154468,48.0955468 25.2746293,47.0171783 27.1030366,46.800413 C28.4794165,46.6366694 27.7510203,45.6503092 27.4699671,44.9033265 C27.2716685,44.3762281 26.2879823,43.7446457 27.2740106,43.2682298 C28.5894957,42.631969 29.1234968,41.703309 28.4146182,40.518897 C27.5355462,39.0467641 26.8899045,41.4654909 25.9671132,40.8580801 C27.1537823,40.6179229 27.8392398,39.8272753 28.2194423,38.716158 C28.2608196,38.5001725 28.254574,38.2810679 28.2131967,38.0666418 C28.0742315,37.8085507 27.8689065,37.6206355 27.6065902,37.5309663 C27.4684057,37.5894462 27.3552037,37.5613759 27.2896247,37.450654 C27.4481074,37.4397378 27.5425725,37.3524079 27.5816077,37.1761886 C27.6838798,35.2284196 27.4121951,33.3625224 26.5346845,31.6128052 C26.3504385,31.2463314 26.2895437,30.5851192 25.9507184,30.5640665 C22.4125709,30.3363849 22.7646681,26.3847063 20.5107776,24.9437627 C20.2632946,24.7854772 20.1532155,24.31296 19.8495219,24.2326477 C16.8258578,23.4279649 14.6820465,21.2634306 12.3204189,19.4341808" id="Fill-1" fill="#FDC769"></path>
                    <path d="M29.8610272,45.2537378 C31.9376981,42.7593771 34.4211154,42.1831556 37.5447095,43.1890091 C39.6291874,43.8611376 41.8908849,43.9858946 44.0737315,44.3554873 C44.0167401,43.8127942 43.6209235,43.4837476 43.2867825,43.1180536 C42.4451843,42.1971908 42.764492,41.540657 43.8566959,41.3769134 C45.2479093,41.1679454 45.7764454,40.6447456 45.1628126,39.2568238 C44.9824701,38.849804 45.4024885,38.495806 45.5359888,38.1129578 C46.2370604,36.1098279 45.4875852,35.404171 42.9893345,35.8946221 C43.8075116,35.0197635 45.4321553,34.3733662 44.3657145,33.1039635 C43.453853,32.0193571 42.1024555,31.1468377 40.4871803,31.3199381 C39.8852581,31.3846558 39.3340815,32.1986953 38.685317,31.5156507 C37.9584822,30.7491747 38.4042638,29.3682704 37.3058142,28.7670976 C37.5166041,28.5082267 37.840596,28.3819103 38.1122808,28.2563735 C38.6587731,28.0029608 38.4635973,28.5737242 38.5166851,28.7741151 C38.6892206,29.42753 38.7750979,30.1456626 39.6572927,30.1776316 C40.4528294,30.2064817 40.8751899,29.7479996 40.9813655,28.977625 C40.9930761,28.8949735 41.0250849,28.8138814 41.0243042,28.7320096 C41.0219621,27.7394116 44.38289,28.26651 42.1774031,26.3444722 C39.0296072,23.6029366 37.6204377,23.5093689 35.6733636,25.6123044 C35.519565,25.7596736 35.3798191,25.9226375 35.2470995,26.0863811 C35.1807398,26.1604556 35.1167221,26.2431071 35.0488009,26.3148424 C34.7357389,26.5986646 34.3516328,26.623616 33.9519127,26.5986646 C33.7434649,26.5947659 33.5436049,26.6298538 33.3476483,26.7000297 C32.9861827,26.8996409 32.6926382,27.1858023 32.3795762,27.4454529 C32.2203127,27.5592937 32.0672949,27.6848304 31.914277,27.8072482 C31.6121448,28.0349298 31.311574,28.2657303 30.9446435,28.3842494 C30.4285986,28.5058875 30.0132644,28.2384397 29.579974,28.0310311 C29.0717362,27.7799576 28.5595948,27.5546153 27.9701638,27.6497425 C27.7461019,27.7589049 27.6079174,27.9374634 27.5399962,28.1752814 C28.0513569,29.8018011 29.6525794,29.964765 30.8657924,30.6509286 C31.1039069,30.6127217 31.3209425,30.5214932 31.5161183,30.3811415 C33.0041389,29.0860077 34.0089041,29.9023864 35.064415,31.0797808 C36.030145,32.1581493 36.5625847,33.3176099 36.5165232,34.7328223 C36.0215573,32.3374875 33.9175618,30.2657413 31.9501894,30.3429347 C31.6769432,31.7511295 30.332572,32.2899239 29.5261055,33.2638084 C29.0896923,33.7909068 28.3987699,34.3141066 29.0686133,34.873174 C30.8283187,36.3398487 29.7735885,36.8973566 28.3948664,37.4712389 C28.1676817,37.5655864 28.0685324,37.8166599 28.0638482,38.0763105 L28.0646289,38.0763105 C28.3886207,38.7632538 27.3994696,40.0778809 29.0397273,40.1262243 C29.2466137,40.1332418 29.4246141,40.1722284 29.3684034,40.2346069 C29.2067978,40.4162843 28.9140341,40.51609 28.8344023,40.7383134 C28.2215502,42.4529427 27.4205486,44.2276113 29.8610272,45.2537378" id="Fill-3" fill="#FCBC57"></path>
                    <path d="M29.6560145,28.7146996 C30.1501997,28.9571961 30.6217446,29.3299077 31.2166405,28.9790285 C31.1830703,28.176685 31.8544751,28.1166456 32.3666165,27.8889641 C32.9482405,27.7345773 32.9131089,26.9322337 33.5158118,26.7996793 C33.8983565,26.6866183 34.0841639,26.4098137 34.1583307,26.0363223 C34.1372517,25.4328102 33.9639355,24.8753023 33.639163,24.3645783 C32.2908883,23.4764642 31.7069222,24.4207189 31.128421,25.3961629 C29.8582167,23.6916701 30.6529727,23.1021932 32.4298535,22.9992686 C33.7570492,22.9228549 35.0803413,22.7778249 36.3903615,22.5314298 C36.612862,22.4456593 36.8135027,22.3232415 36.9993101,22.1750925 C37.444311,21.8140769 37.7433204,21.3166083 38.2593653,21.003936 C40.1353954,19.8686471 40.1010445,19.6323885 37.9861191,18.3692237 C39.5607978,18.995348 40.865353,17.3165863 42.5750933,17.9528471 C43.128612,18.1594759 43.141884,16.6553741 42.710155,16.3996222 C40.6569052,15.1809021 39.6841489,12.7832281 37.4880304,11.7641192 C36.2631069,11.6042743 35.1037624,12.0682144 33.9030407,12.1407294 C33.3612326,13.1091558 32.9630739,14.4105275 31.4781761,13.1676357 C31.3540443,13.0639314 31.0940701,12.9851785 31.0144383,13.0732882 C29.5084616,14.7567282 27.402124,12.7879065 25.904735,14.0775822 C25.3418479,13.352432 25.4566113,12.5173397 24.9553997,11.9294222 C24.5096181,11.4077819 24.0536874,10.922789 23.3003087,11.0459866 C22.667939,11.1496909 21.7771565,11.0171365 21.5085945,10.7005656 C21.2736028,10.6748345 21.0393918,10.6865304 20.8075229,10.7325346 C20.015109,10.9945243 19.3343357,11.4171387 18.8463961,12.1126591 C18.7433433,12.3200677 18.6840099,12.5399519 18.6691765,12.7723119 C18.7082117,13.1075964 18.8268786,13.4070132 19.0813879,13.637034 C19.4350465,13.814033 19.7957314,13.8241695 20.1532935,13.6643246 C20.3492501,13.8272884 20.0650741,13.8311871 20.0549249,13.9325521 C19.404599,15.1419155 19.9370387,15.9107307 20.9097951,16.6545944 C22.5422457,17.9029443 24.1247314,19.2175714 25.8243226,20.377032 C26.97586,21.1622215 27.7409493,22.0706085 27.6558526,23.6152564 C27.58637,24.8643861 27.9634497,26.1057184 28.9635307,26.9618635 C29.5514003,27.4655699 29.5912162,28.0667428 29.6560145,28.7146996" id="Fill-5" fill="#FCB74E"></path>
                    <path d="M35.5489195,26.1802607 C36.0017274,26.1779215 36.3514825,25.9315264 36.6278515,25.6274312 C37.7583099,24.3837596 38.2158021,24.1779106 39.2314971,25.2625169 C40.1636569,26.2574541 41.6977389,26.1631066 42.4924949,27.2921577 C41.7297478,28.1061972 41.0216498,27.0925464 40.3190168,27.3943025 C39.7795508,27.958828 40.3166747,28.4508385 40.4345609,28.9810558 C40.5555699,29.5237489 40.1792709,29.7241398 39.7373929,29.7779413 C39.3204973,29.8286239 39.1019003,29.5393435 39.1604531,29.1736495 C39.3204973,28.167796 38.8263121,27.4605797 38.2743548,26.7892309 C37.2110369,26.8898163 38.2563986,27.9073657 37.5787481,28.1163337 C37.0455278,28.2800773 36.4279914,27.729587 35.8971131,28.3393369 C35.992359,28.53349 36.0415433,28.826669 36.213298,28.9498666 C36.9003169,29.4426568 38.1752055,29.4052297 37.4577391,30.9529965 C37.228993,31.4481259 38.1986266,32.1709369 38.8099173,32.5997892 C39.4821029,33.0707469 39.897437,32.4360456 40.2729553,32.071911 C40.8069564,31.5533897 41.2113608,31.4777557 41.6961775,32.0898448 C42.0748186,32.5670405 42.6400479,32.6956961 43.1998121,32.88751 C44.5012446,33.3335164 44.6035167,33.9050595 43.6049972,34.7128612 C43.3497072,34.9202697 43.0546013,35.0824539 42.7649604,35.2422988 C42.344942,35.4730993 41.6907126,35.6391821 42.060766,36.2707645 C42.3597754,36.7807088 43.2833474,37.1861691 43.5269268,36.7440614 C44.260788,35.41306 44.9696666,36.083629 45.318641,36.7619953 C45.7511506,37.6009862 45.0188509,38.0867589 44.2428318,38.3635635 C44.1108929,38.4103474 44.0273577,38.594364 43.8743398,38.7690238 C44.2490774,39.2797479 44.6347449,39.8029476 44.9891842,40.2856014 C44.9657631,40.4267327 44.9766929,40.5195208 44.9368771,40.5577276 C44.8814471,40.6091899 44.7768329,40.6590927 44.7096924,40.6434981 C43.3965494,40.3230285 42.0779415,40.9499325 41.8804235,41.9534468 C41.6508967,43.1160263 43.0296188,43.8053088 44.0734192,44.3550194 C45.1991934,44.8431313 46.3936695,44.9897208 47.602979,45.0669142 C47.9035497,44.896153 48.0253395,44.4930319 48.2790681,44.3589181 C50.7734152,43.0513086 50.5126603,41.0099718 49.818615,38.8360807 C48.3235681,35.7771945 46.8987846,32.6824407 45.3038076,29.677356 C44.5488675,28.2559057 44.6019553,27.079291 45.3678253,25.7069638 C47.355496,22.1428117 49.2533858,18.5287567 51.1614248,14.9209396 C51.5392852,14.205926 52.1622864,13.5532908 51.960865,12.6277497 C50.9436085,12.8086473 50.5665288,13.6460788 50.1223086,14.4117751 C49.4969653,15.4659719 48.9762361,16.5770891 48.4125683,17.6616954 C47.6849528,18.8632615 47.460891,21.0168796 45.2116846,19.1330485 C44.6308414,18.6464962 44.1717878,19.2515677 44.1647615,19.9642422 C44.1585158,20.6418288 44.3966304,21.2656139 44.6862713,21.8589894 C45.1960706,22.9038295 44.9103332,23.6437946 44.1155772,24.492922 C42.9819959,25.7030651 42.9734082,23.3833643 42.0326607,23.970502 C41.6821249,24.1888268 41.4650893,23.5385308 41.2261941,23.2110437 C39.2229094,20.4710676 39.1432776,20.4617108 36.5505618,22.1763401 L36.5497811,22.1771198 C35.6933496,23.0246879 34.4598383,23.5798566 34.347417,25.0091042 C34.5308823,25.6219731 34.800225,26.147512 35.5489195,26.1802607" id="Fill-7" fill="#FCB74E"></path>
                    <path d="M29.6560145,28.7146996 C30.2766737,28.0511482 30.5132268,27.4928605 29.6333741,26.7435387 C28.3358452,25.6378796 28.1024149,24.4363135 28.6489072,22.8214899 C28.7308811,22.5797731 28.8518901,22.2109602 28.6582757,22.1828899 C27.2077289,21.9692435 27.6004227,19.9739109 25.8852174,19.6550007 C24.5751972,19.4117245 23.4650371,17.8982659 22.3673682,16.8440691 C22.0683588,16.557128 21.8653759,16.2740855 21.4328663,16.1750596 C19.8105648,15.802348 20.0635126,14.7988337 20.6381103,13.7048706 C20.5858032,13.4491187 20.4429345,13.3625685 20.1962322,13.4693917 C19.823056,13.4592552 19.4490991,13.4498984 19.0759229,13.4397619 C18.2218335,13.3898591 17.5715076,14.6631604 16.5956284,13.8233898 C16.0538203,14.914234 15.9921448,16.1126811 15.8172672,17.2861768 C15.8391269,19.6370669 16.9001027,21.1879526 18.8034575,22.7162261 C20.9667864,24.4534676 22.7210268,26.7146886 25.2481635,28.0511482 C25.4675411,28.1275619 25.6962872,28.1665484 25.9281561,28.1813633 C26.5979996,28.1353592 27.2452026,27.9661575 27.8869408,27.7735638 C28.4763718,28.0870158 29.0658028,28.4012476 29.6560145,28.7146996" id="Fill-9" fill="#FCB954"></path>
                    <path d="M36.550796,22.176574 C37.7124826,23.0576705 38.1067378,22.2857364 38.3979401,20.9219862 C39.4550125,22.3808637 41.3411917,22.7878834 41.0281297,24.7473484 C41.7393504,25.1208397 42.1710794,24.176585 42.7620718,24.6069967 C42.8979142,24.8853608 42.780028,25.088091 42.6051504,25.2744468 C42.3881149,25.5068067 42.0250878,25.7227923 42.2998954,26.0884864 C42.5270801,26.3910221 42.9135282,26.3676302 43.1813095,26.1524243 C43.9432759,25.5426744 44.5264613,24.7613835 45.4336386,24.2662541 C46.2307367,23.8303843 45.9395344,22.9149796 45.5858758,22.2537674 C45.1182345,21.3781291 44.6162422,20.5391381 44.5584702,19.5722712 C44.8637252,19.3211977 45.1330678,19.3594046 45.2618839,19.5551171 C46.5648777,21.5387538 46.9934839,21.5434322 48.1661003,19.5426414 C48.3753288,19.1847447 48.550987,18.8073547 48.7414786,18.4393215 C49.5822961,16.1305369 47.6750379,14.9063587 46.6242112,13.4217501 C46.0784996,12.6513755 45.0682694,13.0123912 44.122057,13.2907553 C41.7221749,13.9964121 40.8189012,13.3788649 40.6533921,11.2782686 C39.5658723,11.2268063 38.5025544,11.3367484 37.4884208,11.7648209 C38.885099,13.3429973 39.6041268,15.5831655 42.0001053,16.1968141 C42.5762644,16.3441833 42.5934399,17.0669943 42.6434049,18.1734331 C41.7471575,16.9609508 40.8251468,16.774595 39.7672938,16.7948681 C39.7532411,17.1917513 39.7384078,17.5917535 39.7204516,18.0814248 C39.0833977,18.4447797 38.8242042,17.4287897 38.2948873,17.6081279 C37.7788424,17.7827877 36.9333407,17.6666077 36.8419984,18.2849347 C36.7147437,19.1403 37.4649997,19.0607674 38.0575535,18.96642 C38.7117829,18.8627157 39.0591959,19.3414707 39.098231,19.7921555 C39.1684943,20.6116532 38.451028,20.2288051 38.0341324,20.3223728 C37.0566918,20.5406976 37.0301479,21.5442119 36.550796,22.176574" id="Fill-11" fill="#FBB247"></path>
                    <path d="M20.9325135,11.0261034 C21.5000849,11.0339008 21.7514713,11.2841945 21.9310331,11.8705525 C22.1863231,12.7064246 22.7585786,13.3278705 23.9561776,12.9879076 C24.03659,12.9598373 24.0436163,12.8522343 23.8937213,12.6627596 C23.6251593,12.3235765 22.752333,12.153595 23.2605709,11.5914087 C23.6782472,11.1298077 24.1357393,11.6880954 24.4152311,12.0935557 C24.7306353,12.5520377 25.2818118,12.9637359 24.923469,13.6319657 C24.6361702,14.1692006 24.7509335,14.5988326 25.2201363,14.9216414 C25.7650672,15.2966922 26.1546381,14.9582888 26.4817528,14.5497095 C27.1508156,13.7130578 27.7363431,14.1879142 28.4335112,14.559846 C29.1423898,14.937236 29.9707161,15.2733003 30.2369359,13.9508758 C30.3165676,13.5524331 31.0793148,13.2280648 31.1940782,13.5282614 C31.9740008,15.5571225 33.241863,13.956334 34.2817599,14.153606 C34.3278214,13.3613989 33.7001359,12.8311816 33.9031188,12.1403396 C31.9982026,10.9231789 30.6733491,9.11264264 29.1634688,7.49470003 C27.705115,5.93289808 26.3412262,4.28064729 24.6955036,2.90130248 C24.5994771,2.95900261 24.5034506,3.015923 24.4066434,3.07206365 C24.3590205,3.17108954 24.3113976,3.27167489 24.2606519,3.37070077 C24.0506427,3.75588807 24.2138097,4.44906927 23.6196944,4.47402067 C23.3878255,4.48337745 23.447159,3.76290566 23.1301934,3.48454155 C22.9240877,3.36680212 22.7070522,3.32547635 22.4728412,3.35588588 C21.3673653,3.84867611 20.1307312,4.31183655 21.3501898,5.82451542 C21.9450858,6.56370076 21.3907864,6.4428424 20.9184609,6.65804826 C19.2961593,7.39723361 19.068194,8.71497964 20.6358463,9.4323325 C21.9958315,10.0553379 20.6194515,10.57152 20.9325135,11.0261034" id="Fill-13" fill="#FBB448"></path>
                    <path d="M26.091167,27.9504849 C24.5180497,27.0670492 23.2665823,25.7251315 21.6224211,24.9220082 C20.5403662,24.3933503 20.7214894,22.6015276 19.7081365,22.2553269 C18.6151518,21.8818356 17.9281329,21.2190639 17.193491,20.4923543 C16.8570079,20.1609684 16.3604806,19.8709083 16.7219462,19.2689557 C17.3816405,18.1671953 15.5204438,18.2194373 15.8178918,17.2868786 C14.835767,18.3013091 13.3516499,18.4993609 12.3211215,19.4342588 C12.643552,19.6814336 13.0370265,19.8935206 12.7192802,20.408923 C12.4296393,20.8806605 12.4999026,21.3180898 13.1150968,21.1340732 C14.0691163,20.8486915 14.1885639,21.4950888 14.5492488,22.0588346 C15.0793464,22.8861296 14.9817585,24.9804881 16.9124378,23.4124483 C17.596334,24.6366265 20.059453,23.6276541 19.9688914,25.8405318 C19.9634265,25.9785442 20.0735056,26.2218204 20.1757778,26.2498907 C22.4538701,26.8861516 22.5506773,28.8245638 22.8848184,30.6538136 C22.9503974,31.0085913 23.17524,31.4358841 23.6475655,31.5341303 C23.9348643,31.4007962 23.8372764,31.1551808 23.8614782,30.9313979 C23.8958292,30.6078094 23.3626088,29.9200863 24.4782339,30.3980617 C25.9600088,31.0335428 26.3167902,32.237448 26.6290716,33.4592871 C26.9718003,34.8012048 27.0100548,36.2195361 27.1810288,37.6051188 L27.1810288,37.6066783 C27.475354,37.7634043 27.7704598,37.9201303 28.0640043,38.0768563 C29.0703309,37.6955676 30.0766575,37.314279 31.1204579,36.9181755 C31.1704229,35.6144646 30.1531664,34.9384375 29.1421556,34.3715728 C29.462244,33.3844329 30.9635365,34.0012004 30.8862469,32.5431027 C30.8401854,31.6822793 32.1798723,32.5898866 32.7091891,32.1438802 C32.9012422,31.3774043 31.983135,31.1965066 32.0705738,30.5696026 C31.9238016,30.1360719 31.6193273,29.9980595 31.1875983,30.0994246 C31.109528,30.2460141 31.0314577,30.3926036 30.9526066,30.5391931 C28.6440669,30.9657061 27.3808889,29.4327542 26.091167,27.9504849" id="Fill-15" fill="#FDC05F"></path>
                    <path d="M20.9325135,11.0261034 C21.1222244,10.7500785 21.3369179,10.5029037 21.6936993,10.4506617 C22.1020071,10.3914021 22.8054208,10.8709369 22.7757541,10.0030959 C22.7593593,9.52278134 22.3877445,9.08301285 21.7709889,9.14071297 C21.1940491,9.19451443 20.5484075,9.36137695 20.2618894,8.68379038 C20.1135557,8.33525045 20.1088715,7.84947781 20.2251963,7.48378379 C20.3852405,6.98007732 20.8419519,7.07988294 21.2541633,7.22881163 C21.4852515,7.31146316 21.7272695,7.38865656 21.9692876,7.40503092 C22.3034286,7.42764313 22.6305433,7.35590784 22.8249384,7.03465852 C23.0357283,6.68611859 22.7531137,6.43192616 22.6625521,6.13017012 C22.4408324,5.38474692 21.4337251,5.64985559 21.1831193,4.92392568 C21.3509705,4.09741042 22.50485,4.26427293 22.6992452,3.46504827 C21.5016463,1.33248295 19.8848097,2.42800554 18.3476048,2.90208221 C17.5333312,6.13796743 16.9743476,9.41751761 16.6722154,12.7407327 C16.683926,13.3426854 16.8658299,13.8845987 17.5544102,13.8861622 C18.2476748,13.8877176 18.6872107,13.4393721 18.8683339,12.7641247 L18.8691146,12.7633449 C18.9846587,11.5071977 19.3375366,10.5301943 20.9325135,11.0261034 Z" id="Fill-17" fill="#FAAE43"></path>
                    <path d="M40.6535482,11.2780346 C40.380302,11.6811558 39.946231,12.0562066 39.86738,12.4944156 C39.7229498,13.3006578 40.8705837,13.5634273 40.8682416,14.394621 C40.8674609,14.4398454 41.2601547,14.5341929 41.2632775,14.5271753 C41.9136034,12.8156649 42.7372454,14.4187926 43.4687644,14.391502 C43.7763616,14.3798061 44.2088712,14.3002735 44.3611084,14.0905257 C45.3682157,12.696366 46.1660945,13.7256114 47.0264295,14.226199 C47.022526,15.1369252 45.8990939,14.7564163 45.6844005,15.4020339 C45.843664,15.5096368 45.977945,15.6764993 46.0872434,15.6616845 C48.1256598,15.387219 48.1272213,15.3817609 48.519915,17.2367418 C48.6050117,17.6359643 48.6682487,18.0390854 48.7416348,18.4398674 C49.3685396,17.2640324 49.9954443,16.0874178 50.6223491,14.9115829 C50.3553486,13.8753199 50.2156027,12.7914933 49.5106276,11.9174144 C49.2920306,11.6468476 48.959451,11.3864173 48.6666873,11.4948 C46.9421136,12.1357392 44.8927673,10.4811492 43.1338427,12.6940268 C43.5280979,11.7723843 44.0589762,11.3879768 43.7880721,10.7665309 C42.7192892,10.7899228 41.6520678,10.8265702 40.6535482,11.2780346" id="Fill-19" fill="#FAAF3B"></path>
                    <path d="M29.8610272,45.2537378 C29.7111322,44.962898 29.5745091,44.6634812 29.4082193,44.3819981 C28.2582433,42.4350089 28.2855679,42.1122001 29.9016238,40.5823671 C30.3677037,40.1410392 30.6487569,39.7207639 30.2708965,39.090741 C29.6018337,38.9192001 29.480044,39.9125779 28.7243232,39.7246626 C28.5229017,39.2217359 28.2933749,38.649413 28.0646289,38.0763105 C27.869453,38.4420045 27.635242,38.7921039 27.4861277,39.1757317 C26.9974074,40.4272006 26.3018007,40.5948428 25.3227987,39.6630638 C25.2470705,39.5913285 25.0112981,39.6880152 24.8504732,39.7067288 C25.4438078,41.8026467 25.7607733,41.894655 27.8749179,40.585486 C28.174708,42.5301361 28.174708,42.5301361 25.7802909,42.6712675 C25.8833437,44.0521718 26.874837,44.9909683 27.6610052,46.3827888 C26.6866875,46.2502345 25.7529663,45.2825879 25.2135003,46.8592047 C24.7739643,48.1418628 25.3110882,48.4958609 26.1495636,48.9590213 C27.5079874,47.8455649 28.719639,46.5847393 29.8610272,45.2537378" id="Fill-21" fill="#FDC05F"></path>
                    <path d="M43.787916,10.766141 C43.3913187,11.2846624 42.9939407,11.8031837 42.519273,12.4238499 C43.0446864,12.8277508 43.6388016,12.5228758 44.1337675,12.4862284 C45.0791993,12.4168323 45.916894,11.3688734 46.9887996,12.5142987 C47.4673708,13.0250228 48.0989598,12.0363234 48.7531892,11.8491879 C49.8711564,12.5610826 49.3363746,14.3069012 50.6229737,14.9119727 C51.0679746,14.1509549 51.5137562,13.3891574 51.9603185,12.6281395 C51.6745811,10.5984988 50.7330528,9.76262671 48.6790224,9.96535687 C47.037984,10.127541 45.4172438,10.4916756 43.787916,10.766141" id="Fill-23" fill="#FAAC33"></path>
                    <g id="Group-27" transform="translate(18.3235, 0)">
                        <mask id="mask-3" fill="white">
                            <use xlink:href="#path-2"></use>
                        </mask>
                        <g id="Clip-26"></g>
                        <path d="M0.0242743767,2.90169235 C1.456865,3.22528087 3.06433317,2.20851115 4.37591477,3.46543813 C4.522687,3.54263154 4.66867852,3.62138441 4.81388934,3.70091701 C5.55633822,4.50871872 6.03334795,4.45413752 6.16684822,3.28454046 L6.16528682,3.28376072 C5.94668988,2.73327037 5.5758558,2.2693302 5.2948026,1.75470749 C4.50785363,0.458014211 3.40159701,-0.341990182 1.86829566,0.143002735 C0.627758055,0.535207618 -0.149822467,1.45685011 0.0242743767,2.90169235" id="Fill-25" fill="#FAA82A" mask="url(#mask-3)"></path>
                    </g>
                    <path d="M49.8183027,38.8361587 C49.3772054,39.7086781 49.5520829,40.5570259 49.8206449,41.4466994 C50.0236277,42.1172683 49.9299433,42.78004 48.9993449,42.8767267 C47.6081316,43.0194175 47.6737107,44.0860901 47.6026667,45.0669921 C50.6630238,45.5792757 52.1143513,44.0003196 51.0744544,41.2268151 C50.7606117,40.3909431 50.2430054,39.630705 49.8183027,38.8361587" id="Fill-28" fill="#FDC566"></path>
                    <path d="M18.8684901,12.7637348 C18.1307254,13.2892738 17.3898379,14.0783619 16.6723716,12.7411226 C16.4615817,13.0888828 16.397564,13.4467795 16.5958626,13.8233898 C17.6099963,14.9072164 18.3961645,14.5220291 19.0761571,13.4397619 C19.0066745,13.2144196 18.9379726,12.9890772 18.8684901,12.7637348" id="Fill-30" fill="#FBB448"></path>
                    <path d="M23.6182891,1.75470749 C23.587061,2.44710896 23.884509,2.95237489 24.4887734,3.28376072 C24.5598174,3.15744424 24.6285193,3.02956829 24.6956598,2.90091262 C24.4185101,2.44243057 24.1663429,1.95977684 23.6182891,1.75470749" id="Fill-32" fill="#FAAE43"></path>
                    <path d="M24.0142619,42.9577408 C24.1477621,41.1838519 24.1477621,41.1830722 22.7206365,41.2906751 C22.640224,41.296913 22.5527852,41.3210846 22.4840833,41.3624104 C21.9094857,41.7078314 20.9382907,40.0930077 20.7641939,41.5238148 C20.6283515,42.6372712 21.9313454,41.955786 22.5332677,42.2435068 C23.0258915,42.478206 23.2944534,43.2041359 24.0142619,42.9577408" id="Fill-34" fill="#FDC05F"></path>
                    <path d="M27.1806385,37.6050408 C26.6786462,37.4163458 26.1797768,37.31732 25.9572763,37.9707348 C25.8315831,38.3403275 26.0189519,38.6366254 26.4241369,38.6491011 C27.1486296,38.6709336 27.1158401,38.0915932 27.1814192,37.6066003 L27.1806385,37.6050408 Z" id="Fill-36" fill="#FDC05F"></path>
                    <path d="M24.8285355,35.2628837 C24.8941145,34.977502 24.7840354,34.7661948 24.5357717,34.7108339 C24.2133412,34.6406581 23.9010599,34.7428029 23.6894893,35.0118102 C23.5083661,35.2433904 23.5778487,35.4874464 23.8307966,35.5895912 C24.2398851,35.7556739 24.5990087,35.6496305 24.8285355,35.2628837" id="Fill-38" fill="#FDC05F"></path>
                    <path d="M24.8394653,32.881818 C25.0728956,32.9956588 25.3313084,33.0455616 25.4991596,32.8225584 C25.6818442,32.5792822 25.5538089,32.3492615 25.2883697,32.2611518 C25.0369832,32.1777206 24.7684213,32.2439977 24.6489737,32.4966307 C24.6114999,32.5777228 24.7707634,32.7516029 24.8394653,32.881818" id="Fill-40" fill="#FDC05F"></path>
                    <path d="M31.1874422,30.0994246 C31.4817674,30.2561506 31.7760925,30.4128766 32.0704177,30.5696026 C32.9042088,30.2124856 33.3187623,30.6397784 33.5514119,31.3742854 C33.6732016,31.7594727 33.6443156,32.1641532 33.8754038,32.5485608 C34.3297731,33.30568 35.5437668,31.8842297 35.6483811,33.1614297 C35.6975654,33.7750783 35.1713713,34.4167972 35.5835827,35.0748905 C35.8013989,35.4234304 36.0457591,35.7563757 36.4158124,36.298289 C37.1442087,35.2682639 38.2434389,34.6320031 36.8904801,33.2932043 C36.2588911,32.6686395 36.23547,31.6284778 35.6015389,30.7949449 C34.1876851,28.9345059 32.9135773,28.530605 31.1874422,30.0994246" id="Fill-42" fill="#FCB954"></path>
                    <path d="M42.5332476,39.0891036 C42.8010289,38.2064476 42.6167829,37.8290577 42.4098965,37.4719407 C42.0991766,36.9362652 41.5386316,36.6984472 41.0147797,36.475444 C39.8710493,35.9881119 40.9320251,35.3799214 40.8898671,34.8380081 C40.8469284,34.2906367 40.8648846,33.7385868 40.8570776,33.1943343 C40.5705595,33.1148017 40.3379099,33.2309817 40.2145587,33.4399497 C39.745356,34.234496 38.4189411,34.2766015 38.5610291,35.6808977 C38.7070206,37.1272994 39.9616109,36.8653097 40.6829807,37.3877297 C41.2747539,37.8158022 41.9313254,38.1542056 42.5332476,39.0891036" id="Fill-44" fill="#FCB74E"></path>
                    <path d="M26.091167,27.9504849 C25.851491,28.2265098 25.3268584,28.4612089 25.7843506,28.9033166 C26.9390108,30.0175528 28.3731628,30.7450421 29.754227,31.5099586 C30.5185356,31.932573 30.9369926,31.346215 30.9526066,30.5391931 C30.3163334,29.1068265 28.5566281,29.2666714 27.6517929,28.2148138 C27.1474586,28.0323567 26.6329751,27.9060402 26.0896056,27.9512646 L26.091167,27.9504849 Z" id="Fill-46" fill="#FCB954"></path>
                    <path d="M35.5489195,26.1802607 C35.2171205,25.7685626 34.9719797,25.2734331 34.4590576,25.0324961 C34.3653732,25.0636854 34.2709081,25.0956544 34.1772237,25.1276234 C33.9430127,25.3498468 33.8454248,25.604819 33.9867321,25.9167115 C33.8298107,26.21145 33.6728893,26.5054087 33.515968,26.7993675 C33.8782143,26.9802651 34.2256273,27.207167 34.6066105,27.3311443 C35.2467873,27.5385528 35.5348668,27.3124307 35.3139278,26.6223684 L35.313147,26.6223684 C35.3919981,26.4749992 35.4700684,26.32763 35.5489195,26.1802607" id="Fill-48" fill="#FCB954"></path>
                    <path d="M26.0892933,27.9511866 C26.5116538,28.6209759 27.0183302,28.7909573 27.6522614,28.2147358 C27.7303317,28.0681463 27.808402,27.9207771 27.8864724,27.7734079 C27.247857,27.4233085 26.608461,27.076328 26.0892933,27.9511866" id="Fill-50" fill="#FDC05F"></path>
                    <path d="M34.3155643,34.0483741 C34.5130823,33.8986657 34.5372841,33.7396005 34.3733364,33.6031475 C34.003283,33.2967131 33.6277647,33.2967131 33.3256325,33.6912572 C33.2405358,33.8027587 33.1851059,34.0842418 33.2452201,34.1341446 C33.6277647,34.4553939 33.990011,34.219915 34.3155643,34.0483741" id="Fill-52" fill="#FDC05F"></path>
                    <path d="M32.3668507,27.889198 C31.3316381,27.5656095 30.8835144,27.8611277 31.2168747,28.9784827 C31.6298668,28.6470969 32.1256134,28.4022612 32.3668507,27.889198" id="Fill-54" fill="#FCB954"></path>
                    <path d="M42.6537102,33.4167917 C42.401543,33.331801 42.1415688,33.3177658 42.0260247,33.5976894 C41.9510772,33.7801465 42.0923845,33.9056833 42.3023937,33.9158198 C42.5420696,33.926736 42.8137543,34.0086078 42.9589652,33.7481775 C42.9823863,33.7068518 42.7614472,33.5306325 42.6537102,33.4167917" id="Fill-56" fill="#FCB74E"></path>
                    <path d="M33.5158118,26.7993675 C32.8256701,26.8399135 32.6414241,27.4122363 32.3666165,27.8894319 C33.0567583,27.8488859 33.2410043,27.2765631 33.5158118,26.7993675" id="Fill-58" fill="#FCB954"></path>
                    <path d="M34.4591357,25.0324182 C34.6340132,24.7673095 34.7737591,24.3096072 34.9900139,24.2698409 C36.2016655,24.0483972 36.2953499,23.0667154 36.5498592,22.1770419 C34.9829876,21.9064751 33.4512477,22.4507276 31.8835954,22.3680761 C30.6024612,22.3002394 29.9271528,23.3770485 29.0894581,24.1349474 C29.2619936,24.7860231 29.8334684,24.6051254 30.2769079,24.7158472 C30.7695317,24.8390448 30.6711631,25.0542507 30.3643467,25.3583459 C29.2658971,26.443732 30.6610139,26.3571818 31.0263831,26.5217051 C31.6946652,26.821122 31.7360424,26.4016265 31.7407267,25.7653657 C31.7493144,24.6051254 32.4956668,24.2558057 33.5738181,24.5614604 C33.7283973,24.9817356 34.0250646,25.1361224 34.458355,25.0324182 L34.4591357,25.0324182 Z" id="Fill-60" fill="#FCB954"></path>
                    <path d="M20.9322793,11.0261814 C20.67777,10.8156539 20.4537082,10.5372898 20.1632865,10.4086342 C19.5020308,10.1170146 18.6065641,9.53143636 18.8704418,11.0714058 C18.967249,11.63983 18.4878972,12.2004569 18.8688804,12.7634229 C19.3529165,11.9431455 20.2421376,11.6024029 20.9322793,11.0261814" id="Fill-62" fill="#FBB448"></path>
                    <path d="M20.1963103,13.4693137 C20.3438632,13.5480666 20.4906354,13.6268195 20.6381884,13.7047926 C20.9949698,13.3874419 21.4914971,13.114536 21.0980226,12.5203807 C21.0176102,12.3995223 20.8193115,12.2482544 20.7107938,12.2724261 C20.0151871,12.4283723 20.3165386,13.0435804 20.1963103,13.4693137" id="Fill-64" fill="#FBB448"></path>
                    <path d="M34.4586672,25.0324961 C34.1635614,24.8757701 33.8692362,24.7190441 33.5741304,24.5615384 C33.2821473,25.1439977 33.4203318,25.5954622 33.9863417,25.9167115 C34.1440438,25.6219731 34.3009652,25.3272346 34.4586672,25.0324961" id="Fill-66" fill="#FCBC57"></path>
                    <path d="M18.9480437,19.7754692 C18.5990693,19.7232272 18.24463,19.7832665 18.1454807,20.138824 C18.0174453,20.600425 18.3219196,20.9216744 18.7146134,21.1088099 C19.0628071,21.2741129 19.3805534,21.1485762 19.4679921,20.7711862 C19.571045,20.3282988 19.3618165,19.982098 18.9480437,19.7754692" id="Fill-68" fill="#FDC05F"></path>
                    <path d="M18.0458629,18.5631429 C18.0466436,18.6426755 18.0294682,18.7845866 18.0513279,18.7900447 C18.2152756,18.8368286 18.216837,18.7494987 18.0443015,18.5639226 L18.0458629,18.5631429 Z" id="Fill-70" fill="#FDC05F"></path>
                    <path d="M18.0441454,18.5636107 C18.0433647,18.4840781 18.0605402,18.342167 18.0386805,18.3359292 C17.8739521,18.289925 17.8731714,18.3772549 18.0457068,18.562831 L18.0441454,18.5636107 Z" id="Fill-72" fill="#FDC05F"></path>
                    <path d="M24.4903348,3.28461843 C24.1725885,3.85616153 23.7174385,3.98091855 23.1373759,3.70099498 C23.3099113,4.21717716 22.5268659,4.757531 23.081946,5.18560353 C23.3278675,5.37507825 23.9391582,5.35714443 24.2248956,5.17858594 C24.9853007,4.70139034 24.7323528,3.96688338 24.4903348,3.28461843" id="Fill-74" fill="#FAAE43"></path>
                    <path d="M35.3132251,26.6222125 C35.2343741,26.6229922 35.0915054,26.6066179 35.0852597,26.6284503 C35.0391982,26.7929737 35.1274177,26.7937534 35.3132251,26.6222125 Z" id="Fill-76" fill="#FCBC57"></path>
                </g>
                <g id="illustration/star-1-copy-8" filter="url(#filter-4)" transform="translate(77.131, 24.3197) rotate(30) translate(-77.131, -24.3197)translate(59.7654, 6.2637)">
                    <path d="M25.7092309,25.913051 C27.1145929,25.9066617 28.5139051,25.8037933 29.9095874,25.6363926 C29.8605842,24.5438157 29.0378153,23.9400231 28.4770014,23.1886368 C27.9530912,22.4870874 27.3795729,21.8257908 26.8853065,21.0974061 C26.0722172,19.8942936 25.1580967,18.7742424 24.2784599,17.6254392 C24.115116,17.4516492 23.9426975,17.2855264 23.7896383,17.1002356 C23.7200659,17.0005619 23.6456537,16.9066386 23.5730565,16.8101596 C23.4677905,16.6555376 23.3613145,16.5028324 23.2512086,16.352044 C19.7834795,12.1139953 16.4155716,7.78777379 12.9260632,3.57144889 C12.854071,3.4660248 12.7754239,3.36571217 12.6979869,3.26476062 C12.6272045,3.15933652 12.5491625,3.05966283 12.4705154,2.96062807 C12.2732929,2.71399958 12.0676006,2.4769551 11.81835,2.28591386 C11.713689,2.20540819 11.6060031,2.12745825 11.4868226,2.0757046 C11.0966123,1.90574818 10.6586088,1.56711321 10.2956225,1.97986452 C9.8424946,2.49676205 10.6567939,2.69099796 10.6658685,3.19256108 C9.84128465,3.20533976 9.25022195,3.51075017 9.24961697,4.53496123 C9.249012,4.86081753 8.90598994,5.04163583 8.71118729,5.27995818 C8.16791779,5.94317158 7.8841835,6.58657803 8.74143615,7.22806768 C8.99068674,7.41463638 9.24417218,7.66637634 9.19879889,8.00692812 C9.11470706,8.64138949 9.17762469,9.14231368 9.74630323,9.53653591 C10.1286488,9.80169348 9.67007611,10.0828244 9.61865305,10.3633164 C9.62409784,10.7313423 9.81285072,10.9849991 10.0742009,11.1945694 C10.3760845,11.4169184 10.7088219,11.594542 10.9756168,11.8699226 C11.0657584,11.9549008 11.1649747,12.0271003 11.2684258,12.0929105 C11.6834401,12.2826739 12.3464951,12.3912926 12.270873,11.8296697 C12.1123689,10.657226 12.9962406,11.082756 13.3955255,10.7894853 C13.4832472,10.6910895 13.356807,10.4974925 13.4590481,10.4642679 C13.5570544,10.4329602 13.4874821,10.6553092 13.594563,10.705785 C13.8910018,11.5536503 14.390108,12.030295 15.2576453,12.3714857 C16.8196963,12.986779 18.073814,14.2122543 19.3769348,15.3041923 C19.5910967,15.4837328 19.6400999,15.7635858 19.7024125,16.0319381 C19.9310939,17.0178131 20.4713385,17.7468367 21.3310111,18.2068691 C21.6050657,18.3538239 22.0382294,18.6062028 21.9099742,18.8470809 C21.122294,20.324935 22.5149514,20.9159489 23.0406766,21.7357011 C23.4145525,22.3190478 23.426652,22.7107143 23.3044466,23.2621142 C23.3691792,23.5266329 23.505299,23.7470651 23.6831623,23.941301 C24.3667865,24.588541 25.0588804,25.226836 25.7092309,25.913051" id="Fill-1" fill="#FDC563"></path>
                    <g id="Group-5" transform="translate(0.8917, 17.5468)">
                        <mask id="mask-6" fill="white">
                            <use xlink:href="#path-5"></use>
                        </mask>
                        <g id="Clip-4"></g>
                        <path d="M3.48164362,5.71973639 C5.25725162,6.41425755 7.14236049,6.65130203 8.96334178,7.16372703 C9.78671571,7.39566004 10.2930816,7.76943638 10.6560679,8.60771768 C11.1200854,9.67984878 11.316098,10.8682659 11.9476942,11.8605302 C12.0565901,12.0886296 12.1455217,12.3250352 12.1866601,12.578053 L12.190895,12.5927485 C12.3899325,12.8943253 12.4232062,13.3773593 12.9271522,13.3454126 C13.6779289,12.9882486 14.2635468,12.7198963 14.6313729,13.9734847 C14.867919,14.7779025 15.7384811,15.0986473 16.4922827,14.9069671 C16.2436371,15.1753194 15.7632852,15.3203574 15.3754948,14.936997 C14.6458923,14.2150017 13.5018805,14.2552545 12.8902486,13.3562745 C12.7184351,13.4834224 12.6748767,13.6623239 12.7051256,13.8699774 C12.9168676,15.0500883 13.4419878,16.1145522 13.8388528,17.2237415 C14.1050428,17.9680995 14.5847897,18.5444179 15.4638215,18.5648638 C16.324099,18.5840318 16.8250201,18.1009978 17.1880064,17.3572787 C17.4263674,16.8684942 17.675618,16.3867381 17.9200288,15.9017872 C18.3858612,15.2673259 18.7839362,14.6916464 18.099707,13.873811 C15.1183795,10.3098376 11.9954874,6.89345799 8.72619072,3.62531102 C8.53743785,3.43618658 8.33295556,3.26623016 8.10850903,3.12885937 C7.89616204,3.00107259 7.67353045,2.90075996 7.42972465,2.87264687 C7.32385364,2.85986819 7.23129213,3.00235046 7.13449579,2.93973493 C7.06371346,2.89373169 7.10787679,2.80172521 7.21132789,2.75699983 C7.20406816,2.70013472 7.19680843,2.64646427 7.18833875,2.58959915 C7.12421117,2.48736972 7.04495916,2.40686405 6.94937277,2.33977599 C6.36375487,2.08228562 5.7878166,2.19218226 5.43329998,2.69246751 C5.06123902,3.21894905 5.54582573,3.69431588 5.75454286,4.16840485 C5.8434745,4.37158583 6.2463893,4.51917957 5.89308263,4.8118113 C5.66258633,5.00285254 5.29960002,5.3223195 5.10600733,5.03160456 C4.43206276,4.02081111 3.11502746,3.61892168 2.80709408,2.28354981 C2.76595563,2.16790277 2.71997736,2.05417253 2.67762896,1.94044229 C2.65705974,1.20566829 3.14648627,0.260046103 1.96859572,0 C1.26440229,0.527759412 0.514230596,0.99929264 0,1.76473547 C0.885686579,3.35312518 1.87603421,4.83864652 3.48164362,5.71973639" id="Fill-3" fill="#F69229" mask="url(#mask-6)"></path>
                    </g>
                    <path d="M12.5253264,3.55758403 C14.311219,5.79193592 16.1140509,8.01159233 17.8787694,10.2644733 C19.2248436,11.9832055 20.7276069,13.5594555 21.9871693,15.3554987 C22.3495507,15.8717573 22.7833193,16.3164553 23.2594363,16.715789 C23.3042046,16.8359086 23.3653073,16.9496388 23.3961612,17.0761478 C23.4711783,17.122151 23.5474055,17.1655985 23.6248425,17.2071292 C24.6157951,17.0710363 24.5897811,16.3618196 24.4476115,15.5835981 C24.3592848,15.1024809 23.9618148,14.7159259 24.0519564,14.115328 C25.7271382,14.1396075 26.4912244,15.6053219 27.5729236,16.5343318 C27.6896842,16.6346444 27.8064447,16.9055524 27.7659113,17.025033 C27.2232468,18.6255625 28.4652649,18.8766635 29.3455067,19.4057008 C29.4374632,19.4977073 29.5354695,19.5788519 29.6371057,19.6580797 C30.2196987,19.8535935 30.7587333,20.7928263 31.4151336,19.7781993 C31.4242082,19.6363559 31.4084788,19.4977073 31.3703653,19.3616144 C31.323782,19.2306329 31.2663092,19.1047629 31.2009717,18.9827266 C27.8742022,14.792598 24.8226973,10.3603134 21.2684565,6.37081005 C20.9242244,5.98425503 20.6350454,5.46735749 20.0052641,5.56830905 C19.7451239,5.57661519 19.504343,5.64498112 19.3047006,5.83218876 C19.0342758,6.0967074 19.1921748,6.31777853 19.3549137,6.52926566 C19.4311408,6.50945871 19.4831688,6.53884967 19.4970833,6.60977133 C19.4154114,6.59890945 19.3573336,6.63532869 19.318615,6.72733517 C19.2339182,7.04871893 19.3815327,7.24295484 19.6041643,7.42249527 C19.9732003,7.72023847 19.5085779,7.83780231 19.4619946,8.04801157 C19.3543087,8.53743495 19.2097191,8.24033068 19.0052369,8.08890334 C18.736022,7.89019489 18.4256687,8.0467337 18.1358847,8.13171191 C17.7087708,8.25758189 17.4316912,8.11957217 17.4885591,7.61353651 C17.623469,6.41617435 16.8503082,5.91652803 16.0196745,5.52230581 C15.4854797,5.26864905 14.998473,5.00988081 14.7945957,4.4067272 C14.4594384,3.41510176 13.5501577,3.00937873 12.853829,2.48353612 C12.2555065,2.03244878 12.29725,2.7506105 12.4043309,3.1972253 L12.4043309,3.20041997 C12.4430495,3.31990061 12.4835829,3.43874232 12.5253264,3.55758403" id="Fill-6" fill="#F9A234"></path>
                    <path d="M8.64917713,20.8448356 C9.96016266,21.7406209 10.8869877,23.0753538 12.0225298,24.1736812 C14.0752174,26.15821 15.9966249,28.2890546 17.7075003,30.6198855 C17.9156125,30.9035721 18.2011617,31.1240043 18.4455725,31.3783 C19.278626,32.2453334 19.2774161,32.2459723 18.8115837,33.4484459 C19.5817196,32.7481743 19.8170557,31.7124625 20.286518,30.8237054 C21.1238064,29.4876946 21.0881128,29.3892988 19.6851707,28.9490733 C18.7535059,28.6564416 17.7522686,28.6359957 16.9331295,27.9114446 C16.4297885,27.4661077 16.257975,27.0648572 16.3953048,26.399727 C16.7510314,24.6752444 16.5876876,24.2963565 15.2355636,23.353929 C15.965771,23.4823547 16.708683,24.1583468 17.4159013,23.2932303 C16.9887874,22.2913819 16.0813217,21.7981249 15.3166305,21.1924156 C14.2833295,20.3745802 13.3111312,19.5049911 12.4393591,18.5050596 C11.3110767,17.6246086 10.3848566,16.4732497 9.14767832,15.7378368 C8.39750663,15.9499628 8.6606717,16.8853621 8.07505379,17.3894809 C7.58381233,17.8124552 7.35876082,18.1070037 6.76225333,17.8578195 C6.45552991,17.7300327 6.16998068,17.7121426 6.02478616,18.1197824 C6.20264945,19.3618699 7.39566443,19.5139362 8.05690448,20.2365705 L8.05811443,20.2365705 C8.12466192,20.5809558 8.57657987,20.5074784 8.64917713,20.8448356" id="Fill-8" fill="#FBB448"></path>
                    <g id="Group-12" transform="translate(23.4647, 13.6442)">
                        <mask id="mask-8" fill="white">
                            <use xlink:href="#path-7"></use>
                        </mask>
                        <g id="Clip-11"></g>
                        <path d="M6.12855005,5.69611174 C5.8357411,4.91916811 5.10371872,4.97858896 4.45639315,4.73387727 C4.46062799,4.15883675 5.02023187,3.5154303 4.39650041,2.96403033 C4.66208538,2.38579514 4.13878013,2.34234763 3.89557931,2.07016179 C3.45757584,1.58009948 2.62210236,1.56093146 2.5204662,0.638310888 C2.47690784,0.244727598 1.92032884,0.280507897 1.6087656,0.3201218 C1.08243546,0.387209861 0.514361896,-0.398678852 0.0920878302,0.274118558 C-0.243069523,0.807628375 0.432689978,1.19290552 0.589984042,1.6765785 C0.915461761,2.67778794 0.963859935,2.69056662 0.160450251,3.56271141 C0.173759748,3.81253457 0.330448836,3.94223815 0.522226599,4.04191184 C0.778131943,4.09558229 1.01891286,3.56526714 1.29780733,4.04766225 C1.71887144,4.77668584 2.72494848,4.94472546 2.86167332,6.00791149 C2.93185067,6.55483892 3.58946086,6.69859905 4.06255301,6.93436567 C3.7951531,7.20974618 3.42853693,7.27875105 3.22465963,7.58096679 C3.70682643,8.78727401 4.74133739,9.53929923 5.43161635,10.57565 C5.7534642,11.059323 6.10616589,11.5206333 6.44434813,11.9921665 C7.47946407,11.9372182 8.51820988,11.9263563 9.54727605,11.8158208 C10.9617127,11.6643934 11.3688623,11.0836025 11.2460519,9.55910618 C10.4347776,8.50678203 9.50311271,7.56882704 8.68639353,6.52097543 C8.45952709,6.23026049 8.24657513,5.81111985 7.76077846,5.92101648 C7.70572554,6.11525239 7.75835855,6.46347137 7.42380617,6.33440672 C6.977938,6.16189457 6.55868882,5.91207141 6.12855005,5.69547281 C6.04687813,5.73061417 6.00029489,5.79067396 5.98759037,5.87756897 C5.90047366,5.70058428 6.0952763,5.76831128 6.12855005,5.69611174" id="Fill-10" fill="#F9A73E" mask="url(#mask-8)"></path>
                    </g>
                    <path d="M8.93133848,15.8019857 C10.0227173,16.7808325 11.0245595,17.8721316 12.229674,18.7072183 C12.6973214,18.6548257 12.7699186,18.1884039 12.9852905,17.8702148 C13.4801618,18.0925638 13.7802305,18.6382134 14.3283398,18.6938006 C14.8080867,18.7429986 14.8782641,19.0611876 15.038583,19.4784115 C15.2394355,20.0029762 15.0815364,20.8610645 15.9454438,20.9498763 C15.6986131,21.5178885 15.8770814,21.9159444 16.3483586,22.2609687 C16.7530883,22.557434 17.0489222,23.4398017 17.5474234,22.3127223 C17.7016925,21.9632255 18.0816182,22.3804493 18.3641425,22.4034509 C19.3454155,22.4814009 19.836657,21.9555583 19.4512865,21.0016299 C19.1808617,20.333944 19.3018572,19.6617855 19.1118943,19.0196569 C18.9987636,18.7691948 18.8487293,18.5442901 18.6908302,18.3238579 C16.9811647,16.369998 14.9169826,14.8391123 13.0669624,13.0513753 C12.7808082,12.8283873 12.4746898,12.667376 12.1050487,12.6999616 C11.5327403,13.0737379 10.9404677,13.4372913 11.2193621,14.3273263 C11.3137386,14.4046373 11.4208195,14.4353061 11.540605,14.4052762 C11.5272955,14.4761979 11.4553032,14.4730032 11.4165847,14.5145339 C11.1630993,15.5924154 12.1153333,15.2263063 12.4988889,15.529161 C12.4910242,15.5259663 12.4456509,15.6294736 12.4456509,15.6294736 C12.4456509,15.6294736 12.3821283,15.538106 12.3718437,15.5329946 C11.0705378,14.7317714 9.41108538,14.755412 8.32152149,13.5024626 C8.17148716,13.3299504 7.96277003,13.2609456 7.73348368,13.3420902 C7.51992674,13.3618971 7.38501683,13.5024626 7.2718861,13.6775305 C6.91252966,14.8352787 7.52537154,15.6198896 8.93133848,15.8019857" id="Fill-13" fill="#F89C2F"></path>
                    <path d="M25.4399555,3.13614322 C24.0436682,3.68882105 22.6377013,4.21785833 21.3436551,5.01780359 C22.3346077,6.95249548 24.1416745,8.05976795 25.5246523,9.59768188 C26.1126902,10.2513113 26.7545709,10.8742718 27.4720739,11.3841411 C28.1121397,11.839062 28.5168694,11.6889126 28.607011,10.8378526 C29.0214204,9.81300261 29.2113832,8.72298135 29.4479293,7.64573878 C29.3886415,6.02348557 27.9584755,5.41969302 27.1962043,4.32264349 C26.7914745,3.73993577 26.3111227,3.05308181 25.4399555,3.13614322" id="Fill-15" fill="#F9A83A"></path>
                    <path d="M28.60689,10.8379165 C28.3782087,11.2257494 28.2245445,11.6813093 27.6770401,11.1171306 C26.7913535,10.204733 25.8336747,9.3702853 24.9177392,8.4904733 C23.7210944,7.33975333 22.5347342,6.17625467 21.3435341,5.01786749 C20.8456379,5.06131499 20.4106593,5.27407998 20.0053246,5.56798958 C21.3429291,6.73532184 22.328437,8.24831735 23.4851533,9.5907175 C25.3684472,11.7758715 27.1634145,14.0555877 28.8706601,16.3972805 C29.5809033,17.3722936 30.46417,18.1824618 31.100001,19.2130622 C31.1490041,19.3274314 31.1907475,19.4449952 31.2252312,19.5644759 C31.2252312,19.5644759 31.2252312,19.5651148 31.2252312,19.5657538 C32.3202399,20.5356554 33.0413727,21.8857228 34.1835696,22.8070655 C34.3547781,22.9450752 34.5350613,23.0715841 34.7105047,23.2032045 C34.1932492,21.8071339 33.0522623,20.9177379 32.2010594,19.79577 C31.098186,18.3409174 29.9311851,16.9371796 28.7418,15.5596381 C28.0218771,14.7251904 27.9105613,13.8702969 28.1598119,12.7911375 C28.3086363,12.1445364 28.7756787,11.5631065 28.60689,10.8379165" id="Fill-17" fill="#FDC562"></path>
                    <path d="M17.3005322,23.4383322 C16.5394709,23.3597433 15.7251716,23.4951973 15.1401587,22.7565897 C14.9780248,22.5521309 14.6930806,22.599412 14.5817648,22.8134548 C14.4619793,23.0421932 14.4111612,23.410858 14.7190946,23.5194768 C15.0881307,23.6504583 15.4311527,23.7341586 15.7233567,24.0670432 C16.2998999,24.7232283 16.4414646,25.2714336 16.1202217,26.1199378 C15.7227517,27.1703452 16.0929977,27.4546708 16.748793,28.1977509 C17.5933411,29.1555129 18.6242222,28.903134 19.5522572,29.2353796 C19.9170584,29.366361 20.2752049,29.5171494 20.6375863,29.6596317 C20.7174432,30.1260535 20.3871257,30.4365753 20.2866995,30.8231304 C20.3919655,30.7477362 20.53837,30.6978993 20.5970528,30.5931142 C21.2970114,29.3363311 21.9842654,28.0718809 22.6745444,26.8093475 C21.1953752,26.7569549 20.3108986,25.5985678 19.2576333,24.7538971 C18.6181725,24.2932258 18.2733355,23.3418532 17.3005322,23.4383322" id="Fill-19" fill="#FCB84F"></path>
                    <g id="Group-23" transform="translate(7.6035, 0)">
                        <mask id="mask-10" fill="white">
                            <use xlink:href="#path-9"></use>
                        </mask>
                        <g id="Clip-22"></g>
                        <path d="M2.08445695,10.3723254 C2.20605736,10.3307947 2.32826275,10.2905418 2.44986316,10.2477332 C3.01309691,10.0515805 3.06814983,9.86948437 2.74146216,9.45801093 C2.55573417,9.22352218 2.32100302,9.17240747 2.07114745,9.09126286 C1.765029,8.99095024 1.64947836,8.71556972 1.85880046,8.45424575 C2.44683827,7.72138855 1.81645206,7.38211464 1.43955128,7.01728338 C0.757742011,6.35726465 0.677280047,5.89914903 1.40446261,5.34583226 C1.87876471,4.98419567 2.44986316,4.84874168 1.99431535,4.03921241 C1.86364028,3.8072794 2.1812533,3.69099343 2.3694012,3.5830136 C2.75961147,3.36002566 3.12743759,3.64690699 3.50312842,3.63604511 C3.73906951,2.88721457 3.34341444,2.49554808 2.46619754,2.20419421 C3.36095878,1.9665108 3.7420944,2.43484936 4.20429696,2.59138816 C4.51525522,2.44443336 3.95988618,1.7460786 4.63685564,1.83169574 C4.01554408,1.04005662 3.11473307,0.637528258 2.30406366,0.182607312 C1.21026494,-0.432047112 0.0251146561,0.582579942 0.00152054641,2.06298982 C-0.0129989057,2.97283171 0.0789576244,3.88842401 0.170914154,4.79571016 C0.31308379,6.19880904 0.291304612,7.61915913 0.571409042,9.00692358 C0.957989455,9.60752146 1.16428667,10.4311073 2.08445695,10.3723254" id="Fill-21" fill="#FDC25D" mask="url(#mask-10)"></path>
                    </g>
                    <path d="M8.05684398,20.236826 C7.84994179,19.7359019 7.44339713,19.4356029 7.06165653,19.1020794 C6.71621457,18.8011415 6.32297941,18.5327893 6.16447539,18.0491163 C6.14148626,17.9411365 6.10034781,17.8414628 6.04408493,17.7488174 C5.91159493,17.578222 5.76458548,17.4223222 5.62060091,17.2625887 C5.54618872,17.1814441 5.4645168,17.1098835 5.37921502,17.0415175 C5.1571884,16.8773115 4.95754593,16.6817977 4.73793922,16.5118413 C4.44997008,16.3156886 4.19527469,16.4434754 3.94481415,16.6051257 C3.5564188,16.8843398 3.14321939,17.1316072 2.86069505,17.5462753 C3.02766875,17.800571 3.16499857,18.0868134 3.37069081,18.2995784 C3.54492424,18.4797578 3.54673917,18.5800704 3.3470967,18.6765494 C2.57091099,19.0535204 3.28296912,19.3531804 3.38763017,19.6841482 C3.77602551,19.5998089 3.99563223,19.8189633 4.14869145,20.1569593 C4.3858425,20.4444796 4.86619438,20.4285062 4.96480566,20.885344 C4.97388031,21.0661623 5.02348844,20.817617 5.00110429,20.9990742 C4.94847127,20.9716 4.9690405,20.9057898 4.93879164,20.8636202 C4.78391748,20.3812251 4.15353127,20.4170054 4.01983131,19.9141644 C3.83591825,19.7550699 3.64474547,19.618338 3.38823515,19.6847871 C3.47474688,20.6086856 4.18257017,21.1473069 4.59879447,21.8667465 C4.74156908,22.1133749 4.93939662,22.0692885 5.15839835,22.0398975 C5.39615438,22.0085898 5.46149191,22.0405365 5.45907201,22.3919501 C5.45544214,23.0909438 5.99508178,23.3446006 6.55166078,22.9836029 C6.73073402,22.8679559 6.86261904,22.6724421 7.03019772,22.5331545 C7.1632927,22.422619 7.31816685,22.3427522 7.54503329,22.1964364 C6.83962991,21.8347998 6.67689105,21.117277 6.39799658,20.4329788 C6.91767197,20.0508963 7.45186681,19.8566604 8.05684398,20.236826" id="Fill-24" fill="#F79930"></path>
                    <path d="M9.68798343,10.3723254 C9.12293475,9.99215968 8.79019731,9.32575161 8.1755405,9.00692358 C8.09689347,9.60049319 8.19368982,10.1838399 8.27536174,10.7659086 C8.4060368,11.700669 8.28625132,12.570258 7.73390717,13.3420902 C8.2578174,13.5893576 8.48226393,14.1746211 8.93720676,14.5356187 C9.38428489,14.8902271 9.69161329,15.1796641 10.2366977,14.9138676 C10.5161972,14.7777747 10.7527433,14.8761705 10.9215319,15.1100203 C11.3661901,15.7253137 12.0486044,15.7055067 12.6632612,15.8709906 L12.6626562,15.8709906 C12.8175303,15.3739 12.8822629,14.9713717 12.1508455,15.0991584 C11.6626289,15.1854145 11.4260828,14.9566762 11.5978964,14.4084709 L11.5978964,14.4084709 C11.3722399,14.2474595 11.1756223,14.0436396 11.4399973,13.7829546 C11.7267565,13.5005458 11.8828406,13.1478543 12.0504193,12.793246 C12.3214491,12.0495269 11.3825245,12.3070172 11.3347313,11.8278168 C11.2572942,11.7856472 11.1798571,11.7441165 11.1024201,11.7025858 C10.9487559,11.3064467 10.4163759,11.3933417 10.2760212,10.9805904 C10.0055964,10.8579151 9.86403179,10.5965912 9.68798343,10.3723254" id="Fill-26" fill="#F9A33A"></path>
                    <path d="M25.4399555,3.13620711 C27.0050315,4.41215814 28.2954478,5.96093394 29.4479293,7.64580267 C29.7431582,6.50530564 30.0837603,5.37503154 30.3215163,4.2211169 C30.6542538,2.60780877 29.4043709,1.4347261 27.9233868,1.97718099 C27.071579,2.28961968 26.2663544,2.74517956 25.4399555,3.13620711" id="Fill-28" fill="#FDC668"></path>
                    <path d="M12.2404426,1.83156795 C11.9682029,1.7382836 11.6965681,1.64308245 11.4225135,1.55490957 C11.4025492,1.54852023 11.3668556,1.59644027 11.328137,1.62647017 C11.196857,2.10311487 11.831478,2.17020293 11.8078839,2.59126038 C12.0063165,2.79380243 12.2053539,2.99570554 12.4043914,3.19760866 C12.4739638,2.99123301 12.5441412,2.78549629 12.6209733,2.55931368 C12.9760949,2.72415863 12.9022876,3.22699962 13.2858432,3.35031387 C13.9948764,3.57841327 14.4346948,4.08508787 14.6210278,4.86458724 C14.7680372,5.48051953 15.3185665,5.7737902 15.7977084,5.78337421 C16.6259221,5.79934755 16.6670606,6.73858041 17.2708278,6.95901261 C17.3633893,6.9928761 17.3827486,7.12385756 17.2998667,7.18902882 C16.2871349,7.9838626 17.7445249,8.22410175 17.3912183,8.83620044 C18.0524583,8.82853324 18.1770836,8.28480048 18.591493,8.23560256 C18.8413485,8.20557267 19.0210268,8.19279399 19.0543005,8.50587161 C19.0736598,8.68221737 18.8062599,8.96526509 19.2043348,8.98762778 C19.3900628,8.99848966 19.5382822,8.8579242 19.5509868,8.65474321 C19.5854705,8.11739979 19.9006636,7.79409923 20.3543964,7.60561373 C20.1105906,7.1321637 19.2043348,7.37623645 19.545542,6.55137277 C19.3682837,6.34819179 19.2866117,6.10859157 19.3047611,5.83193318 C17.953242,6.01147361 17.0996193,4.95084332 16.0887024,4.33427209 C14.7855816,3.54007724 13.5949865,2.54397927 12.2404426,1.83156795" id="Fill-30" fill="#F9A73C"></path>
                    <path d="M5.34309788,17.3171536 C5.41932501,17.3593233 5.49615711,17.400854 5.57298921,17.4411068 C5.62985706,17.6551497 5.88031761,17.7069033 5.93295062,17.9241408 C6.00978273,17.9663105 6.08661483,18.0078412 6.1640519,18.048733 C6.46533054,17.8615253 6.59479565,18.1375448 6.80472273,18.2755545 C7.44478858,18.6978898 7.79446538,18.5151547 8.02798657,17.6864574 C8.18528063,17.1286681 8.77815826,17.43919 9.06491744,17.09161 C9.02135909,16.6731082 8.97659078,16.2373553 8.93121749,15.8016024 C8.17620598,15.2700094 7.22639182,14.9077338 7.27176511,13.6771471 C6.16465688,14.6553549 4.95712245,15.5064149 3.94439066,16.6047423 C4.21663039,16.6085759 4.49491989,16.5581001 4.74840532,16.714 C4.8391519,17.032828 5.26082099,16.9887416 5.34309788,17.3171536" id="Fill-32" fill="#FCBB56"></path>
                    <path d="M19.1712426,25.0150294 C19.8022338,25.9306217 20.8107307,26.3670136 21.572397,27.1215945 C22.0345995,27.5797101 22.2905049,26.8609095 22.6746654,26.8091558 C22.9704992,26.3088706 23.5101389,26.2309207 23.9547971,25.9874868 C24.7418724,25.2744366 24.7200932,24.9070496 23.8192822,23.7224661 C23.7007067,23.5608158 23.5821311,23.3985266 23.4635556,23.2368763 C23.3498199,22.9723577 23.1556222,22.8292365 22.8827775,22.8030402 C22.023105,23.1103674 21.6595137,23.5467593 22.5276559,24.31348 C22.6184025,24.3933467 22.6026731,24.4131537 22.2300072,24.6719219 C22.1120366,24.6942846 21.9983009,24.7275092 21.8851702,24.7639284 C21.041832,25.5945425 20.0508794,24.6380584 19.1712426,25.0150294" id="Fill-34" fill="#F89F32"></path>
                    <g id="Group-38" transform="translate(0, 19.3115)">
                        <mask id="mask-12" fill="white">
                            <use xlink:href="#path-11"></use>
                        </mask>
                        <g id="Clip-37"></g>
                        <path d="M4.37331948,3.95500092 C3.35937774,2.78894653 2.27949349,1.68550766 1.4258707,0.369942736 C1.3145549,0.198708447 1.073169,0.121397443 0.89228083,0 C0.0471277217,0.338634974 -0.0641880779,1.05871349 0.0259535207,1.87590997 C0.112465256,2.65796508 0.617621195,3.09052334 1.26313184,3.26750803 C2.28675321,3.54927789 3.30613975,3.88088459 4.37331948,3.95500092" id="Fill-36" fill="#FAAD38" mask="url(#mask-12)"></path>
                    </g>
                    <path d="M23.8195242,23.72253 C24.037316,24.4656101 24.6132542,25.1850497 23.9544341,25.9875507 C24.5448918,26.1076703 25.1274848,26.0258868 25.7094729,25.9127955 C25.7518213,25.7370886 25.8437778,25.5147396 25.6876937,25.3971758 C25.0185889,24.8943348 24.5727208,24.1167522 23.8195242,23.72253" id="Fill-39" fill="#FAAC48"></path>
                    <path d="M13.5966804,31.4170194 C13.6922668,31.2336454 13.7878532,31.0502714 13.8834396,30.8668973 L13.8834396,30.8681752 C13.6166447,30.6253803 13.3492448,30.3825854 13.0824498,30.1397905 C13.0987842,30.6349643 13.2542634,31.0681615 13.5966804,31.4170194" id="Fill-41" fill="#F89A33"></path>
                    <path d="M13.078215,30.1250951 C13.2004204,29.8107396 13.1229833,29.5705004 12.839249,29.4075723 C12.8204947,29.6835917 12.8973268,29.9238309 13.078215,30.1250951" id="Fill-43" fill="#F89A33"></path>
                    <path d="M22.7686183,22.8723006 C23.0003246,22.9936981 23.2314259,23.1150955 23.4631321,23.2371319 C23.2689345,22.540055 24.1165075,22.9227764 24.1745853,22.423769 C23.0723169,21.9669313 23.0009296,20.4290174 21.877487,19.9261764 C21.7413671,19.8654776 21.9851729,19.8086125 22.036596,19.7447191 C22.5344922,19.1236754 22.4038171,18.3064789 21.7540716,18.0541 C20.6741874,17.6355983 20.0722351,16.8503485 19.9972179,15.6338183 C19.968179,15.1648409 19.7764013,14.7220596 19.3196435,14.834512 C18.6759478,14.9929676 19.4091801,13.7470465 18.5603971,14.1367962 C18.0969846,14.3502001 17.9336408,13.6020085 17.5875938,13.3860488 C16.654719,12.80398 15.8525193,11.9388635 14.7030627,11.8002149 C14.3612506,11.7586842 14.0920357,11.6864846 14.2275506,11.2194239 C14.4792211,10.3523906 13.8784788,10.4795385 13.4162762,10.4469528 L13.4162762,10.4463139 C13.2922559,10.6347994 13.131937,10.8852615 12.9153551,10.687192 C12.6334358,10.4284238 12.3696657,10.2578284 11.9292424,10.4105336 C11.9758256,10.726167 12.0218039,11.0616073 12.0750419,11.3964086 C12.2178165,12.2896382 11.7556139,12.0180913 11.3345498,11.827689 C11.356329,12.3286132 12.0211989,12.2985833 12.0502378,12.7937571 C12.3581712,12.9566852 12.6661046,13.1202523 12.9740379,13.2838194 C14.351571,13.6032864 15.3630928,14.7750912 16.8132231,15.0229975 C17.5440355,15.1482286 18.1568774,15.8951423 18.1998307,16.8311805 C18.2331045,17.5493422 18.5017144,18.1569684 18.8114627,18.7626777 C18.9899309,18.9588304 19.1635594,19.2297384 19.4152299,19.2463507 C20.6487783,19.3281342 21.029309,20.2526716 21.3039686,21.2992453 C21.5411197,21.8174208 21.9603688,22.1733069 22.32759,22.5771132 C22.4110768,22.6646471 22.5048483,22.7381245 22.6064845,22.801379 C22.6597225,22.8256585 22.7141704,22.8486601 22.7686183,22.8723006" id="Fill-45" fill="#FDC15A"></path>
                    <path d="M26.6893544,21.2250651 C27.2894918,21.4512477 27.5780659,20.6659979 28.1630788,20.8710957 C28.0420834,20.2922216 27.706926,20.1209873 27.3663239,20.1363217 C26.6585006,20.1689074 26.6288567,19.4449952 26.2828097,19.0974152 C26.0256944,18.838008 26.4419187,18.8137285 26.6143372,18.7619749 C26.7462223,18.7229999 26.8611679,18.6757188 26.8303141,18.5127907 C26.8018802,18.364558 26.6518458,18.2393269 26.5496047,18.3243052 C25.8647705,18.8923174 25.7576896,17.4994415 25.1224635,17.8629949 C25.0456314,17.9064424 25.0226423,17.6789819 25.0662006,17.5460837 C25.1708617,17.2221442 25.0147776,16.9978784 24.7510075,16.9020383 C24.3928611,16.7716957 24.4225049,17.2349228 24.2143928,17.3614318 C24.1133616,17.4234083 24.0613336,17.5754746 23.9863164,17.6866491 C24.8877324,18.8661211 25.7885434,20.0455931 26.6893544,21.2250651" id="Fill-47" fill="#F9A234"></path>
                    <path d="M10.2759607,10.980271 C10.3606575,11.4645829 10.7907963,11.5080304 11.1023596,11.7022663 C11.0170578,11.2185933 10.5844991,11.1789794 10.2759607,10.980271" id="Fill-49" fill="#FDC15A"></path>
                    <path d="M10.1597446,5.11933019 C10.1809188,5.19536333 10.1797089,5.30142636 10.2281071,5.34104026 C10.309174,5.40748939 10.3817713,5.35573574 10.388426,5.24520017 C10.3908459,5.20366947 10.3787464,5.15319369 10.3563622,5.11933019 C10.2940496,5.0234901 10.2244772,5.02604584 10.1597446,5.11933019" id="Fill-51" fill="#FDC25D"></path>
                    <path d="M23.3962822,17.0762755 C23.3509089,16.956156 23.3049306,16.8360364 23.2595573,16.7159168 C23.3049306,16.8360364 23.3509089,16.956156 23.3962822,17.0762755" id="Fill-53" fill="#F9A73E"></path>
                    <path d="M13.4160948,10.4466973 C13.4142798,10.4032498 13.4197246,10.3246609 13.408835,10.3214662 C13.3223233,10.2997425 13.3235332,10.3476625 13.4166997,10.4466973 L13.4160948,10.4466973 Z" id="Fill-55" fill="#FDC15A"></path>
                    <path d="M12.5253264,3.55758403 C12.4847929,3.43874232 12.4442594,3.31926168 12.4043309,3.20041997 C12.4442594,3.31926168 12.4847929,3.43874232 12.5253264,3.55758403" id="Fill-57" fill="#F9A73C"></path>
                    <path d="M13.8831976,30.867089 C14.1161138,31.3539567 14.349635,31.8401854 14.6303444,32.4267267 C14.7168562,32.4267267 14.9037941,32.0376159 15.2855347,32.0695626 C15.7604418,32.1091765 15.8439286,32.4037251 15.9122911,32.7845297 C15.9256006,32.859285 15.9951729,32.9627923 16.0580906,32.9819603 C16.6098297,33.1461663 17.0623527,32.9244562 17.5021711,32.5832655 C17.981918,32.211406 17.8827017,31.8401854 17.5747683,31.4293509 C17.291034,31.5520262 17.4325987,31.8325182 17.3563716,32.0261151 C17.2668349,32.2522977 17.0720323,32.510427 16.9165532,32.2292961 C16.7120709,31.8593534 16.4597954,31.9615828 16.1809009,31.8964116 C15.8638929,31.8222952 15.4355691,31.6395601 15.8699427,31.1296909 C16.0157422,30.9584566 15.887487,30.712467 15.7459223,30.6875486 C15.1766388,30.586597 14.8705204,29.9304119 14.2492088,29.9348617 C14.1076442,30.2345444 14.2921622,30.6869097 13.8831976,30.8683669 L13.8831976,30.867089 Z" id="Fill-59" fill="#F89A33"></path>
                    <path d="M8.64917713,20.8448356 C8.60743371,20.4736149 8.31159987,20.3777749 8.05811443,20.2365705 C8.01879092,20.3196319 7.9794674,20.4026933 7.94014388,20.4863936 L7.94014388,20.4857547 C8.17608498,20.6052353 8.41263106,20.7253549 8.64917713,20.8448356" id="Fill-61" fill="#F79930"></path>
                    <path d="M7.94008339,20.4862658 C7.89894494,20.4881826 7.82453275,20.4824322 7.82211284,20.493933 C7.80093864,20.5853006 7.8469169,20.5840227 7.94008339,20.4856269 L7.94008339,20.4862658 Z" id="Fill-63" fill="#F79930"></path>
                    <path d="M20.1855473,6.62702255 C20.1807075,6.48070668 20.1262596,6.35355883 19.9840899,6.35611457 C19.8691443,6.3586703 19.7233448,6.3944506 19.6471176,6.47431734 C19.4480801,6.6826098 19.7360493,6.63021722 19.7747678,6.6525799 C19.903023,6.7260573 20.0663668,6.85448302 20.1855473,6.62702255" id="Fill-65" fill="#F9A73C"></path>
                    <path d="M31.2254732,19.5646037 C31.1837298,19.4470398 31.1419864,19.3301149 31.100243,19.21319 C31.1419864,19.3301149 31.1837298,19.4476788 31.2254732,19.5646037" id="Fill-67" fill="#F9A73E"></path>
                    <path d="M22.6361888,22.5153283 C22.2459786,22.1051327 21.8563733,21.6942982 21.466163,21.2841026 C21.2356667,20.923105 21.121326,20.4579611 20.6754578,20.2905604 C20.4110828,20.1551064 20.0529363,20.1921646 19.9089518,19.8286112 C19.8702332,19.7276596 19.8194151,19.6356531 19.7625473,19.5455634 C19.6687758,19.4113873 19.5465704,19.3091579 19.4304148,19.2005391 C19.29248,19.1213113 19.1575701,19.0293048 18.9905964,19.1098105 C18.9107394,19.7679124 18.5356536,20.4381541 19.1993135,21.0476971 C19.3299886,21.1678166 19.477603,21.6719355 19.2229076,21.9287869 C18.9173942,22.2367531 18.5187142,22.2482539 18.1424184,22.0303774 C17.9554805,21.9223976 17.7764072,21.792694 17.6154833,21.6463781 C17.4835983,21.5275364 17.3740974,21.3946382 17.1786898,21.4745049 C16.8689415,21.8495591 17.3632078,22.2456982 17.1520708,22.6514212 C16.6565945,22.5983897 16.5029303,22.0866036 16.1635381,21.8386973 C16.0746064,21.7748039 16.0546422,21.6016528 16.0098739,21.4757828 C15.8356405,20.9876373 16.7086225,21.4943119 16.4533221,20.9671914 C16.2936082,20.6368626 15.8084165,20.8854079 15.6638269,20.6215281 C15.5053229,20.333369 15.8683092,19.9008107 15.3534736,19.6145683 C14.8477127,19.3334374 15.6220835,18.9417709 15.3927972,18.4874889 C14.5875725,18.5366868 13.8283262,18.3354226 13.303811,17.567424 C13.1235278,17.3041833 12.825879,17.2939603 12.5971977,17.3751049 C12.1700838,17.5278101 12.5246004,17.789773 12.5687637,18.012761 C12.6328913,18.3328669 12.3001539,18.4517086 12.2293715,18.7072821 C12.9759134,19.7838858 13.9329872,20.6010823 14.9650783,21.3652472 C15.7926871,21.9786238 16.6457049,22.5932782 17.3002902,23.4385878 C18.0546967,23.7906404 18.4152631,24.6647019 19.1714846,25.0148377 C19.6953948,25.3362215 20.3463502,25.2084347 20.8678406,25.563043 C21.174564,25.7713355 21.3984055,25.688913 21.5532797,25.2883014 C21.6131724,25.1330405 21.9017466,25.0774533 22.0862646,24.9765017 L22.0856596,24.9765017 C22.5297129,24.9260259 22.9737661,24.8755501 23.4135845,24.8257133 C23.3924103,24.4487423 23.1558642,24.3343731 22.9392824,24.1893351 C22.1957655,23.6903277 22.1987903,23.6864941 22.7686788,22.8724923 C22.7686788,22.8724923 22.7662589,22.8744091 22.7662589,22.8744091 C22.7196757,22.7555674 22.6761173,22.6360868 22.6361888,22.5153283" id="Fill-69" fill="#F79824"></path>
                    <path d="M27.4255511,16.9355823 C26.9167653,16.1803624 26.9167653,16.1803624 25.6094096,15.8525893 C25.7902978,16.3298729 25.149022,16.9458052 26.0213991,17.1943505 C26.1938176,17.2435484 26.4460931,17.2684669 26.4376234,17.0716752 C26.4055596,16.339457 26.7225676,16.6531735 27.0026721,16.8295193 C27.1061232,16.8946905 27.1769055,17.0327003 27.4255511,16.9355823" id="Fill-71" fill="#F9A234"></path>
                    <path d="M29.5932448,19.3403379 C29.3548838,19.2559986 28.9737482,19.1115995 28.9356346,19.4003977 C28.8860265,19.7773687 29.1582662,20.11217 29.6519276,20.1620069 C29.6301484,19.8591522 29.6119991,19.599745 29.5932448,19.3396989 L29.5932448,19.3403379 Z" id="Fill-73" fill="#F9A234"></path>
                    <path d="M18.8738358,18.7406984 C18.8236227,17.9848396 18.444907,17.3069307 18.550173,16.4871785 C18.6324499,15.844411 17.1811097,14.3895584 16.5688728,14.4751756 C15.8265658,14.5786829 15.3093103,14.23877 14.8501326,13.785127 C14.2875039,13.2298934 13.7061208,13.0101001 12.9747034,13.2842028 C14.1695333,14.7869753 15.7636482,15.8214093 17.0806835,17.1829775 C17.5719249,17.69093 18.1139845,18.144573 18.6324499,18.6224956 C18.6705635,18.7585885 18.7510254,18.7975635 18.8738358,18.7406984" id="Fill-75" fill="#FCBB51"></path>
                    <path d="M18.8738358,18.7406984 C18.7933738,18.7017234 18.7129119,18.6621095 18.6324499,18.6224956 C18.6451544,18.8723188 18.8018435,19.0039392 18.9905964,19.1093633 C19.1454706,19.1917857 19.3009497,19.2742082 19.4558238,19.3566307 C19.4933324,19.4799449 19.5544351,19.5930362 19.5871039,19.7176283 C19.663331,19.7559644 19.7383482,19.7962172 19.8121554,19.8390258 C19.849059,20.2249419 20.2816177,20.1648821 20.4177376,20.4396237 C20.8630008,20.5884953 21.0668781,21.0708904 21.466163,21.2842943 C21.8085801,20.3124758 20.8182324,19.894613 20.644604,19.1246977 C20.5943909,18.9029876 20.2174901,18.8461225 19.9585599,18.9649642 C19.5405207,19.1572833 19.2186728,18.9017097 18.8738358,18.7406984" id="Fill-77" fill="#FCB84C"></path>
                    <path d="M12.6632612,15.8708628 C12.6112331,16.0650987 12.5071771,16.2733912 12.7721571,16.3890382 C12.799986,16.401178 12.8659285,16.3768985 12.880448,16.3494243 C13.0214076,16.0855446 12.8169254,15.9897045 12.6626562,15.8708628 L12.6632612,15.8708628 Z" id="Fill-79" fill="#F9A33A"></path>
                    <path d="M11.5977754,14.4081514 C11.6389138,14.4062346 11.713326,14.411985 11.7163509,14.3998453 C11.7369201,14.3084777 11.6915468,14.3097556 11.5977754,14.4081514 Z" id="Fill-81" fill="#F9A33A"></path>
                    <path d="M5.035225,21.1396397 C5.24273217,20.6962195 5.38792669,20.2968858 4.67284367,20.2598277 C4.47562112,20.2496047 4.28444833,20.1192622 4.09085563,20.0445069 C4.27174381,20.5384028 4.66437399,20.8284788 5.03582998,21.1396397 L5.035225,21.1396397 Z" id="Fill-83" fill="#F69229"></path>
                    <path d="M5.34309788,17.3171536 C5.30377437,16.9408216 5.00431067,16.8520097 4.74840532,16.714 C4.78712386,17.090971 5.08537761,17.1816996 5.34309788,17.3171536" id="Fill-85" fill="#FBB448"></path>
                    <path d="M3.38805365,19.6849149 C3.62217982,19.8050345 3.85691096,19.9245151 4.09103713,20.0446347 C4.00271046,19.6063261 3.76797932,19.4862065 3.38805365,19.684276 L3.38805365,19.6849149 Z" id="Fill-87" fill="#F69229"></path>
                    <path d="M5.93301112,17.9238214 C5.91970162,17.6739982 5.76482747,17.5423778 5.57304971,17.4414263 C5.58454427,17.6925273 5.73881345,17.8247866 5.93301112,17.9238214" id="Fill-89" fill="#FBB448"></path>
                    <path d="M5.03558799,21.139448 C5.03800789,21.1828955 5.03195812,21.2614844 5.04284771,21.2640401 C5.12935945,21.2864028 5.12814949,21.2378438 5.03498301,21.139448 L5.03558799,21.139448 Z" id="Fill-91" fill="#F69229"></path>
                    <path d="M5.56324908,16.6813505 C5.60922734,16.743966 5.64371104,16.8334168 5.70420876,16.860252 C5.76228656,16.8864483 5.84698337,16.8493901 5.91958063,16.840445 C5.87360236,16.7778295 5.83851369,16.6890177 5.77862095,16.6615435 C5.72054314,16.6347083 5.63584634,16.6717665 5.56324908,16.6813505" id="Fill-93" fill="#FBB448"></path>
                    <path d="M22.6361888,22.5153283 C22.6797472,22.6348089 22.7227006,22.7549285 22.7662589,22.8744091 C22.7233056,22.7542895 22.6797472,22.6348089 22.6361888,22.5153283" id="Fill-95" fill="#F89F32"></path>
                    <path d="M20.4175561,20.4393042 C20.3625031,20.0744729 20.0702992,19.9754382 19.8119739,19.8393453 C19.5288446,20.0993914 19.4145039,20.3357969 19.9142151,20.4348317 C20.0763489,20.4674173 20.2493724,20.4393042 20.4175561,20.4393042" id="Fill-97" fill="#F89C2F"></path>
                    <path d="M22.0859621,24.97631 C22.0841472,24.9328625 22.089592,24.8542736 22.0787024,24.851079 C21.9915857,24.8293552 21.9927956,24.8772753 22.0865671,24.97631 L22.0859621,24.97631 Z" id="Fill-99" fill="#F89F32"></path>
                    <path d="M19.5871039,19.7177561 C19.5435455,19.5976366 19.4999872,19.476878 19.4558238,19.3567585 C19.4999872,19.476878 19.5435455,19.5976366 19.5871039,19.7177561" id="Fill-101" fill="#F89C2F"></path>
                </g>
            </g>
        </g>
    </g>
</svg>