<?xml version="1.0" encoding="UTF-8"?>
<svg width="337px" height="334px" viewBox="0 0 337 334" version="1.1" xmlns="http://www.w3.org/2000/svg" xmlns:xlink="http://www.w3.org/1999/xlink">
    <title>star-with-tail</title>
    <defs>
        <filter x="-1.1%" y="-1.3%" width="102.7%" height="103.3%" filterUnits="objectBoundingBox" id="filter-1">
            <feOffset dx="0" dy="1" in="SourceAlpha" result="shadowOffsetOuter1"></feOffset>
            <feGaussianBlur stdDeviation="1" in="shadowOffsetOuter1" result="shadowBlurOuter1"></feGaussianBlur>
            <feColorMatrix values="0 0 0 0 0   0 0 0 0 0   0 0 0 0 0  0 0 0 0.35 0" type="matrix" in="shadowBlurOuter1" result="shadowMatrixOuter1"></feColorMatrix>
            <feMerge>
                <feMergeNode in="shadowMatrixOuter1"></feMergeNode>
                <feMergeNode in="SourceGraphic"></feMergeNode>
            </feMerge>
        </filter>
        <polygon id="path-2" points="-1.81221983e-15 3.2330705e-15 174.560128 3.2330705e-15 174.560128 122.192089 -1.81221983e-15 122.192089"></polygon>
        <polygon id="path-4" points="0 0 7.42630029 0 7.42630029 5.16733963 0 5.16733963"></polygon>
    </defs>
    <g id="Asset-Guide" stroke="none" stroke-width="1" fill="none" fill-rule="evenodd">
        <g id="Illustrations" transform="translate(-701, -121)">
            <g id="star-with-tail" filter="url(#filter-1)" transform="translate(869.1312, 287.0499) rotate(43) translate(-869.1312, -287.0499)translate(741.7231, 181.5499)">
                <g id="Group-3" transform="translate(150.6085, 105.5) rotate(-47) translate(-150.6085, -105.5)translate(63.3285, 44.404)">
                    <mask id="mask-3" fill="white">
                        <use xlink:href="#path-2"></use>
                    </mask>
                    <g id="Clip-2"></g>
                    <path d="M154.461452,83.6874231 C154.763978,83.3859598 155.57602,83.3383603 156.531365,83.5922242 C159.859148,84.3379491 172.708532,90.1609503 174.316696,84.3379491 C175.367575,80.371327 169.938033,76.7537677 167.47006,74.5483258 C159.843226,67.6781364 151.452117,61.6806038 142.4878,56.68266 C141.834982,56.3335972 132.56814,50.9072582 132.918433,50.5581955 C133.268726,50.2091327 135.54563,49.6062062 136.644276,49.3047429 C139.160017,48.6066174 143.904895,47.2896989 142.137507,43.783205 C140.37012,40.276711 135.48194,37.8015389 131.867554,35.8975603 C124.718392,32.184802 116.900489,29.5668314 109.289578,26.9171279 C101.678667,24.2674243 92.9213417,21.6494537 84.7053788,19.1425486 C60.407783,11.7646315 35.8395062,5.40216971 10.984626,0.0551631445 C10.4273417,-0.0717687621 9.85413501,0.0234301679 9.37646275,0.309026958 C8.89879049,0.102762609 8.373351,0.0551631445 7.86383391,0.166228563 L7.00402384,0.309026958 C6.51042917,-0.00830280879 5.88945522,-0.0876352504 5.34809332,0.102762609 C0.507681046,1.56247954 -0.352129029,6.57628984 0.109620826,10.9395741 C0.141465644,11.4473018 0.348456958,11.9232964 0.714672361,12.2882256 C0.730594769,12.9863511 1.1445774,13.6368771 1.76555134,13.9383404 C19.1528218,23.9818275 35.0593081,34.6758407 49.5327778,48.6859498 C56.3794135,55.254676 63.0827476,61.9820671 69.9930731,68.5190603 C75.1837783,73.4852711 80.5655525,78.2134846 85.9632491,82.9734311 C87.4758779,84.3220826 89.9438513,87.0352521 92.1570661,86.9400532 C96.28097,86.7972548 92.9054193,78.1976181 92.5551263,76.1032417 C99.6565207,82.9258316 106.566846,89.859487 113.620473,96.7296765 C117.139326,100.140971 120.721868,103.552266 124.352177,106.868363 C126.119564,108.518477 127.982486,110.184459 129.797641,111.786974 C131.612795,113.389489 133.125424,115.10307 135.08388,116.055059 C135.991458,116.451721 137.042337,116.753185 138.013603,116.197858 C140.784103,114.642942 139.271474,110.723919 138.523121,108.470878 C137.774767,106.217837 137.313017,105.107182 136.707966,103.457068 C136.102914,101.806953 134.797277,99.9981731 134.892811,98.2845923 C134.940579,97.7768647 138.570888,100.950162 138.714189,101.092961 C144.095964,106.186104 149.923565,110.771519 156.149227,114.801607 C158.824192,116.610386 161.546924,118.371567 164.36519,120.021681 C167.183456,121.671796 169.858421,122.988715 172.421929,121.624197 C173.632032,120.910205 174.428152,119.656752 174.539609,118.260501 C174.635144,116.880117 174.396308,115.499732 173.839023,114.24628 C172.724455,111.485511 171.211826,109.026205 169.810654,106.408234 C165.654905,98.8875189 160.718958,91.8427981 155.050581,85.3692708 C154.25446,84.5918129 154.158926,84.0523523 154.461452,83.6874231" id="Fill-1" fill="#FF8300" mask="url(#mask-3)"></path>
                    <path d="M57.8239233,22.8263684 C64.0861792,20.6398913 69.4454703,18.5437863 69.0559474,15.9545224 C68.9494571,15.2459452 68.1975069,14.559018 66.907723,13.9220778 C65.718259,13.8975762 64.5005951,13.8087094 63.3308298,13.6356134 C51.5383657,11.8909278 35.1505747,11.5929937 22.2756825,13.0867243 C10.7032179,14.4293732 -2.52467106,18.7898276 18.8114267,19.4948034 C20.7967759,19.5603897 30.3796165,19.7317673 31.6658589,19.3837386 C26.6290154,20.7464577 23.2260142,22.4195746 22.4604766,24.1001823 C21.7656275,25.6255296 23.7077941,28.6603686 35.077687,27.8457539 C45.0482833,27.1312953 57.7819033,22.8410185 57.8239233,22.8263684" id="Fill-4" fill="#FF9B01" mask="url(#mask-3)" transform="translate(38.2733, 20.0542) scale(-1, 1) rotate(-17) translate(-38.2733, -20.0542)"></path>
                </g>
                <g id="illustration/star-1" transform="translate(41.6635, 132.3053) rotate(-23) translate(-41.6635, -132.3053)translate(10.3535, 99.4375)">
                    <path d="M14.8366114,23.6577622 C10.2966465,25.2761284 6.04342625,27.5465871 1.7422585,29.6832103 C-0.631610035,30.8630515 -0.537595439,33.8463507 1.76764244,35.3242371 C3.03213875,36.1338948 4.43765695,36.7176457 5.76608319,37.4276386 C9.13462615,39.2291983 12.4439399,41.1532032 15.8792332,42.8133338 C17.9663572,43.8213719 18.7410375,45.322988 18.9572711,47.549784 C19.4273441,52.3792547 20.1145908,57.1868941 20.6927805,62.0068729 C20.8140593,63.0234537 20.914655,64.0077621 21.7692476,64.7357896 C23.2960447,66.0361778 24.7015629,66.1168588 26.3712621,64.6902286 C28.1989058,63.1288136 29.9673204,61.4848193 31.4894167,59.5987819 C31.4489904,58.5480303 30.4364532,57.2353027 32.638275,56.9714283 C34.2957523,56.7720988 33.4185962,55.5713754 33.0801436,54.6620529 C32.8413465,54.0204015 31.6567626,53.2515589 32.844167,52.6716048 C34.4283129,51.897067 35.0713728,50.7665836 34.2177202,49.3247664 C33.1591159,47.5326986 32.3816152,50.4770811 31.2703627,49.7376633 C32.6993845,49.4453133 33.5248327,48.4828362 33.9826837,47.1302427 C34.0325115,46.8673175 34.0249903,46.6005956 33.9751626,46.3395688 C33.8078166,46.0253874 33.5605582,45.796633 33.2446692,45.6874763 C33.0782633,45.7586655 32.9419422,45.7244947 32.8629699,45.5897099 C33.0538195,45.5764213 33.1675772,45.4701122 33.2145845,45.2555956 C33.3377436,42.8845229 33.0105728,40.613115 31.9538488,38.4831362 C31.7319743,38.0370176 31.6586429,37.2321058 31.2506196,37.2064777 C26.9898781,36.9293147 27.4138839,32.1188278 24.6996826,30.3647276 C24.4016563,30.1720423 24.2690957,29.5968341 23.903379,29.4990677 C20.2621937,28.5195053 17.6805529,25.8845582 14.8366114,23.6577622" id="Fill-1" fill="#FDC769"></path>
                    <path d="M35.9595286,55.0886182 C38.4603169,52.0521644 41.4509212,51.3507141 45.2124451,52.5751672 C47.7226348,53.3933676 50.4462377,53.5452378 53.0748857,53.9951531 C53.0062551,53.334518 52.5296011,52.9339604 52.1272186,52.4887911 C51.1137413,51.3677995 51.498261,50.5685829 52.8135252,50.3692533 C54.4888653,50.1148708 55.1253441,49.4779654 54.3863894,47.78841 C54.1692156,47.2929336 54.6750142,46.8620021 54.8357791,46.3959506 C55.6800302,43.9574855 54.7774901,43.09847 51.769023,43.6955095 C52.754296,42.6305201 54.7107397,41.8436429 53.4265003,40.2983641 C52.3284099,38.978043 50.7010172,37.9159012 48.7558552,38.126621 C48.0310027,38.2054036 47.3672597,39.1963564 46.5859984,38.3648673 C45.7107225,37.4318151 46.2475458,35.7508024 44.9247605,35.0189781 C45.1785999,34.7038475 45.5687604,34.550079 45.8959312,34.3972597 C46.5540334,34.0887734 46.3189969,34.7835794 46.3829268,35.0275208 C46.5906991,35.8229407 46.6941151,36.6971432 47.7564801,36.73606 C48.7144888,36.7711799 49.2231078,36.2130571 49.3509676,35.275259 C49.3650698,35.174645 49.4036158,35.0759294 49.4026756,34.9762646 C49.3998552,33.7679478 53.4471835,34.4095991 50.7912712,32.0698497 C47.0006027,28.7325032 45.3036393,28.6186005 42.9589153,31.1785617 C42.7737065,31.3579583 42.6054204,31.5563387 42.4455956,31.7556683 C42.3656832,31.8458412 42.2885912,31.9464552 42.2067985,32.0337805 C41.8298,32.3792851 41.3672482,32.4096591 40.8858934,32.3792851 C40.6348745,32.3745391 40.3941971,32.4172526 40.1582205,32.5026796 C39.7229329,32.7456718 39.369438,33.094024 38.9924395,33.4101037 C38.8006497,33.5486852 38.6163811,33.7015046 38.4321125,33.8505271 C38.068276,34.1276902 37.7063198,34.4086499 37.2644512,34.5529266 C36.6430147,34.701 36.1428571,34.3754283 35.6210761,34.1229442 C35.0090411,33.8173055 34.3923053,33.5429901 33.6824951,33.6587911 C33.4126732,33.7916775 33.2462674,34.0090416 33.1644747,34.2985441 C33.7802703,36.2785511 35.7085097,36.4769315 37.1694965,37.3122173 C37.456241,37.2657071 37.7176016,37.1546521 37.9526381,36.9837981 C39.7445562,35.4071962 40.9545241,36.4009964 42.2256014,37.834271 C43.388562,39.1469986 44.0297415,40.5584417 43.9742729,42.2812187 C43.3782204,39.3653119 40.844527,36.8433182 38.4753592,36.9372879 C38.1463081,38.6515222 36.5273768,39.3074114 35.556206,40.4929477 C35.0306644,41.1345991 34.1986353,41.7715046 35.0052805,42.4520727 C37.1243695,44.2374961 35.8542323,44.9161658 34.1939345,45.6147685 C33.9203521,45.7296203 33.8009535,46.035259 33.7953126,46.3513387 L33.7962528,46.3513387 C34.1864134,47.1875737 32.9952484,48.7879054 34.9704951,48.8467551 C35.2196338,48.8552978 35.433987,48.9027572 35.3662965,48.9786923 C35.1716863,49.1998532 34.8191316,49.3213493 34.7232367,49.591868 C33.9852221,51.6791333 33.0206324,53.8394862 35.9595286,55.0886182" id="Fill-3" fill="#FCBC57"></path>
                    <path d="M35.7126463,34.9551926 C36.3077587,35.2503902 36.8756069,35.7041023 37.5919981,35.2769675 C37.5515718,34.3002526 38.3600973,34.2271651 38.9768331,33.9500021 C39.6772418,33.7620628 39.6349352,32.7853479 40.3607279,32.6239859 C40.8213994,32.4863535 41.0451542,32.1493916 41.134468,31.6947304 C41.1090841,30.9600586 40.9003717,30.2813888 40.509271,29.6596704 C38.8856389,28.5785448 38.1824097,29.728012 37.4857616,30.9154467 C35.9561441,28.8405208 36.9132127,28.1229343 39.0529849,27.9976415 C40.651233,27.904621 42.2447804,27.728072 43.8223453,27.4281284 C44.0902869,27.3237177 44.3319044,27.1746951 44.5556592,26.9943493 C45.0915424,26.5548751 45.4516183,25.9492929 46.0730547,25.5686683 C48.3322255,24.1866499 48.290859,23.8990459 45.7440036,22.3613606 C47.640278,23.1235589 49.2112619,21.0799562 51.2701816,21.854494 C51.9367451,22.1060289 51.9527275,20.2750444 51.4328268,19.9637106 C48.960243,18.4801291 47.7888211,15.5613747 45.1441905,14.3207855 C43.6691015,14.1262018 42.2729848,14.6909689 40.8270403,14.7792435 C40.174579,15.9581355 39.6951046,17.542331 37.906947,16.0293246 C37.7574638,15.9030826 37.4443952,15.8072145 37.3485003,15.9144728 C35.5349587,17.9637706 32.9984449,15.5670699 31.195245,17.1370275 C30.5173998,16.2542823 30.6556012,15.2377015 30.0520275,14.5220134 C29.5152042,13.8870063 28.9661589,13.2966111 28.0589181,13.4465829 C27.2973999,13.572825 26.2246933,13.4114629 25.9012831,13.0260924 C25.6182992,12.9947692 25.3362554,13.009007 25.0570321,13.0650092 C24.1027839,13.3839365 23.2829766,13.8983966 22.6953854,14.7450727 C22.5712861,14.9975568 22.4998351,15.2652279 22.4819723,15.5480861 C22.5289796,15.9562371 22.6718818,16.3207255 22.9783693,16.600736 C23.4042555,16.8162018 23.8386029,16.8285413 24.2691897,16.6339576 C24.5051664,16.832338 24.1629533,16.837084 24.1507314,16.9604785 C23.3675898,18.4326697 24.0087693,19.3685695 25.1801912,20.2740953 C27.1460364,21.7937459 29.0517122,23.3940776 31.09841,24.8055208 C32.4851252,25.7613535 33.4064683,26.8671581 33.3039924,28.7475003 C33.2203194,30.2681002 33.6744099,31.7792082 34.8787368,32.8214171 C35.5866667,33.4345928 35.6346142,34.1664171 35.7126463,34.9551926" id="Fill-5" fill="#FCB74E"></path>
                    <path d="M42.809056,31.8699506 C43.3543407,31.867103 43.775526,31.5671595 44.1083377,31.196976 C45.4696691,29.6830204 46.0205946,29.4324347 47.2437245,30.7527558 C48.3662587,31.9639202 50.2136455,31.8490684 51.1707141,33.2234933 C50.2521915,34.214446 49.3994791,32.980501 48.5533478,33.347837 C47.9037069,34.0350494 48.5505274,34.6339873 48.6924894,35.2794354 C48.838212,35.9400705 48.3850617,36.184012 47.8529391,36.249506 C47.3509011,36.3112032 47.0876602,35.9590543 47.1581712,35.5138849 C47.3509011,34.2894319 46.7557887,33.428518 46.0911055,32.6112667 C44.8106267,32.733712 46.0694822,33.9724029 45.2534355,34.2267854 C44.6113158,34.426115 43.8676603,33.755988 43.2283611,34.4982533 C43.3430589,34.7346012 43.4022881,35.0914961 43.6091202,35.2414679 C44.4364487,35.8413549 45.971707,35.7957939 45.1077129,37.6799329 C44.8322501,38.2826676 45.9999114,39.1625652 46.7360457,39.6846189 C47.5455113,40.2579287 48.045669,39.4852893 48.4978792,39.0420183 C49.140939,38.410808 49.6279346,38.3187367 50.2117653,39.0638497 C50.667736,39.644753 51.3484017,39.8013691 52.0224864,40.0348694 C53.5897097,40.5778052 53.7128688,41.2735603 52.5104221,42.2569195 C52.2029944,42.5094036 51.8476192,42.7068348 51.4988251,42.9014185 C50.9930265,43.1823782 50.2051842,43.3845554 50.6508134,44.153398 C51.0108893,44.7741672 52.123082,45.2677452 52.4164075,44.7295554 C53.3001447,43.1092907 54.1537972,43.9255928 54.5740425,44.7513867 C55.0948833,45.7727134 54.2130264,46.3640578 53.2785214,46.7010197 C53.1196367,46.757971 53.0190411,46.9819795 52.8347725,47.1945977 C53.2860425,47.8163161 53.7504746,48.4532216 54.1773009,49.0407692 C54.1490965,49.2125723 54.1622586,49.3255257 54.1143111,49.372036 C54.0475607,49.4346824 53.9215812,49.4954304 53.8407286,49.4764467 C52.2594031,49.0863302 50.6714966,49.8494777 50.4336397,51.0710832 C50.1572368,52.4863232 51.8175345,53.3254057 53.0745097,53.9945836 C54.4302002,54.5887755 55.8686235,54.767223 57.3249095,54.8611926 C57.6868657,54.6533204 57.8335285,54.1625899 58.1390759,53.9993295 C61.1428423,52.4075405 60.8288335,49.9225652 59.9930438,47.2762279 C58.1926643,43.5525617 56.4768979,39.7852329 54.5561797,36.1270607 C53.6470586,34.3966902 53.7109885,32.9643648 54.6332717,31.2937932 C57.0268833,26.9550529 59.3123781,22.5555646 61.6100948,18.1636697 C62.0651255,17.2932639 62.8153619,16.4987932 62.5728043,15.3721066 C61.3477941,15.5923183 60.8937036,16.6117466 60.3587605,17.5438497 C59.6057036,18.8271524 58.9786263,20.1797459 58.2998409,21.500067 C57.4236249,22.9627664 57.153803,25.5844248 54.4452425,23.2911856 C53.7457739,22.698892 53.1929681,23.4354622 53.1845068,24.3030204 C53.1769856,25.1278652 53.4637301,25.8872159 53.8125243,26.6095483 C54.4264396,27.8814608 54.0823462,28.7822406 53.1252776,29.8159068 C51.7601856,31.2890473 51.749844,28.4652117 50.6169682,29.1799506 C50.1948426,29.4457233 49.9334821,28.6541002 49.6457974,28.2554411 C47.2333829,24.9199929 47.137488,24.9086027 44.0152633,26.995868 L44.0143231,26.9968172 C42.982983,28.028585 41.4975524,28.7044072 41.3621714,30.4442696 C41.5831057,31.1903317 41.907456,31.8300847 42.809056,31.8699506" id="Fill-7" fill="#FCB74E"></path>
                    <path d="M35.7126463,34.9551926 C36.4600623,34.1474333 36.7449266,33.4678144 35.6853821,32.5556443 C34.1228595,31.2096951 33.8417559,29.7469957 34.499858,27.7812265 C34.5985734,27.4869781 34.744296,27.038012 34.5111398,27.0038412 C32.7643486,26.7437636 33.237242,24.3147904 31.1717413,23.9265723 C29.5941764,23.6304255 28.2572889,21.7880508 26.9354437,20.504748 C26.5753678,20.1554467 26.3309298,19.8108913 25.810089,19.6903444 C23.8564657,19.2366323 24.161073,18.0150268 24.8530204,16.6833154 C24.7900306,16.3719816 24.6179839,16.2666217 24.3208978,16.3966605 C23.871508,16.3843211 23.4211781,16.3729308 22.9717883,16.3605914 C21.9432687,16.2998433 21.1601271,17.849868 19.9849446,16.8275921 C19.3324833,18.1555067 19.2582118,19.6144093 19.0476191,21.0429379 C19.0739432,23.904741 20.3516015,25.7926768 22.6436774,27.6530861 C25.2488218,29.7678779 27.3613298,32.5205243 30.4045822,34.1474333 C30.6687633,34.2404537 30.944226,34.2879132 31.2234494,34.3059477 C32.0300946,34.2499456 32.8094756,34.0439717 33.5822756,33.8095222 C34.2920858,34.191096 35.001896,34.5736189 35.7126463,34.9551926" id="Fill-9" fill="#FCB954"></path>
                    <path d="M44.0155453,26.9961528 C45.4144825,28.0687357 45.8892562,27.1290391 46.2399306,25.4689086 C47.5128883,27.2448401 49.7842809,27.7403165 49.4072824,30.125627 C50.2637553,30.5802883 50.783656,29.4308211 51.4953465,29.9547731 C51.6589319,30.2936334 51.5169699,30.5404223 51.3063772,30.7672784 C51.0450166,31.0501365 50.6078487,31.3130617 50.9387801,31.7582311 C51.2123626,32.1265162 51.6777348,32.0980406 52.0002049,31.8360645 C52.9177874,31.0937992 53.6200764,30.1427124 54.712526,29.5399777 C55.672415,29.0093814 55.3217406,27.8950342 54.8958544,27.0901224 C54.332707,26.0241838 53.7281932,25.0028571 53.6586224,23.8258634 C54.0262194,23.5202248 54.3505698,23.566735 54.5056939,23.8049813 C56.0747975,26.2197166 56.5909376,26.2254118 58.0030368,23.7897943 C58.2549959,23.3541168 58.4665288,22.8947096 58.6959244,22.4466926 C59.7084616,19.6361457 57.411685,18.1459199 56.1462486,16.3386651 C55.4890865,15.400867 54.2725377,15.8403412 53.1330808,16.1792015 C50.2430721,17.038217 49.1553232,16.2864598 48.9560123,13.7293461 C47.646389,13.6666997 46.3659102,13.8005353 45.1446606,14.3216397 C46.8265817,16.2427971 47.6924561,18.9698154 50.5777641,19.7168267 C51.2715918,19.8962233 51.292275,20.776121 51.3524443,22.1230194 C50.2731568,20.6470314 49.1628444,20.4201754 47.8889466,20.4448543 C47.872024,20.9279912 47.8541612,21.4149248 47.8325379,22.0110152 C47.0653788,22.453337 46.7532503,21.2165444 46.1158314,21.4348578 C45.4943949,21.647476 44.4762168,21.5060469 44.3662197,22.2587533 C44.212976,23.300013 45.1164562,23.2031958 45.830027,23.088344 C46.6178693,22.962102 47.0362343,23.5449037 47.0832416,24.0935346 C47.1678547,25.0911316 46.3038606,24.6250801 45.8018226,24.7389827 C44.6247599,25.0047554 44.5927949,26.226361 44.0155453,26.9961528" id="Fill-11" fill="#FBB247"></path>
                    <path d="M25.2075494,13.4223786 C25.8910355,13.4318705 26.1937625,13.73656 26.4099961,14.4503497 C26.7174238,15.4678797 27.4065508,16.2243828 28.8487347,15.8105367 C28.9455697,15.7763659 28.9540311,15.6453779 28.773523,15.4147251 C28.4501128,15.0018281 27.3990296,14.7949051 28.0110647,14.1105402 C28.5140427,13.5486207 29.0649683,14.2282396 29.4015405,14.7218176 C29.7813595,15.2799404 30.4451025,15.7811118 30.0135755,16.5945663 C29.6676018,17.2485571 29.8058033,17.77156 30.370831,18.164524 C31.0270529,18.6210836 31.4961857,18.2091358 31.8901069,17.7117611 C32.695812,16.6932819 33.4009214,17.2713377 34.2404718,17.7241006 C35.0941243,18.1835077 36.0916191,18.592608 36.4122089,16.9827844 C36.5081038,16.4977491 37.4266264,16.1028867 37.5648279,16.4683243 C38.5040337,18.9381125 40.0308307,16.9894287 41.2831051,17.2295734 C41.3385737,16.2651979 40.5826964,15.6197498 40.8271343,14.7787689 C38.5331782,13.2970857 36.9377505,11.0930702 35.1195082,9.12350423 C33.3633156,7.22227981 31.7208806,5.21094954 29.7390529,3.53183521 C29.623415,3.60207516 29.507777,3.67136591 29.3911989,3.73970748 C29.33385,3.86025441 29.2765011,3.98269971 29.2153916,4.10324664 C28.9624924,4.57214573 29.1589829,5.41597424 28.4435318,5.44634827 C28.1643084,5.45773853 28.2357595,4.58068842 27.8540603,4.24182815 C27.6058618,4.0985007 27.3445012,4.04819372 27.0624574,4.08521206 C25.7312107,4.68509915 24.2420195,5.24891707 25.7105275,7.09034262 C26.4269187,7.99017325 25.7594151,7.84304904 25.1906268,8.10502505 C23.2370035,9.00485567 22.9624809,10.6089841 24.850294,11.4822375 C26.4880282,12.240639 24.8305509,12.8690018 25.2075494,13.4223786" id="Fill-13" fill="#FBB448"></path>
                    <path d="M31.4197518,34.0248931 C29.5253577,32.9494626 28.0183038,31.3159093 26.0383564,30.3382452 C24.7353141,29.6946955 24.953428,27.5134605 23.7331185,27.0920208 C22.4169142,26.6373595 21.5895857,25.8305494 20.7049084,24.9459058 C20.2997055,24.5425007 19.7017727,24.1894026 20.1370602,23.4566291 C20.9314836,22.1154259 18.6901756,22.1790215 19.0483712,21.0437921 C17.8656676,22.2786863 16.0784502,22.5197802 14.8374575,23.6578571 C15.2257378,23.9587498 15.6995713,24.2169291 15.3169319,24.8443426 C14.9681378,25.4186016 15.0527509,25.9510963 15.7935859,25.7270878 C16.9424443,25.3796849 17.0862866,26.1665621 17.520634,26.8528253 C18.1589932,27.8599142 18.0414749,30.4094343 20.3664559,28.5006164 C21.1900237,29.9908422 24.1561842,28.7625924 24.0471273,31.4563892 C24.0405462,31.6243955 24.1731068,31.9205423 24.2962659,31.9547131 C27.0396118,32.7292509 27.1561899,35.0889333 27.5585724,37.3157293 C27.6375447,37.7476101 27.9083067,38.2677653 28.477095,38.3873631 C28.8230687,38.2250518 28.7055505,37.9260575 28.734695,37.6536404 C28.7760614,37.2597272 28.1339417,36.422543 29.4774103,37.0043955 C31.2618073,37.7779841 31.691454,39.243531 32.0675124,40.7309093 C32.4802365,42.3644626 32.5263036,44.0910363 32.7321956,45.7777441 L32.7321956,45.7796425 C33.0866306,45.9704294 33.4420058,46.1612163 33.7955007,46.3520031 C35.0073488,45.88785 36.2191969,45.4236969 37.4761721,44.9415091 C37.5363414,43.3544661 36.3113313,42.5315197 35.0938422,41.8414597 C35.4793021,40.6397872 37.2872028,41.3905952 37.1941283,39.6156129 C37.1386597,38.5677089 38.7519501,39.6725642 39.3893691,39.1296284 C39.620645,38.1965762 38.5150334,37.9763645 38.6203297,37.213217 C38.4435823,36.6854682 38.0769254,36.5174619 37.5570246,36.6408564 C37.46301,36.8193038 37.3689955,36.9977512 37.2740407,37.1761986 C34.4940291,37.6954047 32.972873,35.8293003 31.4197518,34.0248931" id="Fill-15" fill="#FDC05F"></path>
                    <path d="M25.2075494,13.4223786 C25.4360049,13.0863659 25.694545,12.7854732 26.1241917,12.7218775 C26.6158881,12.6497392 27.4629596,13.2334901 27.427234,12.1770434 C27.407491,11.5923433 26.9599815,11.057001 26.2172662,11.127241 C25.5224983,11.192735 24.7449976,11.3958613 24.399964,10.5710166 C24.2213363,10.1467293 24.2156954,9.55538496 24.3557772,9.11021559 C24.5485071,8.49703987 25.0984925,8.61853598 25.5948896,8.79983097 C25.8731728,8.90044495 26.164618,8.9944146 26.4560632,9.01434756 C26.8584457,9.04187402 27.2523669,8.95454869 27.4864632,8.56348306 C27.7403026,8.13919583 27.3999698,7.8297604 27.2909129,7.46242448 C27.0239114,6.55500035 25.8111231,6.87772441 25.5093363,5.99402999 C25.7114677,4.98789026 27.1010034,5.19101658 27.3350997,4.21809844 C25.8929158,1.6220681 23.9458735,2.95567784 22.0947262,3.5327844 C21.1141539,7.47191637 20.4410094,11.4642029 20.0771729,15.509644 C20.0912751,16.2424174 20.3103291,16.9021034 21.1395379,16.9040067 C21.9743875,16.9059001 22.5036897,16.3601168 22.7218035,15.5381196 L22.7227437,15.5371704 C22.8618853,14.0080279 23.2868312,12.8186948 25.2075494,13.4223786 Z" id="Fill-17" fill="#FAAE43"></path>
                    <path d="M48.9562003,13.7290614 C48.6271492,14.2197918 48.1044281,14.6763514 48.0094734,15.2097953 C47.8355464,16.1912562 49.2175609,16.5111327 49.2147405,17.5229675 C49.2138003,17.5780205 49.6866937,17.6928723 49.6904543,17.6843296 C50.4735959,15.600861 51.4654499,17.5523924 52.3463666,17.5191708 C52.7167842,17.5049329 53.237625,17.4081157 53.4209535,17.152784 C54.6337418,15.4556351 55.5945709,16.7085639 56.6306118,17.3179428 C56.625911,18.4265949 55.273041,17.963391 55.0145009,18.749319 C55.2062906,18.880307 55.3679957,19.0834333 55.4996162,19.0653987 C57.9543373,18.7312844 57.9562176,18.7246401 58.429111,20.9827593 C58.5315869,21.4687438 58.6077387,21.9594742 58.6961124,22.4473571 C59.4510496,21.0159809 60.2059868,19.5836556 60.960924,18.1522794 C60.6393941,16.890808 60.471108,15.5714361 59.6221562,14.5073959 C59.3589153,14.1780275 58.9584131,13.8609986 58.6058584,13.9929358 C56.529076,14.7731687 54.0611929,12.7589908 51.943044,15.4527876 C52.4178177,14.3308468 53.057117,13.862897 52.7308863,13.1063938 C51.4438265,13.1348694 50.158647,13.1794813 48.9562003,13.7290614" id="Fill-19" fill="#FAAF3B"></path>
                    <path d="M35.9595286,55.0886182 C35.7790206,54.7345709 35.6144951,54.3700825 35.414244,54.0274255 C34.029409,51.657302 34.0623141,51.264338 36.0084162,49.4020303 C36.5696834,48.8647897 36.9081359,48.3531771 36.4531053,47.5862328 C35.6474002,47.3774114 35.5007374,48.5866774 34.5906761,48.357923 C34.3481185,47.7456965 34.0717156,47.0489922 33.7962528,46.3513387 C33.5612163,46.7965081 33.2791725,47.2226937 33.0996046,47.6896944 C32.5110733,49.2131418 31.6734032,49.4172173 30.4944602,48.2829372 C30.403266,48.1956118 30.119342,48.3133112 29.9256719,48.3360917 C30.6401828,50.8875102 31.0218821,50.9995144 33.5677973,49.4058271 C33.9288134,51.773103 33.9288134,51.773103 31.0453857,51.9449061 C31.169485,53.6259188 32.3634704,54.7687417 33.3101973,56.463043 C32.1368952,56.301681 31.0124806,55.1237381 30.3628398,57.0429971 C29.8335376,58.6044121 30.480358,59.0353436 31.4900748,59.5991616 C33.1259287,58.2437205 34.5850352,56.7088828 35.9595286,55.0886182" id="Fill-21" fill="#FDC05F"></path>
                    <path d="M52.7306983,13.1059192 C52.2531042,13.7371295 51.7745699,14.3683398 51.2029611,15.1238938 C51.8356794,15.6155734 52.5511304,15.2444407 53.147183,15.1998289 C54.2856997,15.1153511 55.2944763,13.8396418 56.5852967,15.2339996 C57.1616062,15.8557181 57.9221843,14.6521471 58.7100266,14.4243419 C60.0563156,15.2909509 59.4123156,17.4161838 60.9616761,18.152754 C61.4975593,17.2263461 62.0343827,16.298989 62.5721462,15.3725811 C62.2280527,12.9018437 61.0942367,11.8843137 58.6207127,12.1311027 C56.6445259,12.3285339 54.6927829,12.7718049 52.7306983,13.1059192" id="Fill-23" fill="#FAAC33"></path>
                    <g id="Group-27" transform="translate(22.0657, 0)">
                        <mask id="mask-5" fill="white">
                            <use xlink:href="#path-4"></use>
                        </mask>
                        <g id="Clip-26"></g>
                        <path d="M0.0292319195,3.53230981 C1.75439975,3.926223 3.69016027,2.6884813 5.26960547,4.21857304 C5.44635291,4.31254269 5.62216021,4.40841072 5.79702735,4.50522794 C6.69110616,5.48858715 7.26553533,5.42214396 7.42630029,3.99836132 L7.42442,3.99741214 C7.16117913,3.32728511 6.71460981,2.76251799 6.37615726,2.13605363 C5.42849014,0.557553281 4.09630332,-0.416314043 2.24985667,0.174081157 C0.755964743,0.651522935 -0.180420628,1.77346365 0.0292319195,3.53230981" id="Fill-25" fill="#FAA82A" mask="url(#mask-5)"></path>
                    </g>
                    <path d="M59.9926677,47.2763228 C59.4614852,48.3384647 59.6720779,49.3711817 59.9954881,50.4542057 C60.2399261,51.2705077 60.1271086,52.0773179 59.0064546,52.1950172 C57.3311145,52.3687187 57.4100868,53.6672085 57.3245335,54.8612875 C61.0099056,55.4849043 62.757637,53.5627978 61.5053626,50.1865345 C61.1274239,49.1690045 60.5041071,48.2435458 59.9926677,47.2763228" id="Fill-28" fill="#FDC566"></path>
                    <path d="M22.7219915,15.537645 C21.8335536,16.177398 20.9413551,17.1379767 20.077361,15.5101185 C19.8235216,15.9334566 19.7464296,16.3691341 19.9852267,16.8275921 C21.2064763,18.146964 22.1532032,17.6780649 22.9720704,16.3605914 C22.8883974,16.0862759 22.8056645,15.8119605 22.7219915,15.537645" id="Fill-30" fill="#FBB448"></path>
                    <path d="M28.4418395,2.13605363 C28.4042337,2.97893295 28.7624293,3.59400705 29.4901023,3.99741214 C29.5756556,3.84364361 29.6583884,3.68797671 29.739241,3.53136062 C29.4054891,2.97323782 29.101822,2.38569019 28.4418395,2.13605363" id="Fill-32" fill="#FAAE43"></path>
                    <path d="M28.9186816,52.2936379 C29.0794465,50.1342343 29.0794465,50.1332851 27.3608597,50.2642731 C27.2640247,50.2718666 27.1587283,50.3012914 27.0759955,50.3515984 C26.3840481,50.7720889 25.2145065,48.8063197 25.004854,50.5480804 C24.8412686,51.9035215 26.4103722,51.0739308 27.1352247,51.4241813 C27.7284568,51.709887 28.051867,52.5935815 28.9186816,52.2936379" id="Fill-34" fill="#FDC05F"></path>
                    <path d="M32.7317255,45.7776492 C32.1272117,45.5479456 31.5264584,45.4273987 31.2585168,46.2228186 C31.1071533,46.6727339 31.3327883,47.0334255 31.8207241,47.0486125 C32.6931795,47.0751898 32.6536934,46.3699428 32.7326657,45.7795476 L32.7317255,45.7776492 Z" id="Fill-36" fill="#FDC05F"></path>
                    <path d="M29.8992538,42.926477 C29.9782261,42.5790741 29.8456655,42.321844 29.5466991,42.2544516 C29.1584188,42.1690247 28.7823604,42.2933684 28.5275808,42.6208384 C28.309467,42.9027473 28.39314,43.1998433 28.6977473,43.324187 C29.1903837,43.5263641 29.6228509,43.3972745 29.8992538,42.926477" id="Fill-38" fill="#FDC05F"></path>
                    <path d="M29.9124158,40.0279403 C30.1935195,40.1665218 30.5047078,40.2272699 30.7068392,39.955802 C30.9268333,39.6596552 30.7726494,39.3796446 30.4529998,39.2723863 C30.1502728,39.1708232 29.8268626,39.2515042 29.6830202,39.5590413 C29.6378932,39.6577568 29.829683,39.8694259 29.9124158,40.0279403" id="Fill-40" fill="#FDC05F"></path>
                    <path d="M37.5568366,36.6408564 C37.9112716,36.8316432 38.2657067,37.0224301 38.6201417,37.213217 C39.6242176,36.7784887 40.1234351,37.2986439 40.4035986,38.1927794 C40.5502613,38.6616785 40.5154759,39.1543073 40.7937591,39.6222572 C41.3409241,40.5439192 42.802851,38.8135487 42.9288306,40.3683193 C42.9880598,41.1153306 42.3544014,41.8965127 42.8507985,42.6976277 C43.1130992,43.1219149 43.4073649,43.5272184 43.8529941,44.1869043 C44.7301502,42.9330264 46.0538758,42.1584887 44.4246028,40.5287321 C43.6640247,39.7684322 43.6358204,38.5022149 42.8724218,37.4875324 C41.1698175,35.2227689 39.6354993,34.7310892 37.5568366,36.6408564" id="Fill-42" fill="#FCB954"></path>
                    <path d="M51.2197897,47.5842396 C51.5422598,46.5097583 51.3203854,46.0503511 51.0712467,45.6156228 C50.6970686,44.9635303 50.0220438,44.6740278 49.3912059,44.40256 C48.013892,43.8093172 49.2915504,43.0689502 49.2407825,42.4092643 C49.1890745,41.742934 49.2106978,41.0709086 49.2012964,40.4083751 C48.8562628,40.3115578 48.5760993,40.4529869 48.4275563,40.7073694 C47.8625285,41.6745924 46.2652206,41.7258486 46.4363271,43.4353369 C46.6121344,45.1960815 48.122949,44.8771542 48.9916438,45.5131104 C49.7042745,46.0342149 50.4949372,46.4461626 51.2197897,47.5842396" id="Fill-44" fill="#FCB74E"></path>
                    <path d="M31.4197518,34.0248931 C31.131127,34.3609058 30.499349,34.6466115 31.0502745,35.1848013 C32.4407504,36.5411916 34.1677985,37.4267844 35.8309167,38.3579382 C36.7513196,38.8723983 37.2552378,38.1586087 37.2740407,37.1761986 C36.5078218,35.4325395 34.3887328,35.6271231 33.2991036,34.3466679 C32.6917693,34.1245578 32.0722131,33.9707893 31.4178716,34.0258422 L31.4197518,34.0248931 Z" id="Fill-46" fill="#FCB954"></path>
                    <path d="M42.809056,31.8699506 C42.409494,31.3687791 42.1142881,30.7660444 41.4966123,30.4727452 C41.3837947,30.5107127 41.2700371,30.5496295 41.1572196,30.5885462 C40.8751758,30.8590649 40.7576575,31.1694495 40.9278239,31.5491249 C40.7388546,31.9079181 40.5498853,32.2657621 40.3609159,32.6236062 C40.7971437,32.8438179 41.2155086,33.1200317 41.6742998,33.2709527 C42.4452195,33.5234368 42.7921334,33.2481722 42.5260721,32.4081404 L42.5251319,32.4081404 C42.6200867,32.2287438 42.7141013,32.0493472 42.809056,31.8699506" id="Fill-48" fill="#FCB954"></path>
                    <path d="M31.4174955,34.0257473 C31.9261145,34.8411002 32.5362692,35.0480233 33.2996677,34.346573 C33.3936823,34.1681256 33.4876969,33.988729 33.5817115,33.8093324 C32.8126721,33.3831468 32.0426926,32.9607579 31.4174955,34.0257473" id="Fill-50" fill="#FDC05F"></path>
                    <path d="M41.3238134,41.4480211 C41.5616704,41.265777 41.5908149,41.0721425 41.3933842,40.9060345 C40.947755,40.5330035 40.4955448,40.5330035 40.1317084,41.0132928 C40.0292324,41.1490268 39.9624821,41.4916838 40.0348733,41.5524319 C40.4955448,41.9434975 40.9317726,41.6568426 41.3238134,41.4480211" id="Fill-52" fill="#FDC05F"></path>
                    <path d="M38.9771151,33.9502868 C37.7304816,33.5563737 37.1908378,33.9161161 37.5922801,35.2763031 C38.0896173,34.872898 38.68661,34.5748528 38.9771151,33.9502868" id="Fill-54" fill="#FCB954"></path>
                    <path d="M51.3648543,40.6791785 C51.0611871,40.575717 50.7481185,40.5586316 50.6089769,40.8993902 C50.5187229,41.1215003 50.6888893,41.2743197 50.9417886,41.2866591 C51.2304134,41.2999477 51.5575842,41.3996125 51.7324513,41.0825836 C51.7606557,41.0322766 51.4945944,40.81776 51.3648543,40.6791785" id="Fill-56" fill="#FCB74E"></path>
                    <path d="M40.3607279,32.6236062 C39.5296389,32.672964 39.3077644,33.3696683 38.9768331,33.9505716 C39.8079221,33.9012138 40.0297965,33.2045095 40.3607279,32.6236062" id="Fill-58" fill="#FCB954"></path>
                    <path d="M41.4967063,30.4726503 C41.707299,30.1499262 41.8755851,29.5927526 42.1360055,29.544344 C43.595112,29.2747745 43.7079296,28.0797463 44.0144171,26.9967223 C42.1275442,26.6673539 40.2829778,27.3298874 38.3951648,27.2292734 C36.8523852,27.1466941 36.039159,28.4575233 35.0303824,29.3801344 C35.2381546,30.1727068 35.9263415,29.952495 36.4603444,30.0872798 C37.0535765,30.2372516 36.9351181,30.4992276 36.5656407,30.8694111 C35.2428554,32.1906813 36.9228962,32.0853214 37.3628845,32.2856002 C38.1676494,32.6500885 38.2174772,32.1394252 38.2231181,31.3648874 C38.2334597,29.952495 39.1322392,29.5272586 40.4305808,29.8993405 C40.6167297,30.410953 40.9739851,30.5988924 41.4957661,30.4726503 L41.4967063,30.4726503 Z" id="Fill-60" fill="#FCB954"></path>
                    <path d="M25.2072674,13.4224735 C24.9007798,13.1661927 24.6309579,12.8273324 24.2812236,12.6707163 C23.48492,12.3157198 22.4065726,11.6028793 22.7243419,13.4775265 C22.84092,14.1694848 22.2636704,14.8519513 22.7224616,15.5372653 C23.3053521,14.5387191 24.3761784,14.1239238 25.2072674,13.4224735" id="Fill-62" fill="#FBB448"></path>
                    <path d="M24.3209918,16.3965656 C24.4986794,16.4924336 24.6754268,16.5883017 24.8531144,16.6832205 C25.2827611,16.2969008 25.8806939,15.9646849 25.4068604,15.2414033 C25.3100253,15.0942791 25.0712283,14.9101365 24.940548,14.9395614 C24.1028779,15.1293991 24.4657743,15.8783087 24.3209918,16.3965656" id="Fill-64" fill="#FBB448"></path>
                    <path d="M41.4961422,30.4727452 C41.140767,30.2819583 40.786332,30.0911715 40.4309568,29.8994354 C40.0793422,30.6084792 40.2457481,31.1580593 40.9273539,31.5491249 C41.1172634,31.1903317 41.3062327,30.8315384 41.4961422,30.4727452" id="Fill-66" fill="#FCBC57"></path>
                    <path d="M22.8177924,24.0732219 C22.3975472,24.0096263 21.9707209,24.0827138 21.8513224,24.5155437 C21.6971384,25.0774633 22.0637954,25.4685289 22.5366888,25.6963341 C22.9559939,25.8975621 23.3386333,25.7447427 23.4439296,25.2853355 C23.5680289,24.7461965 23.3160698,24.3247569 22.8177924,24.0732219" id="Fill-68" fill="#FDC05F"></path>
                    <path d="M21.7313598,22.5974238 C21.7322999,22.694241 21.7116167,22.8669933 21.7379408,22.8736376 C21.9353714,22.9305889 21.9372517,22.8242798 21.7294795,22.598373 L21.7313598,22.5974238 Z" id="Fill-70" fill="#FDC05F"></path>
                    <path d="M21.7292914,22.5979933 C21.7283513,22.5011761 21.7490345,22.3284238 21.7227104,22.3208303 C21.5243396,22.2648281 21.5233995,22.3711372 21.7311717,22.5970441 L21.7292914,22.5979933 Z" id="Fill-72" fill="#FDC05F"></path>
                    <path d="M29.4919826,3.99845624 C29.1093432,4.69421136 28.5612381,4.84608151 27.8627096,4.50532286 C28.0704819,5.1336856 27.1275155,5.79147318 27.7959593,6.31257762 C28.0921052,6.54323041 28.8282395,6.52139908 29.1723329,6.30403493 C30.0880351,5.72313161 29.7834278,4.82899611 29.4919826,3.99845624" id="Fill-74" fill="#FAAE43"></path>
                    <path d="M42.5252259,32.4079506 C42.4302712,32.4088998 42.2582245,32.3889668 42.2507033,32.4155441 C42.1952347,32.6158228 42.3014712,32.616772 42.5252259,32.4079506 Z" id="Fill-76" fill="#FCBC57"></path>
                </g>
            </g>
        </g>
    </g>
</svg>