<?xml version="1.0" encoding="UTF-8"?>
<svg width="58px" height="58px" viewBox="0 0 58 58" version="1.1" xmlns="http://www.w3.org/2000/svg" xmlns:xlink="http://www.w3.org/1999/xlink">
    <title>star-2</title>
    <defs>
        <filter x="-8.0%" y="-6.9%" width="118.7%" height="118.3%" filterUnits="objectBoundingBox" id="filter-1">
            <feOffset dx="0" dy="1" in="SourceAlpha" result="shadowOffsetOuter1"></feOffset>
            <feGaussianBlur stdDeviation="1" in="shadowOffsetOuter1" result="shadowBlurOuter1"></feGaussianBlur>
            <feColorMatrix values="0 0 0 0 0   0 0 0 0 0   0 0 0 0 0  0 0 0 0.35 0" type="matrix" in="shadowBlurOuter1" result="shadowMatrixOuter1"></feColorMatrix>
            <feMerge>
                <feMergeNode in="shadowMatrixOuter1"></feMergeNode>
                <feMergeNode in="SourceGraphic"></feMergeNode>
            </feMerge>
        </filter>
        <polygon id="path-2" points="0 0 19.8586336 0 19.8586336 19.6550551 0 19.6550551"></polygon>
        <polygon id="path-4" points="0 0 12.115706 0 12.115706 12.6962121 0 12.6962121"></polygon>
        <polygon id="path-6" points="0 0 4.9863827 0 4.9863827 10.9844261 0 10.9844261"></polygon>
        <polygon id="path-8" points="0 0 4.70298113 0 4.70298113 4.18719424 0 4.18719424"></polygon>
    </defs>
    <g id="Asset-Guide" stroke="none" stroke-width="1" fill="none" fill-rule="evenodd">
        <g id="Illustrations" transform="translate(-112, -250)">
            <g id="star-2" filter="url(#filter-1)" transform="translate(140.8933, 277.98) rotate(30) translate(-140.8933, -277.98)translate(122.2188, 258.864)">
                <path d="M27.6471976,27.4343749 C29.158496,27.4276105 30.6632886,27.3187028 32.1641778,27.1414743 C32.1114808,25.9847534 31.2266913,25.3455129 30.6236032,24.5500137 C30.0602006,23.8072771 29.4434503,23.1071566 28.911926,22.3360093 C28.0375459,21.0622635 27.0545188,19.8764555 26.1085748,18.6602075 C25.9329181,18.4762144 25.7475026,18.3003388 25.5829058,18.1041697 C25.508089,17.9986443 25.4280676,17.8992069 25.349998,17.7970637 C25.236797,17.633364 25.1222948,17.4716937 25.0038892,17.3120527 C21.2747619,12.8251933 17.6529805,8.24498457 13.9004324,3.78112434 C13.8230133,3.66951092 13.7384378,3.56330907 13.6551635,3.45643076 C13.5790456,3.34481735 13.4951207,3.23929193 13.4105453,3.13444297 C13.198456,2.87333522 12.9772587,2.62237414 12.7092195,2.4201171 C12.5966691,2.33488504 12.4808658,2.25235875 12.3527014,2.19756671 C11.933077,2.01763235 11.4620568,1.65911653 11.0717085,2.09609997 C10.5844237,2.64334393 11.460105,2.8489832 11.4698637,3.37999248 C10.5831226,3.39352138 9.94750544,3.71686207 9.94685486,4.80120333 C9.94620428,5.14619025 9.57732516,5.33762417 9.36783825,5.58993814 C8.78361699,6.292088 8.47849475,6.97326806 9.40036727,7.65241879 C9.66840642,7.84994072 9.94099964,8.11646003 9.8922061,8.47700519 C9.80177542,9.14871502 9.86943579,9.67904786 10.4809814,10.0964144 C10.8921483,10.3771391 10.3990083,10.6747748 10.3437089,10.9717342 C10.3495642,11.3613665 10.5525453,11.6299151 10.833596,11.851789 C11.1582357,12.0871919 11.5160549,12.2752436 11.8029609,12.5667914 C11.8998974,12.6567585 12.0065926,12.7331968 12.1178419,12.8028706 C12.5641401,13.0037748 13.2771763,13.1187704 13.1958537,12.5241753 C13.0254016,11.2828988 13.9758997,11.7334112 14.4052828,11.4229229 C14.499617,11.3187504 14.3636456,11.1137876 14.4735937,11.0786125 C14.5789878,11.0454667 14.504171,11.2808695 14.6193238,11.3343087 C14.9381082,12.2319511 15.4748371,12.736579 16.4077695,13.0978006 C18.0875682,13.7492171 19.4362215,15.0466385 20.8375719,16.202683 C21.0678773,16.392764 21.1205744,16.6890469 21.1875842,16.9731538 C21.4335036,18.0169083 22.0144719,18.788732 22.9389468,19.2757724 C23.2336597,19.4313547 23.6994753,19.6985505 23.5615523,19.9535702 C22.7144965,21.5181874 24.2121327,22.143899 24.7774872,23.0117778 C25.1795459,23.6293721 25.1925575,24.0440328 25.0611402,24.6278048 C25.1307524,24.907853 25.277133,25.1412265 25.4684036,25.3468658 C26.2035595,26.0321045 26.9478236,26.707873 27.6471976,27.4343749" id="Fill-1" fill="#FDC563"></path>
                <g id="Group-5" transform="translate(0.9589, 18.5769)">
                    <mask id="mask-3" fill="white">
                        <use xlink:href="#path-2"></use>
                    </mask>
                    <g id="Clip-4"></g>
                    <path d="M3.74409058,6.0555352 C5.65354425,6.79083086 7.68075298,7.04179194 9.63900019,7.58430079 C10.5244402,7.8298503 11.068976,8.2255706 11.4593243,9.11306637 C11.9583195,10.248141 12.1691076,11.5063286 12.8483136,12.5568476 C12.9654181,12.7983385 13.0610534,13.0486231 13.1052929,13.3164953 L13.109847,13.3320535 C13.3238879,13.6513355 13.3596699,14.1627279 13.9016034,14.1289057 C14.7089738,13.750773 15.3387356,13.4666661 15.7342886,14.7938511 C15.9886655,15.6454953 16.9248508,15.9850706 17.7354741,15.7821371 C17.4680855,16.066244 16.9515246,16.219797 16.5345025,15.8139301 C15.7499025,15.0495473 14.5196548,15.0921633 13.861918,14.1404052 C13.6771531,14.2750178 13.6303113,14.4644224 13.6628404,14.684267 C13.8905435,15.9336608 14.4552474,17.0606181 14.8820282,18.2349265 C15.1682836,19.0229849 15.6841939,19.6331382 16.6294873,19.6547845 C17.5546127,19.6750778 18.0932933,19.1636854 18.4836416,18.3763035 C18.7399703,17.8588231 19.0080095,17.3487836 19.270844,16.8353619 C19.7717909,16.1636521 20.1998729,15.5541752 19.4640664,14.6883257 C16.2580058,10.9151157 12.8997095,7.29816457 9.38397264,3.83814865 C9.18099154,3.63792094 8.96109534,3.45798659 8.71972999,3.31255092 C8.49137624,3.17726193 8.25196263,3.07106008 7.9897787,3.0412965 C7.87592712,3.0277676 7.77638831,3.17861482 7.67229544,3.11232322 C7.59617752,3.06361918 7.6436699,2.96621111 7.75491916,2.91885996 C7.74711219,2.85865636 7.73930522,2.80183499 7.7301971,2.74163138 C7.66123557,2.63340019 7.57600953,2.54816813 7.47321781,2.47714141 C6.84345592,2.20453409 6.22410332,2.32088263 5.84286317,2.85053902 C5.44275618,3.40792966 5.96387113,3.9112047 6.18832139,4.41312686 C6.28395672,4.62823635 6.71724331,4.78449514 6.33730432,5.09430692 C6.08943316,5.29656396 5.69908488,5.63478644 5.49089913,5.32700399 C4.76615249,4.25686807 3.34983882,3.8313842 3.01869336,2.41761425 C2.97445389,2.29517772 2.92500978,2.17477052 2.87946914,2.05436331 C2.85734941,1.27645162 3.383669,0.275313095 2.11698884,0 C1.35971317,0.558743529 0.552993396,1.0579599 0,1.86834095 C0.952449802,3.5499831 2.01745003,5.12271761 3.74409058,6.0555352" id="Fill-3" fill="#F69229" mask="url(#mask-3)"></path>
                </g>
                <path d="M13.4694879,3.76644548 C15.3900014,6.13197348 17.3287312,8.48194323 19.2264744,10.8670881 C20.6740159,12.686725 22.2900578,14.3555147 23.6445663,16.2570015 C24.034264,16.803569 24.5007302,17.2743747 25.0127371,17.6971528 C25.06088,17.8243244 25.1265886,17.9447316 25.1597682,18.0786677 C25.2404402,18.1273718 25.3224134,18.17337 25.4056877,18.217339 C26.4713385,18.0732562 26.4433635,17.3224023 26.2904771,16.4984923 C26.1954923,15.9891293 25.768061,15.5798801 25.8649975,14.9440218 C27.6664548,14.9697268 28.4881379,16.5214915 29.6513758,17.5050424 C29.7769378,17.6112443 29.9024998,17.8980569 29.858911,18.0245522 C29.2753403,19.7190468 30.610982,19.9848896 31.5575766,20.544986 C31.6564648,20.6423941 31.7618588,20.7283026 31.8711563,20.8121818 C32.4976653,21.0191739 33.0773325,22.013548 33.7832123,20.9393534 C33.792971,20.7891827 33.7760559,20.6423941 33.7350694,20.4983113 C33.6849747,20.3596401 33.6231695,20.2263805 33.5529068,20.0971795 C29.9753649,15.6610535 26.693837,10.9685549 22.8716767,6.7448326 C22.5014965,6.33558341 22.190519,5.78833944 21.5132647,5.89521774 C21.2335151,5.90401153 20.9745841,5.97639114 20.7598926,6.17458951 C20.4690831,6.45463772 20.6388846,6.68868767 20.8138907,6.91259095 C20.8958639,6.89162116 20.9518138,6.92273762 20.9667771,6.99782301 C20.8789488,6.98632345 20.8164931,7.02488081 20.7748559,7.12228888 C20.6837746,7.46254069 20.8425163,7.66817996 21.0819299,7.85826099 C21.478784,8.17348434 20.9791382,8.29795021 20.9290435,8.5205006 C20.8132402,9.03865743 20.6577514,8.72411053 20.4378552,8.56379307 C20.1483469,8.35341869 19.8145991,8.51914771 19.5029711,8.60911489 C19.0436613,8.74237454 18.7456954,8.59626243 18.80685,8.06051803 C18.9519294,6.79286019 18.1204876,6.26388024 17.2272406,5.84651371 C16.6527781,5.57796506 16.1290608,5.30400486 15.9098152,4.66544082 C15.5493936,3.61559826 14.5715712,3.18605572 13.822753,2.62934152 C13.179329,2.15177139 13.224219,2.91209551 13.3393718,3.38493053 L13.3393718,3.38831276 C13.3810089,3.51480796 13.4245978,3.64062672 13.4694879,3.76644548" id="Fill-6" fill="#F9A234"></path>
                <path d="M9.30115375,22.0686106 C10.7109616,23.0169865 11.7076509,24.43008 12.9287904,25.5928888 C15.1362099,27.6939269 17.2024535,29.9498708 19.0422951,32.4175419 C19.2660947,32.7178835 19.5731687,32.951257 19.8360032,33.2204821 C20.7318525,34.1384179 20.7305514,34.1390943 20.2296044,35.4121637 C21.0577934,34.6707801 21.3108692,33.5742628 21.8157196,32.6333279 C22.716123,31.2188815 22.6777387,31.114709 21.1690426,30.6486384 C20.1671487,30.3388266 19.090438,30.3171804 18.2095521,29.5500918 C17.6682691,29.0786097 17.4835043,28.6538022 17.631186,27.949623 C18.0137274,26.1238981 17.8380706,25.7227663 16.3840233,24.72501 C17.1692739,24.8609754 17.9681867,25.5766542 18.7287153,24.6607477 C18.2694055,23.600082 17.2935348,23.0778665 16.4712011,22.4365967 C15.3600096,21.5707472 14.3145268,20.6501056 13.3770404,19.5914692 C12.1637078,18.6593281 11.1676691,17.4403743 9.83723205,16.6617862 C9.03051228,16.8863659 9.31351478,17.8766813 8.68375289,18.4103964 C8.15548155,18.8582029 7.91346562,19.170044 7.27199328,18.9062305 C6.94214898,18.7709415 6.635075,18.7520011 6.47893569,19.1835729 C6.67020634,20.4985819 7.95315102,20.6595758 8.66423547,21.4246351 L8.66553663,21.4246351 C8.73710049,21.7892389 9.22308409,21.7114477 9.30115375,22.0686106" id="Fill-8" fill="#FBB448"></path>
                <g id="Group-12" transform="translate(25.2335, 14.4453)">
                    <mask id="mask-5" fill="white">
                        <use xlink:href="#path-4"></use>
                    </mask>
                    <g id="Clip-11"></g>
                    <path d="M6.59052132,6.03052358 C6.27564037,5.20796652 5.48843801,5.2708759 4.79231691,5.01179748 C4.79687097,4.40299703 5.3986579,3.72181696 4.72790944,3.13804497 C5.01351427,2.52586229 4.45076217,2.47986403 4.18922882,2.19169848 C3.71820856,1.67286521 2.81975694,1.65257186 2.71045942,0.675785349 C2.66361763,0.259095259 2.0650836,0.296976177 1.73003466,0.338915764 C1.16402965,0.409942483 0.553134594,-0.422084806 0.0990294284,0.290211727 C-0.26139215,0.855043261 0.465306231,1.26293957 0.634457152,1.77500839 C0.984469443,2.83499763 1.03651588,2.84852653 0.172545021,3.77187389 C0.186857791,4.03636386 0.355358132,4.17368219 0.56159214,4.2792076 C0.836787677,4.33602898 1.0957187,3.77457967 1.3956363,4.28529561 C1.8484403,5.05711929 2.93035562,5.23502432 3.0773868,6.36062871 C3.15285414,6.93966559 3.8600351,7.0918657 4.36878903,7.34147389 C4.08123246,7.63302167 3.6869807,7.70607772 3.46773508,8.02603618 C3.98624771,9.30316425 5.09874031,10.09934 5.84105262,11.1965337 C6.18716143,11.7086025 6.56644984,12.1969957 6.93012432,12.6962121 C8.0432675,12.6380379 9.16031416,12.6265383 10.2669515,12.5095133 C11.7880087,12.3491959 12.2258493,11.7343074 12.0937815,10.1203097 C11.2213531,9.00620491 10.2194592,8.01318373 9.34117553,6.90381401 C9.09720785,6.59603156 8.86820353,6.15228367 8.34578742,6.2686322 C8.28658459,6.47427147 8.34318509,6.84293396 7.9834141,6.70629208 C7.50393629,6.52365195 7.05308403,6.25916197 6.59052132,6.02984713 C6.50269296,6.0670516 6.45259826,6.13063743 6.43893607,6.22263394 C6.34525248,6.03525869 6.55473939,6.10696186 6.59052132,6.03052358" id="Fill-10" fill="#F9A73E" mask="url(#mask-5)"></path>
                </g>
                <path d="M9.60458448,16.7297012 C10.7782316,17.7660149 11.8555929,18.9213829 13.1515492,19.8054964 C13.6544479,19.7500279 13.7325175,19.2562231 13.9641242,18.9193535 C14.496299,19.1547564 14.8189869,19.7324404 15.4084128,19.7912911 C15.9243231,19.8433773 15.9997905,20.1802469 16.1721943,20.6219655 C16.388187,21.1773268 16.2183855,22.0857923 17.1474144,22.1798182 C16.8819776,22.7811778 17.0738988,23.202603 17.580701,23.5678832 C18.0159393,23.8817537 18.3340732,24.8159242 18.8701515,23.6226753 C19.0360495,23.2526599 19.444614,23.6943784 19.7484351,23.7187305 C20.8036766,23.8012567 21.331948,23.2445425 20.9175282,22.2346102 C20.6267187,21.5277253 20.7568348,20.8161052 20.5525526,20.136278 C20.430894,19.8711116 20.2695501,19.633003 20.0997486,19.3996294 C18.2612082,17.3310608 16.0414276,15.7102987 14.0519525,13.8176057 C13.744228,13.5815264 13.4150343,13.4110623 13.0175296,13.445561 C12.4020805,13.8412813 11.7651622,14.2261785 12.0650798,15.1684663 C12.1665704,15.2503161 12.2817231,15.2827855 12.410538,15.2509926 C12.3962253,15.326078 12.3188062,15.3226957 12.277169,15.3666647 C12.0045758,16.5078273 13.0285895,16.1202243 13.4410575,16.4408592 C13.4325999,16.437477 13.3838064,16.5470611 13.3838064,16.5470611 C13.3838064,16.5470611 13.3154955,16.4503295 13.3044356,16.4449179 C11.905037,15.5966559 10.1204948,15.6216844 8.94879937,14.2951759 C8.78745541,14.1125357 8.56300515,14.0394797 8.31643516,14.1253882 C8.08678025,14.146358 7.94170081,14.2951759 7.82004226,14.4805218 C7.43359746,15.70624 8.09263548,16.5369144 9.60458448,16.7297012" id="Fill-13" fill="#F89C2F"></path>
                <path d="M27.3576242,3.3202624 C25.8560845,3.90538728 24.3441355,4.4654837 22.9525439,5.31239277 C24.0181947,7.36066808 25.9614786,8.53294718 27.4487055,10.1611502 C28.0810697,10.8531534 28.7713356,11.5126872 29.542924,12.0524903 C30.2312382,12.5341191 30.6664765,12.3751545 30.763413,11.4741298 C31.2090606,10.3891121 31.4133429,9.23509704 31.6677198,8.09461086 C31.6039629,6.37711713 30.0659907,5.73787665 29.2462593,4.57642067 C28.811021,3.95950287 28.2944601,3.23232455 27.3576242,3.3202624" id="Fill-15" fill="#F9A83A"></path>
                <path d="M30.7632829,11.4741975 C30.5173634,11.8847996 30.352116,12.3671048 29.7633407,11.7698039 C28.8108909,10.8038405 27.781022,9.92040342 26.7960432,8.98893873 C25.509195,7.77066137 24.2334067,6.53885511 22.9524138,5.31246042 C22.4169861,5.35845868 21.9492187,5.58371484 21.5133298,5.89487952 C22.9517632,7.13074445 24.0115588,8.73256609 25.2554686,10.1537769 C27.2807256,12.4672187 29.2109979,14.8807742 31.0469359,17.359945 C31.8107174,18.3922 32.7605649,19.2499322 33.444325,20.3410379 C33.497022,20.4621215 33.541912,20.5865874 33.5789951,20.7130826 C33.5789951,20.7130826 33.5789951,20.7137591 33.5789951,20.7144355 C34.7565458,21.7412789 35.5320377,23.1706071 36.7603336,24.1460407 C36.9444479,24.2921528 37.1383208,24.4260889 37.3269892,24.5654366 C36.7707429,23.0874044 35.5437481,22.145793 34.6283814,20.9579557 C33.4423732,19.4176905 32.1874035,17.931541 30.9083623,16.4731257 C30.1341715,15.5896886 30.0144647,14.6846052 30.2825039,13.5420897 C30.4425467,12.8575274 30.9447948,12.2419625 30.7632829,11.4741975" id="Fill-17" fill="#FDC562"></path>
                <path d="M18.6046496,24.8143683 C17.7862194,24.7311656 16.9105381,24.8745719 16.2814267,24.0926016 C16.1070712,23.8761392 15.8006478,23.9261961 15.680941,24.1528052 C15.552126,24.3949725 15.4974773,24.7852812 15.8286227,24.9002769 C16.2254768,25.0389481 16.5943559,25.1275624 16.9085863,25.4799902 C17.5285895,26.1746991 17.6808253,26.7550889 17.3353671,27.6534078 C16.9079357,28.7654833 17.306091,29.0665013 18.0113202,29.8532068 C18.9195305,30.8671978 20.0281196,30.600002 21.0261101,30.9517534 C21.4184101,31.0904246 21.8035537,31.2500656 22.1932514,31.4009128 C22.2791281,31.8947176 21.9239111,32.2234699 21.8159148,32.6327191 C21.9291158,32.5528986 22.0865562,32.5001359 22.1496625,32.3891989 C22.9023841,31.0586317 23.6414436,29.7199471 24.3837559,28.3832919 C22.7930866,28.3278234 21.841938,27.1014287 20.7092774,26.2071685 C20.0216138,25.7194517 19.650783,24.7122252 18.6046496,24.8143683" id="Fill-19" fill="#FCB84F"></path>
                <g id="Group-23" transform="translate(8.1767, -0)">
                    <mask id="mask-7" fill="white">
                        <use xlink:href="#path-6"></use>
                    </mask>
                    <g id="Clip-22"></g>
                    <path d="M2.24158371,10.981272 C2.37235038,10.9373031 2.50376764,10.8946871 2.63453431,10.8493653 C3.24022473,10.6416967 3.29942755,10.4489099 2.9481141,10.0132793 C2.74838589,9.76502402 2.49596067,9.71090842 2.22727094,9.62499991 C1.89807722,9.51879806 1.77381636,9.22725028 1.9989172,8.9505843 C2.63128141,8.17470194 1.95337656,7.81550967 1.54806493,7.4292596 C0.814860748,6.73049197 0.728333546,6.24548094 1.51033127,5.65967961 C2.02038635,5.27681177 2.63453431,5.13340544 2.14464722,4.27634969 C2.00412184,4.03080017 2.34567658,3.90768719 2.54800711,3.79336799 C2.96763151,3.55728871 3.36318443,3.86101249 3.7671949,3.84951292 C4.02092128,3.05671944 3.59544166,2.64205869 2.65209998,2.33359979 C3.61430849,2.08196227 4.02417419,2.57779642 4.52121766,2.74352543 C4.85561602,2.58794309 4.25838315,1.84858876 4.9863827,1.93923238 C4.31823656,1.10111709 3.34952224,0.674956772 2.47774442,0.193327967 C1.30149494,-0.457412076 0.0270078037,0.616782506 0.00163516549,2.18410546 C-0.0139787657,3.14736307 0.0849094651,4.11670868 0.183797696,5.07726051 C0.336684106,6.56273362 0.313263209,8.06647075 0.614481965,9.53570918 C1.03020288,10.1715674 1.25205082,11.043505 2.24158371,10.981272" id="Fill-21" fill="#FDC25D" mask="url(#mask-7)"></path>
                </g>
                <path d="M8.66417041,21.4249056 C8.4416719,20.8945728 8.00448182,20.5766437 7.59396555,20.2235394 C7.2224841,19.9049338 6.7996068,19.6208269 6.62915472,19.1087581 C6.60443266,18.9944389 6.56019319,18.8889135 6.4996892,18.790829 C6.35721208,18.6102182 6.19912103,18.4451656 6.04428288,18.2760544 C5.96426148,18.1901459 5.87643312,18.114384 5.78470127,18.0420044 C5.54593824,17.8681581 5.33124669,17.6611659 5.09508598,17.4812316 C4.78540968,17.273563 4.5115153,17.408852 4.24217499,17.5799925 C3.82450233,17.875599 3.38015587,18.1373832 3.07633479,18.5763959 C3.255895,18.845621 3.40357677,19.1486684 3.62477412,19.3739245 C3.8121413,19.564682 3.81409304,19.6708839 3.59940149,19.7730271 C2.76470675,20.1721296 3.53043996,20.4893823 3.64299038,20.8397807 C4.06066304,20.75049 4.29682375,20.9825106 4.4614206,21.34035 C4.71644815,21.6447502 5.23300904,21.6278391 5.33905365,22.1114973 C5.34881236,22.3029312 5.40215996,22.0397941 5.37808848,22.2319045 C5.32148798,22.2028173 5.34360772,22.1331435 5.31107869,22.0884981 C5.14453009,21.5777822 4.46662525,21.6156631 4.32284696,21.0833009 C4.1250705,20.9148661 3.91948708,20.7701069 3.64364096,20.8404572 C3.73667396,21.8185966 4.49785311,22.3888397 4.94545247,23.1505167 C5.09898946,23.4116244 5.31172927,23.3649497 5.5472394,23.3338333 C5.80291753,23.3006875 5.87318022,23.3345097 5.87057789,23.7065544 C5.86667441,24.4465852 6.44699219,24.7151339 7.04552622,24.3329425 C7.23809803,24.2105059 7.37992457,24.0035138 7.56013536,23.8560488 C7.70326307,23.7390238 7.86981167,23.6544682 8.11377934,23.4995623 C7.35520252,23.1166945 7.18019637,22.3570468 6.88027878,21.6325742 C7.4391274,21.2280601 8.01358995,21.0224209 8.66417041,21.4249056" id="Fill-24" fill="#F79930"></path>
                <path d="M10.4182655,10.981272 C9.81062331,10.5787873 9.45280406,9.87325521 8.7918143,9.53570918 C8.70723884,10.1641265 8.81133172,10.7817208 8.89916008,11.3979621 C9.03968546,12.3876011 8.91087053,13.3082427 8.31689056,14.1253882 C8.88029325,14.3871724 9.1216586,15.0067959 9.61089511,15.3889873 C10.0916741,15.7644143 10.422169,16.0708438 11.008342,15.7894427 C11.3089101,15.64536 11.5632871,15.7495325 11.744799,15.9971113 C12.2229757,16.6485278 12.9568304,16.627558 13.6178202,16.8027573 L13.6171696,16.8027573 C13.7837182,16.2764831 13.8533303,15.8503228 13.0667785,15.9856118 C12.5417601,16.0769319 12.2873831,15.8347646 12.472148,15.2543748 L12.472148,15.2543748 C12.2294815,15.0839107 12.0180428,14.8681247 12.3023465,14.5921352 C12.6107216,14.2931465 12.7785714,13.9197489 12.9587822,13.544322 C13.2502422,12.75694 12.2405414,13.0295473 12.1891455,12.5222136 C12.1058712,12.4775683 12.0225969,12.4335993 11.9393226,12.3896304 C11.7740752,11.9702346 11.2015643,12.0622311 11.0506297,11.6252476 C10.7598202,11.4953702 10.6075844,11.2187042 10.4182655,10.981272" id="Fill-26" fill="#F9A33A"></path>
                <path d="M27.3576242,3.32033004 C29.0406759,4.67119061 30.428364,6.31089317 31.6677198,8.0946785 C31.9852031,6.88722426 32.3514799,5.69059315 32.607158,4.46893357 C32.9649773,2.76091007 31.620878,1.51895714 30.028257,2.0932589 C29.1122398,2.42404048 28.2463172,2.90634573 27.3576242,3.32033004" id="Fill-28" fill="#FDC668"></path>
                <path d="M13.1631295,1.9390971 C12.8703683,1.84033613 12.5782577,1.73954583 12.2835447,1.64619643 C12.2620756,1.63943198 12.2236913,1.69016535 12.1820542,1.72195827 C12.0408782,2.2265862 12.7233371,2.29761292 12.6979645,2.74339014 C12.9113549,2.95782319 13.1253958,3.1715798 13.3394368,3.3853364 C13.4142536,3.16684468 13.4897209,2.94902941 13.5723446,2.70956789 C13.9542354,2.88409069 13.8748645,3.41645287 14.2873326,3.54700674 C15.0498129,3.78849759 15.5227849,4.32491844 15.7231636,5.15018128 C15.8812547,5.80227421 16.4732829,6.11276244 16.9885427,6.12290911 C17.8791873,6.13982024 17.9234268,7.13419432 18.5727061,7.36756782 C18.6722449,7.40341941 18.6930635,7.54209062 18.6039339,7.61108801 C17.5148622,8.45258552 19.0821106,8.70692883 18.7021716,9.35496309 C19.413256,9.34684575 19.5472756,8.7711911 19.9929232,8.71910483 C20.261613,8.68731192 20.4548354,8.67378302 20.4906173,9.00524105 C20.5114359,9.19193985 20.2238793,9.49160497 20.6519613,9.51528054 C20.8516895,9.52678011 21.0110817,9.37796222 21.0247439,9.16285272 C21.061827,8.59396252 21.4007794,8.25168137 21.8887147,8.05213011 C21.6265308,7.5508844 20.6519613,7.80928638 21.0188886,6.93599594 C20.8282686,6.72088645 20.7404402,6.46721959 20.7599576,6.17431893 C19.3065609,6.36439996 18.3885918,5.24150134 17.3014719,4.58873197 C15.9001215,3.74791089 14.6197792,2.69333322 13.1631295,1.9390971" id="Fill-30" fill="#F9A73C"></path>
                <path d="M5.74586162,18.3338228 C5.82783476,18.3784682 5.91045848,18.4224371 5.9930822,18.4650531 C6.05423676,18.6916622 6.32357707,18.7464542 6.38017757,18.9764455 C6.46280129,19.0210909 6.54542501,19.0650598 6.62869931,19.1083523 C6.95268838,18.9101539 7.0919126,19.2023781 7.31766402,19.3484902 C8.00597816,19.7956203 8.38201367,19.6021571 8.63313773,18.724808 C8.80228865,18.1342715 9.4398575,18.4630238 9.74823265,18.0950377 C9.70139085,17.6519663 9.6532479,17.1906308 9.60445436,16.7292954 C8.79252994,16.1664932 7.77111861,15.7829489 7.81991214,14.4801159 C6.62934989,15.5157531 5.33079128,16.4167778 4.24171958,17.5795867 C4.53448079,17.5836453 4.8337478,17.5302062 5.10634102,17.6952588 C5.20392809,18.0328048 5.65738267,17.9861301 5.74586162,18.3338228" id="Fill-32" fill="#FCBB56"></path>
                <path d="M20.6163745,26.4836315 C21.2949299,27.4529772 22.3794476,27.9149891 23.1985284,28.7138705 C23.6955719,29.1988816 23.9707674,28.437881 24.383886,28.383089 C24.7020198,27.8534326 25.2823376,27.7709063 25.7605143,27.5131808 C26.6069194,26.7582682 26.5834985,26.3693124 25.6147842,25.1151834 C25.4872705,24.9440428 25.3597567,24.7722258 25.2322429,24.6010853 C25.1099338,24.321037 24.9010975,24.1695134 24.6076857,24.1417791 C23.6832108,24.4671492 23.292212,24.9291611 24.2257949,25.740895 C24.323382,25.8254506 24.3064669,25.8464204 23.9057093,26.1203806 C23.7788462,26.1440562 23.656537,26.1792313 23.5348785,26.2177887 C22.6279693,27.0971671 21.5623185,26.084529 20.6163745,26.4836315" id="Fill-34" fill="#F89F32"></path>
                <g id="Group-38" transform="translate(0, 20.4453)">
                    <mask id="mask-9" fill="white">
                        <use xlink:href="#path-8"></use>
                    </mask>
                    <g id="Clip-37"></g>
                    <path d="M4.70298113,4.18719424 C3.61260827,2.95268221 2.45132214,1.78446178 1.5333531,0.391661626 C1.41364629,0.21037438 1.15406469,0.128524541 0.959541129,0 C0.0506802183,0.358515824 -0.0690265874,1.12086928 0.027909902,1.98604237 C0.120942909,2.81401099 0.664177598,3.27196423 1.35834696,3.45933948 C2.4591291,3.7576517 3.55535719,4.10872663 4.70298113,4.18719424" id="Fill-36" fill="#FAAD38" mask="url(#mask-9)"></path>
                </g>
                <path d="M25.6150445,25.1152511 C25.8492534,25.9019565 26.468606,26.6636335 25.7601239,27.5132484 C26.3950904,27.6404201 27.0215994,27.5538351 27.6474578,27.4341043 C27.6929985,27.248082 27.7918867,27.0126791 27.6240369,26.8882133 C26.9044949,26.3558511 26.4250171,25.5326176 25.6150445,25.1152511" id="Fill-39" fill="#FAAC48"></path>
                <path d="M14.6216008,33.2614747 C14.7243925,33.067335 14.8271842,32.8731953 14.9299759,32.6790556 L14.9299759,32.6804085 C14.64307,32.4233594 14.3555134,32.1663103 14.0686074,31.9092612 C14.0861731,32.433506 14.2533723,32.8921357 14.6216008,33.2614747" id="Fill-41" fill="#F89A33"></path>
                <path d="M14.0640533,31.893703 C14.1954706,31.5608921 14.1121963,31.3065488 13.8070741,31.1340553 C13.7869061,31.4262795 13.8695298,31.6806228 14.0640533,31.893703" id="Fill-43" fill="#F89A33"></path>
                <path d="M24.4849211,24.2151058 C24.7340934,24.3436303 24.9826152,24.4721548 25.2317875,24.6013558 C25.0229512,23.8633544 25.9344144,24.2685449 25.9968701,23.7402414 C24.8115125,23.2565833 24.734744,21.6283803 23.5266161,21.0960181 C23.3802355,21.0317558 23.6424194,20.9715522 23.6977188,20.9039077 C24.2331465,20.2464032 24.0926211,19.3812301 23.3938977,19.1140344 C22.2326116,18.6709629 21.585284,17.8396121 21.504612,16.5516609 C21.4733842,16.0551503 21.2671501,15.586374 20.7759619,15.7054283 C20.0837443,15.8731866 20.8722478,14.554119 19.9594834,14.9667504 C19.4611388,15.192683 19.285482,14.400566 18.91335,14.1719276 C17.9101549,13.5556862 17.0474852,12.6397798 15.8113824,12.4929912 C15.4438044,12.4490223 15.1542961,12.372584 15.3000261,11.8781028 C15.5706676,10.960167 14.9246412,11.0947795 14.4275977,11.0602808 L14.4275977,11.0596044 C14.2942287,11.2591556 14.1218249,11.524322 13.8889171,11.3146241 C13.5857466,11.0406639 13.3020935,10.8600531 12.8284709,11.0217234 C12.8785656,11.3558873 12.9280097,11.7110209 12.9852608,12.065478 C13.1387978,13.011148 12.6417543,12.7236589 12.1889503,12.5220783 C12.2123712,13.0524112 12.9273592,13.0206183 12.958587,13.5448631 C13.2897325,13.7173566 13.6208779,13.8905265 13.9520234,14.0636964 C15.4333951,14.4019189 16.5211656,15.6425189 18.080607,15.9049795 C18.8665082,16.0375628 19.5255462,16.8283269 19.5717375,17.8193188 C19.6075194,18.5796429 19.8963771,19.222942 20.2294743,19.8642118 C20.4213955,20.0718804 20.6081121,20.3586931 20.8787536,20.3762807 C22.2052872,20.4628656 22.6145023,21.4416815 22.9098658,22.5496983 C23.1648934,23.0982951 23.6157456,23.475075 24.010648,23.9025882 C24.1004281,23.9952612 24.201268,24.0730523 24.3105656,24.1400204 C24.3678166,24.1657253 24.4263689,24.1900773 24.4849211,24.2151058" id="Fill-45" fill="#FDC15A"></path>
                <path d="M28.701203,22.471163 C29.3465788,22.7106245 29.6569057,21.8792737 30.286017,22.0964125 C30.1559009,21.4835534 29.7954794,21.3022662 29.4292026,21.3185008 C28.6680234,21.3529995 28.636145,20.5865874 28.2640129,20.2186013 C27.9875162,19.9439647 28.4351156,19.9182598 28.620531,19.8634678 C28.7623576,19.8222046 28.8859679,19.7721477 28.8527883,19.5996542 C28.822211,19.442719 28.660867,19.3101358 28.5509189,19.400103 C27.8144618,20.0014625 27.6993091,18.5268125 27.0161996,18.9117097 C26.9335759,18.957708 26.9088538,18.7168936 26.9556956,18.576193 C27.068246,18.2332354 26.9003963,17.9958032 26.6167432,17.8943365 C26.2315996,17.7563417 26.263478,18.2467643 26.0396783,18.3807004 C25.9310314,18.4463156 25.8750815,18.6073095 25.7944095,18.7250109 C26.7637744,19.9737283 27.7324887,21.2224457 28.701203,22.471163" id="Fill-47" fill="#F9A234"></path>
                <path d="M11.0505646,11.6249094 C11.1416459,12.1376547 11.6042086,12.1836529 11.9392575,12.3892922 C11.8475257,11.8772234 11.3823607,11.8352838 11.0505646,11.6249094" id="Fill-49" fill="#FDC15A"></path>
                <path d="M10.9255881,5.41987988 C10.9483584,5.50037683 10.9470573,5.61266669 10.9991037,5.65460628 C11.0862815,5.72495655 11.1643511,5.67016451 11.1715075,5.55313953 C11.1741099,5.50917061 11.1610982,5.45573146 11.1370268,5.41987988 C11.070017,5.31841313 10.9952002,5.32111891 10.9255881,5.41987988" id="Fill-51" fill="#FDC25D"></path>
                <path d="M25.1598984,18.078803 C25.1111048,17.9516314 25.0616607,17.8244597 25.0128672,17.6972881 C25.0616607,17.8244597 25.1111048,17.9516314 25.1598984,18.078803" id="Fill-53" fill="#F9A73E"></path>
                <path d="M14.4274025,11.0600102 C14.4254508,11.014012 14.431306,10.9308092 14.4195956,10.927427 C14.3265626,10.9044279 14.3278637,10.9551613 14.4280531,11.0600102 L14.4274025,11.0600102 Z" id="Fill-55" fill="#FDC15A"></path>
                <path d="M13.4694879,3.76644548 C13.425899,3.64062672 13.3823101,3.51413152 13.3393718,3.38831276 C13.3823101,3.51413152 13.425899,3.64062672 13.4694879,3.76644548" id="Fill-57" fill="#F9A73C"></path>
                <path d="M14.9297157,32.6792585 C15.1801892,33.1947095 15.4313132,33.7094842 15.7331826,34.3304606 C15.8262156,34.3304606 16.027245,33.9185056 16.4377612,33.9523279 C16.9484669,33.9942675 17.038247,34.3061086 17.1117626,34.7092698 C17.1260754,34.7884139 17.2008921,34.8979979 17.2685525,34.9182913 C17.8618819,35.0921376 18.3485161,34.8574112 18.8214881,34.4961896 C19.3373984,34.1024987 19.2307032,33.7094842 18.8995577,33.2745301 C18.5944355,33.4044075 18.7466713,33.7013668 18.6646982,33.9063296 C18.5684123,34.1457911 18.3589253,34.4190749 18.1917262,34.1214391 C17.97183,33.7297775 17.7005379,33.8380087 17.4006203,33.7690113 C17.0597162,33.6905437 16.5991052,33.4970804 17.066222,32.9572774 C17.2230119,32.7759901 17.0850888,32.5155588 16.932853,32.4891775 C16.3206567,32.3822992 15.991463,31.6875902 15.3233169,31.6923012 C15.1710811,32.009578 15.3695081,32.488501 14.9297157,32.6806114 L14.9297157,32.6792585 Z" id="Fill-59" fill="#F89A33"></path>
                <path d="M9.30115375,22.0686106 C9.2562637,21.6755961 8.93812985,21.5741294 8.66553663,21.4246351 C8.6232489,21.5125729 8.58096117,21.6005107 8.53867344,21.689125 L8.53867344,21.6884486 C8.79239982,21.8149438 9.04677679,21.9421154 9.30115375,22.0686106" id="Fill-61" fill="#F79930"></path>
                <path d="M8.53860838,21.6889897 C8.49436891,21.6910191 8.41434752,21.6849311 8.41174519,21.6971071 C8.38897488,21.7938387 8.43841899,21.7924858 8.53860838,21.6883133 L8.53860838,21.6889897 Z" id="Fill-63" fill="#F79930"></path>
                <path d="M21.7071377,7.01608703 C21.7019331,6.86118113 21.6433808,6.72656859 21.4904944,6.72927437 C21.3668841,6.73198015 21.2100942,6.76986107 21.1281211,6.85441668 C20.9140801,7.07493774 21.2237564,7.01946925 21.2653936,7.04314483 C21.4033166,7.12093599 21.5789734,7.25690143 21.7071377,7.01608703" id="Fill-65" fill="#F9A73C"></path>
                <path d="M33.5792553,20.7132179 C33.5343653,20.588752 33.4894752,20.4649626 33.4445852,20.3411732 C33.4894752,20.4649626 33.5343653,20.5894285 33.5792553,20.7132179" id="Fill-67" fill="#F9A73E"></path>
                <path d="M24.3425091,23.837176 C23.9228847,23.4028983 23.5039108,22.9679442 23.0842864,22.5336665 C22.8364153,22.1514752 22.7134556,21.6590232 22.2339778,21.4817946 C21.9496741,21.3383883 21.5645305,21.3776221 21.4096923,20.992725 C21.3680552,20.8858466 21.3134064,20.7884386 21.2522519,20.6930598 C21.1514119,20.5510064 21.0199946,20.4427752 20.8950832,20.3277796 C20.7467508,20.2439004 20.6016714,20.1464923 20.4221112,20.2317244 C20.3362346,20.9284627 19.9328747,21.6380534 20.6465614,22.2833819 C20.7870868,22.4105536 20.9458285,22.9442686 20.6719341,23.2161995 C20.3433909,23.542246 19.9146584,23.554422 19.5099974,23.3237543 C19.308968,23.2094351 19.1163962,23.0721167 18.9433418,22.9172108 C18.8015152,22.7913921 18.6837602,22.6506915 18.4736227,22.7352471 C18.1405255,23.1323203 18.6720497,23.5517162 18.4449971,23.9812587 C17.9121717,23.9251138 17.7469243,23.3832814 17.3819487,23.1208208 C17.2863133,23.0531763 17.2648442,22.8698597 17.2167012,22.7366 C17.029334,22.2197961 17.9681217,22.7562169 17.6935767,22.1981499 C17.5218235,21.8484278 17.0000579,22.1115649 16.8445692,21.8321931 C16.6741171,21.5271165 17.0644654,21.0691632 16.5108214,20.7661159 C15.9669361,20.4684801 16.7996791,20.0538194 16.5531091,19.572867 C15.6871865,19.6249533 14.8707081,19.4118731 14.3066548,18.5987863 C14.1127818,18.320091 13.7926962,18.3092678 13.5467768,18.3951763 C13.087467,18.5568467 13.4687072,18.8341891 13.5161995,19.0702684 C13.5851611,19.4091673 13.2273418,19.5349861 13.1512239,19.8055641 C13.9540402,20.9453738 14.9832585,21.8105469 16.0931488,22.6195751 C16.9831428,23.2689622 17.9004613,23.9197023 18.6043894,24.8146389 C19.4156632,25.1873601 19.8034092,26.1127368 20.6166347,26.4834286 C21.1800374,26.8236804 21.880062,26.6883914 22.4408624,27.0638184 C22.7707067,27.2843394 23.0114214,27.197078 23.17797,26.7729471 C23.2423775,26.6085709 23.5527044,26.5497202 23.7511314,26.4428419 L23.7504808,26.4428419 C24.2280069,26.3894028 24.705533,26.3359636 25.178505,26.2832009 C25.1557346,25.8840984 24.9013577,25.7630147 24.6684499,25.6094617 C23.8688865,25.0811582 23.8721394,25.0770996 24.4849862,24.2153087 C24.4849862,24.2153087 24.4823839,24.217338 24.4823839,24.217338 C24.4322892,24.0915193 24.3854474,23.9650241 24.3425091,23.837176" id="Fill-69" fill="#F79824"></path>
                <path d="M29.4928944,17.9298499 C28.9457562,17.1302919 28.9457562,17.1302919 27.5398518,16.7832757 C27.7343754,17.28858 27.0447601,17.940673 27.9828971,18.2038101 C28.1683126,18.2558963 28.4396046,18.2822777 28.4304965,18.0739326 C28.3960157,17.2987267 28.7369199,17.6308612 29.0381386,17.81756 C29.1493879,17.8865574 29.2255058,18.0326695 29.4928944,17.9298499" id="Fill-71" fill="#F9A234"></path>
                <path d="M31.8239893,20.4757857 C31.5676605,20.386495 31.1577949,20.2336184 31.1168083,20.5393715 C31.0634607,20.9384741 31.3562219,21.2929312 31.8870956,21.3456939 C31.8636747,21.025059 31.8441572,20.7504224 31.8239893,20.4751093 L31.8239893,20.4757857 Z" id="Fill-73" fill="#F9A234"></path>
                <path d="M20.2965491,19.8409421 C20.242551,19.0407078 19.8352876,18.3229997 19.9484886,17.4551208 C20.0369675,16.7746172 18.476225,15.234352 17.8178376,15.3249956 C17.0195753,15.4345797 16.463329,15.074711 15.9695385,14.5944351 C15.3644986,14.0066044 14.7392908,13.7739074 13.952739,14.0641023 C15.2376354,15.6551008 16.951915,16.7502652 18.3682286,18.1917693 C18.8965,18.7295431 19.4794201,19.209819 20.0369675,19.7157998 C20.0779541,19.8598826 20.1644813,19.9011457 20.2965491,19.8409421" id="Fill-75" fill="#FCBB51"></path>
                <path d="M20.2965491,19.8409421 C20.2100219,19.799679 20.1234947,19.7577394 20.0369675,19.7157998 C20.0506297,19.9802898 20.2191301,20.1196375 20.4221112,20.2312509 C20.5886598,20.3185123 20.755859,20.4057737 20.9224076,20.4930351 C20.9627435,20.6235889 21.0284522,20.7433197 21.0635835,20.8752265 C21.1455567,20.9158132 21.2262286,20.9584292 21.3055995,21.003751 C21.3452849,21.4123238 21.8104499,21.3487379 21.9568305,21.6396093 C22.4356577,21.7972209 22.6549033,22.3079369 23.0842864,22.5338695 C23.452515,21.5049967 22.3875148,21.0626017 22.2007982,20.2474855 C22.1468,20.0127592 21.7414884,19.9525556 21.4630399,20.0783743 C21.0134888,20.2819842 20.66738,20.0114063 20.2965491,19.8409421" id="Fill-77" fill="#FCB84C"></path>
                <path d="M13.6178202,16.802622 C13.5618703,17.0082613 13.4499704,17.2287823 13.7349247,17.3512188 C13.7648514,17.3640713 13.8357647,17.3383664 13.8513786,17.3092793 C14.0029638,17.0299075 13.7830676,16.9284408 13.6171696,16.802622 L13.6178202,16.802622 Z" id="Fill-79" fill="#F9A33A"></path>
                <path d="M12.4720179,15.2540366 C12.5162574,15.2520072 12.5962788,15.2580952 12.5995317,15.2452428 C12.6216514,15.1485112 12.5728579,15.149864 12.4720179,15.2540366 Z" id="Fill-81" fill="#F9A33A"></path>
                <path d="M5.41478122,22.3807223 C5.63793032,21.9112695 5.79406963,21.4884915 5.02508352,21.4492576 C4.81299429,21.4384345 4.60741086,21.3004398 4.39922511,21.2212957 C4.59374867,21.7441876 5.01597539,22.0512937 5.4154318,22.3807223 L5.41478122,22.3807223 Z" id="Fill-83" fill="#F69229"></path>
                <path d="M5.74586162,18.3338228 C5.70357389,17.9353967 5.38153656,17.8413709 5.10634102,17.6952588 C5.14797817,18.0943613 5.46871434,18.1904165 5.74586162,18.3338228" id="Fill-85" fill="#FBB448"></path>
                <path d="M3.64344578,20.8405925 C3.89522042,20.9677641 4.14764565,21.0942593 4.39942029,21.221431 C4.30443554,20.7573898 4.05201032,20.6302181 3.64344578,20.839916 L3.64344578,20.8405925 Z" id="Fill-87" fill="#F69229"></path>
                <path d="M6.38024263,18.9761073 C6.36592986,18.7116173 6.19938126,18.5722696 5.99314725,18.4653913 C6.00550828,18.7312342 6.1714063,18.8712583 6.38024263,18.9761073" id="Fill-89" fill="#FBB448"></path>
                <path d="M5.41517157,22.3805194 C5.41777389,22.4265177 5.41126808,22.5097204 5.42297853,22.5124262 C5.51601154,22.5361017 5.51471038,22.4846919 5.41452099,22.3805194 L5.41517157,22.3805194 Z" id="Fill-91" fill="#F69229"></path>
                <path d="M5.98260785,17.6606924 C6.03205197,17.726984 6.06913505,17.8216863 6.1341931,17.850097 C6.19664882,17.8778312 6.28773009,17.8385974 6.36579974,17.8291272 C6.31635563,17.7628356 6.27862196,17.6688098 6.2142145,17.6397226 C6.15175877,17.6113119 6.06067751,17.6505457 5.98260785,17.6606924" id="Fill-93" fill="#FBB448"></path>
                <path d="M24.3425091,23.837176 C24.3893509,23.9636712 24.4355421,24.0908428 24.4823839,24.217338 C24.4361927,24.0901664 24.3893509,23.9636712 24.3425091,23.837176" id="Fill-95" fill="#F89F32"></path>
                <path d="M21.9566353,21.639271 C21.8974325,21.253021 21.5832021,21.148172 21.3054043,21.0040892 C21.0009326,21.2794023 20.8779729,21.529687 21.4153524,21.6345359 C21.5897079,21.6690346 21.775774,21.639271 21.9566353,21.639271" id="Fill-97" fill="#F89C2F"></path>
                <path d="M23.7508061,26.442639 C23.7488544,26.3966407 23.7547096,26.313438 23.7429992,26.3100558 C23.6493156,26.2870566 23.6506167,26.33779 23.7514567,26.442639 L23.7508061,26.442639 Z" id="Fill-99" fill="#F89F32"></path>
                <path d="M21.0635835,20.8753618 C21.0167417,20.7481901 20.9698999,20.620342 20.9224076,20.4931704 C20.9698999,20.620342 21.0167417,20.7481901 21.0635835,20.8753618" id="Fill-101" fill="#F89C2F"></path>
            </g>
        </g>
    </g>
</svg>