<?xml version="1.0" encoding="UTF-8"?>
<svg width="118px" height="118px" viewBox="0 0 118 118" version="1.1" xmlns="http://www.w3.org/2000/svg" xmlns:xlink="http://www.w3.org/1999/xlink">
    <title>Group 66</title>
    <g id="R5---Dev-Facing" stroke="none" stroke-width="1" fill="none" fill-rule="evenodd">
        <g id="Homepage---Desktop" transform="translate(-1092, -6024)">
            <g id="Group-66" transform="translate(1092, 6024)">
                <path d="M57.3149515,108.604272 L53.8749443,113.984842 C53.2799586,114.915469 52.0432055,115.187559 51.112579,114.592574 C50.7243468,114.344362 50.4337329,113.969704 50.2898685,113.531942 L48.2960287,107.464917 C47.951173,106.415561 46.820941,105.844451 45.7715849,106.189306 C45.4962019,106.279807 45.2437826,106.429087 45.0318096,106.626808 L40.3617832,110.982843 C39.5540527,111.736265 38.2884883,111.692239 37.535066,110.884509 C37.2207586,110.547546 37.0324483,110.112386 37.0019709,109.652599 L36.5795789,103.280333 C36.5065217,102.178182 35.5538274,101.343937 34.4516766,101.416994 C34.1624388,101.436167 33.8808252,101.517983 33.6263405,101.656777 L28.0197298,104.71457 C27.0500071,105.243448 25.8351514,104.886072 25.3062737,103.91635 C25.0856403,103.511808 25.0114658,103.043489 25.0962903,102.590567 L26.2718866,96.3134532 C26.4752184,95.2277599 25.7599231,94.1827985 24.6742298,93.9794667 C24.3893109,93.9261063 24.0961978,93.9353177 23.8151917,94.0064631 L17.6242807,95.5738828 C16.5534971,95.8449846 15.465684,95.1967144 15.1945822,94.1259308 C15.0814858,93.6792289 15.1261079,93.2071767 15.3209046,92.7895793 L18.020622,87.0020316 C18.4875667,86.0010139 18.054615,84.8109952 17.0535974,84.3440505 C16.7908999,84.22151 16.5047047,84.1575378 16.2148338,84.1565646 L9.82862027,84.135124 C8.724057,84.1314156 7.83163778,83.232984 7.83534616,82.1284207 C7.8368932,81.6676269 7.99750801,81.2215021 8.29003703,80.8654682 L12.3442424,75.9311394 C13.0454602,75.0776949 12.9220561,73.8173922 12.0686117,73.1161744 C11.8446419,72.9321536 11.5833473,72.7990173 11.3028252,72.7259867 L5.12257843,71.117033 C4.05363928,70.8387474 3.41268793,69.746606 3.69097352,68.6776668 C3.80706671,68.2317344 4.07358224,67.8395687 4.44546295,67.5674693 L9.59941571,63.7964014 C10.4908464,63.1441553 10.6847438,61.8927579 10.0324977,61.0013272 C9.8613285,60.7673887 9.64135259,60.5734538 9.38780557,60.4329546 L3.80185313,57.3375842 C2.83570348,56.8022071 2.48649333,55.5849792 3.02187042,54.6188296 C3.24521521,54.2157782 3.60088531,53.9022128 4.02875106,53.7311449 L9.95860938,51.3602879 C10.9842412,50.9502231 11.4832568,49.786361 11.073192,48.7607292 C10.9655785,48.4915722 10.8007432,48.2490244 10.5901026,48.0498847 L5.9494304,43.6625912 C5.14677699,42.9037623 5.11125019,41.6379308 5.87007908,40.8352774 C6.18664189,40.5004322 6.6091185,40.2851696 7.06608492,40.225882 L13.399254,39.4042056 C14.4946427,39.262088 15.2674215,38.2588909 15.1253039,37.1635022 C15.0880079,36.876039 14.9886704,36.6001184 14.8341715,36.3548508 L11.4303701,30.9513039 C10.8416466,30.0167032 11.1220354,28.781805 12.0566361,28.1930815 C12.4465261,27.947482 12.9092634,27.844048 13.3666177,27.9002659 L19.7051612,28.6793991 C20.8014794,28.8141585 21.799465,28.034661 21.9342243,26.9383427 C21.9695893,26.6506355 21.9419913,26.3586792 21.8533418,26.0826948 L19.9002845,20.0024194 C19.5624826,18.9507713 20.1411692,17.8243995 21.1928173,17.4865976 C21.6315363,17.3456758 22.1054589,17.3605694 22.5344636,17.5287605 L28.4801076,19.8597475 C29.5084697,20.2629164 30.6689549,19.7560972 31.0721238,18.7277351 C31.1779275,18.4578616 31.2238031,18.1682143 31.2065733,17.8788543 L30.8269779,11.5038963 C30.7613229,10.4012797 31.6019463,9.45420851 32.7045628,9.38855347 C33.1645445,9.36116397 33.619874,9.49344944 33.9935734,9.76304567 L39.1727311,13.4994219 C40.0685213,14.1456678 41.3185885,13.9433722 41.9648344,13.047582 C42.1344289,12.8124994 42.2508956,12.5433607 42.306168,12.2588065 L43.5238859,5.98972801 C43.7345031,4.90542447 44.7842438,4.19716176 45.8685473,4.40777898 C46.3208893,4.49564276 46.7290158,4.7370081 47.0239289,5.09106971 L51.1111748,9.99806501 C51.8181073,10.8467818 53.0792103,10.9617207 53.9279271,10.2547883 C54.1506562,10.0692677 54.3303959,9.83754859 54.4546975,9.57567987 L57.193215,3.80639011 C57.6668707,2.80853033 58.8597696,2.38357889 59.8576294,2.85723451 C60.2739094,3.05483077 60.6091887,3.3901101 60.806785,3.80639011 L63.5453025,9.57567987 C64.0189581,10.5735396 65.211857,10.9984911 66.2097168,10.5248355 C66.4715855,10.4005339 66.7033046,10.2207941 66.8888252,9.99806501 L70.9760711,5.09106971 C71.6830036,4.2423529 72.9441065,4.12741398 73.7928234,4.83434647 C74.146885,5.12925951 74.3882503,5.53738601 74.4761141,5.98972801 L75.693832,12.2588065 C75.9044492,13.3431101 76.9541899,14.0513728 78.0384935,13.8407556 C78.3230477,13.7854832 78.5921863,13.6690165 78.8272689,13.4994219 L84.0064266,9.76304567 C84.9022168,9.11679981 86.152284,9.31909546 86.7985299,10.2148857 C87.0681261,10.588585 87.2004116,11.0439146 87.1730221,11.5038963 L86.7934267,17.8788543 C86.7277717,18.9814708 87.5683951,19.928542 88.6710116,19.9941971 C88.9603717,20.0114269 89.250019,19.9655513 89.5198924,19.8597475 L95.4655364,17.5287605 C96.4938985,17.1255916 97.6543836,17.6324109 98.0575525,18.660773 C98.2257436,19.0897777 98.2406373,19.5637004 98.0997155,20.0024194 L96.1466582,26.0826948 C95.8088563,27.1343429 96.3875429,28.2607147 97.4391909,28.5985166 C97.7151753,28.6871661 98.0071316,28.7147641 98.2948388,28.6793991 L104.633382,27.9002659 C105.729701,27.7655066 106.727686,28.5450041 106.862446,29.6413223 C106.918663,30.0986765 106.815229,30.5614139 106.56963,30.9513039 L103.165829,36.3548508 C102.577105,37.2894514 102.857494,38.5243497 103.792095,39.1130732 C104.037362,39.2675721 104.313283,39.3669096 104.600746,39.4042056 L110.933915,40.225882 C112.029304,40.3679996 112.802083,41.3711967 112.659965,42.4665853 C112.600677,42.9235518 112.385415,43.3460284 112.05057,43.6625912 L107.409897,48.0498847 C106.607244,48.8087136 106.571717,50.0745451 107.330546,50.8771985 C107.529686,51.0878391 107.772234,51.2526744 108.041391,51.3602879 L113.971249,53.7311449 C114.996881,54.1412097 115.495896,55.3050718 115.085832,56.3307036 C114.914764,56.7585694 114.601198,57.1142395 114.198147,57.3375842 L108.612194,60.4329546 C107.646045,60.9683317 107.296835,62.1855596 107.832212,63.1517093 C107.972711,63.4052563 108.166646,63.6252322 108.400584,63.7964014 L113.554537,67.5674693 C114.445968,68.2197155 114.639865,69.4711129 113.987619,70.3625436 C113.71552,70.7344243 113.323354,71.0009398 112.877422,71.117033 L106.697175,72.7259867 C105.628236,73.0042723 104.987284,74.0964138 105.26557,75.1653529 C105.3386,75.445875 105.471737,75.7071696 105.655758,75.9311394 L109.709963,80.8654682 C110.411181,81.7189126 110.287777,82.9792154 109.434332,83.6804332 C109.078298,83.9729622 108.632174,84.133577 108.17138,84.135124 L101.785166,84.1565646 C100.680603,84.160273 99.7881838,85.0587047 99.7918921,86.163268 C99.7928653,86.453139 99.8568375,86.7393341 99.979378,87.0020316 L102.679095,92.7895793 C103.14604,93.790597 102.713088,94.9806156 101.712071,95.4475604 C101.294473,95.642357 100.822421,95.6869791 100.375719,95.5738828 L94.1848083,94.0064631 C93.1140247,93.7353612 92.0262116,94.3836314 91.7551098,95.454415 C91.6839644,95.7354212 91.674753,96.0285343 91.7281134,96.3134532 L92.9037097,102.590567 C93.1070415,103.67626 92.3917462,104.721221 91.3060529,104.924553 C90.8531311,105.009378 90.3848122,104.935203 89.9802702,104.71457 L84.3736595,101.656777 C83.4039368,101.127899 82.1890811,101.485274 81.6602034,102.454997 C81.5214098,102.709482 81.4395935,102.991095 81.4204211,103.280333 L80.9980291,109.652599 C80.924972,110.75475 79.9722776,111.588995 78.8701268,111.515938 C78.4103394,111.48546 77.97518,111.29715 77.6382168,110.982843 L72.9681904,106.626808 C72.1604599,105.873386 70.8948954,105.917411 70.1414731,106.725142 C69.9437522,106.937115 69.7944719,107.189534 69.7039713,107.464917 L67.7101315,113.531942 C67.3652758,114.581298 66.2350438,115.152408 65.1856877,114.807552 C64.7479248,114.663688 64.3732676,114.373074 64.1250557,113.984842 L60.6850485,108.604272 C60.0900628,107.673645 58.8533097,107.401555 57.9226831,107.99654 C57.6784584,108.152683 57.4710939,108.360047 57.3149515,108.604272 Z" id="Star" fill="#3E52CE"></path>
                <g id="Group-67" transform="translate(35.4691, 32.322)">
                    <path d="M17.2850621,53.2075483 L26.5257726,21.9837918 L26.5257726,2 C26.5257726,0.8954305 27.4212031,1.3527075e-16 28.5257726,0 L37.3948975,0 C38.499467,-2.02906125e-16 39.3948975,0.8954305 39.3948975,2 L39.3948975,21.9837918 L39.3948975,21.9837918 L47.7883564,50.3443451 C48.2112364,51.7733363 47.1402388,53.2075483 45.6500903,53.2075483 L17.2850621,53.2075483 Z" id="Fill-5" fill="#FFFFFF"></path>
                    <path d="M45.6500903,53.2075483 L17.2850621,53.2075483 L26.5257726,21.9837918 L26.5257726,4 C26.5257726,1.790861 28.3166336,2.705415e-16 30.5257726,0 L35.3948975,0 C37.6040365,-2.36792184e-15 39.3948975,1.790861 39.3948975,4 L39.3948975,21.9837918 L39.3948975,21.9837918 L47.7883564,50.3443451 C48.2112364,51.7733363 47.1402388,53.2075483 45.6500903,53.2075483 Z" id="Stroke-7"></path>
                    <path d="M21.5504816,50.207338 L27.103876,30.4054409 C27.3459783,29.5421696 28.1330027,28.9454999 29.02958,28.9454999 L36.8552338,28.9454999 C37.753313,28.9454999 38.5412694,29.5441326 38.7820269,30.4093391 L43.7125244,48.1279917 L43.7125244,48.1279917 C44.0033942,49.1728856 43.2172999,50.207338 42.1328775,50.207338 L21.5504816,50.207338 Z" id="Fill-9" fill="#2B3990"></path>
                    <path d="M4.94509869,53.2075483 L17.6383325,53.2075483 C19.2951867,53.2075483 20.6383325,51.8644025 20.6383325,50.2075483 L20.6383325,32.6733413 C20.6383325,31.5687718 19.742902,30.6733413 18.6383325,30.6733413 L0,30.6733413 L0,30.6733413 L1.94509869,34.1287256 L1.94509869,50.2075483 C1.94509869,51.8644025 3.28824444,53.2075483 4.94509869,53.2075483 Z" id="Fill-11" fill="#FFFFFF"></path>
                    <path d="M21.6383325,29.6733413 L21.6383325,50.2075483 C21.6383325,51.3121178 21.1906172,52.3121178 20.4667596,53.0359754 C19.742902,53.759833 18.742902,54.2075483 17.6383325,54.2075483 L0.945098694,54.2075483 L0.945098694,34.3908464 L-1.71047076,29.6733413 L21.6383325,29.6733413 Z" id="Stroke-13" stroke="#3E52CE" stroke-width="2" stroke-linecap="round"></path>
                    <path d="M7.19301226,51.2529031 L15.1930123,51.2529031 C16.8498665,51.2529031 18.1930123,49.9097574 18.1930123,48.2529031 L18.1930123,38.7774264 C18.1930123,38.2251417 17.745297,37.7774264 17.1930123,37.7774264 L5.19301226,37.7774264 C4.64072751,37.7774264 4.19301226,38.2251417 4.19301226,38.7774264 L4.19301226,48.2529031 C4.19301226,49.9097574 5.53615801,51.2529031 7.19301226,51.2529031 Z" id="Fill-15" fill="#2B3990"></path>
                    <g id="Group-19" transform="translate(15.1264, 13.0241)">
                        <line x1="1" y1="0" x2="1" y2="5" id="Fill-17" fill="#FFFFFF"></line>
                        <line x1="1" y1="0" x2="1" y2="5" id="Stroke-18" stroke="#FFFFFF" stroke-width="1.5" stroke-linecap="round"></line>
                    </g>
                    <g id="Group-22" transform="translate(13.2809, 14.928)">
                        <line x1="0" y1="1" x2="5" y2="1" id="Fill-20" fill="#FFFFFF"></line>
                        <line x1="0" y1="1" x2="5" y2="1" id="Stroke-21" stroke="#FFFFFF" stroke-width="1.5" stroke-linecap="round"></line>
                    </g>
                    <g id="Group-25" transform="translate(5.3117, 17.82)">
                        <line x1="1" y1="0" x2="1" y2="5" id="Fill-23" fill="#FFFFFF"></line>
                        <line x1="1" y1="0" x2="1" y2="5" id="Stroke-24" stroke="#FFFFFF" stroke-width="1.5" stroke-linecap="round"></line>
                    </g>
                    <g id="Group-28" transform="translate(3.3357, 19.7595)">
                        <line x1="0" y1="1" x2="5" y2="1" id="Fill-26" fill="#FFFFFF"></line>
                        <line x1="0" y1="1" x2="5" y2="1" id="Stroke-27" stroke="#FFFFFF" stroke-width="1.5" stroke-linecap="round"></line>
                    </g>
                    <g id="Group-31" transform="translate(7.6604, 2.0038)">
                        <line x1="1" y1="0" x2="1" y2="5" id="Fill-29" fill="#FFFFFF"></line>
                        <line x1="1" y1="0" x2="1" y2="5" id="Stroke-30" stroke="#FFFFFF" stroke-width="1.5" stroke-linecap="round"></line>
                    </g>
                    <g id="Group-34" transform="translate(5.6846, 3.9432)">
                        <line x1="0" y1="1" x2="5" y2="1" id="Fill-32" fill="#FFFFFF"></line>
                        <line x1="0" y1="1" x2="5" y2="1" id="Stroke-33" stroke="#FFFFFF" stroke-width="1.5" stroke-linecap="round"></line>
                    </g>
                </g>
            </g>
        </g>
    </g>
</svg>