<?xml version="1.0" encoding="UTF-8"?>
<svg width="1440px" height="91px" viewBox="0 0 1440 91" version="1.1" xmlns="http://www.w3.org/2000/svg" xmlns:xlink="http://www.w3.org/1999/xlink">
    <title>Path 8</title>
    <g id="R5---Dev-Facing" stroke="none" stroke-width="1" fill="none" fill-rule="evenodd">
        <g id="Homepage---Desktop" transform="translate(0, -2895)" fill="#FFE9E2">
            <path d="M0,2930.34976 C21.5,2917.13396 55.9166667,2910.52607 103.25,2910.52607 C174.25,2910.52607 197.5,2934.24645 289.75,2934.24645 C382,2934.24645 400.25,2895 488.5,2895 C576.75,2895 606,2933.81517 687.75,2933.81517 C769.5,2933.81517 819.25,2897.58768 907,2897.58768 C994.75,2897.58768 1020.75,2934.38033 1111.75,2933.81517 C1202.75,2933.25 1247.5,2897.5 1312.75,2897.58768 C1356.25,2897.64613 1398.66667,2907.51343 1440,2927.18957 L1440,2986 L0,2986 L0,2930.34976 Z" id="Path-8"></path>
        </g>
    </g>
</svg>