<?xml version="1.0" encoding="UTF-8"?>
<svg width="303px" height="71px" viewBox="0 0 303 71" version="1.1" xmlns="http://www.w3.org/2000/svg" xmlns:xlink="http://www.w3.org/1999/xlink">
    <title>logo/main</title>
    <defs>
        <polygon id="path-1" points="0 0 53.7347375 0 53.7347375 56.6453868 0 56.6453868"></polygon>
    </defs>
    <g id="R5---Dev-Facing" stroke="none" stroke-width="1" fill="none" fill-rule="evenodd">
        <g id="logo/main">
            <path d="M12.5903007,3.5948503e-05 C11.7610621,6.76806067 11.7610621,10.8291631 11.7610621,16.0941809 L11.7610621,35.9575264 C11.7610621,41.2225442 11.7610621,45.2840061 12.5903007,52.0520308 L0,52.0520308 C0.753918854,45.2840061 0.753918854,41.2225442 0.753918854,35.9575264 L0.753918854,16.0941809 C0.753918854,10.8291631 0.753918854,6.76806067 0,3.5948503e-05 L12.5903007,3.5948503e-05 Z" id="Fill-1" fill="#FFFFFF"></path>
            <path d="M52.2061418,33.9278379 C52.2061418,22.0450602 48.2102277,15.8791729 40.3697599,15.8791729 C32.6046119,15.8791729 28.6086979,22.0450602 28.6086979,33.9278379 C28.6086979,45.7347644 32.6046119,51.976503 40.3697599,51.976503 C48.2102277,51.976503 52.2061418,45.7347644 52.2061418,33.9278379 M16.5459962,33.9278379 C16.5459962,21.3685093 26.8749007,14.2241038 40.3697599,14.2241038 C53.9399389,14.2241038 64.1931632,21.3685093 64.1931632,33.9278379 C64.1931632,46.4871665 53.9399389,53.5560802 40.3697599,53.5560802 C26.8749007,53.5560802 16.5459962,46.4871665 16.5459962,33.9278379" id="Fill-3" fill="#FFFFFF"></path>
            <path d="M119.184444,28.3624704 L136.524578,28.3624704 C136.524578,20.8420435 134.187501,15.8786337 128.68411,15.8786337 C123.632637,15.8786337 120.089003,20.0148684 119.184444,28.3624704 L119.184444,28.3624704 Z M149.868797,37.9884011 C147.003762,47.6150508 140.671132,53.555541 129.588668,53.555541 C117.374967,53.555541 106.895783,46.5621192 106.895783,33.9276582 C106.895783,21.2187838 117.601287,14.224643 128.834389,14.224643 C140.972771,14.224643 147.984,21.5948052 148.13464,30.0175395 L119.033805,30.0175395 C118.958485,30.9946198 118.958485,31.9720596 118.958485,33.0257103 C118.958485,42.6512815 123.707957,50.6987135 133.131943,50.6987135 C139.766213,50.6987135 145.571604,46.7875163 148.511599,37.9884011 L149.868797,37.9884011 Z" id="Fill-5" fill="#FFFFFF"></path>
            <path d="M187.762374,33.9278379 C187.762374,22.3459491 183.84214,16.7063479 177.961428,16.7063479 C173.211956,16.7063479 168.763763,20.09054 165.672767,24.151283 L165.672767,35.2065262 C165.672767,45.1333459 170.34692,50.6981742 176.90587,50.6981742 C184.671378,50.6981742 187.762374,43.1770284 187.762374,33.9278379 M199.749755,33.9278379 C199.749755,47.9901735 190.17477,53.5560802 180.751144,53.5560802 C172.307397,53.5560802 167.632884,49.1189565 165.672767,43.1022555 C165.748087,46.2614099 165.899087,48.5923109 166.426686,52.0516354 L154.665624,52.0516354 L154.665624,15.6426317 C154.665624,10.3779734 154.665624,7.44529452 153.911705,0 L166.502006,0 C165.672767,7.44529452 165.672767,10.3779734 165.672767,15.6426317 L165.672767,21.8951549 C169.668321,17.232634 174.795113,14.2241038 181.504703,14.2241038 C189.798171,14.2241038 199.749755,19.8647834 199.749755,33.9278379" id="Fill-7" fill="#FFFFFF"></path>
            <path d="M242.985993,15.7281892 L242.985993,52.0519949 L231.149611,52.0519949 C231.52657,48.6678028 231.75289,46.1859181 231.82821,44.0045629 C228.963534,49.1189565 224.289021,53.5560802 216.523873,53.5560802 C208.834045,53.5560802 204.310532,49.4953373 204.310532,38.6662102 L204.310532,31.4466722 C204.310532,26.1816545 204.310532,23.1738432 203.330654,15.7281892 L215.317675,15.7281892 L215.317675,42.5011965 C215.317675,47.7651358 216.900833,50.6981742 220.821427,50.6981742 C225.5709,50.6981742 229.265174,46.8624689 231.97921,41.5233972 L231.97921,36.7098926 L231.97921,31.4466722 C231.97921,26.1816545 231.97921,23.1738432 230.998971,15.7281892 L242.985993,15.7281892 Z" id="Fill-9" fill="#FFFFFF"></path>
            <g id="Group-13" transform="translate(248.1962, 13.2934)">
                <mask id="mask-2" fill="white">
                    <use xlink:href="#path-1"></use>
                </mask>
                <g id="Clip-12"></g>
                <path d="M17.5642912,53.6754293 C9.97284726,53.6754293 2.90251551,51.8197675 2.90251551,47.365029 C2.90251551,45.4345944 3.87014081,43.7270405 6.25154415,42.3908346 C7.74028162,42.8369555 9.30325776,43.0594768 10.8662339,43.0594768 C21.7321074,43.0594768 30.2908162,35.560619 38.2545346,35.560619 C42.2735131,35.560619 43.9849666,37.6402399 43.9849666,40.3122921 C43.9849666,48.7012349 29.3235513,53.6754293 17.5642912,53.6754293 M24.7834606,1.63314051 C30.8861671,1.63314051 34.2355561,6.68174831 34.2355561,14.9966371 C34.2355561,23.2371125 30.8861671,28.3597743 24.7834606,28.3597743 C18.6803938,28.3597743 15.4059642,23.2371125 15.4059642,14.9966371 C15.4059642,6.68174831 18.6803938,1.63314051 24.7834606,1.63314051 M43.1665394,31.848936 C33.044494,31.848936 25.3791718,38.6043787 12.7265251,38.6043787 C8.70790692,38.6043787 6.84725537,36.4521418 6.84725537,34.0018919 C6.84725537,31.4779474 8.26103341,29.5478723 12.2057733,27.320503 C15.7782387,29.0280569 20.1691313,29.9185014 24.7834606,29.9185014 C36.1704463,29.9185014 46.0690549,24.6477318 46.0690549,14.9966371 C46.0690549,9.93221198 42.2926134,4.84118494 37.2209594,2.49590459 C33.6611074,0.808841325 29.3700406,0 24.7834606,0 C13.471074,0 3.49786635,5.19743461 3.49786635,14.9966371 C3.49786635,19.7479508 5.87963007,23.4596338 9.67517184,25.9846567 C3.27478998,28.2109475 0,31.2554262 0,35.2636843 C0,38.3818575 1.93489021,40.5348134 4.54009069,41.7232709 C1.71181384,43.2079441 0,45.2864865 0,47.8852038 C0,54.5665927 9.82400955,56.6454946 18.8295919,56.6454946 C33.4167685,56.6454946 53.7347375,52.0419293 53.7347375,40.2378787 C53.7347375,34.5961206 49.2692458,31.848936 43.1665394,31.848936" id="Fill-11" fill="#FFFFFF" mask="url(#mask-2)"></path>
            </g>
            <path d="M103.416152,15.6446448 C99.5409659,15.2786891 95.8939014,16.5958422 97.0337893,19.8898036 C98.0972761,22.5974449 102.276264,24.5001992 100.072889,29.2565456 C100.072889,29.2565456 93.4317726,43.6485289 92.9095792,44.691395 C91.9387105,46.6279409 90.2726652,46.6876154 88.8891592,43.7635641 L85.5743668,36.4746456 L77.2246795,17.2267385 C77.0985458,16.7238189 76.9907916,16.2047225 76.896732,15.6446448 L62.9153573,15.6446448 C64.5868084,17.9870493 65.6506556,19.5964638 66.7905434,22.3041051 L77.7025458,44.6784536 C83.2419754,56.3876001 90.3858251,53.2633156 93.1553597,47.6215575 C94.6084193,44.6622767 102.960629,27.06153 102.960629,27.06153 C104.859842,22.8167307 104.63208,18.9378872 103.416152,15.6446448" id="Fill-14" fill="#FFFFFF"></path>
            <path d="M298.957656,12.5971105 L298.420327,12.5978295 L298.420327,12.0618373 C298.420327,10.3532049 297.031776,8.96810907 295.318881,8.9691869 C293.605986,8.97026598 292.217074,10.3567998 292.217074,12.0654321 L292.214912,18.7895997 L298.957656,18.7856453 C300.670551,18.7845669 302.059103,17.3980331 302.059103,15.6897602 C302.059103,13.9811279 300.670551,12.596032 298.957656,12.5971105" id="Fill-16" fill="#FFFFFF"></path>
        </g>
    </g>
</svg>