<?xml version="1.0" encoding="UTF-8"?>
<svg width="100px" height="20px" viewBox="0 0 100 20" version="1.1" xmlns="http://www.w3.org/2000/svg" xmlns:xlink="http://www.w3.org/1999/xlink">
    <title>Group 9</title>
    <g id="R5---Dev-Facing" stroke="none" stroke-width="1" fill="none" fill-rule="evenodd">
        <g id="Homepage---Desktop" transform="translate(-501, -7899)" fill="#FFFFFF">
            <g id="Group-9" transform="translate(501, 7899)">
                <path d="M9.53465887,15.2446443 L5.91561963,17.1472858 C5.42677504,17.4042866 4.82214789,17.2163401 4.56514708,16.7274955 C4.46280801,16.5328351 4.42749334,16.309867 4.46467018,16.0931094 L5.15584517,12.0632499 C5.21148311,11.7388559 5.10393462,11.4078557 4.86824854,11.1781185 L1.94038429,8.32415622 C1.54490071,7.93865501 1.5368084,7.30554174 1.92230962,6.91005817 C2.07581822,6.75257453 2.27696063,6.65008735 2.49459766,6.61846284 L6.54080654,6.03051428 C6.8665167,5.98318582 7.14808229,5.77861645 7.2937443,5.48347297 L9.10326392,1.81698575 C9.34768622,1.32173209 9.94731205,1.11839309 10.4425657,1.36281539 C10.6397783,1.46014562 10.7994058,1.61977315 10.8967361,1.81698575 L12.7062557,5.48347297 C12.8519177,5.77861645 13.1334833,5.98318582 13.4591935,6.03051428 L17.5054023,6.61846284 C18.0519472,6.69788046 18.4306287,7.20532331 18.351211,7.75186817 C18.3195865,7.96950521 18.2170993,8.17064762 18.0596157,8.32415622 L15.1317515,11.1781185 C14.8960654,11.4078557 14.7885169,11.7388559 14.8441548,12.0632499 L15.5353298,16.0931094 C15.6286908,16.6374458 15.263103,17.1544017 14.7187666,17.2477627 C14.5020089,17.2849396 14.2790408,17.2496249 14.0843804,17.1472858 L10.4653411,15.2446443 C10.1740171,15.0914862 9.8259829,15.0914862 9.53465887,15.2446443 Z" id="Star"></path>
                <path d="M29.5346589,15.2446443 L25.9156196,17.1472858 C25.426775,17.4042866 24.8221479,17.2163401 24.5651471,16.7274955 C24.462808,16.5328351 24.4274933,16.309867 24.4646702,16.0931094 L25.1558452,12.0632499 C25.2114831,11.7388559 25.1039346,11.4078557 24.8682485,11.1781185 L21.9403843,8.32415622 C21.5449007,7.93865501 21.5368084,7.30554174 21.9223096,6.91005817 C22.0758182,6.75257453 22.2769606,6.65008735 22.4945977,6.61846284 L26.5408065,6.03051428 C26.8665167,5.98318582 27.1480823,5.77861645 27.2937443,5.48347297 L29.1032639,1.81698575 C29.3476862,1.32173209 29.9473121,1.11839309 30.4425657,1.36281539 C30.6397783,1.46014562 30.7994058,1.61977315 30.8967361,1.81698575 L32.7062557,5.48347297 C32.8519177,5.77861645 33.1334833,5.98318582 33.4591935,6.03051428 L37.5054023,6.61846284 C38.0519472,6.69788046 38.4306287,7.20532331 38.351211,7.75186817 C38.3195865,7.96950521 38.2170993,8.17064762 38.0596157,8.32415622 L35.1317515,11.1781185 C34.8960654,11.4078557 34.7885169,11.7388559 34.8441548,12.0632499 L35.5353298,16.0931094 C35.6286908,16.6374458 35.263103,17.1544017 34.7187666,17.2477627 C34.5020089,17.2849396 34.2790408,17.2496249 34.0843804,17.1472858 L30.4653411,15.2446443 C30.1740171,15.0914862 29.8259829,15.0914862 29.5346589,15.2446443 Z" id="Star"></path>
                <path d="M49.5346589,15.2446443 L45.9156196,17.1472858 C45.426775,17.4042866 44.8221479,17.2163401 44.5651471,16.7274955 C44.462808,16.5328351 44.4274933,16.309867 44.4646702,16.0931094 L45.1558452,12.0632499 C45.2114831,11.7388559 45.1039346,11.4078557 44.8682485,11.1781185 L41.9403843,8.32415622 C41.5449007,7.93865501 41.5368084,7.30554174 41.9223096,6.91005817 C42.0758182,6.75257453 42.2769606,6.65008735 42.4945977,6.61846284 L46.5408065,6.03051428 C46.8665167,5.98318582 47.1480823,5.77861645 47.2937443,5.48347297 L49.1032639,1.81698575 C49.3476862,1.32173209 49.9473121,1.11839309 50.4425657,1.36281539 C50.6397783,1.46014562 50.7994058,1.61977315 50.8967361,1.81698575 L52.7062557,5.48347297 C52.8519177,5.77861645 53.1334833,5.98318582 53.4591935,6.03051428 L57.5054023,6.61846284 C58.0519472,6.69788046 58.4306287,7.20532331 58.351211,7.75186817 C58.3195865,7.96950521 58.2170993,8.17064762 58.0596157,8.32415622 L55.1317515,11.1781185 C54.8960654,11.4078557 54.7885169,11.7388559 54.8441548,12.0632499 L55.5353298,16.0931094 C55.6286908,16.6374458 55.263103,17.1544017 54.7187666,17.2477627 C54.5020089,17.2849396 54.2790408,17.2496249 54.0843804,17.1472858 L50.4653411,15.2446443 C50.1740171,15.0914862 49.8259829,15.0914862 49.5346589,15.2446443 Z" id="Star"></path>
                <path d="M69.5346589,15.2446443 L65.9156196,17.1472858 C65.426775,17.4042866 64.8221479,17.2163401 64.5651471,16.7274955 C64.462808,16.5328351 64.4274933,16.309867 64.4646702,16.0931094 L65.1558452,12.0632499 C65.2114831,11.7388559 65.1039346,11.4078557 64.8682485,11.1781185 L61.9403843,8.32415622 C61.5449007,7.93865501 61.5368084,7.30554174 61.9223096,6.91005817 C62.0758182,6.75257453 62.2769606,6.65008735 62.4945977,6.61846284 L66.5408065,6.03051428 C66.8665167,5.98318582 67.1480823,5.77861645 67.2937443,5.48347297 L69.1032639,1.81698575 C69.3476862,1.32173209 69.9473121,1.11839309 70.4425657,1.36281539 C70.6397783,1.46014562 70.7994058,1.61977315 70.8967361,1.81698575 L72.7062557,5.48347297 C72.8519177,5.77861645 73.1334833,5.98318582 73.4591935,6.03051428 L77.5054023,6.61846284 C78.0519472,6.69788046 78.4306287,7.20532331 78.351211,7.75186817 C78.3195865,7.96950521 78.2170993,8.17064762 78.0596157,8.32415622 L75.1317515,11.1781185 C74.8960654,11.4078557 74.7885169,11.7388559 74.8441548,12.0632499 L75.5353298,16.0931094 C75.6286908,16.6374458 75.263103,17.1544017 74.7187666,17.2477627 C74.5020089,17.2849396 74.2790408,17.2496249 74.0843804,17.1472858 L70.4653411,15.2446443 C70.1740171,15.0914862 69.8259829,15.0914862 69.5346589,15.2446443 Z" id="Star"></path>
                <path d="M89.5346589,15.2446443 L85.9156196,17.1472858 C85.426775,17.4042866 84.8221479,17.2163401 84.5651471,16.7274955 C84.462808,16.5328351 84.4274933,16.309867 84.4646702,16.0931094 L85.1558452,12.0632499 C85.2114831,11.7388559 85.1039346,11.4078557 84.8682485,11.1781185 L81.9403843,8.32415622 C81.5449007,7.93865501 81.5368084,7.30554174 81.9223096,6.91005817 C82.0758182,6.75257453 82.2769606,6.65008735 82.4945977,6.61846284 L86.5408065,6.03051428 C86.8665167,5.98318582 87.1480823,5.77861645 87.2937443,5.48347297 L89.1032639,1.81698575 C89.3476862,1.32173209 89.9473121,1.11839309 90.4425657,1.36281539 C90.6397783,1.46014562 90.7994058,1.61977315 90.8967361,1.81698575 L92.7062557,5.48347297 C92.8519177,5.77861645 93.1334833,5.98318582 93.4591935,6.03051428 L97.5054023,6.61846284 C98.0519472,6.69788046 98.4306287,7.20532331 98.351211,7.75186817 C98.3195865,7.96950521 98.2170993,8.17064762 98.0596157,8.32415622 L95.1317515,11.1781185 C94.8960654,11.4078557 94.7885169,11.7388559 94.8441548,12.0632499 L95.5353298,16.0931094 C95.6286908,16.6374458 95.263103,17.1544017 94.7187666,17.2477627 C94.5020089,17.2849396 94.2790408,17.2496249 94.0843804,17.1472858 L90.4653411,15.2446443 C90.1740171,15.0914862 89.8259829,15.0914862 89.5346589,15.2446443 Z" id="Star"></path>
            </g>
        </g>
    </g>
</svg>